<?xml version="1.0" standalone="no"?><!DOCTYPE svg PUBLIC "-//W3C//DTD SVG 1.1//EN" "http://www.w3.org/Graphics/SVG/1.1/DTD/svg11.dtd" ><svg version="1.1" xmlns="http://www.w3.org/2000/svg"><defs><font horiz-adv-x="0" id="font"><font-face ascent="750" bbox="-181 -313 1961 1171" cap-height="716" descent="-250" font-family="BigCity Grotesque Pro" font-stretch="normal" font-style="normal" font-weight="500" units-per-em="1000" x-height="500" /><missing-glyph d="M50 750H450V-250H50ZM400 -200V700H100V-200Z" horiz-adv-x="500" /><glyph glyph-name=".null" horiz-adv-x="0" /><glyph d="M394 259 296 558 203 259ZM246 719H361L596 0H475L425 157H173L123 0H10Z" glyph-name="A" horiz-adv-x="606" unicode="A" /><glyph d="M320 202 249 418 180 202ZM199 552H312L497 0H385L348 112H152L116 0H13Z" glyph-name="A.sc" horiz-adv-x="510" /><glyph d="M392 260V613H384L231 260ZM318 716H791V610H512V415H741V311H512V106H791V0H392V160H186L116 0H1Z" glyph-name="AE" horiz-adv-x="839" unicode="&#198;" /><glyph d="M328 203V460H321L205 203ZM262 550H664V456H440V324H617V234H440V94H664V0H328V115H164L110 0H4Z" glyph-name="AE.sc" horiz-adv-x="709" /><glyph d="M392 260V613H384L231 260ZM318 716H791V610H512V415H741V311H512V106H791V0H392V160H186L116 0H1ZM462 847 680 953 720 858 492 778Z" glyph-name="AEacute" horiz-adv-x="839" unicode="&#508;" /><glyph d="M398 656 575 738 610 658 425 598ZM328 203V460H321L205 203ZM262 550H664V456H440V324H617V234H440V94H664V0H328V115H164L110 0H4Z" glyph-name="AEacute.sc" horiz-adv-x="709" /><glyph d="M402 259 295 570 198 259ZM890 259 790 568 687 259ZM243 719H358L553 156L744 719H859L1094 0H973L922 157H655L602 -4H490L435 157H167L118 0H8Z" glyph-name="A_A" horiz-adv-x="1101" /><glyph d="M326 202 247 425 176 202ZM720 202 646 424 571 202ZM197 552H310L456 139L599 552H712L897 0H785L748 112H542L504 -2H394L354 112H148L112 0H11Z" glyph-name="A_A.sc" horiz-adv-x="909" /><glyph d="M402 259 295 570 198 259ZM890 259 790 568 687 259ZM243 719H358L553 156L744 719H859L1094 0H973L922 157H655L602 -4H490L435 157H167L118 0H8ZM723 847 941 953 981 858 753 778Z" glyph-name="A_Aacute" horiz-adv-x="1101" /><glyph d="M585 656 762 738 797 658 612 597ZM326 202 247 425 176 202ZM720 202 646 424 571 202ZM197 552H310L456 139L599 552H712L897 0H785L748 112H542L504 -2H394L354 112H148L112 0H11Z" glyph-name="A_Aacute.sc" horiz-adv-x="909" /><glyph d="M402 259 295 570 198 259ZM890 259 790 568 687 259ZM243 719H358L553 156L744 719H859L1094 0H973L922 157H655L602 -4H490L435 157H167L118 0H8ZM704 801Q673 801 655 820.5Q637 840 637 868Q637 897 655 916Q673 935 705 935Q737 935 755 916Q773 897 773 869Q773 840 754.5 820.5Q736 801 704 801ZM894 801Q864 801 846 820.5Q828 840 828 868Q828 897 845.5 916Q863 935 895 935Q927 935 945 916Q963 897 963 869Q963 840 944.5 820.5Q926 801 894 801Z" glyph-name="A_Adieresis" horiz-adv-x="1101" /><glyph d="M577 615Q548 615 533.5 631Q519 647 519 670Q519 693 533.5 708.5Q548 724 577 724Q606 724 621 708.5Q636 693 636 671Q636 648 620.5 631.5Q605 615 577 615ZM732 615Q704 615 689.5 631Q675 647 675 670Q675 693 689.5 708.5Q704 724 733 724Q762 724 776.5 708.5Q791 693 791 671Q791 648 776 631.5Q761 615 732 615ZM326 202 247 425 176 202ZM720 202 646 424 571 202ZM197 552H310L456 139L599 552H712L897 0H785L748 112H542L504 -2H394L354 112H148L112 0H11Z" glyph-name="A_Adieresis.sc" horiz-adv-x="909" /><glyph d="M402 259 295 570 198 259ZM890 259 790 568 687 259ZM243 719H358L553 156L744 719H859L1094 0H973L922 157H655L602 -4H490L435 157H167L118 0H8ZM620 858 661 953 878 847 849 778Z" glyph-name="A_Agrave" horiz-adv-x="1101" /><glyph d="M513 658 549 738 725 656 699 598ZM326 202 247 425 176 202ZM720 202 646 424 571 202ZM197 552H310L456 139L599 552H712L897 0H785L748 112H542L504 -2H394L354 112H148L112 0H11Z" glyph-name="A_Agrave.sc" horiz-adv-x="909" /><glyph d="M402 259 295 570 198 259ZM890 259 790 568 687 259ZM243 719H358L553 156L744 719H859L1094 0H973L922 157H655L602 -4H490L435 157H167L118 0H8ZM658 909H940V819H658Z" glyph-name="A_Amacron" horiz-adv-x="1101" /><glyph d="M540 704H768V629H540ZM326 202 247 425 176 202ZM720 202 646 424 571 202ZM197 552H310L456 139L599 552H712L897 0H785L748 112H542L504 -2H394L354 112H148L112 0H11Z" glyph-name="A_Amacron.sc" horiz-adv-x="909" /><glyph d="M402 259 295 570 198 259ZM890 259 790 568 687 259ZM1019 -225Q968 -225 938 -197Q908 -169 908 -126Q908 -89 929 -54Q950 -19 995 0H973L922 157H655L602 -4H490L435 157H167L118 0H8L243 719H358L553 156L744 719H859L1094 0Q1043 -27 1025 -55Q1007 -83 1007 -106Q1007 -149 1054 -149Q1066 -149 1077 -145Q1088 -141 1096 -136Q1104 -131 1109.5 -127Q1115 -123 1117 -122V-189Q1114 -191 1106.5 -197Q1099 -203 1086.5 -209Q1074 -215 1057 -220Q1040 -225 1019 -225Z" glyph-name="A_Aogonek" horiz-adv-x="1101" /><glyph d="M785 0 748 112H542L504 -2H394L354 112H148L112 0H11L197 552H310L456 139L599 552H712L897 0Q859 -19 844 -40Q829 -61 829 -79Q829 -112 866 -112Q885 -112 898 -103.5Q911 -95 916 -93V-147Q909 -152 888 -163Q867 -174 835 -174Q792 -174 766.5 -152Q741 -130 741 -96Q741 -66 758.5 -39.5Q776 -13 811 0ZM326 202 247 425 176 202ZM720 202 646 424 571 202Z" glyph-name="A_Aogonek.sc" horiz-adv-x="909" /><glyph d="M402 259 295 570 198 259ZM890 259 790 568 687 259ZM243 719H358L553 156L744 719H859L1094 0H973L922 157H655L602 -4H490L435 157H167L118 0H8ZM799 773Q745 773 712.5 798Q680 823 680 867Q680 909 712.5 936Q745 963 799 963Q853 963 886.5 936Q920 909 920 867Q920 823 887.5 798Q855 773 799 773ZM799 830Q820 830 834.5 840Q849 850 849 869Q849 886 834.5 895.5Q820 905 799 905Q777 905 764 895.5Q751 886 751 869Q751 850 764 840Q777 830 799 830Z" glyph-name="A_Aring" horiz-adv-x="1101" /><glyph d="M654 595Q609 595 582.5 614.5Q556 634 556 669Q556 702 582.5 723Q609 744 654 744Q699 744 726 723Q753 702 753 669Q753 634 726 614.5Q699 595 654 595ZM654 642Q670 642 681 649Q692 656 692 670Q692 683 681.5 690Q671 697 654 697Q617 697 617 670Q617 642 654 642ZM326 202 247 425 176 202ZM720 202 646 424 571 202ZM197 552H310L456 139L599 552H712L897 0H785L748 112H542L504 -2H394L354 112H148L112 0H11Z" glyph-name="A_Aring.sc" horiz-adv-x="909" /><glyph d="M402 259 295 570 198 259ZM890 259 790 568 687 259ZM243 719H358L553 156L744 719H859L1094 0H973L922 157H655L602 -4H490L435 157H167L118 0H8ZM634 804Q635 814 639.5 836Q644 858 655.5 880.5Q667 903 687 920Q707 937 740 937Q766 937 783 927Q800 917 817 906Q834 895 846 886Q858 877 872 877Q883 877 889 884Q895 891 899 900Q902 909 904 922H976Q975 912 971 890.5Q967 869 956 847.5Q945 826 925.5 809.5Q906 793 874 793Q848 793 832 802.5Q816 812 799 823Q782 834 769.5 843Q757 852 742 852Q730 852 723 844.5Q716 837 712 828Q708 817 706 804Z" glyph-name="A_Atilde" horiz-adv-x="1101" /><glyph d="M516 618Q517 629 521 647.5Q525 666 535.5 683Q546 700 563 712.5Q580 725 606 725Q627 725 641 718Q655 711 669 703Q683 694 692.5 687.5Q702 681 714 681Q722 681 727 686Q732 691 735 698Q739 705 740 714H803Q802 702 798 684.5Q794 667 784.5 650.5Q775 634 759 622Q743 610 717 610Q696 610 682.5 617Q669 624 655 632Q641 640 631 646.5Q621 653 609 653Q599 653 593 647.5Q587 642 584 636Q580 628 579 618ZM326 202 247 425 176 202ZM720 202 646 424 571 202ZM197 552H310L456 139L599 552H712L897 0H785L748 112H542L504 -2H394L354 112H148L112 0H11Z" glyph-name="A_Atilde.sc" horiz-adv-x="909" /><glyph d="M243 719H358L552 171L722 716H837L602 -4H492L435 157H170L120 0H8ZM402 259 295 564 201 259Z" glyph-name="A_V" horiz-adv-x="845" /><glyph d="M326 202 247 422 178 202ZM197 552H310L455 150L583 550H689L504 -2H395L355 112H150L114 0H11Z" glyph-name="A_V.sc" horiz-adv-x="700" /><glyph d="M392 259 293 563 197 259ZM243 719H358L539 160L674 719H773L923 179L1071 716H1177L977 -4H866L716 510L583 -4H476L424 157H167L118 0H7Z" glyph-name="A_W" horiz-adv-x="1184" /><glyph d="M318 202 245 421 174 202ZM196 552H309L447 139L549 552H642L753 152L861 550H958L805 -2H697L587 369L488 -2H384L346 112H147L111 0H10Z" glyph-name="A_W.sc" horiz-adv-x="972" /><glyph d="M394 259 296 558 203 259ZM246 719H361L596 0H475L425 157H173L123 0H10ZM226 847 444 953 484 858 256 778Z" glyph-name="Aacute" horiz-adv-x="606" unicode="&#193;" /><glyph d="M185 656 362 738 397 658 212 597ZM320 202 249 418 180 202ZM199 552H312L497 0H385L348 112H152L116 0H13Z" glyph-name="Aacute.sc" horiz-adv-x="510" /><glyph d="M402 259 295 570 198 259ZM890 259 790 568 687 259ZM243 719H358L553 156L744 719H859L1094 0H973L922 157H655L602 -4H490L435 157H167L118 0H8ZM223 847 441 953 481 858 253 778Z" glyph-name="Aacute_A" horiz-adv-x="1101" /><glyph d="M183 656 360 738 395 658 210 597ZM326 202 247 425 176 202ZM720 202 646 424 571 202ZM197 552H310L456 139L599 552H712L897 0H785L748 112H542L504 -2H394L354 112H148L112 0H11Z" glyph-name="Aacute_A.sc" horiz-adv-x="909" /><glyph d="M402 259 295 570 198 259ZM890 259 790 568 687 259ZM243 719H358L553 156L744 719H859L1094 0H973L922 157H655L602 -4H490L435 157H167L118 0H8ZM723 847 941 953 981 858 753 778ZM223 847 441 953 481 858 253 778Z" glyph-name="Aacute_Aacute" horiz-adv-x="1101" /><glyph d="M585 656 762 738 797 658 612 597ZM183 656 360 738 395 658 210 597ZM326 202 247 425 176 202ZM720 202 646 424 571 202ZM197 552H310L456 139L599 552H712L897 0H785L748 112H542L504 -2H394L354 112H148L112 0H11Z" glyph-name="Aacute_Aacute.sc" horiz-adv-x="909" /><glyph d="M243 719H358L552 171L722 716H837L602 -4H492L435 157H170L120 0H8ZM402 259 295 564 201 259ZM223 847 441 953 481 858 253 778Z" glyph-name="Aacute_V" horiz-adv-x="845" /><glyph d="M183 656 360 738 395 658 210 597ZM326 202 247 422 178 202ZM197 552H310L455 150L583 550H689L504 -2H395L355 112H150L114 0H11Z" glyph-name="Aacute_V.sc" horiz-adv-x="700" /><glyph d="M394 259 296 558 203 259ZM246 719H361L596 0H475L425 157H173L123 0H10ZM303 787Q237 787 194 826.5Q151 866 149 937H235Q235 928 238.5 916.5Q242 905 250 895Q258 885 271 878Q284 871 303 871Q322 871 335 878Q348 885 356 895Q364 905 367.5 916.5Q371 928 371 937H457Q455 866 412 826.5Q369 787 303 787Z" glyph-name="Abreve" horiz-adv-x="606" unicode="&#258;" /><glyph d="M255 606Q203 606 166.5 636Q130 666 127 723H203Q203 717 205.5 708.5Q208 700 214 692.5Q220 685 230 679.5Q240 674 255 674Q270 674 280 679.5Q290 685 296 692.5Q302 700 304.5 708.5Q307 717 307 723H383Q380 666 343.5 636Q307 606 255 606ZM320 202 249 418 180 202ZM199 552H312L497 0H385L348 112H152L116 0H13Z" glyph-name="Abreve.sc" horiz-adv-x="510" /><glyph d="M243 719H358L552 171L722 716H837L602 -4H492L435 157H170L120 0H8ZM402 259 295 564 201 259ZM300 787Q234 787 191 826.5Q148 866 146 937H232Q232 928 235.5 916.5Q239 905 247 895Q255 885 268 878Q281 871 300 871Q319 871 332 878Q345 885 353 895Q361 905 364.5 916.5Q368 928 368 937H454Q452 866 409 826.5Q366 787 300 787Z" glyph-name="Abreve_V" horiz-adv-x="845" /><glyph d="M253 606Q201 606 164 636Q127 666 125 723H200Q200 717 202.5 708.5Q205 700 211 692.5Q217 685 227.5 679.5Q238 674 253 674Q268 674 278 679.5Q288 685 294 692.5Q300 700 302.5 708.5Q305 717 305 723H381Q378 666 341.5 636Q305 606 253 606ZM326 202 247 422 178 202ZM197 552H310L455 150L583 550H689L504 -2H395L355 112H150L114 0H11Z" glyph-name="Abreve_V.sc" horiz-adv-x="700" /><glyph d="M394 259 296 558 203 259ZM246 719H361L596 0H475L425 157H173L123 0H10ZM128 830 269 951H337L478 830L441 778L303 864L165 778Z" glyph-name="Acircumflex" horiz-adv-x="606" unicode="&#194;" /><glyph d="M112 641 225 736H286L399 641L365 598L255 664L145 598ZM320 202 249 418 180 202ZM199 552H312L497 0H385L348 112H152L116 0H13Z" glyph-name="Acircumflex.sc" horiz-adv-x="510" /><glyph d="M394 259 296 558 203 259ZM246 719H361L596 0H475L425 157H173L123 0H10ZM206 801Q175 801 157 820.5Q139 840 139 868Q139 897 157 916Q175 935 207 935Q239 935 257 916Q275 897 275 869Q275 840 256.5 820.5Q238 801 206 801ZM396 801Q366 801 348 820.5Q330 840 330 868Q330 897 347.5 916Q365 935 397 935Q429 935 447 916Q465 897 465 869Q465 840 446.5 820.5Q428 801 396 801Z" glyph-name="Adieresis" horiz-adv-x="606" unicode="&#196;" /><glyph d="M177 615Q148 615 133 631Q118 647 118 670Q118 693 133 708.5Q148 724 177 724Q206 724 221 708.5Q236 693 236 671Q236 648 220.5 631.5Q205 615 177 615ZM332 615Q304 615 289.5 631Q275 647 275 670Q275 693 289.5 708.5Q304 724 332 724Q361 724 376 708.5Q391 693 391 671Q391 648 376 631.5Q361 615 332 615ZM320 202 249 418 180 202ZM199 552H312L497 0H385L348 112H152L116 0H13Z" glyph-name="Adieresis.sc" horiz-adv-x="510" /><glyph d="M402 259 295 570 198 259ZM890 259 790 568 687 259ZM243 719H358L553 156L744 719H859L1094 0H973L922 157H655L602 -4H490L435 157H167L118 0H8ZM204 801Q173 801 155 820.5Q137 840 137 868Q137 897 155 916Q173 935 205 935Q237 935 255 916Q273 897 273 869Q273 840 254.5 820.5Q236 801 204 801ZM394 801Q364 801 346 820.5Q328 840 328 868Q328 897 345.5 916Q363 935 395 935Q427 935 445 916Q463 897 463 869Q463 840 444.5 820.5Q426 801 394 801Z" glyph-name="Adieresis_A" horiz-adv-x="1101" /><glyph d="M175 615Q146 615 131 631Q116 647 116 670Q116 693 131 708.5Q146 724 175 724Q204 724 219 708.5Q234 693 234 671Q234 648 218.5 631.5Q203 615 175 615ZM330 615Q302 615 287.5 631Q273 647 273 670Q273 693 287.5 708.5Q302 724 330 724Q359 724 374 708.5Q389 693 389 671Q389 648 374 631.5Q359 615 330 615ZM326 202 247 425 176 202ZM720 202 646 424 571 202ZM197 552H310L456 139L599 552H712L897 0H785L748 112H542L504 -2H394L354 112H148L112 0H11Z" glyph-name="Adieresis_A.sc" horiz-adv-x="909" /><glyph d="M402 259 295 570 198 259ZM890 259 790 568 687 259ZM243 719H358L553 156L744 719H859L1094 0H973L922 157H655L602 -4H490L435 157H167L118 0H8ZM704 801Q673 801 655 820.5Q637 840 637 868Q637 897 655 916Q673 935 705 935Q737 935 755 916Q773 897 773 869Q773 840 754.5 820.5Q736 801 704 801ZM894 801Q864 801 846 820.5Q828 840 828 868Q828 897 845.5 916Q863 935 895 935Q927 935 945 916Q963 897 963 869Q963 840 944.5 820.5Q926 801 894 801ZM204 801Q173 801 155 820.5Q137 840 137 868Q137 897 155 916Q173 935 205 935Q237 935 255 916Q273 897 273 869Q273 840 254.5 820.5Q236 801 204 801ZM394 801Q364 801 346 820.5Q328 840 328 868Q328 897 345.5 916Q363 935 395 935Q427 935 445 916Q463 897 463 869Q463 840 444.5 820.5Q426 801 394 801Z" glyph-name="Adieresis_Adieresis" horiz-adv-x="1101" /><glyph d="M577 615Q548 615 533.5 631Q519 647 519 670Q519 693 533.5 708.5Q548 724 577 724Q606 724 621 708.5Q636 693 636 671Q636 648 620.5 631.5Q605 615 577 615ZM732 615Q704 615 689.5 631Q675 647 675 670Q675 693 689.5 708.5Q704 724 733 724Q762 724 776.5 708.5Q791 693 791 671Q791 648 776 631.5Q761 615 732 615ZM175 615Q146 615 131 631Q116 647 116 670Q116 693 131 708.5Q146 724 175 724Q204 724 219 708.5Q234 693 234 671Q234 648 218.5 631.5Q203 615 175 615ZM330 615Q302 615 287.5 631Q273 647 273 670Q273 693 287.5 708.5Q302 724 330 724Q359 724 374 708.5Q389 693 389 671Q389 648 374 631.5Q359 615 330 615ZM326 202 247 425 176 202ZM720 202 646 424 571 202ZM197 552H310L456 139L599 552H712L897 0H785L748 112H542L504 -2H394L354 112H148L112 0H11Z" glyph-name="Adieresis_Adieresis.sc" horiz-adv-x="909" /><glyph d="M243 719H358L552 171L722 716H837L602 -4H492L435 157H170L120 0H8ZM402 259 295 564 201 259ZM204 801Q173 801 155 820.5Q137 840 137 868Q137 897 155 916Q173 935 205 935Q237 935 255 916Q273 897 273 869Q273 840 254.5 820.5Q236 801 204 801ZM394 801Q364 801 346 820.5Q328 840 328 868Q328 897 345.5 916Q363 935 395 935Q427 935 445 916Q463 897 463 869Q463 840 444.5 820.5Q426 801 394 801Z" glyph-name="Adieresis_V" horiz-adv-x="845" /><glyph d="M175 615Q146 615 131 631Q116 647 116 670Q116 693 131 708.5Q146 724 175 724Q204 724 219 708.5Q234 693 234 671Q234 648 218.5 631.5Q203 615 175 615ZM330 615Q302 615 287.5 631Q273 647 273 670Q273 693 287.5 708.5Q302 724 330 724Q359 724 374 708.5Q389 693 389 671Q389 648 374 631.5Q359 615 330 615ZM326 202 247 422 178 202ZM197 552H310L455 150L583 550H689L504 -2H395L355 112H150L114 0H11Z" glyph-name="Adieresis_V.sc" horiz-adv-x="700" /><glyph d="M394 259 296 558 203 259ZM246 719H361L596 0H475L425 157H173L123 0H10ZM122 858 163 953 380 847 351 778Z" glyph-name="Agrave" horiz-adv-x="606" unicode="&#192;" /><glyph d="M113 658 149 738 325 656 299 598ZM320 202 249 418 180 202ZM199 552H312L497 0H385L348 112H152L116 0H13Z" glyph-name="Agrave.sc" horiz-adv-x="510" /><glyph d="M402 259 295 570 198 259ZM890 259 790 568 687 259ZM243 719H358L553 156L744 719H859L1094 0H973L922 157H655L602 -4H490L435 157H167L118 0H8ZM620 858 661 953 878 847 849 778ZM120 858 161 953 378 847 349 778Z" glyph-name="Agrave_Agrave" horiz-adv-x="1101" /><glyph d="M513 658 549 738 725 656 699 598ZM111 658 147 738 323 656 297 598ZM326 202 247 425 176 202ZM720 202 646 424 571 202ZM197 552H310L456 139L599 552H712L897 0H785L748 112H542L504 -2H394L354 112H148L112 0H11Z" glyph-name="Agrave_Agrave.sc" horiz-adv-x="909" /><glyph d="M243 719H358L552 171L722 716H837L602 -4H492L435 157H170L120 0H8ZM402 259 295 564 201 259ZM120 858 161 953 378 847 349 778Z" glyph-name="Agrave_V" horiz-adv-x="845" /><glyph d="M111 658 147 738 323 656 297 598ZM326 202 247 422 178 202ZM197 552H310L455 150L583 550H689L504 -2H395L355 112H150L114 0H11Z" glyph-name="Agrave_V.sc" horiz-adv-x="700" /><glyph d="M394 259 296 558 203 259ZM246 719H361L596 0H475L425 157H173L123 0H10ZM160 909H442V819H160Z" glyph-name="Amacron" horiz-adv-x="606" unicode="&#256;" /><glyph d="M141 704H368V629H141ZM320 202 249 418 180 202ZM199 552H312L497 0H385L348 112H152L116 0H13Z" glyph-name="Amacron.sc" horiz-adv-x="510" /><glyph d="M402 259 295 570 198 259ZM890 259 790 568 687 259ZM243 719H358L553 156L744 719H859L1094 0H973L922 157H655L602 -4H490L435 157H167L118 0H8ZM158 909H440V819H158Z" glyph-name="Amacron_A" horiz-adv-x="1101" /><glyph d="M138 704H366V629H138ZM326 202 247 425 176 202ZM720 202 646 424 571 202ZM197 552H310L456 139L599 552H712L897 0H785L748 112H542L504 -2H394L354 112H148L112 0H11Z" glyph-name="Amacron_A.sc" horiz-adv-x="909" /><glyph d="M243 719H358L552 171L722 716H837L602 -4H492L435 157H170L120 0H8ZM402 259 295 564 201 259ZM158 909H440V819H158Z" glyph-name="Amacron_V" horiz-adv-x="845" /><glyph d="M138 704H366V629H138ZM326 202 247 422 178 202ZM197 552H310L455 150L583 550H689L504 -2H395L355 112H150L114 0H11Z" glyph-name="Amacron_V.sc" horiz-adv-x="700" /><glyph d="M394 259 296 558 203 259ZM596 0Q545 -27 527 -55Q509 -83 509 -106Q509 -149 556 -149Q568 -149 579 -145Q590 -141 598 -136Q606 -131 611.5 -127Q617 -123 619 -122V-189Q616 -191 608.5 -197Q601 -203 589 -209Q577 -215 560 -220Q543 -225 521 -225Q470 -225 440 -197Q410 -169 410 -126Q410 -89 431 -54Q452 -19 497 0H475L425 157H173L123 0H10L246 719H361Z" glyph-name="Aogonek" horiz-adv-x="606" unicode="&#260;" /><glyph d="M385 0 348 112H152L116 0H13L199 552H312L497 0Q459 -19 444 -40Q429 -61 429 -79Q429 -112 466 -112Q485 -112 498 -103.5Q511 -95 516 -93V-147Q509 -152 488 -163Q467 -174 435 -174Q392 -174 366.5 -152Q341 -130 341 -96Q341 -66 359 -39.5Q377 -13 412 0ZM320 202 249 418 180 202Z" glyph-name="Aogonek.sc" horiz-adv-x="510" /><glyph d="M394 259 296 558 203 259ZM246 719H361L596 0H475L425 157H173L123 0H10ZM301 773Q247 773 214.5 798Q182 823 182 867Q182 909 214.5 936Q247 963 301 963Q355 963 388.5 936Q422 909 422 867Q422 823 389.5 798Q357 773 301 773ZM301 830Q322 830 336.5 840Q351 850 351 869Q351 886 336.5 895.5Q322 905 301 905Q279 905 266 895.5Q253 886 253 869Q253 850 266 840Q279 830 301 830Z" glyph-name="Aring" horiz-adv-x="606" unicode="&#197;" /><glyph d="M254 595Q209 595 182.5 614.5Q156 634 156 669Q156 702 182.5 723Q209 744 254 744Q299 744 325.5 723Q352 702 352 669Q352 634 325.5 614.5Q299 595 254 595ZM254 642Q271 642 282 649Q293 656 293 670Q293 683 282 690Q271 697 254 697Q217 697 217 670Q217 642 254 642ZM320 202 249 418 180 202ZM199 552H312L497 0H385L348 112H152L116 0H13Z" glyph-name="Aring.sc" horiz-adv-x="510" /><glyph d="M402 259 295 570 198 259ZM890 259 790 568 687 259ZM243 719H358L553 156L744 719H859L1094 0H973L922 157H655L602 -4H490L435 157H167L118 0H8ZM298 773Q244 773 211.5 798Q179 823 179 867Q179 909 211.5 936Q244 963 298 963Q352 963 385.5 936Q419 909 419 867Q419 823 386.5 798Q354 773 298 773ZM298 830Q319 830 333.5 840Q348 850 348 869Q348 886 333.5 895.5Q319 905 298 905Q276 905 263 895.5Q250 886 250 869Q250 850 263 840Q276 830 298 830Z" glyph-name="Aring_A" horiz-adv-x="1101" /><glyph d="M252 595Q207 595 180.5 614.5Q154 634 154 669Q154 702 180.5 723Q207 744 252 744Q297 744 323.5 723Q350 702 350 669Q350 634 323.5 614.5Q297 595 252 595ZM252 642Q269 642 279.5 649Q290 656 290 670Q290 683 279.5 690Q269 697 252 697Q215 697 215 670Q215 642 252 642ZM326 202 247 425 176 202ZM720 202 646 424 571 202ZM197 552H310L456 139L599 552H712L897 0H785L748 112H542L504 -2H394L354 112H148L112 0H11Z" glyph-name="Aring_A.sc" horiz-adv-x="909" /><glyph d="M402 259 295 570 198 259ZM890 259 790 568 687 259ZM243 719H358L553 156L744 719H859L1094 0H973L922 157H655L602 -4H490L435 157H167L118 0H8ZM799 773Q745 773 712.5 798Q680 823 680 867Q680 909 712.5 936Q745 963 799 963Q853 963 886.5 936Q920 909 920 867Q920 823 887.5 798Q855 773 799 773ZM799 830Q820 830 834.5 840Q849 850 849 869Q849 886 834.5 895.5Q820 905 799 905Q777 905 764 895.5Q751 886 751 869Q751 850 764 840Q777 830 799 830ZM298 773Q244 773 211.5 798Q179 823 179 867Q179 909 211.5 936Q244 963 298 963Q352 963 385.5 936Q419 909 419 867Q419 823 386.5 798Q354 773 298 773ZM298 830Q319 830 333.5 840Q348 850 348 869Q348 886 333.5 895.5Q319 905 298 905Q276 905 263 895.5Q250 886 250 869Q250 850 263 840Q276 830 298 830Z" glyph-name="Aring_Aring" horiz-adv-x="1101" /><glyph d="M654 595Q609 595 582.5 614.5Q556 634 556 669Q556 702 582.5 723Q609 744 654 744Q699 744 726 723Q753 702 753 669Q753 634 726 614.5Q699 595 654 595ZM252 595Q207 595 180.5 614.5Q154 634 154 669Q154 702 180.5 723Q207 744 252 744Q297 744 323.5 723Q350 702 350 669Q350 634 323.5 614.5Q297 595 252 595ZM654 642Q670 642 681 649Q692 656 692 670Q692 683 681.5 690Q671 697 654 697Q617 697 617 670Q617 642 654 642ZM252 642Q269 642 279.5 649Q290 656 290 670Q290 683 279.5 690Q269 697 252 697Q215 697 215 670Q215 642 252 642ZM326 202 247 425 176 202ZM720 202 646 424 571 202ZM197 552H310L456 139L599 552H712L897 0H785L748 112H542L504 -2H394L354 112H148L112 0H11Z" glyph-name="Aring_Aring.sc" horiz-adv-x="909" /><glyph d="M243 719H358L552 171L722 716H837L602 -4H492L435 157H170L120 0H8ZM402 259 295 564 201 259ZM298 773Q244 773 211.5 798Q179 823 179 867Q179 909 211.5 936Q244 963 298 963Q352 963 385.5 936Q419 909 419 867Q419 823 386.5 798Q354 773 298 773ZM298 830Q319 830 333.5 840Q348 850 348 869Q348 886 333.5 895.5Q319 905 298 905Q276 905 263 895.5Q250 886 250 869Q250 850 263 840Q276 830 298 830Z" glyph-name="Aring_V" horiz-adv-x="845" /><glyph d="M252 595Q207 595 180.5 614.5Q154 634 154 669Q154 702 180.5 723Q207 744 252 744Q297 744 323.5 723Q350 702 350 669Q350 634 323.5 614.5Q297 595 252 595ZM252 642Q269 642 279.5 649Q290 656 290 670Q290 683 279.5 690Q269 697 252 697Q215 697 215 670Q215 642 252 642ZM326 202 247 422 178 202ZM197 552H310L455 150L583 550H689L504 -2H395L355 112H150L114 0H11Z" glyph-name="Aring_V.sc" horiz-adv-x="700" /><glyph d="M238 1066 457 1171 496 1077 267 999ZM394 259 296 558 203 259ZM246 719H361L596 0H475L425 157H173L123 0H10ZM301 773Q247 773 214.5 798Q182 823 182 867Q182 909 214.5 936Q247 963 301 963Q355 963 388.5 936Q422 909 422 867Q422 823 389.5 798Q357 773 301 773ZM301 830Q322 830 336.5 840Q351 850 351 869Q351 886 336.5 895.5Q322 905 301 905Q279 905 266 895.5Q253 886 253 869Q253 850 266 840Q279 830 301 830Z" glyph-name="Aringacute" horiz-adv-x="606" unicode="&#506;" /><glyph d="M197 826 375 907 407 829 221 770ZM254 595Q209 595 182.5 614.5Q156 634 156 669Q156 702 182.5 723Q209 744 254 744Q299 744 325.5 723Q352 702 352 669Q352 634 325.5 614.5Q299 595 254 595ZM254 642Q271 642 282 649Q293 656 293 670Q293 683 282 690Q271 697 254 697Q217 697 217 670Q217 642 254 642ZM320 202 249 418 180 202ZM199 552H312L497 0H385L348 112H152L116 0H13Z" glyph-name="Aringacute.sc" horiz-adv-x="510" /><glyph d="M394 259 296 558 203 259ZM246 719H361L596 0H475L425 157H173L123 0H10ZM136 804Q137 814 141.5 836Q146 858 157.5 880.5Q169 903 189 920Q209 937 242 937Q268 937 285 927Q302 917 319 906Q336 895 348 886Q360 877 374 877Q385 877 391 884Q397 891 401 900Q404 909 406 922H478Q477 912 473 890.5Q469 869 458 847.5Q447 826 427.5 809.5Q408 793 376 793Q350 793 334 802.5Q318 812 301 823Q284 834 271.5 843Q259 852 244 852Q232 852 225 844.5Q218 837 214 828Q210 817 208 804Z" glyph-name="Atilde" horiz-adv-x="606" unicode="&#195;" /><glyph d="M116 618Q117 629 121 647.5Q125 666 135.5 683Q146 700 163 712.5Q180 725 206 725Q227 725 240.5 718Q254 711 269 703Q283 694 292.5 687.5Q302 681 314 681Q322 681 327 686Q332 691 335 698Q339 705 340 714H403Q402 702 397.5 684.5Q393 667 384 650.5Q375 634 359 622Q343 610 317 610Q296 610 282.5 617Q269 624 255 632Q241 640 231 646.5Q221 653 208 653Q199 653 193 647.5Q187 642 184 636Q180 628 179 618ZM320 202 249 418 180 202ZM199 552H312L497 0H385L348 112H152L116 0H13Z" glyph-name="Atilde.sc" horiz-adv-x="510" /><glyph d="M82 716H281Q410 716 468.5 665Q527 614 527 528Q527 476 503 437.5Q479 399 437 377Q500 358 529.5 312Q559 266 559 209Q559 156 541 117Q523 78 489 52Q455 26 407.5 13Q360 0 301 0H82ZM291 417Q352 417 380 444.5Q408 472 408 523Q408 571 375.5 594.5Q343 618 283 618H200V417ZM302 98Q368 98 402 127Q436 156 436 210Q436 264 405.5 292Q375 320 305 320H200V98Z" glyph-name="B" horiz-adv-x="601" unicode="B" /><glyph d="M71 550H240Q347 550 395.5 510.5Q444 471 444 404Q444 364 424 334.5Q404 305 372 288Q420 274 445 240.5Q470 207 470 162Q470 81 412 40.5Q354 0 255 0H71ZM249 323Q293 323 314 343Q335 363 335 398Q335 432 311 448.5Q287 465 243 465H181V323ZM257 85Q305 85 330 105.5Q355 126 355 164Q355 202 332.5 221Q310 240 258 240H181V85Z" glyph-name="B.sc" horiz-adv-x="509" /><glyph d="M360 -11Q288 -11 230 11Q172 33 131.5 77.5Q91 122 69 188Q47 254 47 341Q47 427 66.5 498Q86 569 125 620Q164 671 223 699Q282 727 362 727Q402 727 430 723Q458 719 477 714Q499 708 513 701V596Q497 604 476 610Q456 615 430 619Q404 623 370 623Q316 623 278.5 602.5Q241 582 217.5 545Q194 508 183.5 456.5Q173 405 173 343Q173 93 369 93Q405 93 432.5 98Q460 103 478 109Q500 116 515 125V20Q500 11 477 5Q457 -2 428.5 -6.5Q400 -11 360 -11Z" glyph-name="C" horiz-adv-x="556" unicode="C" /><glyph d="M301 -9Q244 -9 196.5 8Q149 25 114.5 58.5Q80 92 61 143.5Q42 195 42 264Q42 329 58.5 383.5Q75 438 107.5 477Q140 516 189 537.5Q238 559 302 559Q333 559 355.5 556Q378 553 393 549Q410 545 422 539V446Q409 452 393 457Q378 461 358 464Q338 467 312 467Q271 467 242 452Q213 437 194.5 410.5Q176 384 167.5 347Q159 310 159 266Q159 176 196 130Q233 84 311 84Q338 84 359 87.5Q380 91 395 96Q411 101 424 107V14Q412 8 394 3Q377 -2 354.5 -5.5Q332 -9 301 -9Z" glyph-name="C.sc" horiz-adv-x="463" /><glyph d="M359 -11Q287 -11 229 11Q171 33 130.5 76.5Q90 120 68 185Q46 250 46 336Q46 418 68.5 487.5Q91 557 136.5 607Q182 657 252 685.5Q322 714 416 714H984V606H789V-2H669V606H428Q361 606 312.5 586.5Q264 567 233 531Q202 495 187 445Q172 395 172 334Q172 216 220.5 154.5Q269 93 369 93Q405 93 432 98Q459 103 477 109Q499 116 514 125V20Q499 11 477 5Q456 -2 427.5 -6.5Q399 -11 359 -11Z" glyph-name="C_T" horiz-adv-x="998" /><glyph d="M301 -9Q244 -9 196.5 7.5Q149 24 115 58Q81 92 62 142.5Q43 193 43 262Q43 325 61.5 377.5Q80 430 117.5 468Q155 506 212 527.5Q269 549 346 549H809V452H656V-1H545V452H355Q253 452 206.5 399Q160 346 160 258Q160 174 197.5 129Q235 84 311 84Q338 84 359 87.5Q380 91 395 96Q411 101 424 107V14Q412 8 394 3Q378 -2 355.5 -5.5Q333 -9 301 -9Z" glyph-name="C_T.sc" horiz-adv-x="826" /><glyph d="M359 -9Q287 -9 229 13Q171 35 130.5 78.5Q90 122 68 187Q46 252 46 338Q46 420 68.5 489.5Q91 559 136.5 609Q182 659 252 687.5Q322 716 416 716H984V608H789V0H669V608H428Q361 608 312.5 588.5Q264 569 233 533Q202 497 187 447Q172 397 172 336Q172 218 220.5 156.5Q269 95 369 95Q405 95 432 100Q459 105 477 111Q499 118 514 127V22Q499 13 477 7Q456 0 427.5 -4.5Q399 -9 359 -9ZM554 899 591 951 729 865 866 951 904 899 762 778H694Z" glyph-name="C_Tcaron" horiz-adv-x="997" /><glyph d="M458 692 490 736 601 670 711 736 745 692 630 598H570ZM301 -8Q244 -8 196.5 8.5Q149 25 115 59Q81 93 62 143.5Q43 194 43 263Q43 326 61.5 378.5Q80 431 117.5 469.5Q155 508 212 529Q269 550 346 550H809V455H656V0H545V455H355Q253 455 206.5 401Q160 347 160 259Q160 175 197.5 130Q235 85 311 85Q338 85 359 88.5Q380 92 395 97Q411 102 424 108V16Q412 9 394 4Q378 -1 355.5 -4.5Q333 -8 301 -8Z" glyph-name="C_Tcaron.sc" horiz-adv-x="825" /><glyph d="M359 -9Q287 -9 229 13Q171 35 130.5 78.5Q90 122 68 187Q46 252 46 338Q46 420 68.5 489.5Q91 559 136.5 609Q182 659 252 687.5Q322 716 416 716H984V608H789V0H669V608H428Q361 608 312.5 588.5Q264 569 233 533Q202 497 187 447Q172 397 172 336Q172 218 220.5 156.5Q269 95 369 95Q405 95 432 100Q459 105 477 111Q499 118 514 127V22Q499 13 477 7Q456 0 427.5 -4.5Q399 -9 359 -9ZM680 -291 717 -205Q656 -194 656 -136Q656 -108 674.5 -86.5Q693 -65 728 -65Q762 -65 780 -86.5Q798 -108 798 -140Q798 -175 779.5 -218.5Q761 -262 733 -313Z" glyph-name="C_Tcommaaccent" horiz-adv-x="997" /><glyph d="M301 -8Q244 -8 196.5 8.5Q149 25 115 59Q81 93 62 143.5Q43 194 43 263Q43 326 61.5 378.5Q80 431 117.5 469.5Q155 508 212 529Q269 550 346 550H809V455H656V0H545V455H355Q253 455 206.5 401Q160 347 160 259Q160 175 197.5 130Q235 85 311 85Q338 85 359 88.5Q380 92 395 97Q411 102 424 108V16Q412 9 394 4Q378 -1 355.5 -4.5Q333 -8 301 -8ZM560 -246 590 -178Q537 -169 537 -121Q537 -98 554 -80Q571 -62 600 -62Q630 -62 646 -80Q662 -98 662 -125Q662 -153 645.5 -188Q629 -223 606 -263Z" glyph-name="C_Tcommaaccent.sc" horiz-adv-x="825" /><glyph d="M359 -11Q287 -11 229 11Q171 33 130.5 77Q90 121 68 187Q46 253 46 340Q46 422 68.5 491Q91 560 136.5 610Q182 660 252 688Q322 716 416 716H622L800 167L972 716H1087L852 -4H737L536 608H428Q361 608 312.5 588.5Q264 569 233 533.5Q202 498 187 448Q172 398 172 337Q172 216 220.5 154.5Q269 93 369 93Q405 93 432 98Q459 103 477 109Q499 116 514 125V20Q499 11 477 5Q456 -2 427.5 -6.5Q399 -11 359 -11Z" glyph-name="C_V" horiz-adv-x="1094" /><glyph d="M301 -9Q244 -9 196.5 7.5Q149 24 115 58Q81 92 62 143Q43 194 43 263Q43 326 61.5 378.5Q80 431 117.5 469.5Q155 508 212 529Q269 550 346 550H524L660 143L790 550H896L711 -2H598L443 455H355Q253 455 206.5 401.5Q160 348 160 260Q160 175 197.5 129.5Q235 84 311 84Q338 84 359 87.5Q380 91 395 96Q411 101 424 107V14Q412 8 394 3Q378 -2 355.5 -5.5Q333 -9 301 -9Z" glyph-name="C_V.sc" horiz-adv-x="906" /><glyph d="M359 -11Q287 -11 229 11.5Q171 34 130.5 77.5Q90 121 68 186.5Q46 252 46 337Q46 419 68 488.5Q90 558 135 608.5Q180 659 248 687.5Q316 716 408 716H660L786 183L914 719H1013L1141 185L1267 716H1373L1197 -4H1081L955 509L826 -4H711L565 608H427Q359 608 310.5 588.5Q262 569 231.5 533.5Q201 498 186.5 448Q172 398 172 337Q172 217 220 155Q268 93 369 93Q405 93 432 98Q459 103 477 109Q499 116 514 125V20Q499 11 477 5Q456 -2 427.5 -6.5Q399 -11 359 -11Z" glyph-name="C_W" horiz-adv-x="1383" /><glyph d="M301 -9Q243 -9 195.5 8Q148 25 114 59Q80 93 61 143.5Q42 194 42 261Q42 323 60 376Q78 429 115 467.5Q152 506 207 528Q262 550 337 550H555L649 155L746 552H839L937 155L1030 550H1127L990 -2H879L784 369L686 -2H576L466 455H353Q302 455 265 441Q228 427 204.5 401Q181 375 170 339.5Q159 304 159 260Q159 175 196 129.5Q233 84 311 84Q338 84 359 87.5Q380 91 395 96Q411 101 424 107V14Q412 8 394 3Q377 -2 354.5 -5.5Q332 -9 301 -9Z" glyph-name="C_W.sc" horiz-adv-x="1142" /><glyph d="M359 -11Q287 -11 229 11.5Q171 34 130.5 77.5Q90 121 68 186.5Q46 252 46 337Q46 419 68 488.5Q90 558 135 608.5Q180 659 248 687.5Q316 716 408 716H707L857 456L1005 716H1123L922 364L1131 0H1003L849 267L693 0H575L784 360L638 611H427Q359 611 310.5 591.5Q262 572 231.5 536Q201 500 186.5 450Q172 400 172 338Q172 218 220 155.5Q268 93 369 93Q405 93 432 98Q459 103 477 109Q499 116 514 125V20Q499 11 477 5Q456 -2 427.5 -6.5Q399 -11 359 -11Z" glyph-name="C_X" horiz-adv-x="1142" /><glyph d="M301 -9Q243 -9 195.5 8Q148 25 114 59Q80 93 61 143.5Q42 194 42 261Q42 323 60 376Q78 429 115 467.5Q152 506 207 528Q262 550 337 550H594L706 362L816 550H925L764 281L930 0H811L696 193L579 0H471L637 275L528 457H353Q302 457 265 443Q228 429 204.5 403Q181 377 170 341Q159 305 159 261Q159 176 196 130Q233 84 311 84Q338 84 359 87.5Q380 91 395 96Q411 101 424 107V14Q412 8 394 3Q377 -2 354.5 -5.5Q332 -9 301 -9Z" glyph-name="C_X.sc" horiz-adv-x="945" /><glyph d="M359 -11Q287 -11 229 11Q171 33 130.5 77Q90 121 68 186Q46 251 46 338Q46 419 68 488.5Q90 558 136 608.5Q182 659 251.5 687.5Q321 716 415 716H583L751 401L919 716H1033L806 290V0H686V290L513 611H429Q361 611 312.5 591.5Q264 572 232.5 536Q201 500 186.5 450Q172 400 172 339Q172 218 220.5 155.5Q269 93 369 93Q405 93 432 98Q459 103 477 109Q499 116 514 125V20Q499 11 477 5Q456 -2 427.5 -6.5Q399 -11 359 -11Z" glyph-name="C_Y" horiz-adv-x="1040" /><glyph d="M301 -9Q244 -9 196.5 7.5Q149 24 114.5 58Q80 92 61 143Q42 194 42 263Q42 325 60.5 377.5Q79 430 116.5 468.5Q154 507 210.5 528.5Q267 550 344 550H490L617 319L743 550H847L668 223V0H556V223L424 457H356Q253 457 206 404Q159 351 159 262Q159 175 196.5 129.5Q234 84 311 84Q338 84 359 87.5Q380 91 395 96Q411 101 424 107V14Q412 8 394 3Q377 -2 354.5 -5.5Q332 -9 301 -9Z" glyph-name="C_Y.sc" horiz-adv-x="856" /><glyph d="M359 -11Q287 -11 229 11Q171 33 130.5 77Q90 121 68 186Q46 251 46 338Q46 419 68.5 488Q91 557 137 607.5Q183 658 254 687Q325 716 422 716H1067V611L747 105H1067V0H615V105L939 611H429Q363 611 314.5 591Q266 571 234.5 535Q203 499 187.5 449Q172 399 172 339Q172 218 220.5 155.5Q269 93 369 93Q405 93 432 98Q459 103 477 109Q499 116 514 125V20Q499 11 477 5Q456 -2 427.5 -6.5Q399 -11 359 -11Z" glyph-name="C_Z" horiz-adv-x="1109" /><glyph d="M301 -9Q244 -9 196.5 7.5Q149 24 114.5 58Q80 92 61 143Q42 194 42 263Q42 324 60.5 376.5Q79 429 117 467.5Q155 506 212.5 528Q270 550 349 550H876V457L624 93H876V0H503V93L756 457H356Q255 457 207 403Q159 349 159 262Q159 175 196.5 129.5Q234 84 311 84Q338 84 359 87.5Q380 91 395 96Q411 101 424 107V14Q412 8 394 3Q377 -2 354.5 -5.5Q332 -9 301 -9Z" glyph-name="C_Z.sc" horiz-adv-x="917" /><glyph d="M667 899 704 951 842 865 979 951 1017 899 875 778H807ZM359 -11Q287 -11 229 11Q171 33 130.5 77Q90 121 68 186Q46 251 46 338Q46 419 68.5 488Q91 557 137 607.5Q183 658 254 687Q325 716 422 716H1067V611L747 105H1067V0H615V105L939 611H429Q363 611 314.5 591Q266 571 234.5 535Q203 499 187.5 449Q172 399 172 339Q172 218 220.5 155.5Q269 93 369 93Q405 93 432 98Q459 103 477 109Q499 116 514 125V20Q499 11 477 5Q456 -2 427.5 -6.5Q399 -11 359 -11Z" glyph-name="C_Zcaron" horiz-adv-x="1109" /><glyph d="M548 692 581 736 692 670 802 736 835 692 721 598H661ZM301 -9Q244 -9 196.5 7.5Q149 24 114.5 58Q80 92 61 143Q42 194 42 263Q42 324 60.5 376.5Q79 429 117 467.5Q155 506 212.5 528Q270 550 349 550H876V457L624 93H876V0H503V93L756 457H356Q255 457 207 403Q159 349 159 262Q159 175 196.5 129.5Q234 84 311 84Q338 84 359 87.5Q380 91 395 96Q411 101 424 107V14Q412 8 394 3Q377 -2 354.5 -5.5Q332 -9 301 -9Z" glyph-name="C_Zcaron.sc" horiz-adv-x="917" /><glyph d="M862 -9Q820 -9 789.5 5Q759 19 727 47L711 0H621V677H558Q513 677 513 636V596Q497 604 476 610Q456 615 430 619Q404 623 370 623Q316 623 278.5 602.5Q241 582 217.5 545Q194 508 183.5 456.5Q173 405 173 343Q173 93 369 93Q405 93 432.5 98Q460 103 478 109Q500 116 515 125V20Q500 11 477 5Q457 -2 428.5 -6.5Q400 -11 360 -11Q288 -11 230 11Q172 33 131.5 77.5Q91 122 69 188Q47 254 47 341Q47 427 66.5 498Q86 569 125 620Q164 671 223 699Q282 727 362 727Q388 727 409.5 725.5Q431 724 447 720Q468 766 531 766H739V453Q752 471 771 486Q789 499 814.5 508.5Q840 518 877 518Q931 518 970 498Q1009 478 1033.5 443.5Q1058 409 1070 363Q1082 317 1082 265Q1082 202 1067 151.5Q1052 101 1023.5 65.5Q995 30 954 10.5Q913 -9 862 -9ZM834 87Q900 87 929.5 134.5Q959 182 959 261Q959 335 930.5 376.5Q902 418 839 418Q814 418 795 409.5Q776 401 764 392Q749 380 739 365V118Q750 109 765 103Q778 96 795 91.5Q812 87 834 87Z" glyph-name="C_b" horiz-adv-x="1124" /><glyph d="M515 20Q500 11 477 5Q457 -2 428.5 -6.5Q400 -11 360 -11Q288 -11 230 11Q172 33 131.5 77.5Q91 122 69 188Q47 254 47 341Q47 427 66.5 498Q86 569 125 620Q164 671 223 699Q282 727 362 727Q388 727 409.5 725.5Q431 724 447 720Q468 766 531 766H738V451Q753 470 776 485Q796 498 824 508Q852 518 891 518Q938 518 971 502.5Q1004 487 1024.5 459Q1045 431 1054.5 393Q1064 355 1064 310V0H946V304Q946 417 846 417Q820 417 800 409.5Q780 402 766 394Q750 383 738 370V0H620V677H559Q513 677 513 636V596Q497 604 476 610Q456 615 430 619Q404 623 370 623Q316 623 278.5 602.5Q241 582 217.5 545Q194 508 183.5 456.5Q173 405 173 343Q173 93 369 93Q405 93 432.5 98Q460 103 478 109Q500 116 515 125Z" glyph-name="C_h" horiz-adv-x="1128" /><glyph d="M515 20Q500 11 477 5Q457 -2 428.5 -6.5Q400 -11 360 -11Q288 -11 230 11Q172 33 131.5 77.5Q91 122 69 188Q47 254 47 341Q47 427 66.5 498Q86 569 125 620Q164 671 223 699Q282 727 362 727Q388 727 409.5 725.5Q431 724 447 720Q468 766 528 766H738V304H778L926 508H1051L877 269L1066 0H929L778 213H738V0H620V677H559Q513 677 513 636V596Q497 604 476 610Q456 615 430 619Q404 623 370 623Q316 623 278.5 602.5Q241 582 217.5 545Q194 508 183.5 456.5Q173 405 173 343Q173 93 369 93Q405 93 432.5 98Q460 103 478 109Q500 116 515 125Z" glyph-name="C_k" horiz-adv-x="1066" /><glyph d="M731 -9Q616 -9 616 124V677H559Q513 677 513 636V596Q497 604 476 610Q456 615 430 619Q404 623 370 623Q316 623 278.5 602.5Q241 582 217.5 545Q194 508 183.5 456.5Q173 405 173 343Q173 93 369 93Q405 93 432.5 98Q460 103 478 109Q500 116 515 125V20Q500 11 477 5Q457 -2 428.5 -6.5Q400 -11 360 -11Q288 -11 230 11Q172 33 131.5 77.5Q91 122 69 188Q47 254 47 341Q47 427 66.5 498Q86 569 125 620Q164 671 223 699Q282 727 362 727Q388 727 409.5 725.5Q431 724 447 720Q468 766 528 766H735V147Q735 110 747.5 96Q760 82 789 82H796V0Q788 -3 779 -5Q769 -6 757.5 -7.5Q746 -9 731 -9Z" glyph-name="C_l" horiz-adv-x="826" /><glyph d="M731 -9Q616 -9 616 124V317L540 279V372L616 410V677H559Q513 677 513 636V596Q497 604 476 610Q456 615 430 619Q404 623 370 623Q316 623 278.5 602.5Q241 582 217.5 545Q194 508 183.5 456.5Q173 405 173 343Q173 93 369 93Q405 93 432.5 98Q460 103 478 109Q500 116 515 125V20Q500 11 477 5Q457 -2 428.5 -6.5Q400 -11 360 -11Q288 -11 230 11Q172 33 131.5 77.5Q91 122 69 188Q47 254 47 341Q47 427 66.5 498Q86 569 125 620Q164 671 223 699Q282 727 362 727Q388 727 409.5 725.5Q431 724 447 720Q468 766 528 766H735V469L824 513V420L735 375V147Q735 110 747.5 96Q760 82 789 82H796V0Q788 -3 779 -5Q769 -6 757.5 -7.5Q746 -9 731 -9Z" glyph-name="C_lslash" horiz-adv-x="854" /><glyph d="M439 -11Q351 -11 278.5 12.5Q206 36 154 83.5Q102 131 74 201.5Q46 272 46 366Q46 442 65.5 508Q85 574 124 622.5Q163 671 222 699Q281 727 361 727Q401 727 429.5 723Q458 719 477 714Q499 708 513 701V596Q497 604 475 610Q455 615 429 619Q403 623 369 623Q315 623 277.5 603Q240 583 216.5 548.5Q193 514 182.5 468Q172 422 172 371Q172 220 252 150Q332 80 481 80H669Q729 80 761.5 96.5Q794 113 794 143Q794 168 774 183.5Q754 199 698 215Q667 224 638.5 236Q610 248 588.5 265.5Q567 283 554.5 308Q542 333 542 368Q542 441 598 479.5Q654 518 748 518Q778 518 801.5 515Q825 512 842 509Q861 505 876 500V408Q867 410 831.5 419Q796 428 747 428Q699 428 677 413Q655 398 655 373Q655 347 677 332Q699 317 742 306Q832 283 869.5 246.5Q907 210 907 151Q907 112 889 82Q871 52 838.5 31.5Q806 11 760 0Q714 -11 657 -11Z" glyph-name="C_s" horiz-adv-x="942" /><glyph d="M439 -11Q351 -11 278.5 12.5Q206 36 154 83.5Q102 131 74 201.5Q46 272 46 366Q46 442 65.5 508Q85 574 124 622.5Q163 671 222 699Q281 727 361 727Q401 727 429.5 723Q458 719 477 714Q499 708 513 701V596Q497 604 475 610Q455 615 429 619Q403 623 369 623Q315 623 277.5 603Q240 583 216.5 548.5Q193 514 182.5 468Q172 422 172 371Q172 220 252 150Q332 80 481 80H669Q729 80 761.5 96.5Q794 113 794 143Q794 168 774 183.5Q754 199 698 215Q667 224 638.5 236Q610 248 588.5 265.5Q567 283 554.5 308Q542 333 542 368Q542 441 598 479.5Q654 518 748 518Q778 518 801.5 515Q825 512 842 509Q861 505 876 500V408Q867 410 831.5 419Q796 428 747 428Q699 428 677 413Q655 398 655 373Q655 347 677 332Q699 317 742 306Q832 283 869.5 246.5Q907 210 907 151Q907 112 889 82Q871 52 838.5 31.5Q806 11 760 0Q714 -11 657 -11ZM548 725 588 777 722 675 852 777 895 725 749 585H694Z" glyph-name="C_scaron" horiz-adv-x="942" /><glyph d="M439 -11Q351 -11 278.5 12.5Q206 36 154 83.5Q102 131 74 201.5Q46 272 46 366Q46 442 65.5 508Q85 574 124 622.5Q163 671 222 699Q281 727 361 727Q401 727 429.5 723Q458 719 477 714Q499 708 513 701V596Q497 604 475 610Q455 615 429 619Q403 623 369 623Q315 623 277.5 603Q240 583 216.5 548.5Q193 514 182.5 468Q172 422 172 371Q172 220 252 150Q332 80 481 80H669Q729 80 761.5 96.5Q794 113 794 143Q794 168 774 183.5Q754 199 698 215Q667 224 638.5 236Q610 248 588.5 265.5Q567 283 554.5 308Q542 333 542 368Q542 441 598 479.5Q654 518 748 518Q778 518 801.5 515Q825 512 842 509Q861 505 876 500V408Q867 410 831.5 419Q796 428 747 428Q699 428 677 413Q655 398 655 373Q655 347 677 332Q699 317 742 306Q832 283 869.5 246.5Q907 210 907 151Q907 112 889 82Q871 52 838.5 31.5Q806 11 760 0Q714 -11 657 -11ZM680 -291 717 -205Q656 -194 656 -136Q656 -108 674.5 -86.5Q693 -65 728 -65Q762 -65 780 -86.5Q798 -108 798 -140Q798 -175 779.5 -218.5Q761 -262 733 -313Z" glyph-name="C_scommaaccent" horiz-adv-x="942" /><glyph d="M360 -11Q288 -11 230 11Q172 33 131.5 77.5Q91 122 69 188Q47 254 47 341Q47 427 66.5 498Q86 569 125 620Q164 671 223 699Q282 727 362 727Q402 727 430 723Q458 719 477 714Q499 708 513 701V596Q497 604 476 610Q456 615 430 619Q404 623 370 623Q316 623 278.5 602.5Q241 582 217.5 545Q194 508 183.5 456.5Q173 405 173 343Q173 93 369 93Q405 93 432.5 98Q460 103 478 109Q500 116 515 125V20Q500 11 477 5Q457 -2 428.5 -6.5Q400 -11 360 -11ZM254 847 472 953 512 858 284 778Z" glyph-name="Cacute" horiz-adv-x="556" unicode="&#262;" /><glyph d="M247 804 337 988 414 944 307 771ZM360 -11Q288 -11 230 11Q172 33 131.5 77.5Q91 122 69 188Q47 254 47 341Q47 427 66.5 498Q86 569 125 620Q164 671 223 699Q282 727 362 727Q402 727 430 723Q458 719 477 714Q499 708 513 701V596Q497 604 476 610Q456 615 430 619Q404 623 370 623Q316 623 278.5 602.5Q241 582 217.5 545Q194 508 183.5 456.5Q173 405 173 343Q173 93 369 93Q405 93 432.5 98Q460 103 478 109Q500 116 515 125V20Q500 11 477 5Q457 -2 428.5 -6.5Q400 -11 360 -11Z" glyph-name="Cacute.pl" horiz-adv-x="556" /><glyph d="M205 622 282 774 354 735 261 592ZM301 -9Q244 -9 196.5 8Q149 25 114.5 58.5Q80 92 61 143.5Q42 195 42 264Q42 329 58.5 383.5Q75 438 107.5 477Q140 516 189 537.5Q238 559 302 559Q333 559 355.5 556Q378 553 393 549Q410 545 422 539V446Q409 452 393 457Q378 461 358 464Q338 467 312 467Q271 467 242 452Q213 437 194.5 410.5Q176 384 167.5 347Q159 310 159 266Q159 176 196 130Q233 84 311 84Q338 84 359 87.5Q380 91 395 96Q411 101 424 107V14Q412 8 394 3Q377 -2 354.5 -5.5Q332 -9 301 -9Z" glyph-name="Cacute.pl.sc" horiz-adv-x="463" /><glyph d="M207 656 383 738 419 658 234 598ZM301 -9Q244 -9 196.5 8Q149 25 114.5 58.5Q80 92 61 143.5Q42 195 42 264Q42 329 58.5 383.5Q75 438 107.5 477Q140 516 189 537.5Q238 559 302 559Q333 559 355.5 556Q378 553 393 549Q410 545 422 539V446Q409 452 393 457Q378 461 358 464Q338 467 312 467Q271 467 242 452Q213 437 194.5 410.5Q176 384 167.5 347Q159 310 159 266Q159 176 196 130Q233 84 311 84Q338 84 359 87.5Q380 91 395 96Q411 101 424 107V14Q412 8 394 3Q377 -2 354.5 -5.5Q332 -9 301 -9Z" glyph-name="Cacute.sc" horiz-adv-x="463" /><glyph d="M253 847 471 953 511 858 283 778ZM359 -11Q287 -11 229 11.5Q171 34 130.5 77.5Q90 121 68 186.5Q46 252 46 337Q46 419 68 488.5Q90 558 135 608.5Q180 659 248 687.5Q316 716 408 716H660L786 183L914 719H1013L1141 185L1267 716H1373L1197 -4H1081L955 509L826 -4H711L565 608H427Q359 608 310.5 588.5Q262 569 231.5 533.5Q201 498 186.5 448Q172 398 172 337Q172 217 220 155Q268 93 369 93Q405 93 432 98Q459 103 477 109Q499 116 514 125V20Q499 11 477 5Q456 -2 427.5 -6.5Q399 -11 359 -11Z" glyph-name="Cacute_W" horiz-adv-x="1383" /><glyph d="M215 656 391 738 427 658 242 598ZM301 -9Q243 -9 195.5 8Q148 25 114 59Q80 93 61 143.5Q42 194 42 261Q42 323 60 376Q78 429 115 467.5Q152 506 207 528Q262 550 337 550H555L649 155L746 552H839L937 155L1030 550H1127L990 -2H879L784 369L686 -2H576L466 455H353Q302 455 265 441Q228 427 204.5 401Q181 375 170 339.5Q159 304 159 260Q159 175 196 129.5Q233 84 311 84Q338 84 359 87.5Q380 91 395 96Q411 101 424 107V14Q412 8 394 3Q377 -2 354.5 -5.5Q332 -9 301 -9Z" glyph-name="Cacute_W.sc" horiz-adv-x="1142" /><glyph d="M254 847 471 953 512 858 283 778ZM862 -9Q820 -9 789.5 5Q759 19 727 47L711 0H621V677H558Q513 677 513 636V596Q497 604 476 610Q456 615 430 619Q404 623 370 623Q316 623 278.5 602.5Q241 582 217.5 545Q194 508 183.5 456.5Q173 405 173 343Q173 93 369 93Q405 93 432.5 98Q460 103 478 109Q500 116 515 125V20Q500 11 477 5Q457 -2 428.5 -6.5Q400 -11 360 -11Q288 -11 230 11Q172 33 131.5 77.5Q91 122 69 188Q47 254 47 341Q47 427 66.5 498Q86 569 125 620Q164 671 223 699Q282 727 362 727Q388 727 409.5 725.5Q431 724 447 720Q468 766 531 766H739V453Q752 471 771 486Q789 499 814.5 508.5Q840 518 877 518Q931 518 970 498Q1009 478 1033.5 443.5Q1058 409 1070 363Q1082 317 1082 265Q1082 202 1067 151.5Q1052 101 1023.5 65.5Q995 30 954 10.5Q913 -9 862 -9ZM834 87Q900 87 929.5 134.5Q959 182 959 261Q959 335 930.5 376.5Q902 418 839 418Q814 418 795 409.5Q776 401 764 392Q749 380 739 365V118Q750 109 765 103Q778 96 795 91.5Q812 87 834 87Z" glyph-name="Cacute_b" horiz-adv-x="1124" /><glyph d="M254 847 471 953 512 858 283 778ZM515 20Q500 11 477 5Q457 -2 428.5 -6.5Q400 -11 360 -11Q288 -11 230 11Q172 33 131.5 77.5Q91 122 69 188Q47 254 47 341Q47 427 66.5 498Q86 569 125 620Q164 671 223 699Q282 727 362 727Q388 727 409.5 725.5Q431 724 447 720Q468 766 528 766H738V304H778L926 508H1051L877 269L1066 0H929L778 213H738V0H620V677H559Q513 677 513 636V596Q497 604 476 610Q456 615 430 619Q404 623 370 623Q316 623 278.5 602.5Q241 582 217.5 545Q194 508 183.5 456.5Q173 405 173 343Q173 93 369 93Q405 93 432.5 98Q460 103 478 109Q500 116 515 125Z" glyph-name="Cacute_k" horiz-adv-x="1066" /><glyph d="M254 847 471 953 512 858 283 778ZM731 -9Q616 -9 616 124V677H559Q513 677 513 636V596Q497 604 476 610Q456 615 430 619Q404 623 370 623Q316 623 278.5 602.5Q241 582 217.5 545Q194 508 183.5 456.5Q173 405 173 343Q173 93 369 93Q405 93 432.5 98Q460 103 478 109Q500 116 515 125V20Q500 11 477 5Q457 -2 428.5 -6.5Q400 -11 360 -11Q288 -11 230 11Q172 33 131.5 77.5Q91 122 69 188Q47 254 47 341Q47 427 66.5 498Q86 569 125 620Q164 671 223 699Q282 727 362 727Q388 727 409.5 725.5Q431 724 447 720Q468 766 528 766H735V147Q735 110 747 96Q759 82 788 82H796V0Q788 -3 779 -5Q769 -6 757.5 -7.5Q746 -9 731 -9Z" glyph-name="Cacute_l" horiz-adv-x="826" /><glyph d="M439 -11Q351 -11 278.5 12.5Q206 36 154 83.5Q102 131 74 201.5Q46 272 46 366Q46 442 65.5 508Q85 574 124 622.5Q163 671 222 699Q281 727 361 727Q401 727 429.5 723Q458 719 477 714Q499 708 513 701V596Q497 604 475 610Q455 615 429 619Q403 623 369 623Q315 623 277.5 603Q240 583 216.5 548.5Q193 514 182.5 468Q172 422 172 371Q172 220 252 150Q332 80 481 80H669Q729 80 761.5 96.5Q794 113 794 143Q794 168 774 183.5Q754 199 698 215Q667 224 638.5 236Q610 248 588.5 265.5Q567 283 554.5 308Q542 333 542 368Q542 441 598 479.5Q654 518 748 518Q778 518 801.5 515Q825 512 842 509Q861 505 876 500V408Q867 410 831.5 419Q796 428 747 428Q699 428 677 413Q655 398 655 373Q655 347 677 332Q699 317 742 306Q832 283 869.5 246.5Q907 210 907 151Q907 112 889 82Q871 52 838.5 31.5Q806 11 760 0Q714 -11 657 -11ZM253 847 471 953 511 858 283 778Z" glyph-name="Cacute_s" horiz-adv-x="942" /><glyph d="M360 -11Q288 -11 230 11Q172 33 131.5 77.5Q91 122 69 188Q47 254 47 341Q47 427 66.5 498Q86 569 125 620Q164 671 223 699Q282 727 362 727Q402 727 430 723Q458 719 477 714Q499 708 513 701V596Q497 604 476 610Q456 615 430 619Q404 623 370 623Q316 623 278.5 602.5Q241 582 217.5 545Q194 508 183.5 456.5Q173 405 173 343Q173 93 369 93Q405 93 432.5 98Q460 103 478 109Q500 116 515 125V20Q500 11 477 5Q457 -2 428.5 -6.5Q400 -11 360 -11ZM162 899 199 951 337 865 474 951 512 899 370 778H302Z" glyph-name="Ccaron" horiz-adv-x="556" unicode="&#268;" /><glyph d="M134 692 166 736 278 670 388 736 421 692 307 598H247ZM301 -9Q244 -9 196.5 8Q149 25 114.5 58.5Q80 92 61 143.5Q42 195 42 264Q42 329 58.5 383.5Q75 438 107.5 477Q140 516 189 537.5Q238 559 302 559Q333 559 355.5 556Q378 553 393 549Q410 545 422 539V446Q409 452 393 457Q378 461 358 464Q338 467 312 467Q271 467 242 452Q213 437 194.5 410.5Q176 384 167.5 347Q159 310 159 266Q159 176 196 130Q233 84 311 84Q338 84 359 87.5Q380 91 395 96Q411 101 424 107V14Q412 8 394 3Q377 -2 354.5 -5.5Q332 -9 301 -9Z" glyph-name="Ccaron.sc" horiz-adv-x="463" /><glyph d="M359 -11Q287 -11 229 11Q171 33 130.5 76.5Q90 120 68 185Q46 250 46 336Q46 418 68.5 487.5Q91 557 136.5 607Q182 657 252 685.5Q322 714 416 714H984V606H789V-2H669V606H428Q361 606 312.5 586.5Q264 567 233 531Q202 495 187 445Q172 395 172 334Q172 216 220.5 154.5Q269 93 369 93Q405 93 432 98Q459 103 477 109Q499 116 514 125V20Q499 11 477 5Q456 -2 427.5 -6.5Q399 -11 359 -11ZM164 899 201 951 339 865 476 951 514 899 372 778H304Z" glyph-name="Ccaron_T" horiz-adv-x="998" /><glyph d="M137 692 170 736 281 670 392 736 425 692 311 598H251ZM301 -9Q244 -9 196.5 7.5Q149 24 115 58Q81 92 62 142.5Q43 193 43 262Q43 325 61.5 377.5Q80 430 117.5 468Q155 506 212 527.5Q269 549 346 549H809V453H656V-1H545V453H355Q253 453 206.5 399.5Q160 346 160 258Q160 174 197.5 129Q235 84 311 84Q338 84 359 87.5Q380 91 395 96Q411 101 424 107V14Q412 8 394 3Q378 -2 355.5 -5.5Q333 -9 301 -9Z" glyph-name="Ccaron_T.sc" horiz-adv-x="826" /><glyph d="M164 899 201 951 339 865 476 951 514 899 372 778H304ZM359 -11Q287 -11 229 11Q171 33 130.5 77Q90 121 68 187Q46 253 46 340Q46 422 68.5 491Q91 560 136.5 610Q182 660 252 688Q322 716 416 716H622L800 167L972 716H1087L852 -4H737L536 608H428Q361 608 312.5 588.5Q264 569 233 533.5Q202 498 187 448Q172 398 172 337Q172 216 220.5 154.5Q269 93 369 93Q405 93 432 98Q459 103 477 109Q499 116 514 125V20Q499 11 477 5Q456 -2 427.5 -6.5Q399 -11 359 -11Z" glyph-name="Ccaron_V" horiz-adv-x="1094" /><glyph d="M140 692 173 736 284 670 394 736 427 692 313 598H253ZM301 -9Q244 -9 196.5 7.5Q149 24 115 58Q81 92 62 143Q43 194 43 263Q43 326 61.5 378.5Q80 431 117.5 469.5Q155 508 212 529Q269 550 346 550H524L660 143L790 550H896L711 -2H598L443 455H355Q253 455 206.5 401.5Q160 348 160 260Q160 175 197.5 129.5Q235 84 311 84Q338 84 359 87.5Q380 91 395 96Q411 101 424 107V14Q412 8 394 3Q378 -2 355.5 -5.5Q333 -9 301 -9Z" glyph-name="Ccaron_V.sc" horiz-adv-x="906" /><glyph d="M164 899 201 951 339 865 476 951 514 899 372 778H304ZM359 -11Q287 -11 229 11Q171 33 130.5 77Q90 121 68 186Q46 251 46 338Q46 419 68 488.5Q90 558 136 608.5Q182 659 251.5 687.5Q321 716 415 716H583L751 401L919 716H1033L806 290V0H686V290L513 611H429Q361 611 312.5 591.5Q264 572 232.5 536Q201 500 186.5 450Q172 400 172 339Q172 218 220.5 155.5Q269 93 369 93Q405 93 432 98Q459 103 477 109Q499 116 514 125V20Q499 11 477 5Q456 -2 427.5 -6.5Q399 -11 359 -11Z" glyph-name="Ccaron_Y" horiz-adv-x="1040" /><glyph d="M137 692 170 736 281 670 391 736 424 692 310 598H250ZM301 -9Q244 -9 196.5 7.5Q149 24 114.5 58Q80 92 61 143Q42 194 42 263Q42 325 60.5 377.5Q79 430 116.5 468.5Q154 507 210.5 528.5Q267 550 344 550H490L617 319L743 550H847L668 223V0H556V223L424 457H356Q253 457 206 404Q159 351 159 262Q159 175 196.5 129.5Q234 84 311 84Q338 84 359 87.5Q380 91 395 96Q411 101 424 107V14Q412 8 394 3Q377 -2 354.5 -5.5Q332 -9 301 -9Z" glyph-name="Ccaron_Y.sc" horiz-adv-x="856" /><glyph d="M165 899 201 951 340 865 477 951 515 899 373 778H305ZM862 -9Q820 -9 789.5 5Q759 19 727 47L711 0H621V677H558Q513 677 513 636V596Q497 604 476 610Q456 615 430 619Q404 623 370 623Q316 623 278.5 602.5Q241 582 217.5 545Q194 508 183.5 456.5Q173 405 173 343Q173 93 369 93Q405 93 432.5 98Q460 103 478 109Q500 116 515 125V20Q500 11 477 5Q457 -2 428.5 -6.5Q400 -11 360 -11Q288 -11 230 11Q172 33 131.5 77.5Q91 122 69 188Q47 254 47 341Q47 427 66.5 498Q86 569 125 620Q164 671 223 699Q282 727 362 727Q388 727 409.5 725.5Q431 724 447 720Q468 766 531 766H739V453Q752 471 771 486Q789 499 814.5 508.5Q840 518 877 518Q931 518 970 498Q1009 478 1033.5 443.5Q1058 409 1070 363Q1082 317 1082 265Q1082 202 1067 151.5Q1052 101 1023.5 65.5Q995 30 954 10.5Q913 -9 862 -9ZM834 87Q900 87 929.5 134.5Q959 182 959 261Q959 335 930.5 376.5Q902 418 839 418Q814 418 795 409.5Q776 401 764 392Q749 380 739 365V118Q750 109 765 103Q778 96 795 91.5Q812 87 834 87Z" glyph-name="Ccaron_b" horiz-adv-x="1124" /><glyph d="M165 899 201 951 340 865 477 951 515 899 373 778H305ZM515 20Q500 11 477 5Q457 -2 428.5 -6.5Q400 -11 360 -11Q288 -11 230 11Q172 33 131.5 77.5Q91 122 69 188Q47 254 47 341Q47 427 66.5 498Q86 569 125 620Q164 671 223 699Q282 727 362 727Q388 727 409.5 725.5Q431 724 447 720Q468 766 528 766H738V304H778L926 508H1051L877 269L1066 0H929L778 213H738V0H620V677H559Q513 677 513 636V596Q497 604 476 610Q456 615 430 619Q404 623 370 623Q316 623 278.5 602.5Q241 582 217.5 545Q194 508 183.5 456.5Q173 405 173 343Q173 93 369 93Q405 93 432.5 98Q460 103 478 109Q500 116 515 125Z" glyph-name="Ccaron_k" horiz-adv-x="1066" /><glyph d="M165 899 201 951 340 865 477 951 515 899 373 778H305ZM731 -9Q616 -9 616 124V677H559Q513 677 513 636V596Q497 604 476 610Q456 615 430 619Q404 623 370 623Q316 623 278.5 602.5Q241 582 217.5 545Q194 508 183.5 456.5Q173 405 173 343Q173 93 369 93Q405 93 432.5 98Q460 103 478 109Q500 116 515 125V20Q500 11 477 5Q457 -2 428.5 -6.5Q400 -11 360 -11Q288 -11 230 11Q172 33 131.5 77.5Q91 122 69 188Q47 254 47 341Q47 427 66.5 498Q86 569 125 620Q164 671 223 699Q282 727 362 727Q388 727 409.5 725.5Q431 724 447 720Q468 766 528 766H735V147Q735 110 747 96Q759 82 788 82H796V0Q788 -3 779 -5Q769 -6 757.5 -7.5Q746 -9 731 -9Z" glyph-name="Ccaron_l" horiz-adv-x="826" /><glyph d="M165 899 201 951 340 865 477 951 515 899 373 778H305ZM818 549 855 635Q826 640 810 658Q794 676 794 704Q794 732 812.5 753.5Q831 775 866 775Q901 775 918.5 753.5Q936 732 936 700Q936 665 917.5 621.5Q899 578 872 527ZM731 -9Q616 -9 616 124V677H559Q513 677 513 636V596Q497 604 476 610Q456 615 430 619Q404 623 370 623Q316 623 278.5 602.5Q241 582 217.5 545Q194 508 183.5 456.5Q173 405 173 343Q173 93 369 93Q405 93 432.5 98Q460 103 478 109Q500 116 515 125V20Q500 11 477 5Q457 -2 428.5 -6.5Q400 -11 360 -11Q288 -11 230 11Q172 33 131.5 77.5Q91 122 69 188Q47 254 47 341Q47 427 66.5 498Q86 569 125 620Q164 671 223 699Q282 727 362 727Q388 727 409.5 725.5Q431 724 447 720Q468 766 528 766H735V147Q735 110 747.5 96Q760 82 789 82H796V0Q788 -3 779 -5Q769 -6 757.5 -7.5Q746 -9 731 -9Z" glyph-name="Ccaron_lcaron" horiz-adv-x="881" /><glyph d="M439 -11Q351 -11 278.5 12.5Q206 36 154 83.5Q102 131 74 201.5Q46 272 46 366Q46 442 65.5 508Q85 574 124 622.5Q163 671 222 699Q281 727 361 727Q401 727 429.5 723Q458 719 477 714Q499 708 513 701V596Q497 604 475 610Q455 615 429 619Q403 623 369 623Q315 623 277.5 603Q240 583 216.5 548.5Q193 514 182.5 468Q172 422 172 371Q172 220 252 150Q332 80 481 80H669Q729 80 761.5 96.5Q794 113 794 143Q794 168 774 183.5Q754 199 698 215Q667 224 638.5 236Q610 248 588.5 265.5Q567 283 554.5 308Q542 333 542 368Q542 441 598 479.5Q654 518 748 518Q778 518 801.5 515Q825 512 842 509Q861 505 876 500V408Q867 410 831.5 419Q796 428 747 428Q699 428 677 413Q655 398 655 373Q655 347 677 332Q699 317 742 306Q832 283 869.5 246.5Q907 210 907 151Q907 112 889 82Q871 52 838.5 31.5Q806 11 760 0Q714 -11 657 -11ZM164 899 201 951 339 865 476 951 514 899 372 778H304Z" glyph-name="Ccaron_s" horiz-adv-x="942" /><glyph d="M439 -11Q351 -11 278.5 12.5Q206 36 154 83.5Q102 131 74 201.5Q46 272 46 366Q46 442 65.5 508Q85 574 124 622.5Q163 671 222 699Q281 727 361 727Q401 727 429.5 723Q458 719 477 714Q499 708 513 701V596Q497 604 475 610Q455 615 429 619Q403 623 369 623Q315 623 277.5 603Q240 583 216.5 548.5Q193 514 182.5 468Q172 422 172 371Q172 220 252 150Q332 80 481 80H669Q729 80 761.5 96.5Q794 113 794 143Q794 168 774 183.5Q754 199 698 215Q667 224 638.5 236Q610 248 588.5 265.5Q567 283 554.5 308Q542 333 542 368Q542 441 598 479.5Q654 518 748 518Q778 518 801.5 515Q825 512 842 509Q861 505 876 500V408Q867 410 831.5 419Q796 428 747 428Q699 428 677 413Q655 398 655 373Q655 347 677 332Q699 317 742 306Q832 283 869.5 246.5Q907 210 907 151Q907 112 889 82Q871 52 838.5 31.5Q806 11 760 0Q714 -11 657 -11ZM548 725 588 777 722 675 852 777 895 725 749 585H694ZM164 899 201 951 339 865 476 951 514 899 372 778H304Z" glyph-name="Ccaron_scaron" horiz-adv-x="942" /><glyph d="M465 -134Q465 -163 449.5 -185Q434 -207 407 -221Q380 -235 344.5 -240Q309 -245 269 -240V-181Q311 -183 336 -172Q361 -161 361 -139Q361 -122 341.5 -112Q322 -102 274 -103L284 -4Q171 18 109 104.5Q47 191 47 341Q47 427 66.5 498Q86 569 125 620Q164 671 223 699Q282 727 362 727Q402 727 430 723Q458 719 477 714Q499 708 513 701V596Q497 604 476 610Q456 615 430 619Q404 623 370 623Q316 623 278.5 602.5Q241 582 217.5 545Q194 508 183.5 456.5Q173 405 173 343Q173 93 369 93Q405 93 432.5 98Q460 103 478 109Q500 116 515 125V20Q500 11 479 5Q459 -2 431.5 -6.5Q404 -11 366 -11L363 -46Q465 -53 465 -134Z" glyph-name="Ccedilla" horiz-adv-x="556" unicode="&#199;" /><glyph d="M384 -102Q384 -125 371 -142Q358 -159 336 -169.5Q314 -180 284 -183.5Q254 -187 221 -183V-136Q253 -138 273 -130Q293 -122 293 -105Q293 -79 236 -78H225L233 -3Q145 15 93.5 81Q42 147 42 264Q42 329 58.5 383.5Q75 438 107.5 477Q140 516 189 537.5Q238 559 302 559Q333 559 355.5 555.5Q378 552 393 549Q410 544 422 538V446Q409 452 393 456Q378 460 358 463Q338 466 312 466Q271 466 242 451.5Q213 437 194.5 410.5Q176 384 167.5 347Q159 310 159 266Q159 176 196 129.5Q233 83 311 83Q338 83 359 86.5Q380 90 395 95Q411 100 424 106V14Q412 8 395 3Q380 -2 358.5 -5.5Q337 -9 307 -9L305 -35Q384 -41 384 -102Z" glyph-name="Ccedilla.sc" horiz-adv-x="463" /><glyph d="M464 -134Q464 -163 448.5 -185Q433 -207 406 -221Q379 -235 343.5 -240Q308 -245 268 -240V-181Q310 -183 335.5 -172Q361 -161 361 -139Q361 -122 341 -111.5Q321 -101 273 -103L283 -4Q171 17 109 102Q47 187 47 336Q47 418 69 487.5Q91 557 137 607Q183 657 252.5 685.5Q322 714 416 714H984V606H789V-2H669V606H428Q361 606 312.5 586.5Q264 567 233 531Q202 495 187 445Q172 395 172 334Q172 216 220.5 154.5Q269 93 369 93Q405 93 432 98Q459 103 478 109Q499 116 514 125V20Q499 11 478 5Q458 -2 431 -6.5Q404 -11 366 -11L363 -46Q464 -53 464 -134Z" glyph-name="Ccedilla_T" horiz-adv-x="998" /><glyph d="M384 -102Q384 -125 371 -142Q358 -159 336 -169.5Q314 -180 284 -183.5Q254 -187 221 -183V-136Q253 -138 273 -130Q293 -122 293 -105Q293 -79 236 -78H225L234 -3Q146 14 94.5 80Q43 146 43 262Q43 325 61.5 377.5Q80 430 117.5 468Q155 506 212 527.5Q269 549 346 549H809V453H656V-1H545V453H355Q253 453 206.5 399.5Q160 346 160 258Q160 174 197.5 129Q235 84 311 84Q338 84 359 87.5Q380 91 395 96Q411 101 424 107V14Q412 8 395 3Q380 -2 358.5 -5.5Q337 -9 308 -9L305 -35Q384 -41 384 -102Z" glyph-name="Ccedilla_T.sc" horiz-adv-x="826" /><glyph d="M464 -134Q464 -163 448.5 -185Q433 -207 406 -221Q379 -235 343.5 -240Q308 -245 268 -240V-181Q310 -183 335.5 -172Q361 -161 361 -139Q361 -122 341 -112Q321 -102 273 -103L282 -4Q170 17 108 103Q46 189 46 338Q46 419 68 488.5Q90 558 136 608.5Q182 659 251.5 687.5Q321 716 415 716H583L751 401L919 716H1033L806 290V0H686V290L513 611H429Q361 611 312.5 591.5Q264 572 232.5 536Q201 500 186.5 450Q172 400 172 339Q172 218 220.5 155.5Q269 93 369 93Q405 93 432 98Q459 103 477 109Q499 116 514 125V20Q499 11 478 5Q458 -2 430.5 -6.5Q403 -11 365 -11L362 -46Q464 -53 464 -134Z" glyph-name="Ccedilla_Y" horiz-adv-x="1040" /><glyph d="M384 -102Q384 -125 371 -142Q358 -159 336 -169.5Q314 -180 284 -183.5Q254 -187 221 -183V-136Q253 -138 273 -130Q293 -122 293 -105Q293 -79 236 -78H225L233 -3Q145 15 93.5 81Q42 147 42 263Q42 325 60.5 377.5Q79 430 116.5 468.5Q154 507 210.5 528.5Q267 550 344 550H490L617 319L743 550H847L668 223V0H556V223L424 457H356Q253 457 206 404Q159 351 159 262Q159 175 196.5 129.5Q234 84 311 84Q338 84 359 87.5Q380 91 395 96Q411 101 424 107V14Q412 8 395 3Q380 -2 358.5 -5.5Q337 -9 308 -9L305 -35Q384 -41 384 -102Z" glyph-name="Ccedilla_Y.sc" horiz-adv-x="856" /><glyph d="M834 87Q900 87 929.5 134.5Q959 182 959 261Q959 335 930.5 376.5Q902 418 839 418Q814 418 795 409.5Q776 401 764 392Q749 380 739 365V118Q750 109 765 103Q778 96 795 91.5Q812 87 834 87ZM465 -134Q465 -163 449.5 -185Q434 -207 407 -221Q380 -235 344.5 -240Q309 -245 269 -240V-181Q311 -183 336 -172Q361 -161 361 -139Q361 -122 341.5 -112Q322 -102 274 -103L284 -4Q171 18 109 104.5Q47 191 47 341Q47 427 66.5 498Q86 569 125 620Q164 671 223 699Q282 727 362 727Q388 727 409.5 725.5Q431 724 447 720Q468 766 531 766H739V453Q752 471 771 486Q789 499 814.5 508.5Q840 518 877 518Q931 518 970 498Q1009 478 1033.5 443.5Q1058 409 1070 363Q1082 317 1082 265Q1082 202 1067 151.5Q1052 101 1023.5 65.5Q995 30 954 10.5Q913 -9 862 -9Q820 -9 789.5 5Q759 19 727 47L711 0H621V677H558Q513 677 513 636V596Q497 604 476 610Q456 615 430 619Q404 623 370 623Q316 623 278.5 602.5Q241 582 217.5 545Q194 508 183.5 456.5Q173 405 173 343Q173 93 369 93Q405 93 432.5 98Q460 103 478 109Q500 116 515 125V20Q500 11 479 5Q459 -2 431.5 -6.5Q404 -11 366 -11L363 -46Q465 -53 465 -134Z" glyph-name="Ccedilla_b" horiz-adv-x="1124" /><glyph d="M465 -134Q465 -163 449.5 -185Q434 -207 407 -221Q380 -235 344.5 -240Q309 -245 269 -240V-181Q311 -183 336 -172Q361 -161 361 -139Q361 -122 341.5 -112Q322 -102 274 -103L284 -4Q171 18 109 104.5Q47 191 47 341Q47 427 66.5 498Q86 569 125 620Q164 671 223 699Q282 727 362 727Q388 727 409.5 725.5Q431 724 447 720Q468 766 531 766H738V451Q753 470 776 485Q796 498 824 508Q852 518 891 518Q938 518 971 502.5Q1004 487 1024.5 459Q1045 431 1054.5 393Q1064 355 1064 310V0H946V304Q946 417 846 417Q820 417 800 409.5Q780 402 766 394Q750 383 738 370V0H620V677H559Q513 677 513 636V596Q497 604 476 610Q456 615 430 619Q404 623 370 623Q316 623 278.5 602.5Q241 582 217.5 545Q194 508 183.5 456.5Q173 405 173 343Q173 93 369 93Q405 93 432.5 98Q460 103 478 109Q500 116 515 125V20Q500 11 479 5Q459 -2 431.5 -6.5Q404 -11 366 -11L363 -46Q465 -53 465 -134Z" glyph-name="Ccedilla_h" horiz-adv-x="1128" /><glyph d="M465 -134Q465 -163 449.5 -185Q434 -207 407 -221Q380 -235 344.5 -240Q309 -245 269 -240V-181Q311 -183 336 -172Q361 -161 361 -139Q361 -122 341.5 -112Q322 -102 274 -103L284 -4Q171 18 109 104.5Q47 191 47 341Q47 427 66.5 498Q86 569 125 620Q164 671 223 699Q282 727 362 727Q388 727 409.5 725.5Q431 724 447 720Q468 766 528 766H738V304H778L926 508H1051L877 269L1066 0H929L778 213H738V0H620V677H559Q513 677 513 636V596Q497 604 476 610Q456 615 430 619Q404 623 370 623Q316 623 278.5 602.5Q241 582 217.5 545Q194 508 183.5 456.5Q173 405 173 343Q173 93 369 93Q405 93 432.5 98Q460 103 478 109Q500 116 515 125V20Q500 11 479 5Q459 -2 431.5 -6.5Q404 -11 366 -11L363 -46Q465 -53 465 -134Z" glyph-name="Ccedilla_k" horiz-adv-x="1066" /><glyph d="M465 -134Q465 -163 449.5 -185Q434 -207 407 -221Q380 -235 344.5 -240Q309 -245 269 -240V-181Q311 -183 336 -172Q361 -161 361 -139Q361 -122 341.5 -112Q322 -102 274 -103L284 -4Q171 18 109 104.5Q47 191 47 341Q47 427 66.5 498Q86 569 125 620Q164 671 223 699Q282 727 362 727Q388 727 409.5 725.5Q431 724 447 720Q468 766 528 766H735V147Q735 110 747 96Q759 82 788 82H796V0Q788 -3 779 -5Q769 -6 757.5 -7.5Q746 -9 731 -9Q616 -9 616 124V677H559Q513 677 513 636V596Q497 604 476 610Q456 615 430 619Q404 623 370 623Q316 623 278.5 602.5Q241 582 217.5 545Q194 508 183.5 456.5Q173 405 173 343Q173 93 369 93Q405 93 432.5 98Q460 103 478 109Q500 116 515 125V20Q500 11 479 5Q459 -2 431.5 -6.5Q404 -11 366 -11L363 -46Q465 -53 465 -134Z" glyph-name="Ccedilla_l" horiz-adv-x="826" /><glyph d="M464 -133Q464 -162 448.5 -184.5Q433 -207 406 -220.5Q379 -234 343.5 -239Q308 -244 268 -239V-180Q310 -182 335.5 -171.5Q361 -161 361 -138Q361 -121 341 -111Q321 -101 273 -103L284 10Q173 45 109.5 133.5Q46 222 46 366Q46 442 65.5 508Q85 574 124 622.5Q163 671 222 699Q281 727 361 727Q401 727 429.5 723Q458 719 477 714Q499 708 513 701V596Q497 604 475 610Q455 615 429 619Q403 623 369 623Q315 623 277.5 603Q240 583 216.5 548.5Q193 514 182.5 468Q172 422 172 371Q172 220 252 150Q332 80 481 80H669Q729 80 761.5 96.5Q794 113 794 143Q794 168 774 183.5Q754 199 698 215Q667 224 638.5 236Q610 248 588.5 265.5Q567 283 554.5 308Q542 333 542 368Q542 441 598 479.5Q654 518 748 518Q778 518 801.5 515Q825 512 842 509Q861 505 876 500V408Q867 410 831.5 419Q796 428 747 428Q699 428 677 413Q655 398 655 373Q655 347 677 332Q699 317 742 306Q832 283 869.5 246.5Q907 210 907 151Q907 112 889 82Q871 52 838.5 31.5Q806 11 760 0Q714 -11 657 -11H445Q419 -11 401 -10Q383 -9 366 -7L362 -45Q464 -52 464 -133Z" glyph-name="Ccedilla_s" horiz-adv-x="942" /><glyph d="M360 -11Q288 -11 230 11Q172 33 131.5 77.5Q91 122 69 188Q47 254 47 341Q47 427 66.5 498Q86 569 125 620Q164 671 223 699Q282 727 362 727Q402 727 430 723Q458 719 477 714Q499 708 513 701V596Q497 604 476 610Q456 615 430 619Q404 623 370 623Q316 623 278.5 602.5Q241 582 217.5 545Q194 508 183.5 456.5Q173 405 173 343Q173 93 369 93Q405 93 432.5 98Q460 103 478 109Q500 116 515 125V20Q500 11 477 5Q457 -2 428.5 -6.5Q400 -11 360 -11ZM161 830 302 951H370L511 830L474 778L336 864L198 778Z" glyph-name="Ccircumflex" horiz-adv-x="556" unicode="&#264;" /><glyph d="M133 641 247 736H308L421 641L388 598L278 664L166 598ZM301 -9Q244 -9 196.5 8Q149 25 114.5 58.5Q80 92 61 143.5Q42 195 42 264Q42 329 58.5 383.5Q75 438 107.5 477Q140 516 189 537.5Q238 559 302 559Q333 559 355.5 556Q378 553 393 549Q410 545 422 539V446Q409 452 393 457Q378 461 358 464Q338 467 312 467Q271 467 242 452Q213 437 194.5 410.5Q176 384 167.5 347Q159 310 159 266Q159 176 196 130Q233 84 311 84Q338 84 359 87.5Q380 91 395 96Q411 101 424 107V14Q412 8 394 3Q377 -2 354.5 -5.5Q332 -9 301 -9Z" glyph-name="Ccircumflex.sc" horiz-adv-x="463" /><glyph d="M360 -11Q288 -11 230 11Q172 33 131.5 77.5Q91 122 69 188Q47 254 47 341Q47 427 66.5 498Q86 569 125 620Q164 671 223 699Q282 727 362 727Q402 727 430 723Q458 719 477 714Q499 708 513 701V596Q497 604 476 610Q456 615 430 619Q404 623 370 623Q316 623 278.5 602.5Q241 582 217.5 545Q194 508 183.5 456.5Q173 405 173 343Q173 93 369 93Q405 93 432.5 98Q460 103 478 109Q500 116 515 125V20Q500 11 477 5Q457 -2 428.5 -6.5Q400 -11 360 -11ZM326 801Q294 801 275.5 821Q257 841 257 870Q257 899 275 918.5Q293 938 327 938Q361 938 379 919Q397 900 397 871Q397 841 379 821Q361 801 326 801Z" glyph-name="Cdotaccent" horiz-adv-x="556" unicode="&#266;" /><glyph d="M271 615Q240 615 225.5 631.5Q211 648 211 671Q211 694 225.5 710Q240 726 271 726Q302 726 317 710Q332 694 332 671Q332 648 316.5 631.5Q301 615 271 615ZM301 -9Q244 -9 196.5 8Q149 25 114.5 58.5Q80 92 61 143.5Q42 195 42 264Q42 329 58.5 383.5Q75 438 107.5 477Q140 516 189 537.5Q238 559 302 559Q333 559 355.5 556Q378 553 393 549Q410 545 422 539V446Q409 452 393 457Q378 461 358 464Q338 467 312 467Q271 467 242 452Q213 437 194.5 410.5Q176 384 167.5 347Q159 310 159 266Q159 176 196 130Q233 84 311 84Q338 84 359 87.5Q380 91 395 96Q411 101 424 107V14Q412 8 394 3Q377 -2 354.5 -5.5Q332 -9 301 -9Z" glyph-name="Cdotaccent.sc" horiz-adv-x="463" /><glyph d="M359 -11Q287 -11 229 11Q171 33 130.5 76.5Q90 120 68 185Q46 250 46 336Q46 418 68.5 487.5Q91 557 136.5 607Q182 657 252 685.5Q322 714 416 714H984V606H789V-2H669V606H428Q361 606 312.5 586.5Q264 567 233 531Q202 495 187 445Q172 395 172 334Q172 216 220.5 154.5Q269 93 369 93Q405 93 432 98Q459 103 477 109Q499 116 514 125V20Q499 11 477 5Q456 -2 427.5 -6.5Q399 -11 359 -11ZM325 801Q293 801 274.5 821Q256 841 256 870Q256 899 274 918.5Q292 938 326 938Q360 938 378 919Q396 900 396 871Q396 841 378 821Q360 801 325 801Z" glyph-name="Cdotaccent_T" horiz-adv-x="998" /><glyph d="M271 615Q241 615 226 631.5Q211 648 211 671Q211 694 225.5 710Q240 726 271 726Q303 726 317.5 710Q332 694 332 671Q332 648 317 631.5Q302 615 271 615ZM301 -9Q244 -9 196.5 7.5Q149 24 115 58Q81 92 62 142.5Q43 193 43 262Q43 325 61.5 377.5Q80 430 117.5 468Q155 506 212 527.5Q269 549 346 549H809V453H656V-1H545V453H355Q253 453 206.5 399.5Q160 346 160 258Q160 174 197.5 129Q235 84 311 84Q338 84 359 87.5Q380 91 395 96Q411 101 424 107V14Q412 8 394 3Q378 -2 355.5 -5.5Q333 -9 301 -9Z" glyph-name="Cdotaccent_T.sc" horiz-adv-x="826" /><glyph d="M326 801Q293 801 275 821Q257 841 257 870Q257 899 275 918.5Q293 938 327 938Q361 938 379 919Q397 900 397 871Q397 841 379 821Q361 801 326 801ZM515 20Q500 11 477 5Q457 -2 428.5 -6.5Q400 -11 360 -11Q288 -11 230 11Q172 33 131.5 77.5Q91 122 69 188Q47 254 47 341Q47 427 66.5 498Q86 569 125 620Q164 671 223 699Q282 727 362 727Q388 727 409.5 725.5Q431 724 447 720Q468 766 528 766H738V304H778L926 508H1051L877 269L1066 0H929L778 213H738V0H620V677H559Q513 677 513 636V596Q497 604 476 610Q456 615 430 619Q404 623 370 623Q316 623 278.5 602.5Q241 582 217.5 545Q194 508 183.5 456.5Q173 405 173 343Q173 93 369 93Q405 93 432.5 98Q460 103 478 109Q500 116 515 125Z" glyph-name="Cdotaccent_k" horiz-adv-x="1066" /><glyph d="M326 801Q293 801 275 821Q257 841 257 870Q257 899 275 918.5Q293 938 327 938Q361 938 379 919Q397 900 397 871Q397 841 379 821Q361 801 326 801ZM731 -9Q616 -9 616 124V677H559Q513 677 513 636V596Q497 604 476 610Q456 615 430 619Q404 623 370 623Q316 623 278.5 602.5Q241 582 217.5 545Q194 508 183.5 456.5Q173 405 173 343Q173 93 369 93Q405 93 432.5 98Q460 103 478 109Q500 116 515 125V20Q500 11 477 5Q457 -2 428.5 -6.5Q400 -11 360 -11Q288 -11 230 11Q172 33 131.5 77.5Q91 122 69 188Q47 254 47 341Q47 427 66.5 498Q86 569 125 620Q164 671 223 699Q282 727 362 727Q388 727 409.5 725.5Q431 724 447 720Q468 766 528 766H735V147Q735 110 746.5 96Q758 82 787 82H796V0Q788 -3 779 -5Q769 -6 757.5 -7.5Q746 -9 731 -9Z" glyph-name="Cdotaccent_l" horiz-adv-x="826" /><glyph d="M82 716H286Q369 716 431.5 691.5Q494 667 537 621Q580 575 601.5 508.5Q623 442 623 358Q623 274 601.5 208Q580 142 537 95.5Q494 49 431.5 24.5Q369 0 286 0H82ZM290 108Q385 108 441.5 169Q498 230 498 358Q498 486 441.5 547Q385 608 290 608H201V108Z" glyph-name="D" horiz-adv-x="670" unicode="D" /><glyph d="M71 550H244Q312 550 362.5 530.5Q413 511 447.5 475Q482 439 499 388Q516 337 516 275Q516 213 499 162.5Q482 112 447.5 76Q413 40 362.5 20Q312 0 244 0H71ZM245 95Q317 95 358.5 139Q400 183 400 275Q400 367 358.5 411Q317 455 245 455H183V95Z" glyph-name="D.sc" horiz-adv-x="559" /><glyph d="M81 716H288Q380 716 452 682Q524 648 565 576Q600 651 666 689Q732 727 822 727Q862 727 890.5 723Q919 719 938 714Q960 708 974 701V596Q958 604 936 610Q916 615 890 619Q864 623 830 623Q776 623 738.5 602.5Q701 582 677.5 545Q654 508 643.5 456.5Q633 405 633 343Q633 274 647.5 226.5Q662 179 688 149Q714 119 750.5 106Q787 93 830 93Q866 93 893 98Q920 103 939 109Q960 116 975 125V20Q960 11 938 5Q917 -2 888.5 -6.5Q860 -11 820 -11Q730 -11 664 24Q598 59 561 130Q516 61 444.5 30.5Q373 0 288 0H81ZM292 108Q340 108 379.5 123Q419 138 447.5 169Q476 200 491.5 247Q507 294 507 358Q507 422 491.5 469Q476 516 447.5 547Q419 578 379.5 593Q340 608 292 608H201V108Z" glyph-name="D_C" horiz-adv-x="1015" /><glyph d="M71 550H241Q315 550 371.5 525.5Q428 501 463 450Q492 504 545 531.5Q598 559 667 559Q698 559 721 556Q744 553 759 549Q776 545 788 539V446Q775 452 759 457Q744 461 723.5 464Q703 467 677 467Q637 467 608 452Q579 437 560.5 410.5Q542 384 533.5 347Q525 310 525 266Q525 168 566.5 126Q608 84 677 84Q704 84 725 87.5Q746 91 760 96Q777 101 789 107V14Q777 8 759 3Q743 -2 720 -5.5Q697 -9 665 -9Q596 -9 543.5 16.5Q491 42 459 95Q424 45 367 22.5Q310 0 241 0H71ZM246 95Q319 95 363.5 140Q408 185 408 275Q408 366 363 410.5Q318 455 246 455H183V95Z" glyph-name="D_C.sc" horiz-adv-x="829" /><glyph d="M81 716H288Q380 716 452 682Q524 648 565 576Q600 651 666 689Q732 727 822 727Q862 727 890.5 723Q919 719 938 714Q960 708 974 701V596Q958 604 936 610Q916 615 890 619Q864 623 830 623Q776 623 738.5 602.5Q701 582 677.5 545Q654 508 643.5 456.5Q633 405 633 343Q633 274 647.5 226.5Q662 179 688 149Q714 119 750.5 106Q787 93 830 93Q866 93 893 98Q920 103 939 109Q960 116 975 125V20Q960 11 938 5Q917 -2 888.5 -6.5Q860 -11 820 -11Q730 -11 664 24Q598 59 561 130Q516 61 444.5 30.5Q373 0 288 0H81ZM292 108Q340 108 379.5 123Q419 138 447.5 169Q476 200 491.5 247Q507 294 507 358Q507 422 491.5 469Q476 516 447.5 547Q419 578 379.5 593Q340 608 292 608H201V108ZM622 899 659 951 797 865 934 951 972 899 830 778H762Z" glyph-name="D_Ccaron" horiz-adv-x="1015" /><glyph d="M499 692 532 736 643 670 753 736 787 692 673 598H613ZM71 550H241Q315 550 371.5 525.5Q428 501 463 450Q492 504 545 531.5Q598 559 667 559Q698 559 721 556Q744 553 759 549Q776 545 788 539V446Q775 452 759 457Q744 461 723.5 464Q703 467 677 467Q637 467 608 452Q579 437 560.5 410.5Q542 384 533.5 347Q525 310 525 266Q525 168 566.5 126Q608 84 677 84Q704 84 725 87.5Q746 91 760 96Q777 101 789 107V14Q777 8 759 3Q743 -2 720 -5.5Q697 -9 665 -9Q596 -9 543.5 16.5Q491 42 459 95Q424 45 367 22.5Q310 0 241 0H71ZM246 95Q319 95 363.5 140Q408 185 408 275Q408 366 363 410.5Q318 455 246 455H183V95Z" glyph-name="D_Ccaron.sc" horiz-adv-x="829" /><glyph d="M292 108Q340 108 379.5 123Q419 138 447.5 169Q476 200 491.5 247Q507 294 507 358Q507 422 491.5 469Q476 516 447.5 547Q419 578 379.5 593Q340 608 292 608H201V108ZM925 -134Q925 -163 909.5 -185Q894 -207 867 -221Q840 -235 804.5 -240Q769 -245 729 -240V-181Q771 -183 796.5 -172Q822 -161 822 -139Q822 -122 802 -112Q782 -102 734 -103L744 -3Q618 20 561 130Q516 61 444.5 30.5Q373 0 288 0H81V716H288Q380 716 452 682Q524 648 565 576Q600 651 666 689Q732 727 822 727Q862 727 890.5 723Q919 719 938 714Q960 708 974 701V596Q958 604 936 610Q916 615 890 619Q864 623 830 623Q776 623 738.5 602.5Q701 582 677.5 545Q654 508 643.5 456.5Q633 405 633 343Q633 274 647.5 226.5Q662 179 688 149Q714 119 750.5 106Q787 93 830 93Q866 93 893 98Q920 103 939 109Q960 116 975 125V20Q960 11 939 5Q919 -2 891.5 -6.5Q864 -11 826 -11L823 -46Q925 -53 925 -134Z" glyph-name="D_Ccedilla" horiz-adv-x="1015" /><glyph d="M246 95Q319 95 363.5 140Q408 185 408 275Q408 366 363 410.5Q318 455 246 455H183V95ZM750 -102Q750 -125 737 -142Q724 -159 702 -169.5Q680 -180 650 -183.5Q620 -187 587 -183V-136Q619 -138 638.5 -130Q658 -122 658 -105Q658 -79 601 -79H591L599 -1Q504 17 459 95Q424 45 367 22.5Q310 0 241 0H71V550H241Q315 550 371.5 525.5Q428 501 463 450Q492 504 545 531.5Q598 559 667 559Q698 559 721 556Q744 553 759 549Q776 545 788 539V446Q775 452 759 457Q744 461 723.5 464Q703 467 677 467Q637 467 608 452Q579 437 560.5 410.5Q542 384 533.5 347Q525 310 525 266Q525 168 566.5 126Q608 84 677 84Q704 84 725 87.5Q746 91 760 96Q777 101 789 107V14Q777 8 761 3Q745 -2 724 -5.5Q703 -9 673 -9L670 -36Q711 -38 730.5 -55.5Q750 -73 750 -102Z" glyph-name="D_Ccedilla.sc" horiz-adv-x="829" /><glyph d="M81 716H288Q381 716 453.5 681Q526 646 568 573Q610 652 687 689.5Q764 727 856 727Q899 727 931.5 722.5Q964 718 986 713Q1012 706 1031 698V596Q1010 604 984 610Q960 615 930.5 619Q901 623 865 623Q803 623 758.5 604Q714 585 685.5 550Q657 515 643.5 465.5Q630 416 630 355Q630 234 686.5 163.5Q743 93 862 93Q882 93 900.5 94.5Q919 96 934 100V302H789V405H1042V15Q1019 7 991 1Q966 -5 934.5 -9Q903 -13 866 -13Q757 -13 680 27Q603 67 565 142Q520 67 447.5 33.5Q375 0 288 0H81ZM292 108Q340 108 379.5 123Q419 138 447.5 169Q476 200 491.5 247Q507 294 507 358Q507 422 491.5 469Q476 516 447.5 547Q419 578 379.5 593Q340 608 292 608H201V108Z" glyph-name="D_G" horiz-adv-x="1102" /><glyph d="M71 550H241Q316 550 373.5 524.5Q431 499 465 447Q500 504 561 531.5Q622 559 697 559Q731 559 758 555.5Q785 552 803 548Q825 543 841 537V447Q824 452 803 457Q784 460 760.5 463Q737 466 708 466Q611 466 567 413.5Q523 361 523 271Q523 183 566 133Q609 83 700 83Q728 83 751 88V224H643V315H850V10Q831 4 808 -1Q787 -5 761.5 -8Q736 -11 705 -11Q617 -11 555.5 18Q494 47 462 101Q426 49 368.5 24.5Q311 0 241 0H71ZM246 95Q319 95 363.5 140Q408 185 408 275Q408 366 363 410.5Q318 455 246 455H183V95Z" glyph-name="D_G.sc" horiz-adv-x="903" /><glyph d="M817 801Q785 801 766.5 821Q748 841 748 870Q748 899 766 918.5Q784 938 818 938Q852 938 870 919Q888 900 888 871Q888 841 870 821Q852 801 817 801ZM81 716H288Q381 716 453.5 681Q526 646 568 573Q610 652 687 689.5Q764 727 856 727Q899 727 931.5 722.5Q964 718 986 713Q1012 706 1031 698V596Q1010 604 984 610Q960 615 930.5 619Q901 623 865 623Q803 623 758.5 604Q714 585 685.5 550Q657 515 643.5 465.5Q630 416 630 355Q630 234 686.5 163.5Q743 93 862 93Q882 93 900.5 94.5Q919 96 934 100V302H789V405H1042V15Q1019 7 991 1Q966 -5 934.5 -9Q903 -13 866 -13Q757 -13 680 27Q603 67 565 142Q520 67 447.5 33.5Q375 0 288 0H81ZM292 108Q340 108 379.5 123Q419 138 447.5 169Q476 200 491.5 247Q507 294 507 358Q507 422 491.5 469Q476 516 447.5 547Q419 578 379.5 593Q340 608 292 608H201V108Z" glyph-name="D_Gdotaccent" horiz-adv-x="1102" /><glyph d="M665 615Q636 615 620.5 631.5Q605 648 605 671Q605 694 620.5 710Q636 726 666 726Q697 726 711.5 710Q726 694 726 671Q726 648 711.5 631.5Q697 615 665 615ZM71 550H241Q316 550 373.5 524.5Q431 499 465 447Q500 504 561 531.5Q622 559 697 559Q731 559 758 555.5Q785 552 803 548Q825 543 841 537V447Q824 452 803 457Q784 460 760.5 463Q737 466 708 466Q611 466 567 413.5Q523 361 523 271Q523 183 566 133Q609 83 700 83Q728 83 751 88V224H643V315H850V10Q831 4 808 -1Q787 -5 761.5 -8Q736 -11 705 -11Q617 -11 555.5 18Q494 47 462 101Q426 49 368.5 24.5Q311 0 241 0H71ZM246 95Q319 95 363.5 140Q408 185 408 275Q408 366 363 410.5Q318 455 246 455H183V95Z" glyph-name="D_Gdotaccent.sc" horiz-adv-x="903" /><glyph d="M81 716H288Q382 716 456 682Q530 648 572 576Q645 727 815 727Q964 727 1040 631.5Q1116 536 1116 358Q1116 178 1038.5 83.5Q961 -11 815 -11Q730 -11 665.5 26.5Q601 64 569 133Q524 62 449.5 31Q375 0 288 0H81ZM816 93Q907 93 949 159.5Q991 226 991 358Q991 489 950 556Q909 623 816 623Q724 623 681.5 556.5Q639 490 639 358Q639 225 680.5 159Q722 93 816 93ZM292 108Q342 108 383 123Q424 138 453 169Q482 200 498.5 247Q515 294 515 358Q515 422 498.5 469Q482 516 452.5 547Q423 578 382 593Q341 608 292 608H201V108Z" glyph-name="D_O" horiz-adv-x="1164" /><glyph d="M71 550H241Q315 550 373.5 525.5Q432 501 465 450Q495 504 543 531.5Q591 559 660 559Q782 559 844.5 484.5Q907 410 907 275Q907 138 843 64.5Q779 -9 660 -9Q593 -9 542 18Q491 45 464 96Q427 46 369 23Q311 0 241 0H71ZM660 84Q729 84 760 132.5Q791 181 791 275Q791 368 761.5 417Q732 466 660 466Q591 466 560 417.5Q529 369 529 275Q529 181 559 132.5Q589 84 660 84ZM246 95Q321 95 367 140Q413 185 413 275Q413 366 367 410.5Q321 455 246 455H183V95Z" glyph-name="D_O.sc" horiz-adv-x="951" /><glyph d="M81 716H288Q382 716 456 682Q530 648 572 576Q645 727 815 727Q964 727 1040 631.5Q1116 536 1116 358Q1116 178 1038.5 83.5Q961 -11 815 -11Q730 -11 665.5 26.5Q601 64 569 133Q524 62 449.5 31Q375 0 288 0H81ZM816 93Q907 93 949 159.5Q991 226 991 358Q991 489 950 556Q909 623 816 623Q724 623 681.5 556.5Q639 490 639 358Q639 225 680.5 159Q722 93 816 93ZM292 108Q342 108 383 123Q424 138 453 169Q482 200 498.5 247Q515 294 515 358Q515 422 498.5 469Q482 516 452.5 547Q423 578 382 593Q341 608 292 608H201V108ZM759 847 977 953 1017 858 789 778Z" glyph-name="D_Oacute" horiz-adv-x="1164" /><glyph d="M608 656 785 738 820 658 635 598ZM71 550H241Q315 550 373.5 525.5Q432 501 465 450Q495 504 543 531.5Q591 559 660 559Q782 559 844.5 484.5Q907 410 907 275Q907 138 843 64.5Q779 -9 660 -9Q593 -9 542 18Q491 45 464 96Q427 46 369 23Q311 0 241 0H71ZM660 84Q729 84 760 132.5Q791 181 791 275Q791 368 761.5 417Q732 466 660 466Q591 466 560 417.5Q529 369 529 275Q529 181 559 132.5Q589 84 660 84ZM246 95Q321 95 367 140Q413 185 413 275Q413 366 367 410.5Q321 455 246 455H183V95Z" glyph-name="D_Oacute.sc" horiz-adv-x="951" /><glyph d="M81 716H288Q382 716 456 682Q530 648 572 576Q645 727 815 727Q964 727 1040 631.5Q1116 536 1116 358Q1116 178 1038.5 83.5Q961 -11 815 -11Q730 -11 665.5 26.5Q601 64 569 133Q524 62 449.5 31Q375 0 288 0H81ZM816 93Q907 93 949 159.5Q991 226 991 358Q991 489 950 556Q909 623 816 623Q724 623 681.5 556.5Q639 490 639 358Q639 225 680.5 159Q722 93 816 93ZM292 108Q342 108 383 123Q424 138 453 169Q482 200 498.5 247Q515 294 515 358Q515 422 498.5 469Q482 516 452.5 547Q423 578 382 593Q341 608 292 608H201V108ZM648 830 789 951H857L998 830L961 778L823 864L685 778Z" glyph-name="D_Ocircumflex" horiz-adv-x="1164" /><glyph d="M522 641 635 736H695L809 641L775 598L665 664L555 598ZM71 550H241Q315 550 373.5 525.5Q432 501 465 450Q495 504 543 531.5Q591 559 660 559Q782 559 844.5 484.5Q907 410 907 275Q907 138 843 64.5Q779 -9 660 -9Q593 -9 542 18Q491 45 464 96Q427 46 369 23Q311 0 241 0H71ZM660 84Q729 84 760 132.5Q791 181 791 275Q791 368 761.5 417Q732 466 660 466Q591 466 560 417.5Q529 369 529 275Q529 181 559 132.5Q589 84 660 84ZM246 95Q321 95 367 140Q413 185 413 275Q413 366 367 410.5Q321 455 246 455H183V95Z" glyph-name="D_Ocircumflex.sc" horiz-adv-x="951" /><glyph d="M81 716H288Q382 716 456 682Q530 648 572 576Q645 727 815 727Q964 727 1040 631.5Q1116 536 1116 358Q1116 178 1038.5 83.5Q961 -11 815 -11Q730 -11 665.5 26.5Q601 64 569 133Q524 62 449.5 31Q375 0 288 0H81ZM816 93Q907 93 949 159.5Q991 226 991 358Q991 489 950 556Q909 623 816 623Q724 623 681.5 556.5Q639 490 639 358Q639 225 680.5 159Q722 93 816 93ZM292 108Q342 108 383 123Q424 138 453 169Q482 200 498.5 247Q515 294 515 358Q515 422 498.5 469Q482 516 452.5 547Q423 578 382 593Q341 608 292 608H201V108ZM726 801Q695 801 677 820.5Q659 840 659 868Q659 897 677 916Q695 935 727 935Q759 935 777 916Q795 897 795 869Q795 840 776.5 820.5Q758 801 726 801ZM916 801Q886 801 868 820.5Q850 840 850 868Q850 897 867.5 916Q885 935 917 935Q949 935 967 916Q985 897 985 869Q985 840 966.5 820.5Q948 801 916 801Z" glyph-name="D_Odieresis" horiz-adv-x="1164" /><glyph d="M587 615Q558 615 543.5 631Q529 647 529 670Q529 693 543.5 708.5Q558 724 586 724Q615 724 630 708.5Q645 693 645 671Q645 648 630 631.5Q615 615 587 615ZM742 615Q714 615 699.5 631Q685 647 685 670Q685 693 699 708.5Q713 724 742 724Q771 724 786 708.5Q801 693 801 671Q801 648 786 631.5Q771 615 742 615ZM71 550H241Q315 550 373.5 525.5Q432 501 465 450Q495 504 543 531.5Q591 559 660 559Q782 559 844.5 484.5Q907 410 907 275Q907 138 843 64.5Q779 -9 660 -9Q593 -9 542 18Q491 45 464 96Q427 46 369 23Q311 0 241 0H71ZM660 84Q729 84 760 132.5Q791 181 791 275Q791 368 761.5 417Q732 466 660 466Q591 466 560 417.5Q529 369 529 275Q529 181 559 132.5Q589 84 660 84ZM246 95Q321 95 367 140Q413 185 413 275Q413 366 367 410.5Q321 455 246 455H183V95Z" glyph-name="D_Odieresis.sc" horiz-adv-x="951" /><glyph d="M81 716H288Q382 716 456 682Q530 648 572 576Q645 727 815 727Q964 727 1040 631.5Q1116 536 1116 358Q1116 178 1038.5 83.5Q961 -11 815 -11Q730 -11 665.5 26.5Q601 64 569 133Q524 62 449.5 31Q375 0 288 0H81ZM816 93Q907 93 949 159.5Q991 226 991 358Q991 489 950 556Q909 623 816 623Q724 623 681.5 556.5Q639 490 639 358Q639 225 680.5 159Q722 93 816 93ZM292 108Q342 108 383 123Q424 138 453 169Q482 200 498.5 247Q515 294 515 358Q515 422 498.5 469Q482 516 452.5 547Q423 578 382 593Q341 608 292 608H201V108ZM648 858 689 953 906 847 877 778Z" glyph-name="D_Ograve" horiz-adv-x="1164" /><glyph d="M530 658 565 738 742 656 715 598ZM71 550H241Q315 550 373.5 525.5Q432 501 465 450Q495 504 543 531.5Q591 559 660 559Q782 559 844.5 484.5Q907 410 907 275Q907 138 843 64.5Q779 -9 660 -9Q593 -9 542 18Q491 45 464 96Q427 46 369 23Q311 0 241 0H71ZM660 84Q729 84 760 132.5Q791 181 791 275Q791 368 761.5 417Q732 466 660 466Q591 466 560 417.5Q529 369 529 275Q529 181 559 132.5Q589 84 660 84ZM246 95Q321 95 367 140Q413 185 413 275Q413 366 367 410.5Q321 455 246 455H183V95Z" glyph-name="D_Ograve.sc" horiz-adv-x="951" /><glyph d="M81 716H288Q382 716 456 682Q530 648 572 576Q645 727 815 727Q964 727 1040 631.5Q1116 536 1116 358Q1116 178 1038.5 83.5Q961 -11 815 -11Q730 -11 665.5 26.5Q601 64 569 133Q524 62 449.5 31Q375 0 288 0H81ZM816 93Q907 93 949 159.5Q991 226 991 358Q991 489 950 556Q909 623 816 623Q724 623 681.5 556.5Q639 490 639 358Q639 225 680.5 159Q722 93 816 93ZM292 108Q342 108 383 123Q424 138 453 169Q482 200 498.5 247Q515 294 515 358Q515 422 498.5 469Q482 516 452.5 547Q423 578 382 593Q341 608 292 608H201V108ZM685 819 809 983 886 923 743 778ZM831 840 1034 950 1076 860 860 778Z" glyph-name="D_Ohungarumlaut" horiz-adv-x="1164" /><glyph d="M551 632 649 759 717 711 601 598ZM675 648 833 734 872 661 701 598ZM71 550H241Q315 550 373.5 525.5Q432 501 465 450Q495 504 543 531.5Q591 559 660 559Q782 559 844.5 484.5Q907 410 907 275Q907 138 843 64.5Q779 -9 660 -9Q593 -9 542 18Q491 45 464 96Q427 46 369 23Q311 0 241 0H71ZM660 84Q729 84 760 132.5Q791 181 791 275Q791 368 761.5 417Q732 466 660 466Q591 466 560 417.5Q529 369 529 275Q529 181 559 132.5Q589 84 660 84ZM246 95Q321 95 367 140Q413 185 413 275Q413 366 367 410.5Q321 455 246 455H183V95Z" glyph-name="D_Ohungarumlaut.sc" horiz-adv-x="951" /><glyph d="M639 358Q639 250 668 186L919 591Q879 623 816 623Q724 623 681.5 556.5Q639 490 639 358ZM292 108Q342 108 383 123Q424 138 453 169Q482 200 498.5 247Q515 294 515 358Q515 422 498.5 469Q482 516 452.5 547Q423 578 382 593Q341 608 292 608H201V108ZM816 93Q907 93 949 159.5Q991 226 991 358Q991 408 984.5 447Q978 486 964 515L719 121Q756 93 816 93ZM815 -11Q729 -11 663 28L632 -22H534L599 82Q581 105 569 133Q524 62 449.5 31Q375 0 288 0H81V716H288Q382 716 456 682Q530 648 572 576Q645 727 815 727Q910 727 977 686L1010 738H1109L1041 630Q1079 583 1097.5 514.5Q1116 446 1116 358Q1116 178 1038.5 83.5Q961 -11 815 -11Z" glyph-name="D_Oslash" horiz-adv-x="1164" /><glyph d="M529 275Q529 202 548 154L738 442Q708 466 660 466Q591 466 560 417.5Q529 369 529 275ZM246 95Q321 95 367 140Q413 185 413 275Q413 366 367 410.5Q321 455 246 455H183V95ZM660 84Q729 84 760 132Q791 180 791 273Q791 338 774 377L593 101Q619 84 660 84ZM660 -9Q594 -9 541 19L515 -20H428L483 61Q471 73 462 94Q426 45 368 22.5Q310 0 241 0H71V550H241Q315 550 373.5 525.5Q432 501 465 450Q495 504 543 531.5Q591 559 660 559Q737 559 792 527L820 570H906L847 482Q907 409 907 275Q907 138 843 64.5Q779 -9 660 -9Z" glyph-name="D_Oslash.sc" horiz-adv-x="958" /><glyph d="M81 716H288Q382 716 456 682Q530 648 572 576Q645 727 815 727Q964 727 1040 631.5Q1116 536 1116 358Q1116 178 1038.5 83.5Q961 -11 815 -11Q730 -11 665.5 26.5Q601 64 569 133Q524 62 449.5 31Q375 0 288 0H81ZM816 93Q907 93 949 159.5Q991 226 991 358Q991 489 950 556Q909 623 816 623Q724 623 681.5 556.5Q639 490 639 358Q639 225 680.5 159Q722 93 816 93ZM292 108Q342 108 383 123Q424 138 453 169Q482 200 498.5 247Q515 294 515 358Q515 422 498.5 469Q482 516 452.5 547Q423 578 382 593Q341 608 292 608H201V108ZM653 804Q654 814 658.5 836Q663 858 674.5 880.5Q686 903 706 920Q726 937 759 937Q785 937 802 927Q819 917 836 906Q853 895 865 886Q877 877 891 877Q902 877 908 884Q914 891 918 900Q921 909 923 922H995Q994 912 990 890.5Q986 869 975 847.5Q964 826 944.5 809.5Q925 793 893 793Q867 793 851 802.5Q835 812 818 823Q801 834 788.5 843Q776 852 761 852Q749 852 742 844.5Q735 837 731 828Q727 817 725 804Z" glyph-name="D_Otilde" horiz-adv-x="1164" /><glyph d="M522 618Q523 629 527 647.5Q531 666 541.5 683Q552 700 569 712.5Q586 725 613 725Q634 725 647.5 718Q661 711 675 703Q689 694 698.5 687.5Q708 681 720 681Q729 681 734 686Q739 691 742 698Q746 705 747 714H809Q808 702 804 684.5Q800 667 790.5 650.5Q781 634 765.5 622Q750 610 724 610Q702 610 689 617Q676 624 662 632Q647 640 637.5 646.5Q628 653 615 653Q605 653 599 647.5Q593 642 590 636Q587 628 585 618ZM71 550H241Q315 550 373.5 525.5Q432 501 465 450Q495 504 543 531.5Q591 559 660 559Q782 559 844.5 484.5Q907 410 907 275Q907 138 843 64.5Q779 -9 660 -9Q593 -9 542 18Q491 45 464 96Q427 46 369 23Q311 0 241 0H71ZM660 84Q729 84 760 132.5Q791 181 791 275Q791 368 761.5 417Q732 466 660 466Q591 466 560 417.5Q529 369 529 275Q529 181 559 132.5Q589 84 660 84ZM246 95Q321 95 367 140Q413 185 413 275Q413 366 367 410.5Q321 455 246 455H183V95Z" glyph-name="D_Otilde.sc" horiz-adv-x="951" /><glyph d="M82 716H286Q369 716 431.5 691.5Q494 667 537 621Q580 575 601.5 508.5Q623 442 623 358Q623 274 601.5 208Q580 142 537 95.5Q494 49 431.5 24.5Q369 0 286 0H82ZM290 108Q385 108 441.5 169Q498 230 498 358Q498 486 441.5 547Q385 608 290 608H201V108ZM136 899 173 951 311 865 448 951 486 899 344 778H276Z" glyph-name="Dcaron" horiz-adv-x="670" unicode="&#270;" /><glyph d="M117 692 149 736 260 670 370 736 404 692 290 598H229ZM71 0V550H244Q312 550 362.5 530.5Q413 511 447.5 475Q482 439 499 388Q516 337 516 275Q516 213 499 162.5Q482 112 447.5 76Q413 40 362.5 20Q312 0 244 0ZM183 95H245Q317 95 358.5 139Q400 183 400 275Q400 367 358.5 411Q317 455 245 455H183Z" glyph-name="Dcaron.sc" horiz-adv-x="559" /><glyph d="M81 716H288Q382 716 456 682Q530 648 572 576Q645 727 815 727Q964 727 1040 631.5Q1116 536 1116 358Q1116 178 1038.5 83.5Q961 -11 815 -11Q730 -11 665.5 26.5Q601 64 569 133Q524 62 449.5 31Q375 0 288 0H81ZM816 93Q907 93 949 159.5Q991 226 991 358Q991 489 950 556Q909 623 816 623Q724 623 681.5 556.5Q639 490 639 358Q639 225 680.5 159Q722 93 816 93ZM292 108Q342 108 383 123Q424 138 453 169Q482 200 498.5 247Q515 294 515 358Q515 422 498.5 469Q482 516 452.5 547Q423 578 382 593Q341 608 292 608H201V108ZM136 899 173 951 311 865 448 951 486 899 344 778H276Z" glyph-name="Dcaron_O" horiz-adv-x="1164" /><glyph d="M117 692 149 736 260 670 370 736 404 692 290 598H229ZM71 550H241Q315 550 373.5 525.5Q432 501 465 450Q495 504 543 531.5Q591 559 660 559Q782 559 844.5 484.5Q907 410 907 275Q907 138 843 64.5Q779 -9 660 -9Q593 -9 542 18Q491 45 464 96Q427 46 369 23Q311 0 241 0H71ZM660 84Q729 84 760 132.5Q791 181 791 275Q791 368 761.5 417Q732 466 660 466Q591 466 560 417.5Q529 369 529 275Q529 181 559 132.5Q589 84 660 84ZM246 95Q321 95 367 140Q413 185 413 275Q413 366 367 410.5Q321 455 246 455H183V95Z" glyph-name="Dcaron_O.sc" horiz-adv-x="951" /><glyph d="M93 0V319H13V412H93V716H297Q380 716 442.5 691.5Q505 667 548 621Q591 575 612.5 508.5Q634 442 634 358Q634 274 612.5 208Q591 142 548 95.5Q505 49 442.5 24.5Q380 0 297 0ZM301 108Q396 108 452.5 169Q509 230 509 358Q509 486 452.5 547Q396 608 301 608H212V412H324V319H212V108Z" glyph-name="Dcroat" horiz-adv-x="681" unicode="&#272;" /><glyph d="M79 0V241H19V318H79V550H251Q319 550 370 530.5Q421 511 455.5 475Q490 439 507 388Q524 337 524 275Q524 213 507 162.5Q490 112 455.5 76Q421 40 370 20Q319 0 251 0ZM253 95Q325 95 366 139Q407 183 407 275Q407 367 366 411Q325 455 253 455H190V318H268V241H190V95Z" glyph-name="Dcroat.sc" horiz-adv-x="566" /><glyph d="M23 0 45 81 285 719H383L622 82L643 0ZM502 97 330 558 157 97Z" glyph-name="Delta" horiz-adv-x="667" unicode="&#916;" /><glyph d="M26 64 218 552H313L504 65V0H26ZM392 83 262 420 132 83Z" glyph-name="Delta.sc" horiz-adv-x="531" /><glyph d="M82 716H487V610H201V415H438V311H201V106H487V0H82Z" glyph-name="E" horiz-adv-x="535" unicode="E" /><glyph d="M71 550H411V456H183V324H364V234H183V94H411V0H71Z" glyph-name="E.sc" horiz-adv-x="456" /><glyph d="M862 259 761 559 663 259ZM81 716H487V610H201V415H437V311H201V106H502L711 719H826L1068 0H947L894 157H631L580 0H81Z" glyph-name="E_A" horiz-adv-x="1075" /><glyph d="M705 202 631 418 558 202ZM71 550H411V456H183V324H364V234H183V94H422L581 552H694L884 0H772L733 112H530L493 0H71Z" glyph-name="E_A.sc" horiz-adv-x="894" /><glyph d="M862 259 761 559 663 259ZM81 716H487V610H201V415H437V311H201V106H502L711 719H826L1068 0H947L894 157H631L580 0H81ZM691 847 909 953 949 858 721 778Z" glyph-name="E_Aacute" horiz-adv-x="1075" /><glyph d="M567 656 744 738 779 658 594 597ZM705 202 631 418 558 202ZM71 550H411V456H183V324H364V234H183V94H422L581 552H694L884 0H772L733 112H530L493 0H71Z" glyph-name="E_Aacute.sc" horiz-adv-x="894" /><glyph d="M862 259 761 559 663 259ZM81 716H487V610H201V415H437V311H201V106H502L711 719H826L1068 0H947L894 157H631L580 0H81ZM767 787Q701 787 658 826.5Q615 866 613 937H699Q699 928 702.5 916.5Q706 905 714 895Q722 885 735 878Q748 871 767 871Q786 871 799 878Q812 885 820 895Q828 905 831.5 916.5Q835 928 835 937H921Q919 866 876 826.5Q833 787 767 787Z" glyph-name="E_Abreve" horiz-adv-x="1075" /><glyph d="M637 606Q585 606 548.5 636Q512 666 509 723H585Q585 717 587.5 708.5Q590 700 596 692.5Q602 685 612 679.5Q622 674 637 674Q652 674 662 679.5Q672 685 678 692.5Q684 700 686.5 708.5Q689 717 689 723H765Q763 666 726 636Q689 606 637 606ZM705 202 631 418 558 202ZM71 550H411V456H183V324H364V234H183V94H422L581 552H694L884 0H772L733 112H530L493 0H71Z" glyph-name="E_Abreve.sc" horiz-adv-x="894" /><glyph d="M862 259 761 559 663 259ZM81 716H487V610H201V415H437V311H201V106H502L711 719H826L1068 0H947L894 157H631L580 0H81ZM592 830 733 951H801L942 830L905 778L767 864L629 778Z" glyph-name="E_Acircumflex" horiz-adv-x="1075" /><glyph d="M494 641 608 736H668L781 641L748 598L637 664L527 598ZM705 202 631 418 558 202ZM71 550H411V456H183V324H364V234H183V94H422L581 552H694L884 0H772L733 112H530L493 0H71Z" glyph-name="E_Acircumflex.sc" horiz-adv-x="894" /><glyph d="M862 259 761 559 663 259ZM81 716H487V610H201V415H437V311H201V106H502L711 719H826L1068 0H947L894 157H631L580 0H81ZM671 801Q640 801 622 820.5Q604 840 604 868Q604 897 622 916Q640 935 672 935Q704 935 722 916Q740 897 740 869Q740 840 721.5 820.5Q703 801 671 801ZM861 801Q831 801 813 820.5Q795 840 795 868Q795 897 812.5 916Q830 935 862 935Q894 935 912 916Q930 897 930 869Q930 840 911.5 820.5Q893 801 861 801Z" glyph-name="E_Adieresis" horiz-adv-x="1075" /><glyph d="M559 615Q530 615 515.5 631Q501 647 501 670Q501 693 515.5 708.5Q530 724 559 724Q588 724 603 708.5Q618 693 618 671Q618 648 602.5 631.5Q587 615 559 615ZM714 615Q686 615 671.5 631Q657 647 657 670Q657 693 671.5 708.5Q686 724 715 724Q744 724 758.5 708.5Q773 693 773 671Q773 648 758 631.5Q743 615 714 615ZM705 202 631 418 558 202ZM71 550H411V456H183V324H364V234H183V94H422L581 552H694L884 0H772L733 112H530L493 0H71Z" glyph-name="E_Adieresis.sc" horiz-adv-x="894" /><glyph d="M862 259 761 559 663 259ZM81 716H487V610H201V415H437V311H201V106H502L711 719H826L1068 0H947L894 157H631L580 0H81ZM587 858 628 953 845 847 816 778Z" glyph-name="E_Agrave" horiz-adv-x="1075" /><glyph d="M495 658 531 738 707 656 681 598ZM705 202 631 418 558 202ZM71 550H411V456H183V324H364V234H183V94H422L581 552H694L884 0H772L733 112H530L493 0H71Z" glyph-name="E_Agrave.sc" horiz-adv-x="894" /><glyph d="M862 259 761 559 663 259ZM81 716H487V610H201V415H437V311H201V106H502L711 719H826L1068 0H947L894 157H631L580 0H81ZM625 909H907V819H625Z" glyph-name="E_Amacron" horiz-adv-x="1075" /><glyph d="M522 704H750V629H522ZM705 202 631 418 558 202ZM71 550H411V456H183V324H364V234H183V94H422L581 552H694L884 0H772L733 112H530L493 0H71Z" glyph-name="E_Amacron.sc" horiz-adv-x="894" /><glyph d="M862 259 761 559 663 259ZM947 0 894 157H631L580 0H81V716H487V610H201V415H437V311H201V106H502L711 719H826L1068 0Q1017 -27 999 -55Q981 -83 981 -106Q981 -149 1028 -149Q1040 -149 1051 -145Q1062 -141 1070 -136Q1078 -131 1083.5 -127Q1089 -123 1091 -122V-189Q1088 -191 1080.5 -197Q1073 -203 1061 -209Q1049 -215 1032 -220Q1015 -225 993 -225Q942 -225 912 -197Q882 -169 882 -126Q882 -89 903 -54Q924 -19 969 0Z" glyph-name="E_Aogonek" horiz-adv-x="1075" /><glyph d="M772 0 733 112H530L493 0H71V550H411V456H183V324H364V234H183V94H422L581 552H694L884 0Q846 -19 831 -40Q816 -61 816 -79Q816 -112 853 -112Q872 -112 885 -103.5Q898 -95 903 -93V-147Q895 -152 874.5 -163Q854 -174 821 -174Q779 -174 753.5 -152Q728 -130 728 -96Q728 -66 745.5 -39.5Q763 -13 798 0ZM705 202 631 418 558 202Z" glyph-name="E_Aogonek.sc" horiz-adv-x="894" /><glyph d="M862 259 761 559 663 259ZM81 716H487V610H201V415H437V311H201V106H502L711 719H826L1068 0H947L894 157H631L580 0H81ZM766 773Q712 773 679.5 798Q647 823 647 867Q647 909 679.5 936Q712 963 766 963Q820 963 853.5 936Q887 909 887 867Q887 823 854.5 798Q822 773 766 773ZM766 830Q787 830 801.5 840Q816 850 816 869Q816 886 801.5 895.5Q787 905 766 905Q744 905 731 895.5Q718 886 718 869Q718 850 731 840Q744 830 766 830Z" glyph-name="E_Aring" horiz-adv-x="1075" /><glyph d="M636 595Q591 595 564.5 614.5Q538 634 538 669Q538 702 564.5 723Q591 744 636 744Q681 744 708 723Q735 702 735 669Q735 634 708 614.5Q681 595 636 595ZM636 642Q653 642 663.5 649Q674 656 674 670Q674 683 663.5 690Q653 697 636 697Q599 697 599 670Q599 642 636 642ZM705 202 631 418 558 202ZM71 550H411V456H183V324H364V234H183V94H422L581 552H694L884 0H772L733 112H530L493 0H71Z" glyph-name="E_Aring.sc" horiz-adv-x="894" /><glyph d="M862 259 761 559 663 259ZM81 716H487V610H201V415H437V311H201V106H502L711 719H826L1068 0H947L894 157H631L580 0H81ZM601 804Q602 814 606.5 836Q611 858 622.5 880.5Q634 903 654 920Q674 937 707 937Q733 937 750 927Q767 917 784 906Q801 895 813 886Q825 877 839 877Q850 877 856 884Q862 891 866 900Q869 909 871 922H943Q942 912 938 890.5Q934 869 923 847.5Q912 826 892.5 809.5Q873 793 841 793Q815 793 799 802.5Q783 812 766 823Q749 834 736.5 843Q724 852 709 852Q697 852 690 844.5Q683 837 679 828Q675 817 673 804Z" glyph-name="E_Atilde" horiz-adv-x="1075" /><glyph d="M498 618Q499 629 503 647.5Q507 666 517.5 683Q528 700 545 712.5Q562 725 588 725Q609 725 623 718Q637 711 651 703Q665 694 674.5 687.5Q684 681 696 681Q704 681 709 686Q714 691 717 698Q721 705 722 714H785Q784 702 780 684.5Q776 667 766.5 650.5Q757 634 741 622Q725 610 699 610Q678 610 664.5 617Q651 624 637 632Q623 640 613 646.5Q603 653 591 653Q581 653 575 647.5Q569 642 566 636Q562 628 561 618ZM705 202 631 418 558 202ZM71 550H411V456H183V324H364V234H183V94H422L581 552H694L884 0H772L733 112H530L493 0H71Z" glyph-name="E_Atilde.sc" horiz-adv-x="894" /><glyph d="M533 106V610H201V415H437V311H201V106ZM81 716H939V610H653V415H889V311H653V106H939V0H81Z" glyph-name="E_E" horiz-adv-x="987" /><glyph d="M71 550H784V456H555V324H736V234H555V94H784V0H71ZM443 94V456H183V324H364V234H183V94Z" glyph-name="E_E.sc" horiz-adv-x="830" /><glyph d="M640 847 857 953 898 858 669 778ZM533 106V610H201V415H437V311H201V106ZM81 716H939V610H653V415H889V311H653V106H939V0H81Z" glyph-name="E_Eacute" horiz-adv-x="987" /><glyph d="M536 656 712 738 748 658 563 598ZM71 550H784V456H555V324H736V234H555V94H784V0H71ZM443 94V456H183V324H364V234H183V94Z" glyph-name="E_Eacute.sc" horiz-adv-x="830" /><glyph d="M560 830 701 951H769L910 830L873 778L735 864L597 778ZM533 106V610H201V415H437V311H201V106ZM81 716H939V610H653V415H889V311H653V106H939V0H81Z" glyph-name="E_Ecircumflex" horiz-adv-x="987" /><glyph d="M471 641 584 736H645L758 641L725 598L615 664L504 598ZM71 550H784V456H555V324H736V234H555V94H784V0H71ZM443 94V456H183V324H364V234H183V94Z" glyph-name="E_Ecircumflex.sc" horiz-adv-x="830" /><glyph d="M645 801Q615 801 596.5 820.5Q578 840 578 868Q578 897 596 916Q614 935 646 935Q678 935 696 916Q714 897 714 869Q714 840 695.5 820.5Q677 801 645 801ZM835 801Q805 801 787 820.5Q769 840 769 868Q769 897 787 916Q805 935 836 935Q868 935 886 916Q904 897 904 869Q904 840 885.5 820.5Q867 801 835 801ZM533 106V610H201V415H437V311H201V106ZM81 716H939V610H653V415H889V311H653V106H939V0H81Z" glyph-name="E_Edieresis" horiz-adv-x="987" /><glyph d="M540 615Q512 615 497 631Q482 647 482 670Q482 693 496.5 708.5Q511 724 540 724Q569 724 584 708.5Q599 693 599 671Q599 648 584 631.5Q569 615 540 615ZM696 615Q667 615 652.5 631Q638 647 638 670Q638 693 652.5 708.5Q667 724 695 724Q724 724 739 708.5Q754 693 754 671Q754 648 739 631.5Q724 615 696 615ZM71 550H784V456H555V324H736V234H555V94H784V0H71ZM443 94V456H183V324H364V234H183V94Z" glyph-name="E_Edieresis.sc" horiz-adv-x="830" /><glyph d="M600 909H881V819H600ZM533 106V610H201V415H437V311H201V106ZM81 716H939V610H653V415H889V311H653V106H939V0H81Z" glyph-name="E_Emacron" horiz-adv-x="987" /><glyph d="M504 704H731V629H504ZM71 550H784V456H555V324H736V234H555V94H784V0H71ZM443 94V456H183V324H364V234H183V94Z" glyph-name="E_Emacron.sc" horiz-adv-x="830" /><glyph d="M533 106V610H201V415H437V311H201V106ZM81 716H939V610H653V415H889V311H653V106H939V0Q888 -27 870 -55Q852 -83 852 -106Q852 -149 899 -149Q911 -149 922 -145Q933 -141 941 -136Q949 -131 954.5 -127Q960 -123 962 -122V-189Q959 -191 951.5 -197Q944 -203 932 -209Q920 -215 903 -220Q886 -225 864 -225Q813 -225 783 -197Q753 -169 753 -126Q753 -89 774 -54Q795 -19 840 0H81Z" glyph-name="E_Eogonek" horiz-adv-x="987" /><glyph d="M71 0V550H784V456H555V324H736V234H555V94H784V0Q746 -19 731 -40Q716 -61 716 -79Q716 -112 752 -112Q771 -112 784 -103.5Q797 -95 802 -93V-147Q795 -152 774.5 -163Q754 -174 721 -174Q678 -174 653 -152Q628 -130 628 -96Q628 -66 645.5 -39.5Q663 -13 697 0ZM443 94V456H183V324H364V234H183V94Z" glyph-name="E_Eogonek.sc" horiz-adv-x="830" /><glyph d="M82 716H487V610H201V415H438V311H201V106H487V0H82ZM188 847 406 953 446 858 218 778Z" glyph-name="Eacute" horiz-adv-x="535" unicode="&#201;" /><glyph d="M163 656 340 738 375 658 190 598ZM71 550H411V456H183V324H364V234H183V94H411V0H71Z" glyph-name="Eacute.sc" horiz-adv-x="456" /><glyph d="M862 259 761 559 663 259ZM81 716H487V610H201V415H437V311H201V106H502L711 719H826L1068 0H947L894 157H631L580 0H81ZM188 847 406 953 446 858 218 778Z" glyph-name="Eacute_A" horiz-adv-x="1075" /><glyph d="M164 656 340 738 376 658 190 598ZM705 202 631 418 558 202ZM71 550H411V456H183V324H364V234H183V94H422L581 552H694L884 0H772L733 112H530L493 0H71Z" glyph-name="Eacute_A.sc" horiz-adv-x="894" /><glyph d="M862 259 761 559 663 259ZM81 716H487V610H201V415H437V311H201V106H502L711 719H826L1068 0H947L894 157H631L580 0H81ZM691 847 909 953 949 858 721 778ZM188 847 406 953 446 858 218 778Z" glyph-name="Eacute_Aacute" horiz-adv-x="1075" /><glyph d="M567 656 744 738 779 658 594 597ZM164 656 340 738 376 658 190 598ZM705 202 631 418 558 202ZM71 550H411V456H183V324H364V234H183V94H422L581 552H694L884 0H772L733 112H530L493 0H71Z" glyph-name="Eacute_Aacute.sc" horiz-adv-x="894" /><glyph d="M862 259 761 559 663 259ZM81 716H487V610H201V415H437V311H201V106H502L711 719H826L1068 0H947L894 157H631L580 0H81ZM592 830 733 951H801L942 830L905 778L767 864L629 778ZM188 847 406 953 446 858 218 778Z" glyph-name="Eacute_Acircumflex" horiz-adv-x="1075" /><glyph d="M494 641 608 736H668L781 641L748 598L637 664L527 598ZM164 656 340 738 376 658 190 598ZM705 202 631 418 558 202ZM71 550H411V456H183V324H364V234H183V94H422L581 552H694L884 0H772L733 112H530L493 0H71Z" glyph-name="Eacute_Acircumflex.sc" horiz-adv-x="894" /><glyph d="M862 259 761 559 663 259ZM81 716H487V610H201V415H437V311H201V106H502L711 719H826L1068 0H947L894 157H631L580 0H81ZM766 773Q712 773 679.5 798Q647 823 647 867Q647 909 679.5 936Q712 963 766 963Q820 963 853.5 936Q887 909 887 867Q887 823 854.5 798Q822 773 766 773ZM766 830Q787 830 801.5 840Q816 850 816 869Q816 886 801.5 895.5Q787 905 766 905Q744 905 731 895.5Q718 886 718 869Q718 850 731 840Q744 830 766 830ZM188 847 406 953 446 858 218 778Z" glyph-name="Eacute_Aring" horiz-adv-x="1075" /><glyph d="M636 595Q591 595 564.5 614.5Q538 634 538 669Q538 702 564.5 723Q591 744 636 744Q681 744 708 723Q735 702 735 669Q735 634 708 614.5Q681 595 636 595ZM636 642Q653 642 663.5 649Q674 656 674 670Q674 683 663.5 690Q653 697 636 697Q599 697 599 670Q599 642 636 642ZM164 656 340 738 376 658 190 598ZM705 202 631 418 558 202ZM71 550H411V456H183V324H364V234H183V94H422L581 552H694L884 0H772L733 112H530L493 0H71Z" glyph-name="Eacute_Aring.sc" horiz-adv-x="894" /><glyph d="M188 847 405 953 446 858 217 778ZM533 106V610H201V415H437V311H201V106ZM81 716H939V610H653V415H889V311H653V106H939V0H81Z" glyph-name="Eacute_E" horiz-adv-x="987" /><glyph d="M164 656 340 738 376 658 190 598ZM71 550H784V456H555V324H736V234H555V94H784V0H71ZM443 94V456H183V324H364V234H183V94Z" glyph-name="Eacute_E.sc" horiz-adv-x="830" /><glyph d="M188 847 405 953 446 858 217 778ZM640 847 857 953 898 858 669 778ZM533 106V610H201V415H437V311H201V106ZM81 716H939V610H653V415H889V311H653V106H939V0H81Z" glyph-name="Eacute_Eacute" horiz-adv-x="987" /><glyph d="M536 656 712 738 748 658 563 598ZM164 656 340 738 376 658 190 598ZM71 550H784V456H555V324H736V234H555V94H784V0H71ZM443 94V456H183V324H364V234H183V94Z" glyph-name="Eacute_Eacute.sc" horiz-adv-x="830" /><glyph d="M188 847 405 953 446 858 217 778ZM580 858 621 953 838 847 809 778ZM533 106V610H201V415H437V311H201V106ZM81 716H939V610H653V415H889V311H653V106H939V0H81Z" glyph-name="Eacute_Egrave" horiz-adv-x="987" /><glyph d="M490 658 525 738 701 656 675 598ZM164 656 340 738 376 658 190 598ZM71 550H784V456H555V324H736V234H555V94H784V0H71ZM443 94V456H183V324H364V234H183V94Z" glyph-name="Eacute_Egrave.sc" horiz-adv-x="830" /><glyph d="M82 716H487V610H201V415H438V311H201V106H487V0H82ZM289 787Q223 787 180 826.5Q137 866 135 937H221Q221 928 224.5 916.5Q228 905 236 895Q244 885 257 878Q270 871 289 871Q308 871 321 878Q334 885 342 895Q350 905 353.5 916.5Q357 928 357 937H443Q441 866 398 826.5Q355 787 289 787Z" glyph-name="Ebreve" horiz-adv-x="535" unicode="&#276;" /><glyph d="M245 606Q193 606 156 636Q119 666 117 723H192Q192 717 194.5 708.5Q197 700 203 692.5Q209 685 219.5 679.5Q230 674 245 674Q260 674 270 679.5Q280 685 286 692.5Q292 700 294.5 708.5Q297 717 297 723H372Q370 666 333.5 636Q297 606 245 606ZM71 550H411V456H183V324H364V234H183V94H411V0H71Z" glyph-name="Ebreve.sc" horiz-adv-x="456" /><glyph d="M82 716H487V610H201V415H438V311H201V106H487V0H82ZM119 899 156 951 294 865 431 951 469 899 327 778H259Z" glyph-name="Ecaron" horiz-adv-x="535" unicode="&#282;" /><glyph d="M106 692 138 736 249 670 359 736 393 692 279 598H218ZM71 550H411V456H183V324H364V234H183V94H411V0H71Z" glyph-name="Ecaron.sc" horiz-adv-x="456" /><glyph d="M82 716H487V610H201V415H438V311H201V106H487V0H82ZM109 830 250 951H318L459 830L422 778L284 864L146 778Z" glyph-name="Ecircumflex" horiz-adv-x="535" unicode="&#202;" /><glyph d="M98 641 212 736H272L386 641L352 598L242 664L132 598ZM71 550H411V456H183V324H364V234H183V94H411V0H71Z" glyph-name="Ecircumflex.sc" horiz-adv-x="456" /><glyph d="M108 830 249 951H317L458 830L421 778L283 864L145 778ZM533 106V610H201V415H437V311H201V106ZM81 716H939V610H653V415H889V311H653V106H939V0H81Z" glyph-name="Ecircumflex_E" horiz-adv-x="987" /><glyph d="M99 641 212 736H273L386 641L352 598L242 664L132 598ZM71 550H784V456H555V324H736V234H555V94H784V0H71ZM443 94V456H183V324H364V234H183V94Z" glyph-name="Ecircumflex_E.sc" horiz-adv-x="830" /><glyph d="M194 801Q163 801 145 820.5Q127 840 127 868Q127 897 145 916Q163 935 195 935Q227 935 245 916Q263 897 263 869Q263 840 244.5 820.5Q226 801 194 801ZM384 801Q354 801 336 820.5Q318 840 318 868Q318 897 335.5 916Q353 935 385 935Q417 935 435 916Q453 897 453 869Q453 840 434.5 820.5Q416 801 384 801ZM82 716H487V610H201V415H438V311H201V106H487V0H82Z" glyph-name="Edieresis" horiz-adv-x="535" unicode="&#203;" /><glyph d="M167 615Q139 615 124 631Q109 647 109 670Q109 693 124 708.5Q139 724 167 724Q196 724 211 708.5Q226 693 226 671Q226 648 211 631.5Q196 615 167 615ZM323 615Q295 615 280 631Q265 647 265 670Q265 693 279.5 708.5Q294 724 323 724Q352 724 367 708.5Q382 693 382 671Q382 648 367 631.5Q352 615 323 615ZM71 550H411V456H183V324H364V234H183V94H411V0H71Z" glyph-name="Edieresis.sc" horiz-adv-x="456" /><glyph d="M862 259 761 559 663 259ZM81 716H487V610H201V415H437V311H201V106H502L711 719H826L1068 0H947L894 157H631L580 0H81ZM193 801Q162 801 144 820.5Q126 840 126 868Q126 897 144 916Q162 935 194 935Q226 935 244 916Q262 897 262 869Q262 840 243.5 820.5Q225 801 193 801ZM383 801Q353 801 335 820.5Q317 840 317 868Q317 897 334.5 916Q352 935 384 935Q416 935 434 916Q452 897 452 869Q452 840 433.5 820.5Q415 801 383 801Z" glyph-name="Edieresis_A" horiz-adv-x="1075" /><glyph d="M167 615Q139 615 124.5 631Q110 647 110 670Q110 693 124.5 708.5Q139 724 167 724Q196 724 211 708.5Q226 693 226 671Q226 648 211 631.5Q196 615 167 615ZM323 615Q295 615 280 631Q265 647 265 670Q265 693 279.5 708.5Q294 724 323 724Q352 724 367 708.5Q382 693 382 671Q382 648 367 631.5Q352 615 323 615ZM705 202 631 418 558 202ZM71 550H411V456H183V324H364V234H183V94H422L581 552H694L884 0H772L733 112H530L493 0H71Z" glyph-name="Edieresis_A.sc" horiz-adv-x="894" /><glyph d="M193 801Q163 801 144.5 820.5Q126 840 126 868Q126 897 144 916Q162 935 194 935Q226 935 244 916Q262 897 262 869Q262 840 243.5 820.5Q225 801 193 801ZM383 801Q353 801 335 820.5Q317 840 317 868Q317 897 335 916Q353 935 384 935Q416 935 434 916Q452 897 452 869Q452 840 433.5 820.5Q415 801 383 801ZM533 106V610H201V415H437V311H201V106ZM81 716H939V610H653V415H889V311H653V106H939V0H81Z" glyph-name="Edieresis_E" horiz-adv-x="987" /><glyph d="M167 615Q139 615 124.5 631Q110 647 110 670Q110 693 124.5 708.5Q139 724 167 724Q196 724 211 708.5Q226 693 226 671Q226 648 211 631.5Q196 615 167 615ZM323 615Q295 615 280 631Q265 647 265 670Q265 693 279.5 708.5Q294 724 323 724Q352 724 367 708.5Q382 693 382 671Q382 648 367 631.5Q352 615 323 615ZM71 550H784V456H555V324H736V234H555V94H784V0H71ZM443 94V456H183V324H364V234H183V94Z" glyph-name="Edieresis_E.sc" horiz-adv-x="830" /><glyph d="M82 716H487V610H201V415H438V311H201V106H487V0H82ZM287 801Q255 801 236.5 821Q218 841 218 870Q218 899 236 918.5Q254 938 288 938Q322 938 340 919Q358 900 358 871Q358 841 340 821Q322 801 287 801Z" glyph-name="Edotaccent" horiz-adv-x="535" unicode="&#278;" /><glyph d="M243 615Q213 615 198 631.5Q183 648 183 671Q183 694 197.5 710Q212 726 243 726Q274 726 289 710Q304 694 304 671Q304 648 289 631.5Q274 615 243 615ZM71 550H411V456H183V324H364V234H183V94H411V0H71Z" glyph-name="Edotaccent.sc" horiz-adv-x="456" /><glyph d="M287 801Q254 801 236 821Q218 841 218 870Q218 899 236 918.5Q254 938 287 938Q322 938 340 919Q358 900 358 871Q358 841 340 821Q322 801 287 801ZM533 106V610H201V415H437V311H201V106ZM81 716H939V610H653V415H889V311H653V106H939V0H81Z" glyph-name="Edotaccent_E" horiz-adv-x="987" /><glyph d="M243 615Q213 615 198 631.5Q183 648 183 671Q183 694 197.5 710Q212 726 243 726Q275 726 289.5 710Q304 694 304 671Q304 648 289 631.5Q274 615 243 615ZM71 550H784V456H555V324H736V234H555V94H784V0H71ZM443 94V456H183V324H364V234H183V94Z" glyph-name="Edotaccent_E.sc" horiz-adv-x="830" /><glyph d="M82 716H487V610H201V415H438V311H201V106H487V0H82ZM130 858 171 953 388 847 359 778Z" glyph-name="Egrave" horiz-adv-x="535" unicode="&#200;" /><glyph d="M117 658 153 738 329 656 303 598ZM71 550H411V456H183V324H364V234H183V94H411V0H71Z" glyph-name="Egrave.sc" horiz-adv-x="456" /><glyph d="M862 259 761 559 663 259ZM81 716H487V610H201V415H437V311H201V106H502L711 719H826L1068 0H947L894 157H631L580 0H81ZM122 858 163 953 380 847 351 778Z" glyph-name="Egrave_A" horiz-adv-x="1075" /><glyph d="M108 658 144 738 321 656 294 598ZM705 202 631 418 558 202ZM71 550H411V456H183V324H364V234H183V94H422L581 552H694L884 0H772L733 112H530L493 0H71Z" glyph-name="Egrave_A.sc" horiz-adv-x="894" /><glyph d="M125 858 166 953 383 847 354 778ZM533 106V610H201V415H437V311H201V106ZM81 716H939V610H653V415H889V311H653V106H939V0H81Z" glyph-name="Egrave_E" horiz-adv-x="987" /><glyph d="M112 658 147 738 324 656 298 598ZM71 550H784V456H555V324H736V234H555V94H784V0H71ZM443 94V456H183V324H364V234H183V94Z" glyph-name="Egrave_E.sc" horiz-adv-x="830" /><glyph d="M82 716H487V610H201V415H438V311H201V106H487V0H82ZM148 909H430V819H148Z" glyph-name="Emacron" horiz-adv-x="535" unicode="&#274;" /><glyph d="M131 704H359V629H131ZM71 550H411V456H183V324H364V234H183V94H411V0H71Z" glyph-name="Emacron.sc" horiz-adv-x="456" /><glyph d="M82 716H190L503 208V716H612V-32Q612 -129 569 -178.5Q526 -228 443 -228Q424 -228 408 -225.5Q392 -223 381 -220Q368 -216 357 -211V-110Q367 -114 379 -117Q390 -120 402 -122Q414 -124 428 -124Q464 -124 481.5 -105Q499 -86 501 -42V4L190 508V0H82Z" glyph-name="Eng" horiz-adv-x="693" unicode="&#330;" /><glyph d="M71 550H171L411 182V550H511V-12Q511 -173 365 -173Q350 -173 337.5 -171Q325 -169 316 -167Q305 -164 297 -160V-71Q304 -74 313 -77Q321 -79 330 -80.5Q339 -82 350 -82Q378 -82 391.5 -68Q405 -54 407 -25V5L171 367V0H71Z" glyph-name="Eng.sc" horiz-adv-x="582" /><glyph d="M82 0V716H487V610H201V415H438V311H201V106H487V0Q437 -27 419 -55Q401 -83 401 -106Q401 -149 448 -149Q460 -149 471 -145Q482 -141 490 -136Q498 -131 503.5 -127Q509 -123 511 -122V-189Q508 -191 500.5 -197Q493 -203 480.5 -209Q468 -215 451 -220Q434 -225 413 -225Q362 -225 332 -197Q302 -169 302 -126Q302 -89 322.5 -54Q343 -19 388 0Z" glyph-name="Eogonek" horiz-adv-x="535" unicode="&#280;" /><glyph d="M71 0V550H411V456H183V324H364V234H183V94H411V0Q373 -19 358 -40Q343 -61 343 -79Q343 -112 380 -112Q399 -112 412 -103.5Q425 -95 430 -93V-147Q422 -152 401.5 -163Q381 -174 348 -174Q306 -174 280.5 -152Q255 -130 255 -96Q255 -66 272.5 -39.5Q290 -13 325 0Z" glyph-name="Eogonek.sc" horiz-adv-x="456" /><glyph d="M93 0V319H13V412H93V716H297Q380 716 442.5 691.5Q505 667 548 621Q591 575 612.5 508.5Q634 442 634 358Q634 274 612.5 208Q591 142 548 95.5Q505 49 442.5 24.5Q380 0 297 0ZM301 108Q396 108 452.5 169Q509 230 509 358Q509 486 452.5 547Q396 608 301 608H212V412H324V319H212V108Z" glyph-name="Eth" horiz-adv-x="681" unicode="&#208;" /><glyph d="M79 0V241H19V318H79V550H251Q319 550 370 530.5Q421 511 455.5 475Q490 439 507 388Q524 337 524 275Q524 213 507 162.5Q490 112 455.5 76Q421 40 370 20Q319 0 251 0ZM253 95Q325 95 366 139Q407 183 407 275Q407 367 366 411Q325 455 253 455H190V318H268V241H190V95Z" glyph-name="Eth.sc" horiz-adv-x="566" /><glyph d="M41 389V470H118Q143 589 218.5 659Q294 729 419 729Q459 729 489.5 724.5Q520 720 540 715Q564 708 581 700L566 598Q550 606 528 612Q509 617 483.5 621Q458 625 426 625Q353 625 308 583Q263 541 246 470H488L457 389ZM576 20Q559 11 537 5Q516 -2 488 -6.5Q460 -11 422 -11Q297 -11 215 55.5Q133 122 111 253H41V334H436L404 253H240Q257 172 305 132.5Q353 93 431 93Q465 93 491.5 98Q518 103 537 109Q559 116 576 125Z" glyph-name="Euro" horiz-adv-x="629" unicode="&#8364;" /><glyph d="M44 272V346H122Q142 424 207.5 471Q273 518 373 518Q408 518 433.5 514Q459 510 476 505Q496 499 509 492L495 399Q482 406 465 412Q449 417 428 420.5Q407 424 380 424Q329 424 295 402Q261 380 247 346H448L418 272ZM505 18Q491 10 471 4Q452 -2 426 -6.5Q400 -11 364 -11Q320 -11 280 -0.5Q240 10 208 30Q176 50 152.5 81Q129 112 118 152H44V225H397L367 152H244Q261 117 297 100Q333 83 378 83Q406 83 429.5 87.5Q453 92 470 98Q489 105 505 113Z" glyph-name="Euro.old" horiz-adv-x="558" /><glyph d="M68 272V346H146Q166 424 231.5 471Q297 518 397 518Q432 518 457.5 514Q483 510 500 505Q520 499 533 492L519 399Q506 406 489 412Q473 417 452 420.5Q431 424 404 424Q353 424 319 402Q285 380 271 346H472L442 272ZM529 18Q515 10 495 4Q476 -2 450 -6.5Q424 -11 388 -11Q344 -11 304 -0.5Q264 10 232 30Q200 50 176.5 81Q153 112 142 152H68V225H421L391 152H268Q285 117 321 100Q357 83 402 83Q430 83 453.5 87.5Q477 92 494 98Q513 105 529 113Z" glyph-name="Euro.oldtab" horiz-adv-x="605" /><glyph d="M38 298V365H99Q121 455 183 508Q245 561 346 561Q379 561 404 557.5Q429 554 446 550Q466 544 480 538L461 449Q449 455 432 459Q417 463 398 466Q379 469 354 469Q301 469 268 441Q235 413 221 365H408L381 298ZM474 14Q460 8 442 3Q425 -2 402.5 -5.5Q380 -9 351 -9Q251 -9 182 41Q113 91 94 191H38V259H365L339 191H217Q231 137 267.5 110.5Q304 84 361 84Q386 84 407 87.5Q428 91 443 96Q460 101 474 107Z" glyph-name="Euro.sc" horiz-adv-x="523" /><glyph d="M29 389V470H106Q131 589 206.5 659Q282 729 407 729Q447 729 477.5 724.5Q508 720 528 715Q552 708 569 700L554 598Q538 606 516 612Q497 617 471.5 621Q446 625 414 625Q341 625 296 583Q251 541 234 470H476L445 389ZM564 20Q547 11 525 5Q504 -2 476 -6.5Q448 -11 410 -11Q285 -11 203 55.5Q121 122 99 253H29V334H424L392 253H228Q245 172 293 132.5Q341 93 419 93Q453 93 479.5 98Q506 103 525 109Q547 116 564 125Z" glyph-name="Euro.tab" horiz-adv-x="605" /><glyph d="M82 716H484V610H201V410H439V303H201V0H82Z" glyph-name="F" horiz-adv-x="512" unicode="F" /><glyph d="M71 550H407V456H183V318H366V224H183V0H71Z" glyph-name="F.sc" horiz-adv-x="434" /><glyph d="M81 0V716H652V108H934V0H532V610H201V410H430V303H201V0Z" glyph-name="F_L" horiz-adv-x="947" /><glyph d="M71 0V550H550V95H772V0H438V456H183V318H356V224H183V0Z" glyph-name="F_L.sc" horiz-adv-x="788" /><glyph d="M830 500 867 586Q838 591 822.5 609Q807 627 807 655Q807 683 825.5 704.5Q844 726 878 726Q913 726 930.5 704.5Q948 683 948 651Q948 616 929.5 572.5Q911 529 884 478ZM81 0V716H652V108H934V0H532V610H201V410H430V303H201V0Z" glyph-name="F_Lcaron" horiz-adv-x="984" /><glyph d="M687 378 718 445Q665 454 665 501Q665 524 681.5 542Q698 560 728 560Q758 560 773.5 543Q789 526 789 497Q789 469 773 434.5Q757 400 734 359ZM71 0V550H550V95H772V0H438V456H183V318H356V224H183V0Z" glyph-name="F_Lcaron.sc" horiz-adv-x="823" /><glyph d="M399 -13Q304 -13 237 14Q170 41 127.5 90Q85 139 65.5 206Q46 273 46 354Q46 434 66.5 502Q87 570 129 620Q171 670 236 698.5Q301 727 389 727Q432 727 464.5 722.5Q497 718 519 713Q545 706 564 698V596Q543 604 518 610Q494 615 464.5 619Q435 623 399 623Q338 623 295 604Q252 585 224.5 550Q197 515 184 465.5Q171 416 171 355Q171 234 225.5 163.5Q280 93 395 93Q415 93 433.5 94.5Q452 96 468 100V302H322V405H576V15Q552 7 524 1Q499 -5 467.5 -9Q436 -13 399 -13Z" glyph-name="G" horiz-adv-x="635" unicode="G" /><glyph d="M335 -11Q257 -11 201.5 9.5Q146 30 110.5 67.5Q75 105 58.5 156.5Q42 208 42 271Q42 333 59.5 385.5Q77 438 112.5 476.5Q148 515 201.5 537Q255 559 328 559Q362 559 388.5 555.5Q415 552 433 548Q455 543 471 537V447Q454 452 433 457Q414 460 390.5 463Q367 466 338 466Q244 466 201 414Q158 362 158 271Q158 183 200 133Q242 83 330 83Q360 83 383 88V225H274V315H481V10Q462 4 439 -1Q418 -5 392 -8Q366 -11 335 -11Z" glyph-name="G.sc" horiz-adv-x="534" /><glyph d="M399 -13Q304 -13 237 14Q170 41 127.5 90Q85 139 65.5 206Q46 273 46 354Q46 434 66.5 502Q87 570 129 620Q171 670 236 698.5Q301 727 389 727Q432 727 464.5 722.5Q497 718 519 713Q545 706 564 698V596Q543 604 518 610Q494 615 464.5 619Q435 623 399 623Q338 623 295 604Q252 585 224.5 550Q197 515 184 465.5Q171 416 171 355Q171 234 225.5 163.5Q280 93 395 93Q415 93 433.5 94.5Q452 96 468 100V305H322V409H833V716H953V0H833V301H576V15Q552 7 524 1Q499 -5 467.5 -9Q436 -13 399 -13Z" glyph-name="G_H" horiz-adv-x="1034" /><glyph d="M335 -11Q257 -11 201.5 9.5Q146 30 110.5 67.5Q75 105 58.5 156.5Q42 208 42 271Q42 333 59.5 385.5Q77 438 112 476.5Q147 515 201 537Q255 559 327 559Q361 559 388 555.5Q415 552 433 548Q455 543 471 537V447Q454 452 433 457Q414 460 390.5 463Q367 466 338 466Q244 466 201 414Q158 362 158 271Q158 183 200 133Q242 83 330 83Q358 83 381 88V226H274V316H677V550H788V0H677V221H481V10Q462 4 439 -1Q418 -5 392 -8Q366 -11 335 -11Z" glyph-name="G_H.sc" horiz-adv-x="860" /><glyph d="M399 -13Q304 -13 237 14Q170 41 127.5 90Q85 139 65.5 206Q46 273 46 354Q46 434 66.5 502Q87 570 129 620Q171 670 236 698.5Q301 727 389 727Q432 727 464.5 722.5Q497 718 519 713Q545 706 564 698V596Q543 604 518 610Q494 615 464.5 619Q435 623 399 623Q338 623 295 604Q252 585 224.5 550Q197 515 184 465.5Q171 416 171 355Q171 234 225.5 163.5Q280 93 395 93Q415 93 433.5 94.5Q452 96 468 100V306H322V408H620L827 716H953L716 365L969 0H832L620 304H576V15Q552 7 524 1Q499 -5 467.5 -9Q436 -13 399 -13Z" glyph-name="G_K" horiz-adv-x="971" /><glyph d="M335 -11Q257 -11 201.5 9.5Q146 30 110.5 67.5Q75 105 58.5 156.5Q42 208 42 271Q42 333 59.5 385.5Q77 438 112 476.5Q147 515 201 537Q255 559 327 559Q361 559 388 555.5Q415 552 433 548Q455 543 471 537V447Q454 452 433 457Q414 460 390.5 463Q367 466 338 466Q244 466 201 414Q158 362 158 271Q158 183 200 133Q242 83 330 83Q358 83 381 88V227H274V316H512L671 550H787L602 278L801 0H675L512 224H481V10Q462 4 439 -1Q418 -5 392 -8Q366 -11 335 -11Z" glyph-name="G_K.sc" horiz-adv-x="808" /><glyph d="M954 -9Q912 -9 881 5Q850 19 818 47L802 0H712V677H609Q564 677 564 636V596Q562 597 549 601Q536 605 514 610Q492 615 463 619Q434 623 399 623Q338 623 295 604Q252 585 224.5 550Q197 515 184 465.5Q171 416 171 355Q171 234 225.5 163.5Q280 93 395 93Q415 93 433.5 94.5Q452 96 468 100V302H322V405H576V15Q552 7 524 1Q499 -5 467.5 -9Q436 -13 399 -13Q304 -13 237 14Q170 41 127.5 90Q85 139 65.5 206Q46 273 46 354Q46 434 66.5 502Q87 570 129 620Q171 670 236 698.5Q301 727 389 727Q446 727 488 719Q509 766 573 766H831V453Q844 471 863 486Q881 499 906 508.5Q931 518 968 518Q1022 518 1061 498Q1100 478 1124.5 443.5Q1149 409 1161 363Q1173 317 1173 265Q1173 202 1158 151.5Q1143 101 1114.5 65.5Q1086 30 1045.5 10.5Q1005 -9 954 -9ZM831 118Q842 109 856 103Q870 96 887 91.5Q904 87 926 87Q992 87 1021 134.5Q1050 182 1050 261Q1050 335 1021.5 376.5Q993 418 930 418Q905 418 886.5 409.5Q868 401 856 392Q841 380 831 365Z" glyph-name="G_b" horiz-adv-x="1215" /><glyph d="M576 15Q552 7 524 1Q499 -5 467.5 -9Q436 -13 399 -13Q304 -13 237 14Q170 41 127.5 90Q85 139 65.5 206Q46 273 46 354Q46 434 66.5 502Q87 570 129 620Q171 670 236 698.5Q301 727 389 727Q446 727 488 719Q509 766 573 766H831V451Q846 470 868 485Q888 498 916 508Q944 518 983 518Q1031 518 1064 502.5Q1097 487 1117.5 459Q1138 431 1147 393Q1156 355 1156 310V0H1038V304Q1038 361 1014 389Q990 417 938 417Q912 417 892 409.5Q872 402 858 394Q842 383 831 370V0H712V677H610Q564 677 564 636V596Q543 604 518 610Q494 615 464.5 619Q435 623 399 623Q338 623 295 604Q252 585 224.5 550Q197 515 184 465.5Q171 416 171 355Q171 234 225.5 163.5Q280 93 395 93Q415 93 433.5 94.5Q452 96 468 100V302H322V405H576Z" glyph-name="G_h" horiz-adv-x="1220" /><glyph d="M576 15Q552 7 524 1Q499 -5 467.5 -9Q436 -13 399 -13Q304 -13 237 14Q170 41 127.5 90Q85 139 65.5 206Q46 273 46 354Q46 434 66.5 502Q87 570 129 620Q171 670 236 698.5Q301 727 389 727Q446 727 488 719Q509 766 571 766H831V304H870L1018 508H1143L969 269L1158 0H1021L871 213H831V0H712V677H610Q564 677 564 636V596Q543 604 518 610Q494 615 464.5 619Q435 623 399 623Q338 623 295 604Q252 585 224.5 550Q197 515 184 465.5Q171 416 171 355Q171 234 225.5 163.5Q280 93 395 93Q415 93 433.5 94.5Q452 96 468 100V302H322V405H576Z" glyph-name="G_k" horiz-adv-x="1158" /><glyph d="M826 -9Q711 -9 711 124V677H610Q564 677 564 636V596Q543 604 518 610Q494 615 464.5 619Q435 623 399 623Q338 623 295 604Q252 585 224.5 550Q197 515 184 465.5Q171 416 171 355Q171 234 225.5 163.5Q280 93 395 93Q415 93 433.5 94.5Q452 96 468 100V302H322V405H576V15Q552 7 524 1Q499 -5 467.5 -9Q436 -13 399 -13Q304 -13 237 14Q170 41 127.5 90Q85 139 65.5 206Q46 273 46 354Q46 434 66.5 502Q87 570 129 620Q171 670 236 698.5Q301 727 389 727Q446 727 488 719Q509 766 571 766H830V147Q830 110 842 96Q854 82 883 82H890V0Q883 -3 873 -5Q864 -6 852.5 -7.5Q841 -9 826 -9Z" glyph-name="G_l" horiz-adv-x="921" /><glyph d="M648 867 865 973 906 878 677 798ZM826 -9Q711 -9 711 124V677H610Q564 677 564 636V596Q543 604 518 610Q494 615 464.5 619Q435 623 399 623Q338 623 295 604Q252 585 224.5 550Q197 515 184 465.5Q171 416 171 355Q171 234 225.5 163.5Q280 93 395 93Q415 93 433.5 94.5Q452 96 468 100V302H322V405H576V15Q552 7 524 1Q499 -5 467.5 -9Q436 -13 399 -13Q304 -13 237 14Q170 41 127.5 90Q85 139 65.5 206Q46 273 46 354Q46 434 66.5 502Q87 570 129 620Q171 670 236 698.5Q301 727 389 727Q446 727 488 719Q509 766 571 766H830V147Q830 110 842 96Q854 82 883 82H890V0Q883 -3 873 -5Q864 -6 852.5 -7.5Q841 -9 826 -9Z" glyph-name="G_lacute" horiz-adv-x="921" /><glyph d="M913 549 950 635Q889 646 889 704Q889 732 907.5 753.5Q926 775 961 775Q995 775 1013 753.5Q1031 732 1031 700Q1031 665 1012 621.5Q993 578 966 527ZM826 -9Q711 -9 711 124V677H610Q564 677 564 636V596Q543 604 518 610Q494 615 464.5 619Q435 623 399 623Q338 623 295 604Q252 585 224.5 550Q197 515 184 465.5Q171 416 171 355Q171 234 225.5 163.5Q280 93 395 93Q415 93 433.5 94.5Q452 96 468 100V302H322V405H576V15Q552 7 524 1Q499 -5 467.5 -9Q436 -13 399 -13Q304 -13 237 14Q170 41 127.5 90Q85 139 65.5 206Q46 273 46 354Q46 434 66.5 502Q87 570 129 620Q171 670 236 698.5Q301 727 389 727Q446 727 488 719Q509 766 571 766H830V147Q830 110 842 96Q854 82 883 82H890V0Q883 -3 873 -5Q864 -6 852.5 -7.5Q841 -9 826 -9Z" glyph-name="G_lcaron" horiz-adv-x="975" /><glyph d="M826 -9Q711 -9 711 124V677H610Q564 677 564 636V596Q543 604 518 610Q494 615 464.5 619Q435 623 399 623Q338 623 295 604Q252 585 224.5 550Q197 515 184 465.5Q171 416 171 355Q171 234 225.5 163.5Q280 93 395 93Q415 93 433.5 94.5Q452 96 468 100V302H322V405H576V15Q552 7 524 1Q499 -5 467.5 -9Q436 -13 399 -13Q304 -13 237 14Q170 41 127.5 90Q85 139 65.5 206Q46 273 46 354Q46 434 66.5 502Q87 570 129 620Q171 670 236 698.5Q301 727 389 727Q446 727 488 719Q509 766 571 766H830V147Q830 110 842 96Q854 82 883 82H890V0Q883 -3 873 -5Q864 -6 852.5 -7.5Q841 -9 826 -9ZM753 -291 791 -205Q730 -194 730 -136Q730 -108 748.5 -86.5Q767 -65 801 -65Q836 -65 853.5 -86.5Q871 -108 871 -140Q871 -175 852.5 -218.5Q834 -262 807 -313Z" glyph-name="G_lcommaaccent" horiz-adv-x="921" /><glyph d="M826 -9Q711 -9 711 124V317L635 279V372L711 410V677H610Q564 677 564 636V596Q543 604 518 610Q494 615 464.5 619Q435 623 399 623Q338 623 295 604Q252 585 224.5 550Q197 515 184 465.5Q171 416 171 355Q171 234 225.5 163.5Q280 93 395 93Q415 93 433.5 94.5Q452 96 468 100V302H322V405H576V15Q552 7 524 1Q499 -5 467.5 -9Q436 -13 399 -13Q304 -13 237 14Q170 41 127.5 90Q85 139 65.5 206Q46 273 46 354Q46 434 66.5 502Q87 570 129 620Q171 670 236 698.5Q301 727 389 727Q446 727 488 719Q509 766 571 766H830V469L919 513V420L830 376V147Q830 110 842 96Q854 82 883 82H890V0Q883 -3 873 -5Q864 -6 852.5 -7.5Q841 -9 826 -9Z" glyph-name="G_lslash" horiz-adv-x="950" /><glyph d="M399 -13Q304 -13 237 14Q170 41 127.5 90Q85 139 65.5 206Q46 273 46 354Q46 434 66.5 502Q87 570 129 620Q171 670 236 698.5Q301 727 389 727Q432 727 464.5 722.5Q497 718 519 713Q545 706 564 698V596Q543 604 518 610Q494 615 464.5 619Q435 623 399 623Q338 623 295 604Q252 585 224.5 550Q197 515 184 465.5Q171 416 171 355Q171 234 225.5 163.5Q280 93 395 93Q415 93 433.5 94.5Q452 96 468 100V302H322V405H576V15Q552 7 524 1Q499 -5 467.5 -9Q436 -13 399 -13ZM342 787Q276 787 233 826.5Q190 866 188 937H274Q274 928 277.5 916.5Q281 905 289 895Q297 885 310 878Q323 871 342 871Q361 871 374 878Q387 885 395 895Q403 905 406.5 916.5Q410 928 410 937H496Q494 866 451 826.5Q408 787 342 787Z" glyph-name="Gbreve" horiz-adv-x="635" unicode="&#286;" /><glyph d="M290 606Q238 606 201 636Q164 666 162 723H237Q237 717 239.5 708.5Q242 700 248 692.5Q254 685 264.5 679.5Q275 674 290 674Q305 674 315 679.5Q325 685 331 692.5Q337 700 339.5 708.5Q342 717 342 723H418Q415 666 378.5 636Q342 606 290 606ZM335 -11Q257 -11 201.5 9.5Q146 30 110.5 67.5Q75 105 58.5 156.5Q42 208 42 271Q42 333 59.5 385.5Q77 438 112.5 476.5Q148 515 201.5 537Q255 559 328 559Q362 559 388.5 555.5Q415 552 433 548Q455 543 471 537V447Q454 452 433 457Q414 460 390.5 463Q367 466 338 466Q244 466 201 414Q158 362 158 271Q158 183 200 133Q242 83 330 83Q360 83 383 88V225H274V315H481V10Q462 4 439 -1Q418 -5 392 -8Q366 -11 335 -11Z" glyph-name="Gbreve.sc" horiz-adv-x="534" /><glyph d="M339 787Q273 787 230 826.5Q187 866 185 937H272Q272 928 275.5 916.5Q279 905 287 895Q295 885 307.5 878Q320 871 339 871Q358 871 371 878Q384 885 392 895Q400 905 403.5 916.5Q407 928 407 937H493Q491 866 448 826.5Q405 787 339 787ZM954 -9Q912 -9 881 5Q850 19 818 47L802 0H712V677H609Q564 677 564 636V596Q563 597 550 601Q537 605 515 610Q493 615 463.5 619Q434 623 399 623Q338 623 295 604Q252 585 224.5 550Q197 515 184 465.5Q171 416 171 355Q171 234 225.5 163.5Q280 93 395 93Q415 93 433.5 94.5Q452 96 468 100V302H322V405H576V15Q552 7 524 1Q499 -5 467.5 -9Q436 -13 399 -13Q304 -13 237 14Q170 41 127.5 90Q85 139 65.5 206Q46 273 46 354Q46 434 66.5 502Q87 570 129 620Q171 670 236 698.5Q301 727 389 727Q446 727 488 719Q509 766 573 766H831V453Q844 471 863 486Q881 499 906 508.5Q931 518 968 518Q1022 518 1061 498Q1100 478 1124.5 443.5Q1149 409 1161 363Q1173 317 1173 265Q1173 202 1158 151.5Q1143 101 1114.5 65.5Q1086 30 1045.5 10.5Q1005 -9 954 -9ZM831 118Q842 109 856 103Q870 96 887 91.5Q904 87 926 87Q992 87 1021 134.5Q1050 182 1050 261Q1050 335 1021.5 376.5Q993 418 930 418Q905 418 886.5 409.5Q868 401 856 392Q841 380 831 365Z" glyph-name="Gbreve_b" horiz-adv-x="1215" /><glyph d="M339 787Q273 787 230 826.5Q187 866 185 937H272Q272 928 275.5 916.5Q279 905 287 895Q295 885 307.5 878Q320 871 339 871Q358 871 371 878Q384 885 392 895Q400 905 403.5 916.5Q407 928 407 937H493Q491 866 448 826.5Q405 787 339 787ZM826 -9Q711 -9 711 124V677H610Q564 677 564 636V596Q543 604 518 610Q494 615 464.5 619Q435 623 399 623Q338 623 295 604Q252 585 224.5 550Q197 515 184 465.5Q171 416 171 355Q171 234 225.5 163.5Q280 93 395 93Q415 93 433.5 94.5Q452 96 468 100V302H322V405H576V15Q552 7 524 1Q499 -5 467.5 -9Q436 -13 399 -13Q304 -13 237 14Q170 41 127.5 90Q85 139 65.5 206Q46 273 46 354Q46 434 66.5 502Q87 570 129 620Q171 670 236 698.5Q301 727 389 727Q446 727 488 719Q509 766 571 766H830V147Q830 110 842 96Q854 82 883 82H890V0Q883 -3 873 -5Q864 -6 852.5 -7.5Q841 -9 826 -9Z" glyph-name="Gbreve_l" horiz-adv-x="921" /><glyph d="M399 -13Q304 -13 237 14Q170 41 127.5 90Q85 139 65.5 206Q46 273 46 354Q46 434 66.5 502Q87 570 129 620Q171 670 236 698.5Q301 727 389 727Q432 727 464.5 722.5Q497 718 519 713Q545 706 564 698V596Q543 604 518 610Q494 615 464.5 619Q435 623 399 623Q338 623 295 604Q252 585 224.5 550Q197 515 184 465.5Q171 416 171 355Q171 234 225.5 163.5Q280 93 395 93Q415 93 433.5 94.5Q452 96 468 100V302H322V405H576V15Q552 7 524 1Q499 -5 467.5 -9Q436 -13 399 -13ZM182 830 323 951H391L532 830L495 778L357 864L219 778Z" glyph-name="Gcircumflex" horiz-adv-x="635" unicode="&#284;" /><glyph d="M156 641 269 736H330L443 641L410 598L299 664L188 598ZM335 -11Q257 -11 201.5 9.5Q146 30 110.5 67.5Q75 105 58.5 156.5Q42 208 42 271Q42 333 59.5 385.5Q77 438 112.5 476.5Q148 515 201.5 537Q255 559 328 559Q362 559 388.5 555.5Q415 552 433 548Q455 543 471 537V447Q454 452 433 457Q414 460 390.5 463Q367 466 338 466Q244 466 201 414Q158 362 158 271Q158 183 200 133Q242 83 330 83Q360 83 383 88V225H274V315H481V10Q462 4 439 -1Q418 -5 392 -8Q366 -11 335 -11Z" glyph-name="Gcircumflex.sc" horiz-adv-x="534" /><glyph d="M399 -13Q304 -13 237 14Q170 41 127.5 90Q85 139 65.5 206Q46 273 46 354Q46 434 66.5 502Q87 570 129 620Q171 670 236 698.5Q301 727 389 727Q432 727 464.5 722.5Q497 718 519 713Q545 706 564 698V596Q543 604 518 610Q494 615 464.5 619Q435 623 399 623Q338 623 295 604Q252 585 224.5 550Q197 515 184 465.5Q171 416 171 355Q171 234 225.5 163.5Q280 93 395 93Q415 93 433.5 94.5Q452 96 468 100V302H322V405H576V15Q552 7 524 1Q499 -5 467.5 -9Q436 -13 399 -13ZM316 -291 353 -205Q292 -194 292 -136Q292 -108 310.5 -86.5Q329 -65 364 -65Q398 -65 416 -86.5Q434 -108 434 -140Q434 -175 415.5 -218.5Q397 -262 369 -313Z" glyph-name="Gcommaaccent" horiz-adv-x="635" unicode="&#290;" /><glyph d="M335 -11Q257 -11 201.5 9.5Q146 30 110.5 67.5Q75 105 58.5 156.5Q42 208 42 271Q42 333 59.5 385.5Q77 438 112.5 476.5Q148 515 201.5 537Q255 559 328 559Q362 559 388.5 555.5Q415 552 433 548Q455 543 471 537V447Q454 452 433 457Q414 460 390.5 463Q367 466 338 466Q244 466 201 414Q158 362 158 271Q158 183 200 133Q242 83 330 83Q360 83 383 88V225H274V315H481V10Q462 4 439 -1Q418 -5 392 -8Q366 -11 335 -11ZM269 -246 299 -178Q247 -169 247 -121Q247 -98 263 -80Q279 -62 309 -62Q340 -62 355.5 -80Q371 -98 371 -125Q371 -153 355 -188Q339 -223 316 -263Z" glyph-name="Gcommaaccent.sc" horiz-adv-x="534" /><glyph d="M399 -13Q304 -13 237 14Q170 41 127.5 90Q85 139 65.5 206Q46 273 46 354Q46 434 66.5 502Q87 570 129 620Q171 670 236 698.5Q301 727 389 727Q432 727 464.5 722.5Q497 718 519 713Q545 706 564 698V596Q543 604 518 610Q494 615 464.5 619Q435 623 399 623Q338 623 295 604Q252 585 224.5 550Q197 515 184 465.5Q171 416 171 355Q171 234 225.5 163.5Q280 93 395 93Q415 93 433.5 94.5Q452 96 468 100V302H322V405H576V15Q552 7 524 1Q499 -5 467.5 -9Q436 -13 399 -13ZM350 801Q318 801 299.5 821Q281 841 281 870Q281 899 299 918.5Q317 938 351 938Q385 938 403 919Q421 900 421 871Q421 841 403 821Q385 801 350 801Z" glyph-name="Gdotaccent" horiz-adv-x="635" unicode="&#288;" /><glyph d="M296 615Q267 615 252 631.5Q237 648 237 671Q237 694 251.5 710Q266 726 297 726Q328 726 342.5 710Q357 694 357 671Q357 648 342 631.5Q327 615 296 615ZM335 -11Q257 -11 201.5 9.5Q146 30 110.5 67.5Q75 105 58.5 156.5Q42 208 42 271Q42 333 59.5 385.5Q77 438 112.5 476.5Q148 515 201.5 537Q255 559 328 559Q362 559 388.5 555.5Q415 552 433 548Q455 543 471 537V447Q454 452 433 457Q414 460 390.5 463Q367 466 338 466Q244 466 201 414Q158 362 158 271Q158 183 200 133Q242 83 330 83Q360 83 383 88V225H274V315H481V10Q462 4 439 -1Q418 -5 392 -8Q366 -11 335 -11Z" glyph-name="Gdotaccent.sc" horiz-adv-x="534" /><glyph d="M399 -13Q304 -13 237 14Q170 41 127.5 90Q85 139 65.5 206Q46 273 46 354Q46 434 66.5 502Q87 570 129 620Q171 670 236 698.5Q301 727 389 727Q432 727 464.5 722.5Q497 718 519 713Q545 706 564 698V596Q543 604 518 610Q494 615 464.5 619Q435 623 399 623Q338 623 295 604Q252 585 224.5 550Q197 515 184 465.5Q171 416 171 355Q171 234 225.5 163.5Q280 93 395 93Q415 93 433.5 94.5Q452 96 468 100V306H322V408H620L827 716H953L716 365L969 0H832L620 304H576V15Q552 7 524 1Q499 -5 467.5 -9Q436 -13 399 -13ZM350 801Q318 801 299.5 821Q281 841 281 870Q281 899 299 918.5Q317 938 351 938Q385 938 403 919Q421 900 421 871Q421 841 403 821Q385 801 350 801Z" glyph-name="Gdotaccent_K" horiz-adv-x="971" /><glyph d="M350 801Q318 801 299.5 821Q281 841 281 870Q281 899 299 918.5Q317 938 351 938Q385 938 403 919Q421 900 421 871Q421 841 403 821Q385 801 350 801ZM954 -9Q912 -9 881 5Q850 19 818 47L802 0H712V677H609Q564 677 564 636V596Q563 596 550 600.5Q537 605 515 610Q493 615 463.5 619Q434 623 399 623Q338 623 295 604Q252 585 224.5 550Q197 515 184 465.5Q171 416 171 355Q171 234 225.5 163.5Q280 93 395 93Q415 93 433.5 94.5Q452 96 468 100V302H322V405H576V15Q552 7 524 1Q499 -5 467.5 -9Q436 -13 399 -13Q304 -13 237 14Q170 41 127.5 90Q85 139 65.5 206Q46 273 46 354Q46 434 66.5 502Q87 570 129 620Q171 670 236 698.5Q301 727 389 727Q446 727 488 719Q509 766 573 766H831V453Q844 471 863 486Q881 499 906 508.5Q931 518 968 518Q1022 518 1061 498Q1100 478 1124.5 443.5Q1149 409 1161 363Q1173 317 1173 265Q1173 202 1158 151.5Q1143 101 1114.5 65.5Q1086 30 1045.5 10.5Q1005 -9 954 -9ZM831 118Q842 109 856 103Q870 96 887 91.5Q904 87 926 87Q992 87 1021 134.5Q1050 182 1050 261Q1050 335 1021.5 376.5Q993 418 930 418Q905 418 886.5 409.5Q868 401 856 392Q841 380 831 365Z" glyph-name="Gdotaccent_b" horiz-adv-x="1215" /><glyph d="M350 801Q318 801 299.5 821Q281 841 281 870Q281 899 299 918.5Q317 938 351 938Q385 938 403 919Q421 900 421 871Q421 841 403 821Q385 801 350 801ZM576 15Q552 7 524 1Q499 -5 467.5 -9Q436 -13 399 -13Q304 -13 237 14Q170 41 127.5 90Q85 139 65.5 206Q46 273 46 354Q46 434 66.5 502Q87 570 129 620Q171 670 236 698.5Q301 727 389 727Q446 727 488 719Q509 766 571 766H831V304H870L1018 508H1143L969 269L1158 0H1021L871 213H831V0H712V677H610Q564 677 564 636V596Q543 604 518 610Q494 615 464.5 619Q435 623 399 623Q338 623 295 604Q252 585 224.5 550Q197 515 184 465.5Q171 416 171 355Q171 234 225.5 163.5Q280 93 395 93Q415 93 433.5 94.5Q452 96 468 100V302H322V405H576Z" glyph-name="Gdotaccent_k" horiz-adv-x="1158" /><glyph d="M350 801Q318 801 299.5 821Q281 841 281 870Q281 899 299 918.5Q317 938 351 938Q385 938 403 919Q421 900 421 871Q421 841 403 821Q385 801 350 801ZM826 -9Q711 -9 711 124V677H610Q564 677 564 636V596Q543 604 518 610Q494 615 464.5 619Q435 623 399 623Q338 623 295 604Q252 585 224.5 550Q197 515 184 465.5Q171 416 171 355Q171 233 225.5 163Q280 93 395 93Q414 93 432.5 94.5Q451 96 468 100V302H322V405H576V15Q552 7 524 1Q499 -5 467.5 -9Q436 -13 399 -13Q304 -13 237 14Q170 41 127.5 90Q85 139 65.5 206Q46 273 46 354Q46 434 66.5 502Q87 570 129 620Q171 670 236 698.5Q301 727 389 727Q446 727 488 719Q509 766 571 766H830V147Q830 110 842 96Q854 82 883 82H890V0Q883 -3 873 -5Q864 -6 852.5 -7.5Q841 -9 826 -9Z" glyph-name="Gdotaccent_l" horiz-adv-x="921" /><glyph d="M82 716H201V417H488V716H607V0H488V309H201V0H82Z" glyph-name="H" horiz-adv-x="689" unicode="H" /><glyph d="M71 550H183V326H397V550H508V0H397V230H183V0H71Z" glyph-name="H.sc" horiz-adv-x="580" /><glyph d="M696 417Q757 417 785 444.5Q813 472 813 523Q813 571 780.5 594.5Q748 618 688 618H605V417ZM707 98Q773 98 807 127Q841 156 841 210Q841 264 810.5 292Q780 320 710 320H605V98ZM81 716H201V423H487V716H686Q815 716 873.5 665Q932 614 932 528Q932 476 908 437.5Q884 399 842 377Q906 358 935.5 312Q965 266 965 209Q965 156 946.5 117Q928 78 894.5 52Q861 26 813 13Q765 0 706 0H487V315H201V0H81Z" glyph-name="H_B" horiz-adv-x="1006" /><glyph d="M575 323Q620 323 640 343Q660 363 660 398Q660 432 636.5 448.5Q613 465 569 465H506V323ZM71 550H183V330H397V550H566Q673 550 721.5 510.5Q770 471 770 404Q770 364 750 334.5Q730 305 698 288Q746 274 771 240.5Q796 207 796 162Q796 81 738 40.5Q680 0 581 0H397V234H183V0H71ZM582 85Q630 85 655.5 105.5Q681 126 681 164Q681 202 658 221Q635 240 584 240H506V85Z" glyph-name="H_B.sc" horiz-adv-x="835" /><glyph d="M695 108Q790 108 846.5 169Q903 230 903 358Q903 486 846.5 547Q790 608 695 608H607V108ZM201 0H81V716H201V417H487V716H691Q774 716 837 691.5Q900 667 942.5 621Q985 575 1006.5 508.5Q1028 442 1028 358Q1028 274 1006.5 208Q985 142 942.5 95.5Q900 49 837 24.5Q774 0 691 0H487V309H201Z" glyph-name="H_D" horiz-adv-x="1075" /><glyph d="M570 95Q642 95 684 140Q726 185 726 275Q726 366 684 410.5Q642 455 570 455H508V95ZM183 0H71V550H183V326H397V550H564Q633 550 685 530.5Q737 511 772 475Q807 439 824.5 388Q842 337 842 275Q842 213 824.5 162.5Q807 112 772 76Q737 40 685 20Q633 0 564 0H397V230H183Z" glyph-name="H_D.sc" horiz-adv-x="884" /><glyph d="M201 0H81V716H201V417H487V716H893V610H607V415H843V311H607V106H893V0H487V309H201Z" glyph-name="H_E" horiz-adv-x="941" /><glyph d="M183 0H71V550H183V326H397V550H736V456H508V324H690V234H508V94H736V0H397V230H183Z" glyph-name="H_E.sc" horiz-adv-x="782" /><glyph d="M201 0H81V716H201V417H487V716H893V610H607V415H843V311H607V106H893V0H487V309H201ZM593 847 811 953 851 858 623 778Z" glyph-name="H_Eacute" horiz-adv-x="941" /><glyph d="M489 656 665 738 701 658 516 598ZM183 0H71V550H183V326H397V550H736V456H508V324H690V234H508V94H736V0H397V230H183Z" glyph-name="H_Eacute.sc" horiz-adv-x="782" /><glyph d="M201 0H81V716H201V417H487V716H893V610H607V415H843V311H607V106H893V0H487V309H201ZM514 830 655 951H723L864 830L827 778L689 864L551 778Z" glyph-name="H_Ecircumflex" horiz-adv-x="941" /><glyph d="M424 641 538 736H598L711 641L679 598L567 664L457 598ZM183 0H71V550H183V326H397V550H736V456H508V324H690V234H508V94H736V0H397V230H183Z" glyph-name="H_Ecircumflex.sc" horiz-adv-x="782" /><glyph d="M201 0H81V716H201V417H487V716H893V610H607V415H843V311H607V106H893V0H487V309H201ZM599 801Q568 801 550 820.5Q532 840 532 868Q532 897 550 916Q568 935 600 935Q632 935 650 916Q668 897 668 869Q668 840 649.5 820.5Q631 801 599 801ZM789 801Q759 801 741 820.5Q723 840 723 868Q723 897 740.5 916Q758 935 790 935Q822 935 840 916Q858 897 858 869Q858 840 839.5 820.5Q821 801 789 801Z" glyph-name="H_Edieresis" horiz-adv-x="941" /><glyph d="M493 615Q464 615 449.5 631Q435 647 435 670Q435 693 449.5 708.5Q464 724 493 724Q522 724 537 708.5Q552 693 552 671Q552 648 537 631.5Q522 615 493 615ZM648 615Q621 615 606 631Q591 647 591 670Q591 693 605.5 708.5Q620 724 649 724Q678 724 692.5 708.5Q707 693 707 671Q707 648 692 631.5Q677 615 648 615ZM183 0H71V550H183V326H397V550H736V456H508V324H690V234H508V94H736V0H397V230H183Z" glyph-name="H_Edieresis.sc" horiz-adv-x="782" /><glyph d="M201 0H81V716H201V417H487V716H893V610H607V415H843V311H607V106H893V0H487V309H201ZM692 801Q660 801 641.5 821Q623 841 623 870Q623 899 641 918.5Q659 938 693 938Q727 938 745 919Q763 900 763 871Q763 841 745 821Q727 801 692 801Z" glyph-name="H_Edotaccent" horiz-adv-x="941" /><glyph d="M568 615Q539 615 523.5 631.5Q508 648 508 671Q508 694 523 710Q538 726 569 726Q600 726 614.5 710Q629 694 629 671Q629 648 614.5 631.5Q600 615 568 615ZM183 0H71V550H183V326H397V550H736V456H508V324H690V234H508V94H736V0H397V230H183Z" glyph-name="H_Edotaccent.sc" horiz-adv-x="782" /><glyph d="M201 0H81V716H201V417H487V716H893V610H607V415H843V311H607V106H893V0H487V309H201ZM535 858 576 953 793 847 764 778Z" glyph-name="H_Egrave" horiz-adv-x="941" /><glyph d="M443 658 479 738 655 656 629 598ZM183 0H71V550H183V326H397V550H736V456H508V324H690V234H508V94H736V0H397V230H183Z" glyph-name="H_Egrave.sc" horiz-adv-x="782" /><glyph d="M201 0H81V716H201V417H487V716H893V610H607V415H843V311H607V106H893V0H487V309H201ZM553 909H835V819H553Z" glyph-name="H_Emacron" horiz-adv-x="941" /><glyph d="M457 704H684V629H457ZM183 0H71V550H183V326H397V550H736V456H508V324H690V234H508V94H736V0H397V230H183Z" glyph-name="H_Emacron.sc" horiz-adv-x="782" /><glyph d="M487 0V309H201V0H81V716H201V417H487V716H893V610H607V415H843V311H607V106H893V0Q842 -27 824 -55Q806 -83 806 -106Q806 -149 853 -149Q865 -149 876 -145Q887 -141 895 -136Q903 -131 908.5 -127Q914 -123 916 -122V-189Q913 -191 905.5 -197Q898 -203 885.5 -209Q873 -215 856 -220Q839 -225 818 -225Q767 -225 737 -197Q707 -169 707 -126Q707 -89 728 -54Q749 -19 794 0Z" glyph-name="H_Eogonek" horiz-adv-x="941" /><glyph d="M397 0V230H183V0H71V550H183V326H397V550H736V456H508V324H690V234H508V94H736V0Q699 -19 683.5 -40Q668 -61 668 -79Q668 -112 705 -112Q724 -112 737 -103.5Q750 -95 755 -93V-147Q748 -152 727 -163Q706 -174 674 -174Q631 -174 605.5 -152Q580 -130 580 -96Q580 -66 598 -39.5Q616 -13 651 0Z" glyph-name="H_Eogonek.sc" horiz-adv-x="782" /><glyph d="M201 0H81V716H201V417H487V716H889V610H607V410H844V303H607V0H487V309H201Z" glyph-name="H_F" horiz-adv-x="916" /><glyph d="M183 0H71V550H183V326H397V550H732V456H508V318H692V224H508V0H397V230H183Z" glyph-name="H_F.sc" horiz-adv-x="759" /><glyph d="M81 716H201V417H487V716H607V415H649L870 716H996L745 372L1012 0H875L649 311H607V0H487V309H201V0H81Z" glyph-name="H_K" horiz-adv-x="1015" /><glyph d="M71 550H183V326H397V550H508V325H539L706 550H823L628 286L837 0H710L539 233H508V0H397V230H183V0H71Z" glyph-name="H_K.sc" horiz-adv-x="844" /><glyph d="M81 716H201V417H487V716H652L863 208L1065 716H1215V0H1101V554L899 48H813L607 560V0H487V309H201V0H81Z" glyph-name="H_M" horiz-adv-x="1296" /><glyph d="M71 550H183V326H397V550H549L713 174L868 550H1006V0H901V406L749 37H667L508 412V0H397V230H183V0H71Z" glyph-name="H_M.sc" horiz-adv-x="1077" /><glyph d="M81 716H201V417H488V716H599L912 208V716H1020V0H912L599 508V0H488V309H201V0H81Z" glyph-name="H_N" horiz-adv-x="1101" /><glyph d="M71 550H183V326H397V550H501L741 182V550H841V0H741L501 367V0H397V230H183V0H71Z" glyph-name="H_N.sc" horiz-adv-x="912" /><glyph d="M81 716H201V417H488V716H599L912 208V716H1020V0H912L599 508V0H488V309H201V0H81ZM589 899 626 951 764 865 901 951 939 899 797 778H729Z" glyph-name="H_Ncaron" horiz-adv-x="1101" /><glyph d="M484 692 516 736 627 670 737 736 771 692 656 598H596ZM71 550H183V326H397V550H501L741 182V550H841V0H741L501 367V0H397V230H183V0H71Z" glyph-name="H_Ncaron.sc" horiz-adv-x="912" /><glyph d="M686 389Q749 389 787.5 418Q826 447 826 505Q826 558 792 586Q758 614 684 614H607V389ZM81 716H201V393H487V716H685Q817 716 882.5 659.5Q948 603 948 508Q948 455 929 414Q910 373 875 344.5Q840 316 792 301.5Q744 287 685 287H607V0H487V287H201V0H81Z" glyph-name="H_P" horiz-adv-x="974" /><glyph d="M566 302Q612 302 640 322.5Q668 343 668 384Q668 421 643.5 440.5Q619 460 565 460H508V302ZM71 550H183V307H397V550H567Q672 550 726.5 505.5Q781 461 781 386Q781 344 765.5 312Q750 280 721.5 258Q693 236 653.5 224.5Q614 213 567 213H508V0H397V213H183V0H71Z" glyph-name="H_P.sc" horiz-adv-x="808" /><glyph d="M693 394Q719 394 741.5 402Q764 410 781 424.5Q798 439 808 460Q818 481 818 508Q818 559 787.5 586.5Q757 614 695 614H607V394ZM81 716H201V399H487V716H695Q815 716 877.5 662Q940 608 940 511Q940 446 905 395.5Q870 345 813 322L979 0H849L697 292H607V0H487V292H201V0H81Z" glyph-name="H_R" horiz-adv-x="995" /><glyph d="M572 307Q610 307 637 328.5Q664 350 664 387Q664 422 641.5 441Q619 460 574 460H508V307ZM71 550H183V314H397V550H572Q673 550 725 507.5Q777 465 777 391Q777 341 750 302.5Q723 264 678 246L807 0H688L573 218H508V0H397V219H183V0H71Z" glyph-name="H_R.sc" horiz-adv-x="831" /><glyph d="M693 394Q719 394 741.5 402Q764 410 781 424.5Q798 439 808 460Q818 481 818 508Q818 559 787.5 586.5Q757 614 695 614H607V394ZM81 716H201V399H487V716H695Q815 716 877.5 662Q940 608 940 511Q940 446 905 395.5Q870 345 813 322L979 0H849L697 292H607V0H487V292H201V0H81ZM608 847 826 953 866 858 638 778Z" glyph-name="H_Racute" horiz-adv-x="995" /><glyph d="M503 656 679 738 715 658 529 598ZM572 307Q610 307 637 328.5Q664 350 664 387Q664 460 574 460H508V307ZM71 550H183V314H397V550H572Q673 550 725 507.5Q777 465 777 391Q777 341 750 302.5Q723 264 678 246L807 0H688L573 218H508V0H397V219H183V0H71Z" glyph-name="H_Racute.sc" horiz-adv-x="831" /><glyph d="M693 394Q719 394 741.5 402Q764 410 781 424.5Q798 439 808 460Q818 481 818 508Q818 559 787.5 586.5Q757 614 695 614H607V394ZM81 716H201V399H487V716H695Q815 716 877.5 662Q940 608 940 511Q940 446 905 395.5Q870 345 813 322L979 0H849L697 292H607V0H487V292H201V0H81ZM521 899 558 951 696 865 833 951 871 899 729 778H661Z" glyph-name="H_Rcaron" horiz-adv-x="995" /><glyph d="M432 692 465 736 575 670 685 736 719 692 605 598H544ZM572 307Q610 307 637 328.5Q664 350 664 387Q664 460 574 460H508V307ZM71 550H183V314H397V550H572Q673 550 725 507.5Q777 465 777 391Q777 341 750 302.5Q723 264 678 246L807 0H688L573 218H508V0H397V219H183V0H71Z" glyph-name="H_Rcaron.sc" horiz-adv-x="831" /><glyph d="M81 716H201V414H517V608H348V716H828V608H636V0H517V306H201V0H81Z" glyph-name="H_T" horiz-adv-x="842" /><glyph d="M71 550H183V323H422V455H291V550H684V455H534V0H422V227H183V0H71Z" glyph-name="H_T.sc" horiz-adv-x="701" /><glyph d="M81 716H201V414H517V608H348V716H828V608H636V0H517V306H201V0H81ZM402 899 439 951 577 865 714 951 752 899 610 778H542Z" glyph-name="H_Tcaron" horiz-adv-x="842" /><glyph d="M336 692 368 736 479 670 589 736 623 692 508 598H448ZM71 550H183V323H422V455H291V550H684V455H534V0H422V227H183V0H71Z" glyph-name="H_Tcaron.sc" horiz-adv-x="701" /><glyph d="M81 716H201V417H487V716H607V255Q607 170 643.5 131.5Q680 93 752 93Q821 93 858 131Q895 169 897 255V716H1016V255Q1016 187 997 137Q978 87 943 54Q908 21 859.5 5Q811 -11 752 -11Q694 -11 645.5 4.5Q597 20 562 52Q527 84 507.5 133Q488 182 487 249V309H201V0H81Z" glyph-name="H_U" horiz-adv-x="1091" /><glyph d="M71 550H183V326H397V550H508V201Q508 139 535.5 111.5Q563 84 616 84Q667 84 695 111Q723 138 725 201V550H837V201Q837 148 820.5 108.5Q804 69 775 43Q746 17 705 4Q664 -9 616 -9Q570 -9 530.5 3Q491 15 462 40Q433 65 416 102.5Q399 140 397 192V230H183V0H71Z" glyph-name="H_U.sc" horiz-adv-x="903" /><glyph d="M81 716H201V417H487V716H607V255Q607 170 643.5 131.5Q680 93 752 93Q821 93 858 131Q895 169 897 255V716H1016V255Q1016 187 997 137Q978 87 943 54Q908 21 859.5 5Q811 -11 752 -11Q694 -11 645.5 4.5Q597 20 562 52Q527 84 507.5 133Q488 182 487 249V309H201V0H81ZM682 847 900 953 940 858 712 778Z" glyph-name="H_Uacute" horiz-adv-x="1091" /><glyph d="M556 656 733 738 769 658 583 598ZM71 550H183V326H397V550H508V201Q508 139 535.5 111.5Q563 84 616 84Q667 84 695 111Q723 138 725 201V550H837V201Q837 148 820.5 108.5Q804 69 775 43Q746 17 705 4Q664 -9 616 -9Q570 -9 530.5 3Q491 15 462 40Q433 65 416 102.5Q399 140 397 192V230H183V0H71Z" glyph-name="H_Uacute.sc" horiz-adv-x="903" /><glyph d="M81 716H201V417H487V716H607V255Q607 170 643.5 131.5Q680 93 752 93Q821 93 858 131Q895 169 897 255V716H1016V255Q1016 187 997 137Q978 87 943 54Q908 21 859.5 5Q811 -11 752 -11Q694 -11 645.5 4.5Q597 20 562 52Q527 84 507.5 133Q488 182 487 249V309H201V0H81ZM656 801Q625 801 607 820.5Q589 840 589 868Q589 897 607 916Q625 935 657 935Q689 935 707 916Q725 897 725 869Q725 840 706.5 820.5Q688 801 656 801ZM846 801Q816 801 798 820.5Q780 840 780 868Q780 897 797.5 916Q815 935 847 935Q879 935 897 916Q915 897 915 869Q915 840 896.5 820.5Q878 801 846 801Z" glyph-name="H_Udieresis" horiz-adv-x="1091" /><glyph d="M539 615Q511 615 496 631Q481 647 481 670Q481 693 495.5 708.5Q510 724 539 724Q568 724 583 708.5Q598 693 598 671Q598 648 583 631.5Q568 615 539 615ZM694 615Q667 615 652 631Q637 647 637 670Q637 693 651.5 708.5Q666 724 695 724Q724 724 738.5 708.5Q753 693 753 671Q753 648 738 631.5Q723 615 694 615ZM71 550H183V326H397V550H508V201Q508 139 535.5 111.5Q563 84 616 84Q667 84 695 111Q723 138 725 201V550H837V201Q837 148 820.5 108.5Q804 69 775 43Q746 17 705 4Q664 -9 616 -9Q570 -9 530.5 3Q491 15 462 40Q433 65 416 102.5Q399 140 397 192V230H183V0H71Z" glyph-name="H_Udieresis.sc" horiz-adv-x="903" /><glyph d="M81 716H201V417H487V716H607V255Q607 170 643.5 131.5Q680 93 752 93Q821 93 858 131Q895 169 897 255V716H1016V255Q1016 187 997 137Q978 87 943 54Q908 21 859.5 5Q811 -11 752 -11Q694 -11 645.5 4.5Q597 20 562 52Q527 84 507.5 133Q488 182 487 249V309H201V0H81ZM596 819 720 983 797 923 654 778ZM742 840 945 950 987 860 771 778Z" glyph-name="H_Uhungarumlaut" horiz-adv-x="1091" /><glyph d="M491 632 589 759 656 711 540 598ZM615 648 773 734 811 661 641 598ZM71 550H183V326H397V550H508V201Q508 139 535.5 111.5Q563 84 616 84Q667 84 695 111Q723 138 725 201V550H837V201Q837 148 820.5 108.5Q804 69 775 43Q746 17 705 4Q664 -9 616 -9Q570 -9 530.5 3Q491 15 462 40Q433 65 416 102.5Q399 140 397 192V230H183V0H71Z" glyph-name="H_Uhungarumlaut.sc" horiz-adv-x="903" /><glyph d="M81 716H201V417H487V716H607V255Q607 170 643.5 131.5Q680 93 752 93Q821 93 858 131Q895 169 897 255V716H1016V255Q1016 187 997 137Q978 87 943 54Q908 21 859.5 5Q811 -11 752 -11Q694 -11 645.5 4.5Q597 20 562 52Q527 84 507.5 133Q488 182 487 249V309H201V0H81ZM610 909H892V819H610Z" glyph-name="H_Umacron" horiz-adv-x="1091" /><glyph d="M503 704H730V629H503ZM71 550H183V326H397V550H508V201Q508 139 535.5 111.5Q563 84 616 84Q667 84 695 111Q723 138 725 201V550H837V201Q837 148 820.5 108.5Q804 69 775 43Q746 17 705 4Q664 -9 616 -9Q570 -9 530.5 3Q491 15 462 40Q433 65 416 102.5Q399 140 397 192V230H183V0H71Z" glyph-name="H_Umacron.sc" horiz-adv-x="903" /><glyph d="M779 -225Q730 -225 699 -198Q668 -171 668 -126Q668 -97 683 -65.5Q698 -34 732 -10Q617 1 553 64Q489 127 487 249V309H201V0H81V716H201V417H487V716H607V255Q607 170 643.5 131.5Q680 93 752 93Q821 93 859 131Q897 169 897 255V716H1016V255Q1016 208 1006.5 171Q997 134 980 106.5Q963 79 940 59Q917 39 890 25Q830 -10 799 -39.5Q768 -69 768 -106Q768 -126 778.5 -137.5Q789 -149 813 -149Q826 -149 837 -145Q848 -141 856.5 -136Q865 -131 870.5 -127Q876 -123 877 -122V-189Q874 -191 867 -197Q860 -203 848 -209Q836 -215 819 -220Q802 -225 779 -225Z" glyph-name="H_Uogonek" horiz-adv-x="1091" /><glyph d="M635 -174Q593 -174 567 -153Q541 -132 541 -96Q541 -73 554 -49Q567 -25 593 -8Q503 2 451.5 50Q400 98 397 192V230H183V0H71V550H183V326H397V550H508V201Q508 139 535.5 111.5Q563 84 616 84Q667 84 696 111Q725 138 725 201V550H837V201Q837 125 803.5 80Q770 35 720 15Q678 -9 654 -30Q630 -51 630 -77Q630 -94 640 -103Q650 -112 667 -112Q687 -112 700 -103Q713 -94 718 -92V-147Q710 -152 689 -163Q668 -174 635 -174Z" glyph-name="H_Uogonek.sc" horiz-adv-x="903" /><glyph d="M81 716H201V417H487V716H607V255Q607 170 643.5 131.5Q680 93 752 93Q821 93 858 131Q895 169 897 255V716H1016V255Q1016 187 997 137Q978 87 943 54Q908 21 859.5 5Q811 -11 752 -11Q694 -11 645.5 4.5Q597 20 562 52Q527 84 507.5 133Q488 182 487 249V309H201V0H81ZM750 773Q696 773 663.5 798Q631 823 631 867Q631 909 663.5 936Q696 963 750 963Q804 963 837.5 936Q871 909 871 867Q871 823 838.5 798Q806 773 750 773ZM750 830Q771 830 785.5 840Q800 850 800 869Q800 886 785.5 895.5Q771 905 750 905Q728 905 715 895.5Q702 886 702 869Q702 850 715 840Q728 830 750 830Z" glyph-name="H_Uring" horiz-adv-x="1091" /><glyph d="M616 595Q571 595 544.5 614.5Q518 634 518 669Q518 702 544.5 723Q571 744 616 744Q661 744 688 723Q715 702 715 669Q715 634 688 614.5Q661 595 616 595ZM616 642Q633 642 644 649Q655 656 655 670Q655 683 644 690Q633 697 616 697Q599 697 588.5 690Q578 683 578 670Q578 656 588.5 649Q599 642 616 642ZM71 550H183V326H397V550H508V201Q508 139 535.5 111.5Q563 84 616 84Q667 84 695 111Q723 138 725 201V550H837V201Q837 148 820.5 108.5Q804 69 775 43Q746 17 705 4Q664 -9 616 -9Q570 -9 530.5 3Q491 15 462 40Q433 65 416 102.5Q399 140 397 192V230H183V0H71Z" glyph-name="H_Uring.sc" horiz-adv-x="903" /><glyph d="M505 417V535H219V417ZM219 0H99V535H13V624H99V716H219V624H505V716H625V624H711V535H625V0H505V309H219Z" glyph-name="Hbar" horiz-adv-x="724" unicode="&#294;" /><glyph d="M405 326V410H191V326ZM191 0H80V410H16V483H80V550H191V483H405V550H517V483H580V410H517V0H405V230H191Z" glyph-name="Hbar.sc" horiz-adv-x="597" /><glyph d="M525 417V535H239V417ZM1055 255Q1055 187 1035.5 137Q1016 87 981 54Q946 21 897.5 5Q849 -11 790 -11Q732 -11 683.5 4.5Q635 20 600 52Q565 84 545.5 133Q526 182 525 249V309H239V0H119V535H27V623H119V716H239V623H525V716H645V623H737V535H645V255Q645 170 681.5 131.5Q718 93 790 93Q859 93 897 131Q935 169 935 255V716H1055Z" glyph-name="Hbar_U" horiz-adv-x="1129" /><glyph d="M850 201Q850 148 834 108.5Q818 69 788.5 43Q759 17 718.5 4Q678 -9 629 -9Q583 -9 543.5 3Q504 15 475 40Q446 65 429.5 102.5Q413 140 411 192V230H196V0H85V410H14V481H85V550H196V481H410V550H521V481H591V410H521V201Q521 139 548.5 111.5Q576 84 629 84Q680 84 708 111Q736 138 738 201V550H850ZM410 326V410H196V326Z" glyph-name="Hbar_U.sc" horiz-adv-x="916" /><glyph d="M82 716H201V417H488V716H607V0H488V309H201V0H82ZM169 830 310 951H378L519 830L482 778L344 864L206 778Z" glyph-name="Hcircumflex" horiz-adv-x="689" unicode="&#292;" /><glyph d="M146 641 259 736H320L433 641L400 598L290 664L179 598ZM71 550H183V326H397V550H508V0H397V230H183V0H71Z" glyph-name="Hcircumflex.sc" horiz-adv-x="580" /><glyph d="M82 716H201V0H82Z" glyph-name="I" horiz-adv-x="283" unicode="I" /><glyph d="M71 550H183V0H71Z" glyph-name="I.sc" horiz-adv-x="254" /><glyph d="M82 716H201V0H82ZM369 -11Q350 -11 334 -8.5Q318 -6 306 -3Q292 1 281 6V106Q291 102 303 99Q314 96 326 94Q338 92 352 92Q390 92 406.5 115Q423 138 423 186V716H543V185Q543 87 498.5 38Q454 -11 369 -11Z" glyph-name="IJ" horiz-adv-x="620" unicode="&#306;" /><glyph d="M71 550H183V0H71ZM317 -9Q301 -9 288 -7Q275 -5 266 -3Q255 0 246 3V92Q254 89 263 88Q271 86 280 84.5Q289 83 300 83Q330 83 343.5 100.5Q357 118 357 153V550H468V152Q468 71 429.5 31Q391 -9 317 -9Z" glyph-name="IJ.sc" horiz-adv-x="536" /><glyph d="M82 716H201V0H82ZM63 847 281 953 321 858 93 778Z" glyph-name="Iacute" horiz-adv-x="283" unicode="&#205;" /><glyph d="M56 656 233 738 269 658 83 598ZM71 550H183V0H71Z" glyph-name="Iacute.sc" horiz-adv-x="254" /><glyph d="M139 787Q73 787 30 826.5Q-13 866 -15 937H71Q71 928 74.5 916.5Q78 905 86 895Q94 885 107 878Q120 871 139 871Q158 871 171 878Q184 885 192 895Q200 905 203.5 916.5Q207 928 207 937H293Q291 866 248 826.5Q205 787 139 787ZM82 716H201V0H82Z" glyph-name="Ibreve" horiz-adv-x="283" unicode="&#300;" /><glyph d="M126 606Q74 606 37 636Q0 666 -3 723H74Q74 717 76.5 708.5Q79 700 85 692.5Q91 685 101 679.5Q111 674 126 674Q141 674 151 679.5Q161 685 167 692.5Q173 700 175.5 708.5Q178 717 178 723H254Q251 666 214.5 636Q178 606 126 606ZM71 550H183V0H71Z" glyph-name="Ibreve.sc" horiz-adv-x="254" /><glyph d="M82 716H201V0H82ZM-36 830 105 951H173L314 830L277 778L139 864L1 778Z" glyph-name="Icircumflex" horiz-adv-x="283" unicode="&#206;" /><glyph d="M-20 641 94 736H155L268 641L235 598L125 664L14 598ZM71 550H183V0H71Z" glyph-name="Icircumflex.sc" horiz-adv-x="254" /><glyph d="M52 801Q21 801 3 820.5Q-15 840 -15 868Q-15 897 3 916Q21 935 53 935Q85 935 103 916Q121 897 121 869Q121 840 102.5 820.5Q84 801 52 801ZM235 801Q204 801 186 820.5Q168 840 168 868Q168 897 186 916Q204 935 236 935Q268 935 286 916Q304 897 304 869Q304 840 285.5 820.5Q267 801 235 801ZM82 716H201V0H82Z" glyph-name="Idieresis" horiz-adv-x="283" unicode="&#207;" /><glyph d="M52 615Q25 615 10 631Q-5 647 -5 670Q-5 693 10 708.5Q25 724 53 724Q82 724 96.5 708.5Q111 693 111 671Q111 648 96 631.5Q81 615 52 615ZM203 615Q176 615 161 631Q146 647 146 670Q146 693 160.5 708.5Q175 724 204 724Q233 724 247.5 708.5Q262 693 262 671Q262 648 247 631.5Q232 615 203 615ZM71 550H183V0H71Z" glyph-name="Idieresis.sc" horiz-adv-x="254" /><glyph d="M82 716H201V0H82ZM139 801Q107 801 88.5 821Q70 841 70 870Q70 899 88 918.5Q106 938 140 938Q174 938 192 919Q210 900 210 871Q210 841 192 821Q174 801 139 801Z" glyph-name="Idotaccent" horiz-adv-x="283" unicode="&#304;" /><glyph d="M125 615Q95 615 80.5 631.5Q66 648 66 671Q66 694 80.5 710Q95 726 125 726Q156 726 171 710Q186 694 186 671Q186 648 171 631.5Q156 615 125 615ZM71 550H183V0H71Z" glyph-name="Idotaccent.sc" horiz-adv-x="254" /><glyph d="M82 716H201V0H82ZM-36 858 5 953 222 847 193 778Z" glyph-name="Igrave" horiz-adv-x="283" unicode="&#204;" /><glyph d="M-15 658 21 738 198 656 171 598ZM71 550H183V0H71Z" glyph-name="Igrave.sc" horiz-adv-x="254" /><glyph d="M82 716H201V0H82ZM1 909H283V819H1Z" glyph-name="Imacron" horiz-adv-x="283" unicode="&#298;" /><glyph d="M13 704H241V629H13ZM71 550H183V0H71Z" glyph-name="Imacron.sc" horiz-adv-x="254" /><glyph d="M127 -225Q76 -225 46 -197Q16 -169 16 -126Q16 -89 36.5 -54Q57 -19 102 0H82V716H201V0Q151 -27 133 -55Q115 -83 115 -106Q115 -149 162 -149Q174 -149 185 -145Q196 -141 204 -136Q212 -131 217.5 -127Q223 -123 225 -122V-189Q222 -191 214.5 -197Q207 -203 194.5 -209Q182 -215 165 -220Q148 -225 127 -225Z" glyph-name="Iogonek" horiz-adv-x="283" unicode="&#302;" /><glyph d="M71 0V550H183V0Q145 -19 130.5 -40Q116 -61 116 -79Q116 -112 152 -112Q171 -112 184 -103.5Q197 -95 202 -93V-147Q195 -152 174.5 -163Q154 -174 122 -174Q78 -174 53 -152Q28 -130 28 -96Q28 -66 45.5 -39.5Q63 -13 97 0Z" glyph-name="Iogonek.sc" horiz-adv-x="254" /><glyph d="M-34 804Q-33 814 -28.5 836Q-24 858 -12.5 880.5Q-1 903 19 920Q39 937 72 937Q98 937 115 927Q132 917 149 906Q166 895 178 886Q190 877 204 877Q215 877 221 884Q227 891 231 900Q234 909 236 922H308Q307 912 303 890.5Q299 869 288 847.5Q277 826 257.5 809.5Q238 793 206 793Q180 793 164 802.5Q148 812 131 823Q114 834 101.5 843Q89 852 74 852Q62 852 55 844.5Q48 837 44 828Q40 817 38 804ZM82 716H201V0H82Z" glyph-name="Itilde" horiz-adv-x="283" unicode="&#296;" /><glyph d="M-19 618Q-18 629 -14 647.5Q-10 666 0.5 683Q11 700 28 712.5Q45 725 71 725Q92 725 105.5 718Q119 711 134 703Q148 694 157.5 687.5Q167 681 179 681Q187 681 192 686Q197 691 200 698Q204 705 205 714H267Q266 702 262 684.5Q258 667 249 650.5Q240 634 224 622Q208 610 183 610Q161 610 147.5 617Q134 624 120 632Q106 640 96 646.5Q86 653 73 653Q63 653 57.5 647.5Q52 642 49 636Q45 628 44 618ZM71 550H183V0H71Z" glyph-name="Itilde.sc" horiz-adv-x="254" /><glyph d="M105 -11Q86 -11 70 -8.5Q54 -6 42 -3Q28 1 17 6V106Q27 102 39 99Q50 96 62 94Q74 92 88 92Q126 92 142.5 115Q159 138 159 186V716H279V185Q279 87 234.5 38Q190 -11 105 -11Z" glyph-name="J" horiz-adv-x="355" unicode="J" /><glyph d="M92 -9Q76 -9 62.5 -7Q49 -5 40 -3Q29 0 20 3V92Q28 89 37 88Q45 86 54 84.5Q63 83 74 83Q104 83 117.5 100.5Q131 118 131 153V550H243V152Q243 71 204 31Q165 -9 92 -9Z" glyph-name="J.sc" horiz-adv-x="310" /><glyph d="M42 830 183 951H251L392 830L355 778L217 864L79 778ZM105 -11Q86 -11 70 -8.5Q54 -6 42 -3Q28 1 17 6V106Q27 102 39 99Q50 96 62 94Q74 92 88 92Q126 92 142.5 115Q159 138 159 186V716H279V185Q279 87 234.5 38Q190 -11 105 -11Z" glyph-name="Jcircumflex" horiz-adv-x="355" unicode="&#308;" /><glyph d="M42 641 155 736H216L329 641L296 598L186 664L75 598ZM92 -9Q76 -9 62.5 -7Q49 -5 40 -3Q29 0 20 3V92Q28 89 37 88Q45 86 54 84.5Q63 83 74 83Q104 83 117.5 100.5Q131 118 131 153V550H243V152Q243 71 204 31Q165 -9 92 -9Z" glyph-name="Jcircumflex.sc" horiz-adv-x="310" /><glyph d="M82 716H201V415H244L451 716H576L340 372L592 0H456L244 311H201V0H82Z" glyph-name="K" horiz-adv-x="596" unicode="K" /><glyph d="M71 550H183V325H213L372 550H487L302 286L501 0H376L213 233H183V0H71Z" glyph-name="K.sc" horiz-adv-x="508" /><glyph d="M81 716H201V415H243L327 532Q356 575 387.5 609Q419 643 456 666.5Q493 690 536 703Q579 716 632 716H1050V611H856V0H736V611H640Q602 611 571 603Q540 595 512.5 578Q485 561 459.5 534Q434 507 407 468L339 372L592 0H455L243 311H201V0H81Z" glyph-name="K_T" horiz-adv-x="1064" /><glyph d="M71 550H183V325H213L270 402Q295 437 321.5 464Q348 491 379.5 510Q411 529 449 539.5Q487 550 533 550H873V457H720V0H609V457H541Q478 457 434.5 432Q391 407 349 350L302 287L501 0H376L213 233H183V0H71Z" glyph-name="K_T.sc" horiz-adv-x="889" /><glyph d="M81 716H201V415H243L327 532Q356 575 387.5 609Q419 643 456 666.5Q493 690 536 703Q579 716 632 716H1050V611H856V0H736V611H640Q602 611 571 603Q540 595 512.5 578Q485 561 459.5 534Q434 507 407 468L339 372L592 0H455L243 311H201V0H81ZM747 -291 784 -205Q723 -194 723 -136Q723 -108 741.5 -86.5Q760 -65 795 -65Q829 -65 847 -86.5Q865 -108 865 -140Q865 -175 846.5 -218.5Q828 -262 800 -313Z" glyph-name="K_Tcommaaccent" horiz-adv-x="1064" /><glyph d="M71 550H183V325H213L270 402Q295 437 321.5 464Q348 491 379.5 510Q411 529 449 539.5Q487 550 533 550H873V457H720V0H609V457H541Q478 457 434.5 432Q391 407 349 350L302 287L501 0H376L213 233H183V0H71ZM624 -246 654 -178Q601 -169 601 -121Q601 -98 617.5 -80Q634 -62 664 -62Q694 -62 709.5 -80Q725 -98 725 -125Q725 -153 709.5 -188Q694 -223 671 -263Z" glyph-name="K_Tcommaaccent.sc" horiz-adv-x="889" /><glyph d="M81 716H201V415H243L345 564Q378 611 408 648.5Q438 686 472.5 712Q507 738 548.5 752Q590 766 646 766H792V453Q805 471 824 486Q842 499 867 508.5Q892 518 929 518Q983 518 1022 498Q1061 478 1085.5 443.5Q1110 409 1122 363Q1134 317 1134 265Q1134 202 1119 151.5Q1104 101 1075.5 65.5Q1047 30 1006.5 10.5Q966 -9 915 -9Q873 -9 842 5Q811 19 779 47L763 0H673V676H649Q618 676 591 665.5Q564 655 538 633.5Q512 612 485 578.5Q458 545 425 498L339 372L592 0H455L243 311H201V0H81ZM792 118Q803 109 817 103Q831 96 848 91.5Q865 87 887 87Q953 87 982 134.5Q1011 182 1011 261Q1011 335 982.5 376.5Q954 418 891 418Q866 418 847.5 409.5Q829 401 817 392Q802 380 792 365Z" glyph-name="K_b" horiz-adv-x="1176" /><glyph d="M81 716H201V415H243L345 564Q378 611 408.5 648.5Q439 686 474 712Q509 738 551 752Q593 766 650 766H795V451Q810 470 833 485Q853 498 881 508Q909 518 948 518Q995 518 1028 502.5Q1061 487 1081.5 459Q1102 431 1111.5 393Q1121 355 1121 310V0H1002V304Q1002 361 978 389Q954 417 902 417Q876 417 856 409.5Q836 402 822 394Q806 383 795 370V0H677V676H650Q619 676 592 666Q565 656 539 634Q513 612 485.5 578.5Q458 545 425 498L339 372L592 0H455L243 311H201V0H81Z" glyph-name="K_h" horiz-adv-x="1185" /><glyph d="M81 716H201V415H243L345 564Q378 611 408.5 648.5Q439 686 474 712Q509 738 551 752Q593 766 650 766H795V304H835L983 508H1108L934 269L1123 0H986L835 213H795V0H677V676H651Q620 676 593 666Q566 656 539.5 634Q513 612 485.5 578.5Q458 545 425 498L339 372L592 0H455L243 311H201V0H81Z" glyph-name="K_k" horiz-adv-x="1123" /><glyph d="M81 716H201V415H243L345 564Q377 610 406.5 647.5Q436 685 469 711Q502 737 541.5 751.5Q581 766 635 766H774V147Q774 109 786.5 95.5Q799 82 826 82H834V0Q827 -3 817 -5Q808 -6 796 -7.5Q784 -9 769 -9Q655 -9 655 124V676H636Q606 676 581.5 665.5Q557 655 533 633Q509 611 483 577.5Q457 544 425 498L339 372L592 0H455L243 311H201V0H81Z" glyph-name="K_l" horiz-adv-x="865" /><glyph d="M81 716H201V415H243L345 564Q377 610 406.5 647.5Q436 685 469 711Q502 737 541.5 751.5Q581 766 635 766H774V147Q774 109 786.5 95.5Q799 82 826 82H834V0Q827 -3 817 -5Q808 -6 796 -7.5Q784 -9 769 -9Q655 -9 655 124V676H636Q606 676 581.5 665.5Q557 655 533 633Q509 611 483 577.5Q457 544 425 498L339 372L592 0H455L243 311H201V0H81ZM591 867 809 973 849 878 621 798Z" glyph-name="K_lacute" horiz-adv-x="865" /><glyph d="M81 716H201V415H243L345 564Q377 610 406.5 647.5Q436 685 469 711Q502 737 541.5 751.5Q581 766 635 766H774V147Q774 109 786.5 95.5Q799 82 826 82H834V0Q827 -3 817 -5Q808 -6 796 -7.5Q784 -9 769 -9Q655 -9 655 124V676H636Q606 676 581.5 665.5Q557 655 533 633Q509 611 483 577.5Q457 544 425 498L339 372L592 0H455L243 311H201V0H81ZM857 549 894 635Q833 646 833 704Q833 732 851.5 753.5Q870 775 905 775Q939 775 957 753.5Q975 732 975 700Q975 665 956.5 621.5Q938 578 910 527Z" glyph-name="K_lcaron" horiz-adv-x="919" /><glyph d="M81 716H201V415H243L345 564Q377 610 406.5 647.5Q436 685 469 711Q502 737 541.5 751.5Q581 766 635 766H774V147Q774 109 786.5 95.5Q799 82 826 82H834V0Q827 -3 817 -5Q808 -6 796 -7.5Q784 -9 769 -9Q655 -9 655 124V676H636Q606 676 581.5 665.5Q557 655 533 633Q509 611 483 577.5Q457 544 425 498L339 372L592 0H455L243 311H201V0H81ZM698 -291 735 -205Q674 -194 674 -136Q674 -108 692.5 -86.5Q711 -65 746 -65Q780 -65 798 -86.5Q816 -108 816 -140Q816 -175 797.5 -218.5Q779 -262 751 -313Z" glyph-name="K_lcommaaccent" horiz-adv-x="865" /><glyph d="M769 -9Q655 -9 655 124V317L576 277V370L655 410V676H636Q606 676 581.5 665.5Q557 655 533 633Q509 611 483 577.5Q457 544 425 498L339 372L592 0H455L243 311H201V0H81V716H201V415H243L345 564Q377 611 406 648Q435 685 468 711.5Q501 738 541 752Q581 766 635 766H774V469L864 513V420L774 375V147Q774 110 786 96Q798 82 826 82H834V0Q827 -3 817 -5Q808 -6 796 -7.5Q784 -9 769 -9Z" glyph-name="K_lslash" horiz-adv-x="893" /><glyph d="M705 -9Q627 -9 567 9Q507 27 458 59.5Q409 92 369 138.5Q329 185 291 242L243 311H201V0H81V716H201V415H243L450 716H575L339 372L394 292Q465 188 542 134Q619 80 715 80Q776 80 807.5 96.5Q839 113 839 142Q839 165 817.5 181.5Q796 198 743 213Q711 222 682.5 234Q654 246 632.5 264Q611 282 598.5 307Q586 332 586 368Q586 441 642 479.5Q698 518 793 518Q823 518 846.5 515Q870 512 887 509Q906 505 921 500V408Q912 410 876 419Q840 428 792 428Q743 428 721 413Q699 398 699 373Q699 347 721 332Q743 317 787 306Q877 283 914.5 246.5Q952 210 952 152Q952 82 891.5 36.5Q831 -9 705 -9Z" glyph-name="K_s" horiz-adv-x="987" /><glyph d="M705 -9Q627 -9 567 9Q507 27 458 59.5Q409 92 369 138.5Q329 185 291 242L243 311H201V0H81V716H201V415H243L450 716H575L339 372L394 292Q465 188 542 134Q619 80 715 80Q776 80 807.5 96.5Q839 113 839 142Q839 165 817.5 181.5Q796 198 743 213Q711 222 682.5 234Q654 246 632.5 264Q611 282 598.5 307Q586 332 586 368Q586 441 642 479.5Q698 518 793 518Q823 518 846.5 515Q870 512 887 509Q906 505 921 500V408Q912 410 876 419Q840 428 792 428Q743 428 721 413Q699 398 699 373Q699 347 721 332Q743 317 787 306Q877 283 914.5 246.5Q952 210 952 152Q952 82 891.5 36.5Q831 -9 705 -9ZM706 638 891 783 943 702 746 579Z" glyph-name="K_sacute" horiz-adv-x="987" /><glyph d="M705 -9Q627 -9 567 9Q507 27 458 59.5Q409 92 369 138.5Q329 185 291 242L243 311H201V0H81V716H201V415H243L450 716H575L339 372L394 292Q465 188 542 134Q619 80 715 80Q776 80 807.5 96.5Q839 113 839 142Q839 165 817.5 181.5Q796 198 743 213Q711 222 682.5 234Q654 246 632.5 264Q611 282 598.5 307Q586 332 586 368Q586 441 642 479.5Q698 518 793 518Q823 518 846.5 515Q870 512 887 509Q906 505 921 500V408Q912 410 876 419Q840 428 792 428Q743 428 721 413Q699 398 699 373Q699 347 721 332Q743 317 787 306Q877 283 914.5 246.5Q952 210 952 152Q952 82 891.5 36.5Q831 -9 705 -9ZM601 725 640 777 772 675 901 777 943 725 799 585H745Z" glyph-name="K_scaron" horiz-adv-x="987" /><glyph d="M889 -125Q889 -154 873.5 -176.5Q858 -199 831 -213Q804 -227 767.5 -232Q731 -237 689 -231V-170Q732 -172 759 -162Q786 -152 786 -130Q786 -114 765.5 -104.5Q745 -95 697 -97L706 -9Q625 -9 564.5 9Q504 27 455.5 60Q407 93 368 139.5Q329 186 291 242L243 311H201V0H81V716H201V415H243L450 716H575L339 372L394 292Q465 188 542 134Q619 80 715 80Q777 80 808 96.5Q839 113 839 142Q839 165 817.5 181.5Q796 198 743 213Q711 222 682.5 234Q654 246 632.5 264Q611 282 598.5 307Q586 332 586 368Q586 441 642 479.5Q698 518 793 518Q823 518 846.5 515Q870 512 887 509Q906 505 921 500V408Q912 410 876 419Q840 428 792 428Q743 428 721 413Q699 398 699 373Q699 347 721 332Q743 317 787 306Q877 283 914.5 246.5Q952 210 952 152Q952 93 911 52Q870 11 785 -3L782 -38Q889 -44 889 -125Z" glyph-name="K_scedilla" horiz-adv-x="987" /><glyph d="M82 716H201V415H244L451 716H576L340 372L592 0H456L244 311H201V0H82ZM267 -291 304 -205Q243 -194 243 -136Q243 -108 261.5 -86.5Q280 -65 315 -65Q349 -65 367 -86.5Q385 -108 385 -140Q385 -175 366.5 -218.5Q348 -262 320 -313Z" glyph-name="Kcommaaccent" horiz-adv-x="596" unicode="&#310;" /><glyph d="M71 550H183V325H213L372 550H487L302 286L501 0H376L213 233H183V0H71ZM230 -246 261 -178Q208 -169 208 -121Q208 -98 224.5 -80Q241 -62 271 -62Q300 -62 316 -80Q332 -98 332 -125Q332 -153 316 -188Q300 -223 277 -263Z" glyph-name="Kcommaaccent.sc" horiz-adv-x="508" /><glyph d="M81 716H201V415H243L327 532Q356 575 387.5 609Q419 643 456 666.5Q493 690 536 703Q579 716 632 716H1050V611H856V0H736V611H640Q602 611 571 603Q540 595 512.5 578Q485 561 459.5 534Q434 507 407 468L339 372L592 0H455L243 311H201V0H81ZM267 -291 304 -205Q243 -194 243 -136Q243 -108 261.5 -86.5Q280 -65 315 -65Q349 -65 367 -86.5Q385 -108 385 -140Q385 -175 366.5 -218.5Q348 -262 320 -313Z" glyph-name="Kcommaaccent_T" horiz-adv-x="1064" /><glyph d="M71 550H183V325H213L270 402Q295 437 321.5 464Q348 491 379.5 510Q411 529 449 539.5Q487 550 533 550H873V457H720V0H609V457H541Q478 457 434.5 432Q391 407 349 350L302 287L501 0H376L213 233H183V0H71ZM230 -246 261 -178Q208 -169 208 -121Q208 -98 224.5 -80Q241 -62 271 -62Q300 -62 316 -80Q332 -98 332 -125Q332 -153 316 -188Q300 -223 277 -263Z" glyph-name="Kcommaaccent_T.sc" horiz-adv-x="889" /><glyph d="M705 -9Q627 -9 567 9Q507 27 458 59.5Q409 92 369 138.5Q329 185 291 242L243 311H201V0H81V716H201V415H243L450 716H575L339 372L394 292Q465 188 542 134Q619 80 715 80Q776 80 807.5 96.5Q839 113 839 142Q839 165 817.5 181.5Q796 198 743 213Q711 222 682.5 234Q654 246 632.5 264Q611 282 598.5 307Q586 332 586 368Q586 441 642 479.5Q698 518 793 518Q823 518 846.5 515Q870 512 887 509Q906 505 921 500V408Q912 410 876 419Q840 428 792 428Q743 428 721 413Q699 398 699 373Q699 347 721 332Q743 317 787 306Q877 283 914.5 246.5Q952 210 952 152Q952 82 891.5 36.5Q831 -9 705 -9ZM296 -291 333 -205Q272 -194 272 -136Q272 -108 290.5 -86.5Q309 -65 344 -65Q378 -65 396 -86.5Q414 -108 414 -140Q414 -175 395.5 -218.5Q377 -262 349 -313Z" glyph-name="Kcommaaccent_s" horiz-adv-x="987" /><glyph d="M705 -9Q627 -9 567 9Q507 27 458 59.5Q409 92 369 138.5Q329 185 291 242L243 311H201V0H81V716H201V415H243L450 716H575L339 372L394 292Q465 188 542 134Q619 80 715 80Q776 80 807.5 96.5Q839 113 839 142Q839 165 817.5 181.5Q796 198 743 213Q711 222 682.5 234Q654 246 632.5 264Q611 282 598.5 307Q586 332 586 368Q586 441 642 479.5Q698 518 793 518Q823 518 846.5 515Q870 512 887 509Q906 505 921 500V408Q912 410 876 419Q840 428 792 428Q743 428 721 413Q699 398 699 373Q699 347 721 332Q743 317 787 306Q877 283 914.5 246.5Q952 210 952 152Q952 82 891.5 36.5Q831 -9 705 -9ZM601 725 640 777 772 675 901 777 943 725 799 585H745ZM296 -291 333 -205Q272 -194 272 -136Q272 -108 290.5 -86.5Q309 -65 344 -65Q378 -65 396 -86.5Q414 -108 414 -140Q414 -175 395.5 -218.5Q377 -262 349 -313Z" glyph-name="Kcommaaccent_scaron" horiz-adv-x="987" /><glyph d="M82 716H201V108H483V0H82Z" glyph-name="L" horiz-adv-x="496" unicode="L" /><glyph d="M71 550H183V95H405V0H71Z" glyph-name="L.sc" horiz-adv-x="421" /><glyph d="M781 259 683 558 590 259ZM81 716H201V108H431L633 719H748L983 0H862L812 157H560L510 0H81Z" glyph-name="L_A" horiz-adv-x="991" /><glyph d="M639 202 567 418 498 202ZM71 550H183V95H362L517 552H630L815 0H703L667 112H471L434 0H71Z" glyph-name="L_A.sc" horiz-adv-x="826" /><glyph d="M781 259 683 558 590 259ZM81 716H201V108H431L633 719H748L983 0H862L812 157H560L510 0H81ZM613 847 831 953 871 858 643 778Z" glyph-name="L_Aacute" horiz-adv-x="991" /><glyph d="M504 656 680 738 716 658 530 597ZM639 202 567 418 498 202ZM71 550H183V95H362L517 552H630L815 0H703L667 112H471L434 0H71Z" glyph-name="L_Aacute.sc" horiz-adv-x="826" /><glyph d="M781 259 683 558 590 259ZM81 716H201V108H431L633 719H748L983 0H862L812 157H560L510 0H81ZM690 787Q624 787 581 826.5Q538 866 536 937H622Q622 928 625.5 916.5Q629 905 637 895Q645 885 658 878Q671 871 690 871Q709 871 722 878Q735 885 743 895Q751 905 754.5 916.5Q758 928 758 937H844Q842 866 799 826.5Q756 787 690 787Z" glyph-name="L_Abreve" horiz-adv-x="991" /><glyph d="M573 606Q521 606 484.5 636Q448 666 445 723H521Q521 717 523.5 708.5Q526 700 532 692.5Q538 685 548 679.5Q558 674 573 674Q588 674 598 679.5Q608 685 614.5 692.5Q621 700 623.5 708.5Q626 717 626 723H701Q699 666 662 636Q625 606 573 606ZM639 202 567 418 498 202ZM71 550H183V95H362L517 552H630L815 0H703L667 112H471L434 0H71Z" glyph-name="L_Abreve.sc" horiz-adv-x="826" /><glyph d="M781 259 683 558 590 259ZM81 716H201V108H431L633 719H748L983 0H862L812 157H560L510 0H81ZM515 830 656 951H724L865 830L828 778L690 864L552 778Z" glyph-name="L_Acircumflex" horiz-adv-x="991" /><glyph d="M429 641 543 736H603L716 641L684 598L573 664L462 598ZM639 202 567 418 498 202ZM71 550H183V95H362L517 552H630L815 0H703L667 112H471L434 0H71Z" glyph-name="L_Acircumflex.sc" horiz-adv-x="826" /><glyph d="M781 259 683 558 590 259ZM81 716H201V108H431L633 719H748L983 0H862L812 157H560L510 0H81ZM594 801Q563 801 545 820.5Q527 840 527 868Q527 897 545 916Q563 935 595 935Q627 935 645 916Q663 897 663 869Q663 840 644.5 820.5Q626 801 594 801ZM784 801Q754 801 736 820.5Q718 840 718 868Q718 897 735.5 916Q753 935 785 935Q817 935 835 916Q853 897 853 869Q853 840 834.5 820.5Q816 801 784 801Z" glyph-name="L_Adieresis" horiz-adv-x="991" /><glyph d="M494 615Q467 615 452 631Q437 647 437 670Q437 693 452 708.5Q467 724 495 724Q524 724 538.5 708.5Q553 693 553 671Q553 648 538 631.5Q523 615 494 615ZM650 615Q622 615 607 631Q592 647 592 670Q592 693 607 708.5Q622 724 650 724Q679 724 694 708.5Q709 693 709 671Q709 648 694 631.5Q679 615 650 615ZM639 202 567 418 498 202ZM71 550H183V95H362L517 552H630L815 0H703L667 112H471L434 0H71Z" glyph-name="L_Adieresis.sc" horiz-adv-x="826" /><glyph d="M781 259 683 558 590 259ZM81 716H201V108H431L633 719H748L983 0H862L812 157H560L510 0H81ZM509 858 550 953 767 847 738 778Z" glyph-name="L_Agrave" horiz-adv-x="991" /><glyph d="M432 658 467 738 644 656 617 598ZM639 202 567 418 498 202ZM71 550H183V95H362L517 552H630L815 0H703L667 112H471L434 0H71Z" glyph-name="L_Agrave.sc" horiz-adv-x="826" /><glyph d="M547 909H829V819H547ZM781 259 683 558 590 259ZM81 716H201V108H431L633 719H748L983 0H862L812 157H560L510 0H81Z" glyph-name="L_Amacron" horiz-adv-x="991" /><glyph d="M458 704H686V629H458ZM639 202 567 418 498 202ZM71 550H183V95H362L517 552H630L815 0H703L667 112H471L434 0H71Z" glyph-name="L_Amacron.sc" horiz-adv-x="826" /><glyph d="M908 -225Q857 -225 827 -197Q797 -169 797 -126Q797 -89 818 -54Q839 -19 884 0H862L812 157H560L510 0H81V716H201V108H431L633 719H748L983 0Q932 -27 914 -55Q896 -83 896 -106Q896 -149 943 -149Q955 -149 966 -145Q977 -141 985 -136Q993 -131 998.5 -127Q1004 -123 1006 -122V-189Q1003 -191 995.5 -197Q988 -203 976 -209Q964 -215 947 -220Q930 -225 908 -225ZM781 259 683 558 590 259Z" glyph-name="L_Aogonek" horiz-adv-x="991" /><glyph d="M703 0 667 112H471L434 0H71V550H183V95H362L517 552H630L815 0Q778 -17 762.5 -39Q747 -61 747 -79Q747 -112 783 -112Q802 -112 815.5 -103.5Q829 -95 834 -93V-147Q826 -152 805.5 -163Q785 -174 753 -174Q709 -174 684 -152Q659 -130 659 -96Q659 -66 676.5 -39.5Q694 -13 729 0ZM639 202 567 418 498 202Z" glyph-name="L_Aogonek.sc" horiz-adv-x="826" /><glyph d="M781 259 683 558 590 259ZM81 716H201V108H431L633 719H748L983 0H862L812 157H560L510 0H81ZM688 773Q634 773 601.5 798Q569 823 569 867Q569 909 601.5 936Q634 963 688 963Q742 963 775.5 936Q809 909 809 867Q809 823 776.5 798Q744 773 688 773ZM688 830Q709 830 723.5 840Q738 850 738 869Q738 886 723.5 895.5Q709 905 688 905Q666 905 653 895.5Q640 886 640 869Q640 850 653 840Q666 830 688 830Z" glyph-name="L_Aring" horiz-adv-x="991" /><glyph d="M572 595Q527 595 500.5 614.5Q474 634 474 669Q474 702 500.5 723Q527 744 572 744Q617 744 644 723Q671 702 671 669Q671 634 644.5 614.5Q618 595 572 595ZM572 642Q589 642 600 649Q611 656 611 670Q611 683 600 690Q589 697 572 697Q555 697 544.5 690Q534 683 534 670Q534 656 544.5 649Q555 642 572 642ZM639 202 567 418 498 202ZM71 550H183V95H362L517 552H630L815 0H703L667 112H471L434 0H71Z" glyph-name="L_Aring.sc" horiz-adv-x="826" /><glyph d="M781 259 683 558 590 259ZM81 716H201V108H431L633 719H748L983 0H862L812 157H560L510 0H81ZM523 804Q524 814 528.5 836Q533 858 544.5 880.5Q556 903 576 920Q596 937 629 937Q655 937 672 927Q689 917 706 906Q723 895 735 886Q747 877 761 877Q772 877 778 884Q784 891 788 900Q791 909 793 922H865Q864 912 860 890.5Q856 869 845 847.5Q834 826 814.5 809.5Q795 793 763 793Q737 793 721 802.5Q705 812 688 823Q671 834 658.5 843Q646 852 631 852Q619 852 612 844.5Q605 837 601 828Q597 817 595 804Z" glyph-name="L_Atilde" horiz-adv-x="991" /><glyph d="M434 618Q435 629 439 647.5Q443 666 453.5 683Q464 700 481 712.5Q498 725 524 725Q546 725 559 718Q572 711 586 703Q601 694 610.5 687.5Q620 681 631 681Q640 681 645 686Q650 691 653 698Q656 705 657 714H721Q720 702 716 684.5Q712 667 702.5 650.5Q693 634 677 622Q661 610 635 610Q614 610 601 617Q588 624 574 632Q559 640 549 646.5Q539 653 527 653Q517 653 511 647.5Q505 642 502 636Q499 628 497 618ZM639 202 567 418 498 202ZM71 550H183V95H362L517 552H630L815 0H703L667 112H471L434 0H71Z" glyph-name="L_Atilde.sc" horiz-adv-x="826" /><glyph d="M82 716H201V108H483V0H82ZM101 847 319 953 359 858 131 778Z" glyph-name="Lacute" horiz-adv-x="496" unicode="&#313;" /><glyph d="M89 656 266 738 302 658 116 598ZM71 550H183V95H405V0H71Z" glyph-name="Lacute.sc" horiz-adv-x="421" /><glyph d="M82 716H201V108H483V0H82ZM380 500 417 586Q356 597 356 655Q356 683 374.5 704.5Q393 726 428 726Q462 726 480 704.5Q498 683 498 651Q498 616 479.5 572.5Q461 529 433 478Z" glyph-name="Lcaron" horiz-adv-x="533" unicode="&#317;" /><glyph d="M321 378 351 445Q298 454 298 501Q298 524 314.5 542Q331 560 361 560Q391 560 407 543Q423 526 423 497Q423 469 406.5 434.5Q390 400 367 359ZM71 550H183V95H405V0H71Z" glyph-name="Lcaron.sc" horiz-adv-x="456" /><glyph d="M781 259 683 558 590 259ZM81 716H201V108H431L633 719H748L983 0H862L812 157H560L510 0H81ZM365 500 402 586Q341 597 341 655Q341 683 359.5 704.5Q378 726 413 726Q447 726 465 704.5Q483 683 483 651Q483 616 464.5 572.5Q446 529 418 478Z" glyph-name="Lcaron_A" horiz-adv-x="991" /><glyph d="M303 377 333 445Q281 454 281 501Q281 524 297 542Q313 560 343 560Q373 560 389 542.5Q405 525 405 497Q405 469 389 434.5Q373 400 350 359ZM639 202 567 418 498 202ZM71 550H183V95H362L517 552H630L815 0H703L667 112H471L434 0H71Z" glyph-name="Lcaron_A.sc" horiz-adv-x="826" /><glyph d="M82 716H201V108H483V0H82ZM246 -291 283 -205Q222 -194 222 -136Q222 -108 240.5 -86.5Q259 -65 294 -65Q328 -65 346 -86.5Q364 -108 364 -140Q364 -175 345.5 -218.5Q327 -262 299 -313Z" glyph-name="Lcommaaccent" horiz-adv-x="496" unicode="&#315;" /><glyph d="M71 550H183V95H405V0H71ZM206 -246 237 -178Q211 -173 197.5 -158.5Q184 -144 184 -121Q184 -98 200.5 -80Q217 -62 246 -62Q276 -62 292 -80Q308 -98 308 -125Q308 -153 292 -188Q276 -223 253 -263Z" glyph-name="Lcommaaccent.sc" horiz-adv-x="421" /><glyph d="M781 259 683 558 590 259ZM81 716H201V108H431L633 719H748L983 0H862L812 157H560L510 0H81ZM245 -291 282 -205Q221 -194 221 -136Q221 -108 239.5 -86.5Q258 -65 293 -65Q327 -65 345 -86.5Q363 -108 363 -140Q363 -175 344.5 -218.5Q326 -262 298 -313Z" glyph-name="Lcommaaccent_A" horiz-adv-x="991" /><glyph d="M639 202 567 418 498 202ZM71 550H183V95H362L517 552H630L815 0H703L667 112H471L434 0H71ZM206 -246 237 -178Q211 -173 197.5 -158.5Q184 -144 184 -121Q184 -98 200.5 -80Q217 -62 246 -62Q276 -62 292 -80Q308 -98 308 -125Q308 -153 292 -188Q276 -223 253 -263Z" glyph-name="Lcommaaccent_A.sc" horiz-adv-x="826" /><glyph d="M547 909H829V819H547ZM781 259 683 558 590 259ZM81 716H201V108H431L633 719H748L983 0H862L812 157H560L510 0H81ZM245 -291 282 -205Q221 -194 221 -136Q221 -108 239.5 -86.5Q258 -65 293 -65Q327 -65 345 -86.5Q363 -108 363 -140Q363 -175 344.5 -218.5Q326 -262 298 -313Z" glyph-name="Lcommaaccent_Amacron" horiz-adv-x="991" /><glyph d="M458 704H686V629H458ZM639 202 567 418 498 202ZM71 550H183V95H362L517 552H630L815 0H703L667 112H471L434 0H71ZM206 -246 237 -178Q211 -173 197.5 -158.5Q184 -144 184 -121Q184 -98 200.5 -80Q217 -62 246 -62Q276 -62 292 -80Q308 -98 308 -125Q308 -153 292 -188Q276 -223 253 -263Z" glyph-name="Lcommaaccent_Amacron.sc" horiz-adv-x="826" /><glyph d="M82 716H201V108H483V0H82ZM401 295Q367 295 348 317.5Q329 340 329 372Q329 403 348 424.5Q367 446 401 446Q436 446 455 424.5Q474 403 474 372Q474 340 455 317.5Q436 295 401 295Z" glyph-name="Ldot" horiz-adv-x="512" unicode="&#319;" /><glyph d="M71 550H183V95H405V0H71ZM341 227Q312 227 294.5 245.5Q277 264 277 290Q277 317 294.5 335Q312 353 341 353Q371 353 388.5 335Q406 317 406 290Q406 264 388.5 245.5Q371 227 341 227Z" glyph-name="Ldot.sc" horiz-adv-x="439" /><glyph d="M94 0V302L20 263V366L94 405V716H214V465L336 528V425L214 362V108H496V0Z" glyph-name="Lslash" horiz-adv-x="508" unicode="&#321;" /><glyph d="M79 0V224L25 197V283L79 310V550H191V362L285 407V320L191 275V95H413V0Z" glyph-name="Lslash.sc" horiz-adv-x="429" /><glyph d="M811 259 713 558 620 259ZM539 0H110V302L36 263V366L110 405V716H230V465L353 528V425L230 362V108H461L663 719H777L1012 0H892L842 157H589Z" glyph-name="Lslash_A" horiz-adv-x="1020" /><glyph d="M662 202 589 418 520 202ZM93 223 38 197V283L93 310V550H205V362L305 410V323L205 275V95H384L540 552H652L837 0H726L689 112H493L456 0H93Z" glyph-name="Lslash_A.sc" horiz-adv-x="848" /><glyph d="M811 259 713 558 620 259ZM892 0 842 157H589L539 0H110V302L36 263V366L110 405V716H230V465L353 528V425L230 362V108H461L663 719H777L1012 0Q962 -27 944 -55Q926 -83 926 -106Q926 -149 973 -149Q985 -149 996 -145Q1007 -141 1015 -136Q1023 -131 1028.5 -127Q1034 -123 1036 -122V-189Q1033 -191 1025.5 -197Q1018 -203 1005.5 -209Q993 -215 976 -220Q959 -225 938 -225Q887 -225 857 -197Q827 -169 827 -126Q827 -89 847.5 -54Q868 -19 913 0Z" glyph-name="Lslash_Aogonek" horiz-adv-x="1020" /><glyph d="M726 0 689 112H493L456 0H93V223L38 197V283L93 310V550H205V362L305 410V323L205 275V95H384L540 552H652L837 0Q800 -19 785 -40Q770 -61 770 -79Q770 -112 806 -112Q825 -112 838.5 -103.5Q852 -95 857 -93V-147Q849 -152 828.5 -163Q808 -174 775 -174Q733 -174 707.5 -152Q682 -130 682 -96Q682 -66 699.5 -39.5Q717 -13 752 0ZM662 202 589 418 520 202Z" glyph-name="Lslash_Aogonek.sc" horiz-adv-x="848" /><glyph d="M190 549 168 0H65L99 716H234L416 219L596 716H728L761 0H648L628 547L451 48H365Z" glyph-name="M" horiz-adv-x="827" unicode="M" /><glyph d="M169 407 153 0H58L86 550H211L348 186L485 550H607L633 0H529L516 406L381 37H301Z" glyph-name="M.sc" horiz-adv-x="692" /><glyph d="M82 716H190L503 208V716H612V0H503L190 508V0H82Z" glyph-name="N" horiz-adv-x="693" unicode="N" /><glyph d="M71 550H171L411 182V550H511V0H411L171 367V0H71Z" glyph-name="N.sc" horiz-adv-x="582" /><glyph d="M712 417Q773 417 801 444.5Q829 472 829 523Q829 571 796.5 594.5Q764 618 704 618H621V417ZM502 716H701Q831 716 889.5 665Q948 614 948 528Q948 476 924 437.5Q900 399 858 377Q921 358 950.5 312Q980 266 980 209Q980 156 961.5 117Q943 78 909.5 52Q876 26 828.5 13Q781 0 722 0H502L190 508V0H81V716H190L502 208ZM723 98Q789 98 823 127Q857 156 857 210Q857 264 826 292Q795 320 725 320H621V98Z" glyph-name="N_B" horiz-adv-x="1022" /><glyph d="M589 323Q633 323 653.5 343Q674 363 674 398Q674 432 650.5 448.5Q627 465 583 465H520V323ZM411 550H580Q687 550 735.5 510.5Q784 471 784 404Q784 364 764 334.5Q744 305 712 288Q760 274 785 240.5Q810 207 810 162Q810 81 752 40.5Q694 0 595 0H411L171 367V0H71V550H171L411 182ZM596 85Q644 85 669.5 105.5Q695 126 695 164Q695 202 672 221Q649 240 598 240H520V85Z" glyph-name="N_B.sc" horiz-adv-x="849" /><glyph d="M709 108Q804 108 860.5 169Q917 230 917 358Q917 486 860.5 547Q804 608 709 608H618V108ZM81 716H190L502 208V716H705Q788 716 850.5 691.5Q913 667 956 621Q999 575 1020.5 508.5Q1042 442 1042 358Q1042 274 1020.5 208Q999 142 956 95.5Q913 49 850.5 24.5Q788 0 705 0H502L190 508V0H81Z" glyph-name="N_D" horiz-adv-x="1089" /><glyph d="M583 95Q656 95 698 140Q740 185 740 275Q740 366 697.5 410.5Q655 455 583 455H519V95ZM71 550H172L411 182V550H578Q647 550 699.5 530.5Q752 511 786.5 475Q821 439 838.5 388Q856 337 856 275Q856 213 838.5 162.5Q821 112 786.5 76Q752 40 699.5 20Q647 0 578 0H411L172 367V0H71Z" glyph-name="N_D.sc" horiz-adv-x="899" /><glyph d="M81 716H190L502 208V716H904V610H618V415H854V311H618V106H904V0H502L190 508V0H81Z" glyph-name="N_E" horiz-adv-x="952" /><glyph d="M71 550H171L411 182V550H748V456H519V324H701V234H519V94H748V0H411L171 367V0H71Z" glyph-name="N_E.sc" horiz-adv-x="794" /><glyph d="M81 716H190L502 208V716H904V610H618V415H854V311H618V106H904V0H502L190 508V0H81ZM605 847 823 953 863 858 635 778Z" glyph-name="N_Eacute" horiz-adv-x="952" /><glyph d="M501 656 677 738 712 658 527 598ZM71 550H171L411 182V550H748V456H519V324H701V234H519V94H748V0H411L171 367V0H71Z" glyph-name="N_Eacute.sc" horiz-adv-x="794" /><glyph d="M81 716H190L502 208V716H904V610H618V415H854V311H618V106H904V0H502L190 508V0H81ZM536 899 573 951 711 865 848 951 886 899 744 778H676Z" glyph-name="N_Ecaron" horiz-adv-x="952" /><glyph d="M443 692 475 736 586 670 696 736 730 692 616 598H555ZM71 550H171L411 182V550H748V456H519V324H701V234H519V94H748V0H411L171 367V0H71Z" glyph-name="N_Ecaron.sc" horiz-adv-x="794" /><glyph d="M81 716H190L502 208V716H904V610H618V415H854V311H618V106H904V0H502L190 508V0H81ZM525 830 666 951H734L875 830L838 778L700 864L562 778Z" glyph-name="N_Ecircumflex" horiz-adv-x="952" /><glyph d="M435 641 549 736H610L722 641L689 598L579 664L468 598ZM71 550H171L411 182V550H748V456H519V324H701V234H519V94H748V0H411L171 367V0H71Z" glyph-name="N_Ecircumflex.sc" horiz-adv-x="794" /><glyph d="M81 716H190L502 208V716H904V610H618V415H854V311H618V106H904V0H502L190 508V0H81ZM610 801Q579 801 561 820.5Q543 840 543 868Q543 897 561 916Q579 935 611 935Q643 935 661 916Q679 897 679 869Q679 840 660.5 820.5Q642 801 610 801ZM800 801Q770 801 752 820.5Q734 840 734 868Q734 897 751.5 916Q769 935 801 935Q833 935 851 916Q869 897 869 869Q869 840 850.5 820.5Q832 801 800 801Z" glyph-name="N_Edieresis" horiz-adv-x="952" /><glyph d="M504 615Q476 615 461.5 631Q447 647 447 670Q447 693 461.5 708.5Q476 724 504 724Q533 724 548 708.5Q563 693 563 671Q563 648 548 631.5Q533 615 504 615ZM660 615Q631 615 616.5 631Q602 647 602 670Q602 693 616.5 708.5Q631 724 660 724Q689 724 704 708.5Q719 693 719 671Q719 648 704 631.5Q689 615 660 615ZM71 550H171L411 182V550H748V456H519V324H701V234H519V94H748V0H411L171 367V0H71Z" glyph-name="N_Edieresis.sc" horiz-adv-x="794" /><glyph d="M81 716H190L502 208V716H904V610H618V415H854V311H618V106H904V0H502L190 508V0H81ZM704 801Q672 801 653.5 821Q635 841 635 870Q635 899 653 918.5Q671 938 705 938Q739 938 757 919Q775 900 775 871Q775 841 757 821Q739 801 704 801Z" glyph-name="N_Edotaccent" horiz-adv-x="952" /><glyph d="M579 615Q549 615 534.5 631.5Q520 648 520 671Q520 694 534.5 710Q549 726 580 726Q611 726 626 710Q641 694 641 671Q641 648 626 631.5Q611 615 579 615ZM71 550H171L411 182V550H748V456H519V324H701V234H519V94H748V0H411L171 367V0H71Z" glyph-name="N_Edotaccent.sc" horiz-adv-x="794" /><glyph d="M81 716H190L502 208V716H904V610H618V415H854V311H618V106H904V0H502L190 508V0H81ZM547 858 588 953 805 847 776 778Z" glyph-name="N_Egrave" horiz-adv-x="952" /><glyph d="M454 658 490 738 666 656 640 598ZM71 550H171L411 182V550H748V456H519V324H701V234H519V94H748V0H411L171 367V0H71Z" glyph-name="N_Egrave.sc" horiz-adv-x="794" /><glyph d="M81 716H190L502 208V716H904V610H618V415H854V311H618V106H904V0H502L190 508V0H81ZM564 909H846V819H564Z" glyph-name="N_Emacron" horiz-adv-x="952" /><glyph d="M468 704H695V629H468ZM71 550H171L411 182V550H748V456H519V324H701V234H519V94H748V0H411L171 367V0H71Z" glyph-name="N_Emacron.sc" horiz-adv-x="794" /><glyph d="M502 0 190 508V0H81V716H190L502 208V716H904V610H618V415H854V311H618V106H904V0Q853 -27 835 -55Q817 -83 817 -106Q817 -149 864 -149Q876 -149 887 -145Q898 -141 906 -136Q914 -131 919.5 -127Q925 -123 927 -122V-189Q924 -191 916.5 -197Q909 -203 897 -209Q885 -215 868 -220Q851 -225 829 -225Q778 -225 748 -197Q718 -169 718 -126Q718 -89 739 -54Q760 -19 805 0Z" glyph-name="N_Eogonek" horiz-adv-x="952" /><glyph d="M411 0 171 367V0H71V550H171L411 182V550H748V456H519V324H701V234H519V94H748V0Q710 -19 695 -40Q680 -61 680 -79Q680 -112 716 -112Q735 -112 748.5 -103.5Q762 -95 766 -93V-147Q759 -152 738.5 -163Q718 -174 685 -174Q642 -174 617 -152Q592 -130 592 -96Q592 -66 609.5 -39.5Q627 -13 661 0Z" glyph-name="N_Eogonek.sc" horiz-adv-x="794" /><glyph d="M81 716H190L502 208V716H900V610H618V410H855V303H618V0H502L190 508V0H81Z" glyph-name="N_F" horiz-adv-x="927" /><glyph d="M71 550H172L411 182V550H744V456H519V318H703V224H519V0H411L172 367V0H71Z" glyph-name="N_F.sc" horiz-adv-x="771" /><glyph d="M81 716H190L502 208V716H618V415H660L867 716H993L756 372L1009 0H872L660 311H618V0H502L190 508V0H81Z" glyph-name="N_K" horiz-adv-x="1011" /><glyph d="M71 550H171L411 182V550H519V325H550L708 550H824L639 286L838 0H712L550 233H519V0H411L171 367V0H71Z" glyph-name="N_K.sc" horiz-adv-x="845" /><glyph d="M81 716H190L502 208V716H618V415H660L867 716H993L756 372L1009 0H872L660 311H618V0H502L190 508V0H81ZM691 -291 728 -205Q667 -194 667 -136Q667 -108 685.5 -86.5Q704 -65 739 -65Q773 -65 791 -86.5Q809 -108 809 -140Q809 -175 790.5 -218.5Q772 -262 744 -313Z" glyph-name="N_Kcommaaccent" horiz-adv-x="1011" /><glyph d="M71 550H171L411 182V550H519V325H550L708 550H824L639 286L838 0H712L550 233H519V0H411L171 367V0H71ZM572 -246 603 -178Q549 -169 549 -121Q549 -98 565.5 -80Q582 -62 612 -62Q642 -62 658 -80Q674 -98 674 -125Q674 -153 657.5 -188Q641 -223 618 -263Z" glyph-name="N_Kcommaaccent.sc" horiz-adv-x="845" /><glyph d="M81 716H190L502 208V716H611L924 208V716H1032V0H924L611 508V0H502L190 508V0H81Z" glyph-name="N_N" horiz-adv-x="1113" /><glyph d="M71 550H171L411 182V550H511L751 182V550H850V0H751L511 367V0H411L171 367V0H71Z" glyph-name="N_N.sc" horiz-adv-x="922" /><glyph d="M676 359Q741 359 784 392.5Q827 426 827 493Q827 552 788.5 583.5Q750 615 675 615H608V359ZM81 716H190L500 208V716H674Q817 716 882.5 656.5Q948 597 948 496Q948 438 927.5 393.5Q907 349 870.5 319Q834 289 783.5 273.5Q733 258 674 258H608V0H500L187 514V0H81Z" glyph-name="N_P" horiz-adv-x="977" /><glyph d="M555 279Q603 279 635.5 303Q668 327 668 375Q668 417 639.5 439.5Q611 462 555 462H508V279ZM71 550H172L408 182V550H555Q614 550 656.5 537.5Q699 525 726 502.5Q753 480 766 448Q779 416 779 378Q779 333 762 298Q745 263 715 239Q685 215 644 203Q603 191 555 191H508V0H408L168 374V0H71Z" glyph-name="N_P.sc" horiz-adv-x="807" /><glyph d="M695 376Q748 376 785 410Q822 444 822 507Q822 557 791 586Q760 615 697 615H608V376ZM81 716H190L500 208V716H702Q820 716 882 661.5Q944 607 944 514Q944 454 915 400.5Q886 347 819 311L978 0H848L704 278H608V0H500L187 515V0H81Z" glyph-name="N_R" horiz-adv-x="998" /><glyph d="M572 293Q611 293 639 316.5Q667 340 667 385Q667 420 644 441Q621 462 574 462H508V293ZM71 550H172L408 182V550H578Q677 550 728 507Q779 464 779 392Q779 347 757 307.5Q735 268 684 239L803 0H683L577 208H508V0H408L168 374V0H71Z" glyph-name="N_R.sc" horiz-adv-x="831" /><glyph d="M82 716H190L503 208V716H612V0H503L190 508V0H82ZM274 847 492 953 532 858 304 778Z" glyph-name="Nacute" horiz-adv-x="693" unicode="&#323;" /><glyph d="M82 716H190L503 208V716H612V0H503L190 508V0H82ZM288 804 378 988 455 944 348 771Z" glyph-name="Nacute.pl" horiz-adv-x="693" /><glyph d="M237 622 315 774 387 735 294 592ZM71 550H171L411 182V550H511V0H411L171 367V0H71Z" glyph-name="Nacute.pl.sc" horiz-adv-x="582" /><glyph d="M230 656 407 738 442 658 257 598ZM71 550H171L411 182V550H511V0H411L171 367V0H71Z" glyph-name="Nacute.sc" horiz-adv-x="582" /><glyph d="M81 716H190L502 208V716H618V415H660L867 716H993L756 372L1009 0H872L660 311H618V0H502L190 508V0H81ZM273 847 491 953 531 858 303 778Z" glyph-name="Nacute_K" horiz-adv-x="1011" /><glyph d="M230 656 407 738 442 658 257 598ZM71 550H171L411 182V550H519V325H550L708 550H824L639 286L838 0H712L550 233H519V0H411L171 367V0H71Z" glyph-name="Nacute_K.sc" horiz-adv-x="845" /><glyph d="M82 716H190L503 208V716H612V0H503L190 508V0H82ZM180 899 217 951 355 865 492 951 530 899 388 778H320Z" glyph-name="Ncaron" horiz-adv-x="693" unicode="&#327;" /><glyph d="M154 692 186 736 297 670 407 736 441 692 327 598H266ZM71 550H171L411 182V550H511V0H411L171 367V0H71Z" glyph-name="Ncaron.sc" horiz-adv-x="582" /><glyph d="M709 108Q804 108 860.5 169Q917 230 917 358Q917 486 860.5 547Q804 608 709 608H618V108ZM81 716H190L502 208V716H705Q788 716 850.5 691.5Q913 667 956 621Q999 575 1020.5 508.5Q1042 442 1042 358Q1042 274 1020.5 208Q999 142 956 95.5Q913 49 850.5 24.5Q788 0 705 0H502L190 508V0H81ZM179 899 216 951 354 865 491 951 529 899 387 778H319Z" glyph-name="Ncaron_D" horiz-adv-x="1089" /><glyph d="M154 692 186 736 297 670 408 736 441 692 327 598H267ZM583 95Q656 95 698 140Q740 185 740 275Q740 366 697.5 410.5Q655 455 583 455H519V95ZM71 550H172L411 182V550H578Q647 550 699.5 530.5Q752 511 786.5 475Q821 439 838.5 388Q856 337 856 275Q856 213 838.5 162.5Q821 112 786.5 76Q752 40 699.5 20Q647 0 578 0H411L172 367V0H71Z" glyph-name="Ncaron_D.sc" horiz-adv-x="899" /><glyph d="M81 716H190L502 208V716H618V415H660L867 716H993L756 372L1009 0H872L660 311H618V0H502L190 508V0H81ZM179 899 216 951 354 865 491 951 529 899 387 778H319Z" glyph-name="Ncaron_K" horiz-adv-x="1011" /><glyph d="M154 692 186 736 297 670 407 736 441 692 327 598H266ZM71 550H171L411 182V550H519V325H550L708 550H824L639 286L838 0H712L550 233H519V0H411L171 367V0H71Z" glyph-name="Ncaron_K.sc" horiz-adv-x="845" /><glyph d="M82 716H190L503 208V716H612V0H503L190 508V0H82ZM303 -291 340 -205Q279 -194 279 -136Q279 -108 297.5 -86.5Q316 -65 351 -65Q385 -65 403 -86.5Q421 -108 421 -140Q421 -175 402.5 -218.5Q384 -262 356 -313Z" glyph-name="Ncommaaccent" horiz-adv-x="693" unicode="&#325;" /><glyph d="M71 550H171L411 182V550H511V0H411L171 367V0H71ZM256 -246 287 -178Q233 -169 233 -121Q233 -98 249.5 -80Q266 -62 296 -62Q326 -62 342 -80Q358 -98 358 -125Q358 -153 341.5 -188Q325 -223 302 -263Z" glyph-name="Ncommaaccent.sc" horiz-adv-x="582" /><glyph d="M712 417Q773 417 801 444.5Q829 472 829 523Q829 571 796.5 594.5Q764 618 704 618H621V417ZM502 716H701Q831 716 889.5 665Q948 614 948 528Q948 476 924 437.5Q900 399 858 377Q921 358 950.5 312Q980 266 980 209Q980 156 961.5 117Q943 78 909.5 52Q876 26 828.5 13Q781 0 722 0H502L190 508V0H81V716H190L502 208ZM723 98Q789 98 823 127Q857 156 857 210Q857 264 826 292Q795 320 725 320H621V98ZM303 -291 340 -205Q279 -194 279 -136Q279 -108 297.5 -86.5Q316 -65 351 -65Q385 -65 403 -86.5Q421 -108 421 -140Q421 -175 402.5 -218.5Q384 -262 356 -313Z" glyph-name="Ncommaaccent_B" horiz-adv-x="1022" /><glyph d="M589 323Q633 323 653.5 343Q674 363 674 398Q674 432 650.5 448.5Q627 465 583 465H520V323ZM411 550H580Q687 550 735.5 510.5Q784 471 784 404Q784 364 764 334.5Q744 305 712 288Q760 274 785 240.5Q810 207 810 162Q810 81 752 40.5Q694 0 595 0H411L171 367V0H71V550H171L411 182ZM596 85Q644 85 669.5 105.5Q695 126 695 164Q695 202 672 221Q649 240 598 240H520V85ZM253 -246 284 -178Q231 -169 231 -121Q231 -98 247.5 -80Q264 -62 293 -62Q323 -62 339 -80Q355 -98 355 -125Q355 -153 339 -188Q323 -223 300 -263Z" glyph-name="Ncommaaccent_B.sc" horiz-adv-x="849" /><glyph d="M709 108Q804 108 860.5 169Q917 230 917 358Q917 486 860.5 547Q804 608 709 608H618V108ZM81 716H190L502 208V716H705Q788 716 850.5 691.5Q913 667 956 621Q999 575 1020.5 508.5Q1042 442 1042 358Q1042 274 1020.5 208Q999 142 956 95.5Q913 49 850.5 24.5Q788 0 705 0H502L190 508V0H81ZM298 -291 335 -205Q274 -194 274 -136Q274 -108 292.5 -86.5Q311 -65 346 -65Q380 -65 398 -86.5Q416 -108 416 -140Q416 -175 397.5 -218.5Q379 -262 351 -313Z" glyph-name="Ncommaaccent_D" horiz-adv-x="1089" /><glyph d="M583 95Q656 95 698 140Q740 185 740 275Q740 366 697.5 410.5Q655 455 583 455H519V95ZM71 550H172L411 182V550H578Q647 550 699.5 530.5Q752 511 786.5 475Q821 439 838.5 388Q856 337 856 275Q856 213 838.5 162.5Q821 112 786.5 76Q752 40 699.5 20Q647 0 578 0H411L172 367V0H71ZM249 -246 280 -178Q227 -169 227 -121Q227 -98 243.5 -80Q260 -62 290 -62Q319 -62 335 -80Q351 -98 351 -125Q351 -153 335 -188Q319 -223 296 -263Z" glyph-name="Ncommaaccent_D.sc" horiz-adv-x="899" /><glyph d="M81 716H190L502 208V716H904V610H618V415H854V311H618V106H904V0H502L190 508V0H81ZM303 -291 340 -205Q279 -194 279 -136Q279 -108 297.5 -86.5Q316 -65 351 -65Q385 -65 403 -86.5Q421 -108 421 -140Q421 -175 402.5 -218.5Q384 -262 356 -313Z" glyph-name="Ncommaaccent_E" horiz-adv-x="952" /><glyph d="M71 550H171L411 182V550H748V456H519V324H701V234H519V94H748V0H411L171 367V0H71ZM256 -246 287 -178Q233 -169 233 -121Q233 -98 249.5 -80Q266 -62 296 -62Q326 -62 342 -80Q358 -98 358 -125Q358 -153 341.5 -188Q325 -223 302 -263Z" glyph-name="Ncommaaccent_E.sc" horiz-adv-x="794" /><glyph d="M81 716H190L502 208V716H904V610H618V415H854V311H618V106H904V0H502L190 508V0H81ZM564 909H846V819H564ZM303 -291 340 -205Q279 -194 279 -136Q279 -108 297.5 -86.5Q316 -65 351 -65Q385 -65 403 -86.5Q421 -108 421 -140Q421 -175 402.5 -218.5Q384 -262 356 -313Z" glyph-name="Ncommaaccent_Emacron" horiz-adv-x="952" /><glyph d="M468 704H695V629H468ZM71 550H171L411 182V550H748V456H519V324H701V234H519V94H748V0H411L171 367V0H71ZM256 -246 287 -178Q233 -169 233 -121Q233 -98 249.5 -80Q266 -62 296 -62Q326 -62 342 -80Q358 -98 358 -125Q358 -153 341.5 -188Q325 -223 302 -263Z" glyph-name="Ncommaaccent_Emacron.sc" horiz-adv-x="794" /><glyph d="M81 716H190L502 208V716H618V415H660L867 716H993L756 372L1009 0H872L660 311H618V0H502L190 508V0H81ZM303 -291 340 -205Q279 -194 279 -136Q279 -108 297.5 -86.5Q316 -65 351 -65Q385 -65 403 -86.5Q421 -108 421 -140Q421 -175 402.5 -218.5Q384 -262 356 -313Z" glyph-name="Ncommaaccent_K" horiz-adv-x="1011" /><glyph d="M71 550H171L411 182V550H519V325H550L708 550H824L639 286L838 0H712L550 233H519V0H411L171 367V0H71ZM256 -246 287 -178Q233 -169 233 -121Q233 -98 249.5 -80Q266 -62 296 -62Q326 -62 342 -80Q358 -98 358 -125Q358 -153 341.5 -188Q325 -223 302 -263Z" glyph-name="Ncommaaccent_K.sc" horiz-adv-x="845" /><glyph d="M81 716H190L502 208V716H618V415H660L867 716H993L756 372L1009 0H872L660 311H618V0H502L190 508V0H81ZM691 -291 728 -205Q667 -194 667 -136Q667 -108 685.5 -86.5Q704 -65 739 -65Q773 -65 791 -86.5Q809 -108 809 -140Q809 -175 790.5 -218.5Q772 -262 744 -313ZM303 -291 340 -205Q279 -194 279 -136Q279 -108 297.5 -86.5Q316 -65 351 -65Q385 -65 403 -86.5Q421 -108 421 -140Q421 -175 402.5 -218.5Q384 -262 356 -313Z" glyph-name="Ncommaaccent_Kcommaaccent" horiz-adv-x="1011" /><glyph d="M71 550H171L411 182V550H519V325H550L708 550H824L639 286L838 0H712L550 233H519V0H411L171 367V0H71ZM572 -246 603 -178Q549 -169 549 -121Q549 -98 565.5 -80Q582 -62 612 -62Q642 -62 658 -80Q674 -98 674 -125Q674 -153 657.5 -188Q641 -223 618 -263ZM256 -246 287 -178Q233 -169 233 -121Q233 -98 249.5 -80Q266 -62 296 -62Q326 -62 342 -80Q358 -98 358 -125Q358 -153 341.5 -188Q325 -223 302 -263Z" glyph-name="Ncommaaccent_Kcommaaccent.sc" horiz-adv-x="845" /><glyph d="M81 716H190L502 208V716H611L924 208V716H1032V0H924L611 508V0H502L190 508V0H81ZM303 -291 340 -205Q279 -194 279 -136Q279 -108 297.5 -86.5Q316 -65 351 -65Q385 -65 403 -86.5Q421 -108 421 -140Q421 -175 402.5 -218.5Q384 -262 356 -313Z" glyph-name="Ncommaaccent_N" horiz-adv-x="1113" /><glyph d="M71 550H171L411 182V550H511L751 182V550H850V0H751L511 367V0H411L171 367V0H71ZM256 -246 287 -178Q233 -169 233 -121Q233 -98 249.5 -80Q266 -62 296 -62Q326 -62 342 -80Q358 -98 358 -125Q358 -153 341.5 -188Q325 -223 302 -263Z" glyph-name="Ncommaaccent_N.sc" horiz-adv-x="922" /><glyph d="M81 716H190L502 208V716H611L924 208V716H1032V0H924L611 508V0H502L190 508V0H81ZM725 -291 762 -205Q701 -194 701 -136Q701 -108 719.5 -86.5Q738 -65 773 -65Q807 -65 825 -86.5Q843 -108 843 -140Q843 -175 824.5 -218.5Q806 -262 778 -313ZM303 -291 340 -205Q279 -194 279 -136Q279 -108 297.5 -86.5Q316 -65 351 -65Q385 -65 403 -86.5Q421 -108 421 -140Q421 -175 402.5 -218.5Q384 -262 356 -313Z" glyph-name="Ncommaaccent_Ncommaaccent" horiz-adv-x="1113" /><glyph d="M71 550H171L411 182V550H511L751 182V550H850V0H751L511 367V0H411L171 367V0H71ZM596 -246 626 -178Q573 -169 573 -121Q573 -98 589.5 -80Q606 -62 636 -62Q666 -62 681.5 -80Q697 -98 697 -125Q697 -153 681.5 -188Q666 -223 643 -263ZM256 -246 287 -178Q233 -169 233 -121Q233 -98 249.5 -80Q266 -62 296 -62Q326 -62 342 -80Q358 -98 358 -125Q358 -153 341.5 -188Q325 -223 302 -263Z" glyph-name="Ncommaaccent_Ncommaaccent.sc" horiz-adv-x="922" /><glyph d="M676 359Q741 359 784 392.5Q827 426 827 493Q827 552 788.5 583.5Q750 615 675 615H608V359ZM81 716H190L500 208V716H674Q817 716 882.5 656.5Q948 597 948 496Q948 438 927.5 393.5Q907 349 870.5 319Q834 289 783.5 273.5Q733 258 674 258H608V0H500L187 514V0H81ZM298 -291 335 -205Q274 -194 274 -136Q274 -108 292.5 -86.5Q311 -65 346 -65Q380 -65 398 -86.5Q416 -108 416 -140Q416 -175 397.5 -218.5Q379 -262 351 -313Z" glyph-name="Ncommaaccent_P" horiz-adv-x="977" /><glyph d="M555 279Q603 279 635.5 303Q668 327 668 375Q668 417 639.5 439.5Q611 462 555 462H508V279ZM71 550H172L408 182V550H555Q674 550 726.5 503.5Q779 457 779 378Q779 333 762 298Q745 263 715 239Q685 215 644 203Q603 191 555 191H508V0H408L168 374V0H71ZM249 -246 280 -178Q227 -169 227 -121Q227 -98 243.5 -80Q260 -62 290 -62Q319 -62 335 -80Q351 -98 351 -125Q351 -153 335 -188Q319 -223 296 -263Z" glyph-name="Ncommaaccent_P.sc" horiz-adv-x="807" /><glyph d="M695 376Q748 376 785 410Q822 444 822 507Q822 557 791 586Q760 615 697 615H608V376ZM81 716H190L500 208V716H702Q820 716 882 661.5Q944 607 944 514Q944 454 915 400.5Q886 347 819 311L978 0H848L704 278H608V0H500L187 515V0H81ZM298 -291 335 -205Q274 -194 274 -136Q274 -108 292.5 -86.5Q311 -65 346 -65Q380 -65 398 -86.5Q416 -108 416 -140Q416 -175 397.5 -218.5Q379 -262 351 -313Z" glyph-name="Ncommaaccent_R" horiz-adv-x="998" /><glyph d="M572 293Q611 293 639 316.5Q667 340 667 385Q667 420 644 441Q621 462 574 462H508V293ZM71 550H172L408 182V550H578Q677 550 728 507Q779 464 779 392Q779 347 757 307.5Q735 268 684 239L803 0H683L577 208H508V0H408L168 374V0H71ZM249 -246 280 -178Q227 -169 227 -121Q227 -98 243.5 -80Q260 -62 290 -62Q319 -62 335 -80Q351 -98 351 -125Q351 -153 335 -188Q319 -223 296 -263Z" glyph-name="Ncommaaccent_R.sc" horiz-adv-x="831" /><glyph d="M82 716H190L503 208V716H612V0H503L190 508V0H82ZM177 804Q178 814 182.5 836Q187 858 198.5 880.5Q210 903 230 920Q250 937 283 937Q309 937 326 927Q343 917 360 906Q377 895 389 886Q401 877 415 877Q426 877 432 884Q438 891 442 900Q445 909 447 922H519Q518 912 514 890.5Q510 869 499 847.5Q488 826 468.5 809.5Q449 793 417 793Q391 793 375 802.5Q359 812 342 823Q325 834 312.5 843Q300 852 285 852Q273 852 266 844.5Q259 837 255 828Q251 817 249 804Z" glyph-name="Ntilde" horiz-adv-x="693" unicode="&#209;" /><glyph d="M150 618Q150 629 154.5 647.5Q159 666 169 683Q179 700 196 712.5Q213 725 239 725Q261 725 274.5 718Q288 711 302 703Q316 694 325.5 687.5Q335 681 347 681Q355 681 360 686Q365 691 368 698Q372 705 373 714H436Q435 702 430.5 684.5Q426 667 417 650.5Q408 634 392 622Q376 610 351 610Q329 610 316 617Q303 624 288 632Q274 640 264 646.5Q254 653 242 653Q232 653 226 647.5Q220 642 217 636Q214 628 212 618ZM71 550H171L411 182V550H511V0H411L171 367V0H71Z" glyph-name="Ntilde.sc" horiz-adv-x="582" /><glyph d="M81 716H190L502 208V716H904V610H618V415H854V311H618V106H904V0H502L190 508V0H81ZM176 804Q177 814 181.5 836Q186 858 197.5 880.5Q209 903 229 920Q249 937 282 937Q308 937 325 927Q342 917 359 906Q376 895 388 886Q400 877 414 877Q425 877 431 884Q437 891 441 900Q444 909 446 922H518Q517 912 513 890.5Q509 869 498 847.5Q487 826 467.5 809.5Q448 793 416 793Q390 793 374 802.5Q358 812 341 823Q324 834 311.5 843Q299 852 284 852Q272 852 265 844.5Q258 837 254 828Q250 817 248 804Z" glyph-name="Ntilde_E" horiz-adv-x="952" /><glyph d="M150 618Q150 629 154.5 647.5Q159 666 169 683Q179 700 196 712.5Q213 725 239 725Q261 725 274.5 718Q288 711 302 703Q316 694 325.5 687.5Q335 681 347 681Q355 681 360 686Q365 691 368 698Q372 705 373 714H436Q435 702 430.5 684.5Q426 667 417 650.5Q408 634 392 622Q376 610 351 610Q329 610 316 617Q303 624 288 632Q274 640 264 646.5Q254 653 242 653Q232 653 226 647.5Q220 642 217 636Q214 628 212 618ZM71 550H171L411 182V550H748V456H519V324H701V234H519V94H748V0H411L171 367V0H71Z" glyph-name="Ntilde_E.sc" horiz-adv-x="794" /></font>
</defs>
</svg>
