<?xml version="1.0" standalone="no"?><!DOCTYPE svg PUBLIC "-//W3C//DTD SVG 1.1//EN" "http://www.w3.org/Graphics/SVG/1.1/DTD/svg11.dtd" ><svg version="1.1" xmlns="http://www.w3.org/2000/svg"><defs><font horiz-adv-x="0" id="font"><font-face ascent="750" bbox="-174 -260 1911 1133" cap-height="716" descent="-250" font-family="BigCity Grotesque Pro" font-stretch="normal" font-style="normal" font-weight="300" units-per-em="1000" x-height="500" /><missing-glyph d="M50 750H450V-250H50ZM400 -200V700H100V-200Z" horiz-adv-x="500" /><glyph glyph-name=".null" horiz-adv-x="0" /><glyph d="M418 245 290 616 165 245ZM268 719H319L566 0H501L437 188H147L83 0H19Z" glyph-name="A" horiz-adv-x="585" unicode="A" /><glyph d="M342 190 243 465 147 190ZM220 552H274L471 0H408L359 139H131L82 0H22Z" glyph-name="A.sc" horiz-adv-x="493" /><glyph d="M379 244V658H367L180 244ZM330 716H739V658H444V393H696V335H444V58H739V0H379V187H156L72 0H7Z" glyph-name="AE" horiz-adv-x="791" unicode="&#198;" /><glyph d="M316 189V498H307L161 189ZM273 550H615V498H378V306H580V254H378V52H615V0H316V139H137L72 0H11Z" glyph-name="AE.sc" horiz-adv-x="666" /><glyph d="M379 244V658H367L180 244ZM330 716H739V658H444V393H696V335H444V58H739V0H379V187H156L72 0H7ZM440 824 647 927 672 868 458 782Z" glyph-name="AEacute" horiz-adv-x="791" unicode="&#508;" /><glyph d="M387 636 555 716 577 666 404 601ZM316 189V498H307L161 189ZM273 550H615V498H378V306H580V254H378V52H615V0H316V139H137L72 0H11Z" glyph-name="AEacute.sc" horiz-adv-x="666" /><glyph d="M427 245 290 627 161 245ZM920 245 789 626 655 245ZM266 719H317L546 81L771 719H822L1070 0H1004L939 188H635L568 -4H517L448 188H143L80 0H18Z" glyph-name="A_A" horiz-adv-x="1087" /><glyph d="M349 190 243 474 144 190ZM746 190 645 473 543 190ZM218 552H273L450 75L625 552H679L876 0H813L763 139H524L473 -2H419L367 139H127L79 0H21Z" glyph-name="A_A.sc" horiz-adv-x="897" /><glyph d="M427 245 290 627 161 245ZM920 245 789 626 655 245ZM266 719H317L546 81L771 719H822L1070 0H1004L939 188H635L568 -4H517L448 188H143L80 0H18ZM730 824 937 927 962 868 748 782Z" glyph-name="A_Aacute" horiz-adv-x="1087" /><glyph d="M594 636 761 716 784 666 610 600ZM349 190 243 474 144 190ZM746 190 645 473 543 190ZM218 552H273L450 75L625 552H679L876 0H813L763 139H524L473 -2H419L367 139H127L79 0H21Z" glyph-name="A_Aacute.sc" horiz-adv-x="897" /><glyph d="M427 245 290 627 161 245ZM920 245 789 626 655 245ZM266 719H317L546 81L771 719H822L1070 0H1004L939 188H635L568 -4H517L448 188H143L80 0H18ZM705 808Q686 808 672.5 821Q659 834 659 856Q659 879 672.5 891.5Q686 904 705 904Q725 904 739 891.5Q753 879 753 857Q753 834 739 821Q725 808 705 808ZM884 808Q865 808 851.5 821Q838 834 838 856Q838 879 851.5 891.5Q865 904 885 904Q905 904 918.5 891.5Q932 879 932 857Q932 834 918 821Q904 808 884 808Z" glyph-name="A_Adieresis" horiz-adv-x="1087" /><glyph d="M577 620Q560 620 548.5 631.5Q537 643 537 660Q537 677 548.5 687.5Q560 698 577 698Q595 698 607 688Q619 678 619 661Q619 643 607 631.5Q595 620 577 620ZM723 620Q706 620 694.5 631.5Q683 643 683 660Q683 677 694.5 687.5Q706 698 724 698Q742 698 753.5 688Q765 678 765 661Q765 643 753.5 631.5Q742 620 723 620ZM349 190 243 474 144 190ZM746 190 645 473 543 190ZM218 552H273L450 75L625 552H679L876 0H813L763 139H524L473 -2H419L367 139H127L79 0H21Z" glyph-name="A_Adieresis.sc" horiz-adv-x="897" /><glyph d="M427 245 290 627 161 245ZM920 245 789 626 655 245ZM266 719H317L546 81L771 719H822L1070 0H1004L939 188H635L568 -4H517L448 188H143L80 0H18ZM624 868 649 927 856 824 838 782Z" glyph-name="A_Agrave" horiz-adv-x="1087" /><glyph d="M514 666 537 716 705 636 688 601ZM349 190 243 474 144 190ZM746 190 645 473 543 190ZM218 552H273L450 75L625 552H679L876 0H813L763 139H524L473 -2H419L367 139H127L79 0H21Z" glyph-name="A_Agrave.sc" horiz-adv-x="897" /><glyph d="M427 245 290 627 161 245ZM920 245 789 626 655 245ZM266 719H317L546 81L771 719H822L1070 0H1004L939 188H635L568 -4H517L448 188H143L80 0H18ZM659 884H930V826H659Z" glyph-name="A_Amacron" horiz-adv-x="1087" /><glyph d="M540 683H760V634H540ZM349 190 243 474 144 190ZM746 190 645 473 543 190ZM218 552H273L450 75L625 552H679L876 0H813L763 139H524L473 -2H419L367 139H127L79 0H21Z" glyph-name="A_Amacron.sc" horiz-adv-x="897" /><glyph d="M427 245 290 627 161 245ZM920 245 789 626 655 245ZM1002 -225Q961 -225 934.5 -200.5Q908 -176 908 -136Q908 -98 932.5 -60Q957 -22 1005 0H1004L939 188H635L568 -4H517L448 188H143L80 0H18L266 719H317L546 81L771 719H822L1070 0Q1016 -31 992.5 -63.5Q969 -96 969 -124Q969 -149 983 -161.5Q997 -174 1023 -174Q1037 -174 1049 -170Q1061 -166 1070 -160.5Q1079 -155 1085.5 -150Q1092 -145 1094 -143V-189Q1092 -191 1085.5 -196.5Q1079 -202 1068 -208.5Q1057 -215 1040.5 -220Q1024 -225 1002 -225Z" glyph-name="A_Aogonek" horiz-adv-x="1087" /><glyph d="M813 0 763 139H524L473 -2H419L367 139H127L79 0H21L218 552H273L450 75L625 552H679L876 0Q834 -23 815 -47.5Q796 -72 796 -93Q796 -132 839 -132Q860 -132 875.5 -122Q891 -112 896 -109V-146Q891 -149 872.5 -161.5Q854 -174 820 -174Q785 -174 763 -154.5Q741 -135 741 -104Q741 -74 761.5 -45Q782 -16 820 0ZM349 190 243 474 144 190ZM746 190 645 473 543 190Z" glyph-name="A_Aogonek.sc" horiz-adv-x="897" /><glyph d="M427 245 290 627 161 245ZM920 245 789 626 655 245ZM266 719H317L546 81L771 719H822L1070 0H1004L939 188H635L568 -4H517L448 188H143L80 0H18ZM796 770Q747 770 717 794.5Q687 819 687 861Q687 899 716.5 925.5Q746 952 796 952Q845 952 875.5 925.5Q906 899 906 861Q906 819 876.5 794.5Q847 770 796 770ZM796 810Q823 810 840 824Q857 838 857 862Q857 884 839.5 898Q822 912 796 912Q769 912 752.5 898Q736 884 736 862Q736 838 752.5 824Q769 810 796 810Z" glyph-name="A_Aring" horiz-adv-x="1087" /><glyph d="M651 592Q611 592 586.5 611.5Q562 631 562 663Q562 693 586 713.5Q610 734 651 734Q692 734 716.5 714Q741 694 741 663Q741 631 717 611.5Q693 592 651 592ZM651 625Q672 625 685.5 635.5Q699 646 699 664Q699 681 685.5 691Q672 701 651 701Q629 701 616.5 691Q604 681 604 664Q604 646 617 635.5Q630 625 651 625ZM349 190 243 474 144 190ZM746 190 645 473 543 190ZM218 552H273L450 75L625 552H679L876 0H813L763 139H524L473 -2H419L367 139H127L79 0H21Z" glyph-name="A_Aring.sc" horiz-adv-x="897" /><glyph d="M427 245 290 627 161 245ZM920 245 789 626 655 245ZM266 719H317L546 81L771 719H822L1070 0H1004L939 188H635L568 -4H517L448 188H143L80 0H18ZM647 805Q649 836 659 861Q668 883 685.5 899.5Q703 916 734 916Q760 916 776.5 904Q793 892 807 880Q822 867 834.5 856Q847 845 864 845Q877 845 884.5 853.5Q892 862 896 873Q901 885 902 901H948Q946 871 936 848Q927 826 910 810Q893 794 862 794Q838 794 821 806Q804 818 790 830Q776 842 763.5 853.5Q751 865 734 865Q719 865 711 855.5Q703 846 699 835Q694 822 693 805Z" glyph-name="A_Atilde" horiz-adv-x="1087" /><glyph d="M528 619Q528 621 530 635Q532 649 539.5 665Q547 681 561.5 694Q576 707 601 707Q622 707 635.5 698Q649 689 661 680Q674 670 683.5 662Q693 654 707 654Q718 654 724 660.5Q730 667 733 675Q737 684 738 695H779Q779 693 777 679.5Q775 666 767.5 650.5Q760 635 746 622.5Q732 610 707 610Q687 610 673.5 618.5Q660 627 648 637Q636 646 625.5 654.5Q615 663 603 663Q591 663 584 656Q577 649 573 641Q569 631 568 619ZM349 190 243 474 144 190ZM746 190 645 473 543 190ZM218 552H273L450 75L625 552H679L876 0H813L763 139H524L473 -2H419L367 139H127L79 0H21Z" glyph-name="A_Atilde.sc" horiz-adv-x="897" /><glyph d="M266 719H317L545 97L751 716H816L567 -4H518L448 188H146L82 0H18ZM427 245 290 621 164 245Z" glyph-name="A_V" horiz-adv-x="833" /><glyph d="M348 190 243 470 146 190ZM218 552H273L449 86L609 550H670L473 -2H421L367 139H129L80 0H21Z" glyph-name="A_V.sc" horiz-adv-x="690" /><glyph d="M417 245 288 621 161 245ZM266 719H318L531 93L689 719H740L915 110L1107 716H1168L939 -4H887L712 600L555 -4H503L437 188H143L80 0H18Z" glyph-name="A_W" horiz-adv-x="1182" /><glyph d="M340 190 240 469 143 190ZM217 552H272L438 82L561 552H611L746 94L894 550H950L771 -2H718L583 447L462 -2H409L358 139H126L78 0H20Z" glyph-name="A_W.sc" horiz-adv-x="970" /><glyph d="M418 245 290 616 165 245ZM268 719H319L566 0H501L437 188H147L83 0H19ZM227 824 434 927 459 868 245 782Z" glyph-name="Aacute" horiz-adv-x="585" unicode="&#193;" /><glyph d="M189 636 357 716 379 666 205 600ZM342 190 243 465 147 190ZM220 552H274L471 0H408L359 139H131L82 0H22Z" glyph-name="Aacute.sc" horiz-adv-x="493" /><glyph d="M427 245 290 627 161 245ZM920 245 789 626 655 245ZM266 719H317L546 81L771 719H822L1070 0H1004L939 188H635L568 -4H517L448 188H143L80 0H18ZM226 824 433 927 458 868 244 782Z" glyph-name="Aacute_A" horiz-adv-x="1087" /><glyph d="M188 636 355 716 378 666 204 600ZM349 190 243 474 144 190ZM746 190 645 473 543 190ZM218 552H273L450 75L625 552H679L876 0H813L763 139H524L473 -2H419L367 139H127L79 0H21Z" glyph-name="Aacute_A.sc" horiz-adv-x="897" /><glyph d="M427 245 290 627 161 245ZM920 245 789 626 655 245ZM266 719H317L546 81L771 719H822L1070 0H1004L939 188H635L568 -4H517L448 188H143L80 0H18ZM730 824 937 927 962 868 748 782ZM226 824 433 927 458 868 244 782Z" glyph-name="Aacute_Aacute" horiz-adv-x="1087" /><glyph d="M594 636 761 716 784 666 610 600ZM188 636 355 716 378 666 204 600ZM349 190 243 474 144 190ZM746 190 645 473 543 190ZM218 552H273L450 75L625 552H679L876 0H813L763 139H524L473 -2H419L367 139H127L79 0H21Z" glyph-name="Aacute_Aacute.sc" horiz-adv-x="897" /><glyph d="M266 719H317L545 97L751 716H816L567 -4H518L448 188H146L82 0H18ZM427 245 290 621 164 245ZM226 824 433 927 458 868 244 782Z" glyph-name="Aacute_V" horiz-adv-x="833" /><glyph d="M188 636 355 716 378 666 204 600ZM349 190 243 470 146 190ZM218 552H273L449 86L609 550H670L473 -2H421L368 139H129L80 0H21Z" glyph-name="Aacute_V.sc" horiz-adv-x="690" /><glyph d="M418 245 290 616 165 245ZM268 719H319L566 0H501L437 188H147L83 0H19ZM293 787Q228 787 192 824.5Q156 862 155 922H209Q211 891 230.5 866.5Q250 842 293 842Q336 842 355 866.5Q374 891 376 922H431Q429 862 393.5 824.5Q358 787 293 787Z" glyph-name="Abreve" horiz-adv-x="585" unicode="&#258;" /><glyph d="M246 605Q195 605 164.5 633.5Q134 662 132 710H181Q182 689 197 669.5Q212 650 246 650Q281 650 295.5 669.5Q310 689 312 710H360Q358 662 328 633.5Q298 605 246 605ZM342 190 243 465 147 190ZM220 552H274L471 0H408L359 139H131L82 0H22Z" glyph-name="Abreve.sc" horiz-adv-x="493" /><glyph d="M266 719H317L545 97L751 716H816L567 -4H518L448 188H146L82 0H18ZM427 245 290 621 164 245ZM291 787Q226 787 190 824.5Q154 862 153 922H207Q209 891 228.5 866.5Q248 842 291 842Q334 842 353 866.5Q372 891 374 922H429Q427 862 391.5 824.5Q356 787 291 787Z" glyph-name="Abreve_V" horiz-adv-x="833" /><glyph d="M245 605Q194 605 163.5 633.5Q133 662 131 710H179Q180 689 195 669.5Q210 650 245 650Q279 650 294 669.5Q309 689 310 710H358Q356 662 326 633.5Q296 605 245 605ZM349 190 243 470 146 190ZM218 552H273L449 86L609 550H670L473 -2H421L368 139H129L80 0H21Z" glyph-name="Abreve_V.sc" horiz-adv-x="690" /><glyph d="M418 245 290 616 165 245ZM268 719H319L566 0H501L437 188H147L83 0H19ZM134 816 271 930H312L450 816L426 782L292 874L157 782Z" glyph-name="Acircumflex" horiz-adv-x="585" unicode="&#194;" /><glyph d="M117 628 227 718H265L376 628L354 601L246 671L137 601ZM342 190 243 465 147 190ZM220 552H274L471 0H408L359 139H131L82 0H22Z" glyph-name="Acircumflex.sc" horiz-adv-x="493" /><glyph d="M418 245 290 616 165 245ZM268 719H319L566 0H501L437 188H147L83 0H19ZM202 808Q183 808 169.5 821Q156 834 156 856Q156 879 169.5 891.5Q183 904 202 904Q222 904 236 891.5Q250 879 250 857Q250 834 236 821Q222 808 202 808ZM381 808Q362 808 348.5 821Q335 834 335 856Q335 879 348.5 891.5Q362 904 382 904Q402 904 415.5 891.5Q429 879 429 857Q429 834 415 821Q401 808 381 808Z" glyph-name="Adieresis" horiz-adv-x="585" unicode="&#196;" /><glyph d="M172 620Q155 620 143.5 631.5Q132 643 132 660Q132 677 143.5 687.5Q155 698 172 698Q191 698 202.5 688Q214 678 214 661Q214 643 202.5 631.5Q191 620 172 620ZM318 620Q301 620 290 631.5Q279 643 279 660Q279 677 290 687.5Q301 698 318 698Q337 698 348.5 688Q360 678 360 661Q360 643 348.5 631.5Q337 620 318 620ZM342 190 243 465 147 190ZM220 552H274L471 0H408L359 139H131L82 0H22Z" glyph-name="Adieresis.sc" horiz-adv-x="493" /><glyph d="M427 245 290 627 161 245ZM920 245 789 626 655 245ZM266 719H317L546 81L771 719H822L1070 0H1004L939 188H635L568 -4H517L448 188H143L80 0H18ZM200 808Q181 808 167.5 821Q154 834 154 856Q154 879 167.5 891.5Q181 904 200 904Q220 904 234 891.5Q248 879 248 857Q248 834 234 821Q220 808 200 808ZM379 808Q360 808 346.5 821Q333 834 333 856Q333 879 346.5 891.5Q360 904 380 904Q400 904 413.5 891.5Q427 879 427 857Q427 834 413 821Q399 808 379 808Z" glyph-name="Adieresis_A" horiz-adv-x="1087" /><glyph d="M171 620Q154 620 142.5 631.5Q131 643 131 660Q131 677 142.5 687.5Q154 698 171 698Q189 698 200.5 688Q212 678 212 661Q212 643 200.5 631.5Q189 620 171 620ZM317 620Q300 620 288.5 631.5Q277 643 277 660Q277 677 288.5 687.5Q300 698 317 698Q335 698 346.5 688Q358 678 358 661Q358 643 346.5 631.5Q335 620 317 620ZM349 190 243 474 144 190ZM746 190 645 473 543 190ZM218 552H273L450 75L625 552H679L876 0H813L763 139H524L473 -2H419L367 139H127L79 0H21Z" glyph-name="Adieresis_A.sc" horiz-adv-x="897" /><glyph d="M427 245 290 627 161 245ZM920 245 789 626 655 245ZM266 719H317L546 81L771 719H822L1070 0H1004L939 188H635L568 -4H517L448 188H143L80 0H18ZM705 808Q686 808 672.5 821Q659 834 659 856Q659 879 672.5 891.5Q686 904 705 904Q725 904 739 891.5Q753 879 753 857Q753 834 739 821Q725 808 705 808ZM884 808Q865 808 851.5 821Q838 834 838 856Q838 879 851.5 891.5Q865 904 885 904Q905 904 918.5 891.5Q932 879 932 857Q932 834 918 821Q904 808 884 808ZM200 808Q181 808 167.5 821Q154 834 154 856Q154 879 167.5 891.5Q181 904 200 904Q220 904 234 891.5Q248 879 248 857Q248 834 234 821Q220 808 200 808ZM379 808Q360 808 346.5 821Q333 834 333 856Q333 879 346.5 891.5Q360 904 380 904Q400 904 413.5 891.5Q427 879 427 857Q427 834 413 821Q399 808 379 808Z" glyph-name="Adieresis_Adieresis" horiz-adv-x="1087" /><glyph d="M577 620Q560 620 548.5 631.5Q537 643 537 660Q537 677 548.5 687.5Q560 698 577 698Q595 698 607 688Q619 678 619 661Q619 643 607 631.5Q595 620 577 620ZM723 620Q706 620 694.5 631.5Q683 643 683 660Q683 677 694.5 687.5Q706 698 724 698Q742 698 753.5 688Q765 678 765 661Q765 643 753.5 631.5Q742 620 723 620ZM171 620Q154 620 142.5 631.5Q131 643 131 660Q131 677 142.5 687.5Q154 698 171 698Q189 698 200.5 688Q212 678 212 661Q212 643 200.5 631.5Q189 620 171 620ZM317 620Q300 620 288.5 631.5Q277 643 277 660Q277 677 288.5 687.5Q300 698 317 698Q335 698 346.5 688Q358 678 358 661Q358 643 346.5 631.5Q335 620 317 620ZM349 190 243 474 144 190ZM746 190 645 473 543 190ZM218 552H273L450 75L625 552H679L876 0H813L763 139H524L473 -2H419L367 139H127L79 0H21Z" glyph-name="Adieresis_Adieresis.sc" horiz-adv-x="897" /><glyph d="M266 719H317L545 97L751 716H816L567 -4H518L448 188H146L82 0H18ZM427 245 290 621 164 245ZM200 808Q181 808 167.5 821Q154 834 154 856Q154 879 167.5 891.5Q181 904 200 904Q220 904 234 891.5Q248 879 248 857Q248 834 234 821Q220 808 200 808ZM379 808Q360 808 346.5 821Q333 834 333 856Q333 879 346.5 891.5Q360 904 380 904Q400 904 413.5 891.5Q427 879 427 857Q427 834 413 821Q399 808 379 808Z" glyph-name="Adieresis_V" horiz-adv-x="833" /><glyph d="M171 620Q154 620 142.5 631.5Q131 643 131 660Q131 677 142.5 687.5Q154 698 171 698Q189 698 200.5 688Q212 678 212 661Q212 643 200.5 631.5Q189 620 171 620ZM317 620Q300 620 288.5 631.5Q277 643 277 660Q277 677 288.5 687.5Q300 698 317 698Q335 698 346.5 688Q358 678 358 661Q358 643 346.5 631.5Q335 620 317 620ZM349 190 243 470 146 190ZM218 552H273L449 86L609 550H670L473 -2H421L368 139H129L80 0H21Z" glyph-name="Adieresis_V.sc" horiz-adv-x="690" /><glyph d="M418 245 290 616 165 245ZM268 719H319L566 0H501L437 188H147L83 0H19ZM121 868 146 927 353 824 335 782Z" glyph-name="Agrave" horiz-adv-x="585" unicode="&#192;" /><glyph d="M110 666 133 716 300 636 284 601ZM342 190 243 465 147 190ZM220 552H274L471 0H408L359 139H131L82 0H22Z" glyph-name="Agrave.sc" horiz-adv-x="493" /><glyph d="M427 245 290 627 161 245ZM920 245 789 626 655 245ZM266 719H317L546 81L771 719H822L1070 0H1004L939 188H635L568 -4H517L448 188H143L80 0H18ZM624 868 649 927 856 824 838 782ZM120 868 145 927 352 824 334 782Z" glyph-name="Agrave_Agrave" horiz-adv-x="1087" /><glyph d="M514 666 537 716 705 636 688 601ZM108 666 131 716 299 636 282 601ZM349 190 243 474 144 190ZM746 190 645 473 543 190ZM218 552H273L450 75L625 552H679L876 0H813L763 139H524L473 -2H419L367 139H127L79 0H21Z" glyph-name="Agrave_Agrave.sc" horiz-adv-x="897" /><glyph d="M266 719H317L545 97L751 716H816L567 -4H518L448 188H146L82 0H18ZM427 245 290 621 164 245ZM120 868 145 927 352 824 334 782Z" glyph-name="Agrave_V" horiz-adv-x="833" /><glyph d="M108 666 131 716 299 636 282 601ZM349 190 243 470 146 190ZM218 552H273L449 86L609 550H670L473 -2H421L368 139H129L80 0H21Z" glyph-name="Agrave_V.sc" horiz-adv-x="690" /><glyph d="M418 245 290 616 165 245ZM268 719H319L566 0H501L437 188H147L83 0H19ZM155 884H426V826H155Z" glyph-name="Amacron" horiz-adv-x="585" unicode="&#256;" /><glyph d="M136 683H355V634H136ZM342 190 243 465 147 190ZM220 552H274L471 0H408L359 139H131L82 0H22Z" glyph-name="Amacron.sc" horiz-adv-x="493" /><glyph d="M427 245 290 627 161 245ZM920 245 789 626 655 245ZM266 719H317L546 81L771 719H822L1070 0H1004L939 188H635L568 -4H517L448 188H143L80 0H18ZM154 884H425V826H154Z" glyph-name="Amacron_A" horiz-adv-x="1087" /><glyph d="M134 683H354V634H134ZM349 190 243 474 144 190ZM746 190 645 473 543 190ZM218 552H273L450 75L625 552H679L876 0H813L763 139H524L473 -2H419L367 139H127L79 0H21Z" glyph-name="Amacron_A.sc" horiz-adv-x="897" /><glyph d="M266 719H317L545 97L751 716H816L567 -4H518L448 188H146L82 0H18ZM427 245 290 621 164 245ZM154 884H425V826H154Z" glyph-name="Amacron_V" horiz-adv-x="833" /><glyph d="M134 683H354V634H134ZM349 190 243 470 146 190ZM218 552H273L449 86L609 550H670L473 -2H421L368 139H129L80 0H21Z" glyph-name="Amacron_V.sc" horiz-adv-x="690" /><glyph d="M418 245 290 616 165 245ZM566 0Q513 -31 489.5 -63.5Q466 -96 466 -124Q466 -174 520 -174Q534 -174 546 -170Q558 -166 567 -160.5Q576 -155 582 -150Q588 -145 591 -143V-189Q589 -191 582.5 -196.5Q576 -202 564.5 -208.5Q553 -215 536.5 -220Q520 -225 498 -225Q457 -225 431 -200.5Q405 -176 405 -136Q405 -98 429.5 -60Q454 -22 502 0H501L437 188H147L83 0H19L268 719H319Z" glyph-name="Aogonek" horiz-adv-x="585" unicode="&#260;" /><glyph d="M408 0 359 139H131L82 0H22L220 552H274L471 0Q429 -23 410 -47.5Q391 -72 391 -93Q391 -132 434 -132Q456 -132 471 -122Q486 -112 491 -109V-146Q486 -149 468 -161.5Q450 -174 415 -174Q380 -174 358.5 -154.5Q337 -135 337 -104Q337 -74 357 -45Q377 -16 415 0ZM342 190 243 465 147 190Z" glyph-name="Aogonek.sc" horiz-adv-x="493" /><glyph d="M418 245 290 616 165 245ZM268 719H319L566 0H501L437 188H147L83 0H19ZM292 770Q243 770 213 794.5Q183 819 183 861Q183 899 212.5 925.5Q242 952 292 952Q341 952 371.5 925.5Q402 899 402 861Q402 819 372.5 794.5Q343 770 292 770ZM292 810Q319 810 336 824Q353 838 353 862Q353 884 335.5 898Q318 912 292 912Q265 912 248.5 898Q232 884 232 862Q232 838 248.5 824Q265 810 292 810Z" glyph-name="Aring" horiz-adv-x="585" unicode="&#197;" /><glyph d="M246 592Q206 592 181.5 611.5Q157 631 157 663Q157 693 181.5 713.5Q206 734 246 734Q287 734 311.5 714Q336 694 336 663Q336 631 312 611.5Q288 592 246 592ZM246 625Q268 625 281.5 635.5Q295 646 295 664Q295 681 281 691Q267 701 246 701Q225 701 212 691Q199 681 199 664Q199 646 212 635.5Q225 625 246 625ZM342 190 243 465 147 190ZM220 552H274L471 0H408L359 139H131L82 0H22Z" glyph-name="Aring.sc" horiz-adv-x="493" /><glyph d="M427 245 290 627 161 245ZM920 245 789 626 655 245ZM266 719H317L546 81L771 719H822L1070 0H1004L939 188H635L568 -4H517L448 188H143L80 0H18ZM291 770Q242 770 212 794.5Q182 819 182 861Q182 899 211.5 925.5Q241 952 291 952Q340 952 370.5 925.5Q401 899 401 861Q401 819 371.5 794.5Q342 770 291 770ZM291 810Q318 810 335 824Q352 838 352 862Q352 884 334.5 898Q317 912 291 912Q264 912 247.5 898Q231 884 231 862Q231 838 247.5 824Q264 810 291 810Z" glyph-name="Aring_A" horiz-adv-x="1087" /><glyph d="M245 592Q205 592 180 611.5Q155 631 155 663Q155 693 179.5 713.5Q204 734 245 734Q285 734 310 714Q335 694 335 663Q335 631 311 611.5Q287 592 245 592ZM245 625Q266 625 279.5 635.5Q293 646 293 664Q293 681 279.5 691Q266 701 245 701Q223 701 210 691Q197 681 197 664Q197 646 210 635.5Q223 625 245 625ZM349 190 243 474 144 190ZM746 190 645 473 543 190ZM218 552H273L450 75L625 552H679L876 0H813L763 139H524L473 -2H419L367 139H127L79 0H21Z" glyph-name="Aring_A.sc" horiz-adv-x="897" /><glyph d="M427 245 290 627 161 245ZM920 245 789 626 655 245ZM266 719H317L546 81L771 719H822L1070 0H1004L939 188H635L568 -4H517L448 188H143L80 0H18ZM796 770Q747 770 717 794.5Q687 819 687 861Q687 899 716.5 925.5Q746 952 796 952Q845 952 875.5 925.5Q906 899 906 861Q906 819 876.5 794.5Q847 770 796 770ZM796 810Q823 810 840 824Q857 838 857 862Q857 884 839.5 898Q822 912 796 912Q769 912 752.5 898Q736 884 736 862Q736 838 752.5 824Q769 810 796 810ZM291 770Q242 770 212 794.5Q182 819 182 861Q182 899 211.5 925.5Q241 952 291 952Q340 952 370.5 925.5Q401 899 401 861Q401 819 371.5 794.5Q342 770 291 770ZM291 810Q318 810 335 824Q352 838 352 862Q352 884 334.5 898Q317 912 291 912Q264 912 247.5 898Q231 884 231 862Q231 838 247.5 824Q264 810 291 810Z" glyph-name="Aring_Aring" horiz-adv-x="1087" /><glyph d="M651 592Q611 592 586.5 611.5Q562 631 562 663Q562 693 586 713.5Q610 734 651 734Q692 734 716.5 714Q741 694 741 663Q741 631 717 611.5Q693 592 651 592ZM245 592Q205 592 180 611.5Q155 631 155 663Q155 693 179.5 713.5Q204 734 245 734Q285 734 310 714Q335 694 335 663Q335 631 311 611.5Q287 592 245 592ZM651 625Q672 625 685.5 635.5Q699 646 699 664Q699 681 685.5 691Q672 701 651 701Q629 701 616.5 691Q604 681 604 664Q604 646 617 635.5Q630 625 651 625ZM245 625Q266 625 279.5 635.5Q293 646 293 664Q293 681 279.5 691Q266 701 245 701Q223 701 210 691Q197 681 197 664Q197 646 210 635.5Q223 625 245 625ZM349 190 243 474 144 190ZM746 190 645 473 543 190ZM218 552H273L450 75L625 552H679L876 0H813L763 139H524L473 -2H419L367 139H127L79 0H21Z" glyph-name="Aring_Aring.sc" horiz-adv-x="897" /><glyph d="M266 719H317L545 97L751 716H816L567 -4H518L448 188H146L82 0H18ZM427 245 290 621 164 245ZM291 770Q242 770 212 794.5Q182 819 182 861Q182 899 211.5 925.5Q241 952 291 952Q340 952 370.5 925.5Q401 899 401 861Q401 819 371.5 794.5Q342 770 291 770ZM291 810Q318 810 335 824Q352 838 352 862Q352 884 334.5 898Q317 912 291 912Q264 912 247.5 898Q231 884 231 862Q231 838 247.5 824Q264 810 291 810Z" glyph-name="Aring_V" horiz-adv-x="833" /><glyph d="M245 592Q204 592 179.5 611.5Q155 631 155 663Q155 693 179.5 713.5Q204 734 245 734Q285 734 310 714Q335 694 335 663Q335 631 311 611.5Q287 592 245 592ZM245 625Q266 625 279.5 635.5Q293 646 293 664Q293 681 279 691Q265 701 245 701Q223 701 210 691Q197 681 197 664Q197 646 210 635.5Q223 625 245 625ZM348 190 243 470 146 190ZM218 552H273L449 86L609 550H670L473 -2H421L367 139H129L80 0H21Z" glyph-name="Aring_V.sc" horiz-adv-x="690" /><glyph d="M245 1030 452 1133 477 1074 263 988ZM418 245 290 616 165 245ZM268 719H319L566 0H501L437 188H147L83 0H19ZM292 770Q243 770 213 794.5Q183 819 183 861Q183 899 212.5 925.5Q242 952 292 952Q341 952 371.5 925.5Q402 899 402 861Q402 819 372.5 794.5Q343 770 292 770ZM292 810Q319 810 336 824Q353 838 353 862Q353 884 335.5 898Q318 912 292 912Q265 912 248.5 898Q232 884 232 862Q232 838 248.5 824Q265 810 292 810Z" glyph-name="Aringacute" horiz-adv-x="585" unicode="&#506;" /><glyph d="M203 797 372 876 394 827 220 761ZM246 592Q206 592 181.5 611.5Q157 631 157 663Q157 693 181.5 713.5Q206 734 246 734Q287 734 311.5 714Q336 694 336 663Q336 631 312 611.5Q288 592 246 592ZM246 625Q268 625 281.5 635.5Q295 646 295 664Q295 681 281 691Q267 701 246 701Q225 701 212 691Q199 681 199 664Q199 646 212 635.5Q225 625 246 625ZM342 190 243 465 147 190ZM220 552H274L471 0H408L359 139H131L82 0H22Z" glyph-name="Aringacute.sc" horiz-adv-x="493" /><glyph d="M418 245 290 616 165 245ZM268 719H319L566 0H501L437 188H147L83 0H19ZM144 805Q146 836 156 861Q165 883 182.5 899.5Q200 916 231 916Q257 916 273.5 904Q290 892 304 880Q319 867 331.5 856Q344 845 361 845Q374 845 381.5 853.5Q389 862 393 873Q398 885 399 901H445Q443 871 433 848Q424 826 407 810Q390 794 359 794Q335 794 318 806Q301 818 287 830Q273 842 260.5 853.5Q248 865 231 865Q216 865 208 855.5Q200 846 196 835Q191 822 190 805Z" glyph-name="Atilde" horiz-adv-x="585" unicode="&#195;" /><glyph d="M123 619Q123 621 125.5 635Q128 649 135.5 665Q143 681 157.5 694Q172 707 197 707Q217 707 230.5 698Q244 689 256 680Q268 670 278 662Q288 654 302 654Q313 654 319 660.5Q325 667 328 675Q332 684 333 695H373Q373 693 371 679.5Q369 666 362 650.5Q355 635 341 622.5Q327 610 302 610Q282 610 268.5 618.5Q255 627 243 637Q231 646 221 654.5Q211 663 197 663Q185 663 178.5 656Q172 649 169 641Q165 631 164 619ZM342 190 243 465 147 190ZM220 552H274L471 0H408L359 139H131L82 0H22Z" glyph-name="Atilde.sc" horiz-adv-x="493" /><glyph d="M96 716H265Q388 716 443 667.5Q498 619 498 534Q498 502 489 477Q480 452 465 433Q450 414 430.5 400Q411 386 390 377Q451 362 492 318Q533 274 533 204Q533 101 469.5 50.5Q406 0 294 0H96ZM277 399Q360 399 396 436.5Q432 474 432 533Q432 598 390 628.5Q348 659 264 659H161V399ZM293 57Q383 57 424.5 96.5Q466 136 466 202Q466 271 423.5 306.5Q381 342 292 342H161V57Z" glyph-name="B" horiz-adv-x="585" unicode="B" /><glyph d="M85 550H226Q328 550 373 512.5Q418 475 418 409Q418 360 391 331.5Q364 303 332 289Q379 278 412.5 244.5Q446 211 446 157Q446 79 393.5 39.5Q341 0 249 0H85ZM237 309Q300 309 327.5 336Q355 363 355 407Q355 501 226 501H146V309ZM248 49Q317 49 349.5 78.5Q382 108 382 157Q382 259 248 259H146V49Z" glyph-name="B.sc" horiz-adv-x="495" /><glyph d="M358 -9Q214 -9 136 81Q58 171 58 342Q58 431 77 502Q96 573 134 622.5Q172 672 228 698.5Q284 725 359 725Q398 725 426.5 721Q455 717 474 712Q496 706 511 698V641Q494 649 471 656Q450 661 422.5 665.5Q395 670 359 670Q242 670 184 582.5Q126 495 126 343Q126 194 186.5 120.5Q247 47 359 47Q398 47 426.5 52.5Q455 58 474 64Q496 71 512 81V24Q497 15 475 8Q455 1 426.5 -4Q398 -9 358 -9Z" glyph-name="C" horiz-adv-x="556" unicode="C" /><glyph d="M299 -7Q184 -7 118.5 61.5Q53 130 53 263Q53 400 116 478.5Q179 557 300 557Q331 557 353.5 553.5Q376 550 391 547Q409 542 421 536V485Q407 491 389 496Q373 500 351.5 503.5Q330 507 302 507Q210 507 164 442.5Q118 378 118 265Q118 154 165.5 98.5Q213 43 301 43Q331 43 353.5 47Q376 51 392 56Q409 62 422 69V18Q410 11 392 6Q376 0 353.5 -3.5Q331 -7 299 -7Z" glyph-name="C.sc" horiz-adv-x="465" /><glyph d="M357 -9Q214 -9 136 79.5Q58 168 58 337Q58 423 81 493Q104 563 149 612Q194 661 260 687.5Q326 714 413 714H968V656H755V-2H690V656H424Q276 656 200.5 573Q125 490 125 338Q125 192 185.5 119.5Q246 47 358 47Q397 47 425.5 52.5Q454 58 473 64Q495 71 511 81V24Q496 15 474 8Q454 1 425.5 -4Q397 -9 357 -9Z" glyph-name="C_T" horiz-adv-x="981" /><glyph d="M299 -7Q184 -7 118.5 60.5Q53 128 53 261Q53 327 72 380.5Q91 434 128 471.5Q165 509 219.5 529Q274 549 344 549H794V496H625V-1H563V496H352Q237 496 177.5 434.5Q118 373 118 261Q118 153 165.5 98Q213 43 301 43Q331 43 353.5 47Q376 51 392 56Q409 62 422 69V18Q410 11 392 6Q376 0 353.5 -3.5Q331 -7 299 -7Z" glyph-name="C_T.sc" horiz-adv-x="812" /><glyph d="M357 -7Q214 -7 136 81.5Q58 170 58 339Q58 425 81 495Q104 565 149 614Q194 663 260 689.5Q326 716 413 716H968V658H755V0H690V658H424Q276 658 200.5 575Q125 492 125 340Q125 194 185.5 121.5Q246 49 358 49Q397 49 425.5 54.5Q454 60 473 66Q495 73 511 83V26Q496 17 474 10Q454 3 425.5 -2Q397 -7 357 -7ZM562 896 585 930 723 838 860 930 884 896 743 782H701Z" glyph-name="C_Tcaron" horiz-adv-x="981" /><glyph d="M463 689 484 718 594 647 704 718 726 689 612 601H575ZM299 -6Q184 -6 118.5 62Q53 130 53 262Q53 328 72 381.5Q91 435 128 472.5Q165 510 219.5 530Q274 550 344 550H794V498H625V0H563V498H352Q237 498 177.5 436Q118 374 118 262Q118 154 165.5 99.5Q213 45 301 45Q331 45 353.5 49Q376 53 392 58Q409 63 422 70V19Q410 12 392 7Q376 1 353.5 -2.5Q331 -6 299 -6Z" glyph-name="C_Tcaron.sc" horiz-adv-x="811" /><glyph d="M357 -7Q214 -7 136 81.5Q58 170 58 339Q58 425 81 495Q104 565 149 614Q194 663 260 689.5Q326 716 413 716H968V658H755V0H690V658H424Q276 658 200.5 575Q125 492 125 340Q125 194 185.5 121.5Q246 49 358 49Q397 49 425.5 54.5Q454 60 473 66Q495 73 511 83V26Q496 17 474 10Q454 3 425.5 -2Q397 -7 357 -7ZM684 -246 718 -162Q698 -159 686 -146.5Q674 -134 674 -114Q674 -95 686.5 -80Q699 -65 723 -65Q746 -65 758 -80Q770 -95 770 -117Q770 -145 755.5 -180.5Q741 -216 719 -260Z" glyph-name="C_Tcommaaccent" horiz-adv-x="981" /><glyph d="M299 -6Q184 -6 118.5 62Q53 130 53 262Q53 328 72 381.5Q91 435 128 472.5Q165 510 219.5 530Q274 550 344 550H794V498H625V0H563V498H352Q237 498 177.5 436Q118 374 118 262Q118 154 165.5 99.5Q213 45 301 45Q331 45 353.5 49Q376 53 392 58Q409 63 422 70V19Q410 12 392 7Q376 1 353.5 -2.5Q331 -6 299 -6ZM562 -210 589 -145Q572 -143 562 -132.5Q552 -122 552 -106Q552 -90 563 -77.5Q574 -65 594 -65Q615 -65 625.5 -77.5Q636 -90 636 -108Q636 -130 623.5 -158.5Q611 -187 593 -222Z" glyph-name="C_Tcommaaccent.sc" horiz-adv-x="811" /><glyph d="M357 -9Q214 -9 136 80Q58 169 58 340Q58 426 81 495.5Q104 565 149 614Q194 663 260 689.5Q326 716 413 716H575L786 100L992 716H1056L808 -4H757L529 658H424Q276 658 200.5 575.5Q125 493 125 342Q125 193 185.5 120Q246 47 358 47Q397 47 425.5 52.5Q454 58 473 64Q495 71 511 81V24Q496 15 474 8Q454 1 425.5 -4Q397 -9 357 -9Z" glyph-name="C_V" horiz-adv-x="1073" /><glyph d="M299 -7Q184 -7 118.5 61Q53 129 53 263Q53 329 72 382Q91 435 128 472.5Q165 510 219.5 530Q274 550 344 550H482L647 85L807 550H868L671 -2H616L437 498H352Q237 498 177.5 436.5Q118 375 118 263Q118 154 165.5 98.5Q213 43 301 43Q331 43 353.5 47Q376 51 392 56Q409 62 422 69V18Q410 11 392 6Q376 0 353.5 -3.5Q331 -7 299 -7Z" glyph-name="C_V.sc" horiz-adv-x="888" /><glyph d="M357 -9Q214 -9 136 80Q58 169 58 340Q58 426 81 495.5Q104 565 149 614Q194 663 260 689.5Q326 716 413 716H609L766 113L919 719H971L1123 116L1280 716H1341L1150 -4H1093L941 599L788 -4H732L559 658H424Q276 658 200.5 575.5Q125 493 125 342Q125 193 185.5 120Q246 47 358 47Q397 47 425.5 52.5Q454 58 473 64Q495 71 511 81V24Q496 15 474 8Q454 1 425.5 -4Q397 -9 357 -9Z" glyph-name="C_W" horiz-adv-x="1359" /><glyph d="M299 -7Q184 -7 118.5 61.5Q53 130 53 262Q53 328 72 381Q91 434 127.5 471.5Q164 509 218 529.5Q272 550 342 550H510L632 96L750 552H801L920 97L1041 550H1097L947 -2H890L771 446L652 -2H596L461 498H352Q237 498 177.5 436.5Q118 375 118 263Q118 154 165.5 98.5Q213 43 301 43Q331 43 353.5 47Q376 51 392 56Q409 62 422 69V18Q410 11 392 6Q376 0 353.5 -3.5Q331 -7 299 -7Z" glyph-name="C_W.sc" horiz-adv-x="1119" /><glyph d="M357 -9Q214 -9 136 80Q58 169 58 340Q58 426 81 495.5Q104 565 149 614Q194 663 260 689.5Q326 716 413 716H656L845 409L1031 716H1099L882 359L1104 0H1036L843 311L650 0H583L805 362L622 658H424Q276 658 200.5 575.5Q125 493 125 342Q125 193 185.5 120Q246 47 358 47Q397 47 425.5 52.5Q454 58 473 64Q495 71 511 81V24Q496 15 474 8Q454 1 425.5 -4Q397 -9 357 -9Z" glyph-name="C_X" horiz-adv-x="1125" /><glyph d="M299 -7Q184 -7 118.5 61.5Q53 130 53 262Q53 328 72 381Q91 434 127.5 471.5Q164 509 218 529.5Q272 550 342 550H548L695 322L839 550H901L729 277L906 0H840L691 232L542 0H479L656 277L514 498H352Q237 498 177.5 436.5Q118 375 118 263Q118 154 165.5 98.5Q213 43 301 43Q331 43 353.5 47Q376 51 392 56Q409 62 422 69V18Q410 11 392 6Q376 0 353.5 -3.5Q331 -7 299 -7Z" glyph-name="C_X.sc" horiz-adv-x="930" /><glyph d="M357 -9Q214 -9 136 80Q58 169 58 340Q58 426 81 495.5Q104 565 149 614Q194 663 260 689.5Q326 716 413 716H542L744 361L946 716H1011L775 300V0H710V300L506 658H424Q276 658 200.5 575.5Q125 493 125 342Q125 193 185.5 120Q246 47 358 47Q397 47 425.5 52.5Q454 58 473 64Q495 71 511 81V24Q496 15 474 8Q454 1 425.5 -4Q397 -9 357 -9Z" glyph-name="C_Y" horiz-adv-x="1026" /><glyph d="M299 -7Q184 -7 118.5 61Q53 129 53 263Q53 329 72 382Q91 435 128 472.5Q165 510 219.5 530Q274 550 344 550H453L611 283L767 550H829L640 230V0H578V230L419 498H352Q237 498 177.5 437Q118 376 118 264Q118 154 165.5 98.5Q213 43 301 43Q331 43 353.5 47Q376 51 392 56Q409 62 422 69V18Q410 11 392 6Q376 0 353.5 -3.5Q331 -7 299 -7Z" glyph-name="C_Y.sc" horiz-adv-x="846" /><glyph d="M357 -9Q214 -9 136 80Q58 169 58 340Q58 426 81 495Q104 564 150 613.5Q196 663 263.5 689.5Q331 716 421 716H1048V658L691 58H1048V0H620V58L980 658H424Q352 658 296.5 636.5Q241 615 203 574.5Q165 534 145 475Q125 416 125 342Q125 193 185.5 120Q246 47 358 47Q397 47 425.5 52.5Q454 58 473 64Q495 71 511 81V24Q496 15 474 8Q454 1 425.5 -4Q397 -9 357 -9Z" glyph-name="C_Z" horiz-adv-x="1092" /><glyph d="M299 -7Q184 -7 118.5 61Q53 129 53 263Q53 328 72 381Q91 434 128.5 471.5Q166 509 221 529.5Q276 550 349 550H859V498L576 52H859V0H508V52L793 498H352Q239 498 178.5 436.5Q118 375 118 264Q118 154 165.5 98.5Q213 43 301 43Q331 43 353.5 47Q376 51 392 56Q409 62 422 69V18Q410 11 392 6Q376 0 353.5 -3.5Q331 -7 299 -7Z" glyph-name="C_Z.sc" horiz-adv-x="903" /><glyph d="M672 896 695 930 833 838 970 930 994 896 853 782H811ZM357 -9Q214 -9 136 80Q58 169 58 340Q58 426 81 495Q104 564 150 613.5Q196 663 263.5 689.5Q331 716 421 716H1048V658L691 58H1048V0H620V58L980 658H424Q352 658 296.5 636.5Q241 615 203 574.5Q165 534 145 475Q125 416 125 342Q125 193 185.5 120Q246 47 358 47Q397 47 425.5 52.5Q454 58 473 64Q495 71 511 81V24Q496 15 474 8Q454 1 425.5 -4Q397 -9 357 -9Z" glyph-name="C_Zcaron" horiz-adv-x="1092" /><glyph d="M552 689 572 718 683 647 794 718 815 689 702 601H664ZM299 -7Q184 -7 118.5 61Q53 129 53 263Q53 328 72 381Q91 434 128.5 471.5Q166 509 221 529.5Q276 550 349 550H859V498L576 52H859V0H508V52L793 498H352Q239 498 178.5 436.5Q118 375 118 264Q118 154 165.5 98.5Q213 43 301 43Q331 43 353.5 47Q376 51 392 56Q409 62 422 69V18Q410 11 392 6Q376 0 353.5 -3.5Q331 -7 299 -7Z" glyph-name="C_Zcaron.sc" horiz-adv-x="903" /><glyph d="M832 -7Q791 -7 759 6Q727 19 692 45L681 0H632V716H559Q536 716 523.5 704Q511 692 511 667V641Q510 641 499.5 646Q489 651 469.5 656Q450 661 422.5 665.5Q395 670 359 670Q242 670 184 582.5Q126 495 126 343Q126 194 186.5 120.5Q247 47 359 47Q398 47 426.5 52.5Q455 58 474 64Q496 71 512 81V24Q497 15 475 8Q455 1 426.5 -4Q398 -9 358 -9Q214 -9 136 81Q58 171 58 342Q58 431 77 502Q96 573 134 622.5Q172 672 228 698.5Q284 725 359 725Q394 725 420 721.5Q446 718 463 713Q479 766 539 766H696V442Q711 460 733 475Q753 488 780.5 498Q808 508 846 508Q898 508 936 489.5Q974 471 999.5 438Q1025 405 1037.5 360Q1050 315 1050 262Q1050 197 1034 146.5Q1018 96 989.5 62Q961 28 920.5 10.5Q880 -7 832 -7ZM820 47Q898 47 940.5 102.5Q983 158 983 261Q983 347 946 400.5Q909 454 830 454Q796 454 771.5 443.5Q747 433 730 421Q710 406 696 387V86Q712 75 731 67Q749 59 771 53Q793 47 820 47Z" glyph-name="C_b" horiz-adv-x="1103" /><glyph d="M512 24Q497 15 475 8Q455 1 426.5 -4Q398 -9 358 -9Q214 -9 136 81Q58 171 58 342Q58 431 77 502Q96 573 134 622.5Q172 672 228 698.5Q284 725 359 725Q394 725 420 721.5Q446 718 463 713Q479 766 540 766H695V432Q714 453 739 470Q762 486 793 497Q824 508 866 508Q911 508 943 493.5Q975 479 995.5 452.5Q1016 426 1025 388.5Q1034 351 1034 305V0H970V299Q970 379 939 416.5Q908 454 842 454Q808 454 781 443.5Q754 433 734 420Q712 405 695 386V0H631V716H559Q536 716 523.5 704Q511 692 511 667V641Q511 641 500.5 646Q490 651 470.5 656Q451 661 423 665.5Q395 670 359 670Q242 670 184 582.5Q126 495 126 343Q126 194 186.5 120.5Q247 47 359 47Q398 47 426.5 52.5Q455 58 474 64Q496 71 512 81Z" glyph-name="C_h" horiz-adv-x="1111" /><glyph d="M512 24Q497 15 475 8Q455 1 426.5 -4Q398 -9 358 -9Q214 -9 136 81Q58 171 58 342Q58 431 77 502Q96 573 134 622.5Q172 672 228 698.5Q284 725 359 725Q394 725 420 721.5Q446 718 463 713Q479 766 537 766H695V282H752L930 500H1001L806 265L1012 0H931L752 232H695V0H631V716H559Q536 716 523.5 704Q511 692 511 667V641Q511 641 500.5 646Q490 651 470.5 656Q451 661 423 665.5Q395 670 359 670Q242 670 184 582.5Q126 495 126 343Q126 194 186.5 120.5Q247 47 359 47Q398 47 426.5 52.5Q455 58 474 64Q496 71 512 81Z" glyph-name="C_k" horiz-adv-x="1022" /><glyph d="M712 -7Q630 -7 630 97V716H559Q536 716 523.5 704Q511 692 511 667V641Q511 641 500.5 646Q490 651 470.5 656Q451 661 423 665.5Q395 670 359 670Q242 670 184 582.5Q126 495 126 343Q126 194 186.5 120.5Q247 47 359 47Q398 47 426.5 52.5Q455 58 474 64Q496 71 512 81V24Q497 15 475 8Q455 1 426.5 -4Q398 -9 358 -9Q214 -9 136 81Q58 171 58 342Q58 431 77 502Q96 573 134 622.5Q172 672 228 698.5Q284 725 359 725Q394 725 420 721.5Q446 718 463 713Q479 766 537 766H694V120Q694 77 706 60.5Q718 44 749 44Q752 44 755 45Q757 45 758 46V0Q752 -2 745 -4Q739 -5 730.5 -6Q722 -7 712 -7Z" glyph-name="C_l" horiz-adv-x="795" /><glyph d="M712 -7Q630 -7 630 97V346L543 302V357L630 400V716H559Q536 716 523.5 704Q511 692 511 667V641Q511 641 500.5 646Q490 651 470.5 656Q451 661 423 665.5Q395 670 359 670Q242 670 184 582.5Q126 495 126 343Q126 194 186.5 120.5Q247 47 359 47Q398 47 426.5 52.5Q455 58 474 64Q496 71 512 81V24Q497 15 475 8Q455 1 426.5 -4Q398 -9 358 -9Q214 -9 136 81Q58 171 58 342Q58 431 77 502Q96 573 134 622.5Q172 672 228 698.5Q284 725 359 725Q394 725 420 721.5Q446 718 463 713Q479 766 537 766H694V433L786 478V424L694 378V120Q694 77 706 60.5Q718 44 749 44Q752 44 755 45Q757 45 758 46V0Q752 -2 745 -4Q739 -5 730.5 -6Q722 -7 712 -7Z" glyph-name="C_lslash" horiz-adv-x="822" /><glyph d="M438 -9Q351 -9 281 15Q211 39 161 86.5Q111 134 84 204Q57 274 57 366Q57 446 76 512Q95 578 133 625.5Q171 673 227 699Q283 725 358 725Q397 725 425.5 721Q454 717 473 712Q495 706 510 698V641Q493 649 470 656Q449 661 421.5 665.5Q394 670 358 670Q300 670 256 648Q212 626 183 586Q154 546 139.5 491.5Q125 437 125 371Q125 286 149 224Q173 162 217 122Q261 82 323.5 63Q386 44 464 44H668Q737 44 778 66.5Q819 89 819 133Q819 171 792.5 191.5Q766 212 708 229Q680 238 653.5 249Q627 260 606 277Q585 294 572 318Q559 342 559 377Q559 439 607 473.5Q655 508 733 508Q762 508 784 504.5Q806 501 821 498Q839 493 852 487V435Q837 441 819 446Q802 450 781 453.5Q760 457 733 457Q679 457 649 436Q619 415 619 377Q619 337 652.5 316Q686 295 740 279Q809 260 844.5 227Q880 194 880 139Q880 103 864 75.5Q848 48 819 29.5Q790 11 750 1Q710 -9 661 -9Z" glyph-name="C_s" horiz-adv-x="924" /><glyph d="M438 -9Q351 -9 281 15Q211 39 161 86.5Q111 134 84 204Q57 274 57 366Q57 446 76 512Q95 578 133 625.5Q171 673 227 699Q283 725 358 725Q397 725 425.5 721Q454 717 473 712Q495 706 510 698V641Q493 649 470 656Q449 661 421.5 665.5Q394 670 358 670Q300 670 256 648Q212 626 183 586Q154 546 139.5 491.5Q125 437 125 371Q125 286 149 224Q173 162 217 122Q261 82 323.5 63Q386 44 464 44H668Q737 44 778 66.5Q819 89 819 133Q819 171 792.5 191.5Q766 212 708 229Q680 238 653.5 249Q627 260 606 277Q585 294 572 318Q559 342 559 377Q559 439 607 473.5Q655 508 733 508Q762 508 784 504.5Q806 501 821 498Q839 493 852 487V435Q837 441 819 446Q802 450 781 453.5Q760 457 733 457Q679 457 649 436Q619 415 619 377Q619 337 652.5 316Q686 295 740 279Q809 260 844.5 227Q880 194 880 139Q880 103 864 75.5Q848 48 819 29.5Q790 11 750 1Q710 -9 661 -9ZM561 726 591 758 711 646 831 758 861 726 724 588H698Z" glyph-name="C_scaron" horiz-adv-x="924" /><glyph d="M438 -9Q351 -9 281 15Q211 39 161 86.5Q111 134 84 204Q57 274 57 366Q57 446 76 512Q95 578 133 625.5Q171 673 227 699Q283 725 358 725Q397 725 425.5 721Q454 717 473 712Q495 706 510 698V641Q493 649 470 656Q449 661 421.5 665.5Q394 670 358 670Q300 670 256 648Q212 626 183 586Q154 546 139.5 491.5Q125 437 125 371Q125 286 149 224Q173 162 217 122Q261 82 323.5 63Q386 44 464 44H668Q737 44 778 66.5Q819 89 819 133Q819 171 792.5 191.5Q766 212 708 229Q680 238 653.5 249Q627 260 606 277Q585 294 572 318Q559 342 559 377Q559 439 607 473.5Q655 508 733 508Q762 508 784 504.5Q806 501 821 498Q839 493 852 487V435Q837 441 819 446Q802 450 781 453.5Q760 457 733 457Q679 457 649 436Q619 415 619 377Q619 337 652.5 316Q686 295 740 279Q809 260 844.5 227Q880 194 880 139Q880 103 864 75.5Q848 48 819 29.5Q790 11 750 1Q710 -9 661 -9ZM685 -246 719 -162Q699 -159 687 -146.5Q675 -134 675 -114Q675 -95 687.5 -80Q700 -65 724 -65Q747 -65 759 -80Q771 -95 771 -117Q771 -145 756.5 -180.5Q742 -216 720 -260Z" glyph-name="C_scommaaccent" horiz-adv-x="924" /><glyph d="M358 -9Q214 -9 136 81Q58 171 58 342Q58 431 77 502Q96 573 134 622.5Q172 672 228 698.5Q284 725 359 725Q398 725 426.5 721Q455 717 474 712Q496 706 511 698V641Q494 649 471 656Q450 661 422.5 665.5Q395 670 359 670Q242 670 184 582.5Q126 495 126 343Q126 194 186.5 120.5Q247 47 359 47Q398 47 426.5 52.5Q455 58 474 64Q496 71 512 81V24Q497 15 475 8Q455 1 426.5 -4Q398 -9 358 -9ZM257 824 464 927 489 868 275 782Z" glyph-name="Cacute" horiz-adv-x="556" unicode="&#262;" /><glyph d="M264 792 351 972 402 943 303 771ZM358 -9Q214 -9 136 81Q58 171 58 342Q58 431 77 502Q96 573 134 622.5Q172 672 228 698.5Q284 725 359 725Q398 725 426.5 721Q455 717 474 712Q496 706 511 698V641Q494 649 471 656Q450 661 422.5 665.5Q395 670 359 670Q242 670 184 582.5Q126 495 126 343Q126 194 186.5 120.5Q247 47 359 47Q398 47 426.5 52.5Q455 58 474 64Q496 71 512 81V24Q497 15 475 8Q455 1 426.5 -4Q398 -9 358 -9Z" glyph-name="Cacute.pl" horiz-adv-x="556" /><glyph d="M221 611 291 748 335 725 255 592ZM299 -7Q184 -7 118.5 61.5Q53 130 53 263Q53 400 116 478.5Q179 557 300 557Q331 557 353.5 553.5Q376 550 391 547Q409 542 421 536V485Q407 491 389 496Q373 500 351.5 503.5Q330 507 302 507Q210 507 164 442.5Q118 378 118 265Q118 154 165.5 98.5Q213 43 301 43Q331 43 353.5 47Q376 51 392 56Q409 62 422 69V18Q410 11 392 6Q376 0 353.5 -3.5Q331 -7 299 -7Z" glyph-name="Cacute.pl.sc" horiz-adv-x="465" /><glyph d="M213 636 380 716 403 666 229 601ZM299 -7Q184 -7 118.5 61.5Q53 130 53 263Q53 400 116 478.5Q179 557 300 557Q331 557 353.5 553.5Q376 550 391 547Q409 542 421 536V485Q407 491 389 496Q373 500 351.5 503.5Q330 507 302 507Q210 507 164 442.5Q118 378 118 265Q118 154 165.5 98.5Q213 43 301 43Q331 43 353.5 47Q376 51 392 56Q409 62 422 69V18Q410 11 392 6Q376 0 353.5 -3.5Q331 -7 299 -7Z" glyph-name="Cacute.sc" horiz-adv-x="465" /><glyph d="M259 824 466 927 492 868 277 782ZM357 -9Q214 -9 136 80Q58 169 58 340Q58 426 81 495.5Q104 565 149 614Q194 663 260 689.5Q326 716 413 716H609L766 113L919 719H971L1123 116L1280 716H1341L1150 -4H1093L941 599L788 -4H732L559 658H424Q276 658 200.5 575.5Q125 493 125 342Q125 193 185.5 120Q246 47 358 47Q397 47 425.5 52.5Q454 58 473 64Q495 71 511 81V24Q496 15 474 8Q454 1 425.5 -4Q397 -9 357 -9Z" glyph-name="Cacute_W" horiz-adv-x="1359" /><glyph d="M215 636 382 716 405 666 231 601ZM299 -7Q184 -7 118.5 61.5Q53 130 53 262Q53 328 72 381Q91 434 127.5 471.5Q164 509 218 529.5Q272 550 342 550H510L632 96L750 552H801L920 97L1041 550H1097L947 -2H890L771 446L652 -2H596L461 498H352Q237 498 177.5 436.5Q118 375 118 263Q118 154 165.5 98.5Q213 43 301 43Q331 43 353.5 47Q376 51 392 56Q409 62 422 69V18Q410 11 392 6Q376 0 353.5 -3.5Q331 -7 299 -7Z" glyph-name="Cacute_W.sc" horiz-adv-x="1119" /><glyph d="M260 824 467 927 492 868 278 782ZM832 -7Q791 -7 759 6Q727 19 692 45L681 0H632V716H559Q536 716 523.5 704Q511 692 511 667V641Q511 641 500.5 646Q490 651 470.5 656Q451 661 423 665.5Q395 670 359 670Q242 670 184 582.5Q126 495 126 343Q126 194 186.5 120.5Q247 47 359 47Q398 47 426.5 52.5Q455 58 474 64Q496 71 512 81V24Q497 15 475 8Q455 1 426.5 -4Q398 -9 358 -9Q214 -9 136 81Q58 171 58 342Q58 431 77 502Q96 573 134 622.5Q172 672 228 698.5Q284 725 359 725Q394 725 420.5 721.5Q447 718 464 713Q478 766 539 766H696V442Q711 460 733 475Q753 488 780.5 498Q808 508 846 508Q898 508 936 489.5Q974 471 999.5 438Q1025 405 1037.5 360Q1050 315 1050 262Q1050 197 1034 146.5Q1018 96 989.5 62Q961 28 920.5 10.5Q880 -7 832 -7ZM820 47Q898 47 940.5 102.5Q983 158 983 261Q983 347 946 400.5Q909 454 830 454Q796 454 771.5 443.5Q747 433 730 421Q710 406 696 387V86Q712 75 731 67Q749 59 771 53Q793 47 820 47Z" glyph-name="Cacute_b" horiz-adv-x="1103" /><glyph d="M260 824 467 927 492 868 278 782ZM512 24Q497 15 475 8Q455 1 426.5 -4Q398 -9 358 -9Q214 -9 136 81Q58 171 58 342Q58 431 77 502Q96 573 134 622.5Q172 672 228 698.5Q284 725 359 725Q394 725 420.5 721.5Q447 718 464 713Q478 766 537 766H695V282H752L930 500H1001L806 265L1012 0H931L752 232H695V0H631V716H559Q536 716 523.5 704Q511 692 511 667V641Q511 641 500.5 646Q490 651 470.5 656Q451 661 423 665.5Q395 670 359 670Q242 670 184 582.5Q126 495 126 343Q126 194 186.5 120.5Q247 47 359 47Q398 47 426.5 52.5Q455 58 474 64Q496 71 512 81Z" glyph-name="Cacute_k" horiz-adv-x="1022" /><glyph d="M260 824 467 927 492 868 278 782ZM712 -7Q630 -7 630 97V716H559Q536 716 523.5 704Q511 692 511 667V641Q511 641 500.5 646Q490 651 470.5 656Q451 661 423 665.5Q395 670 359 670Q242 670 184 582.5Q126 495 126 343Q126 194 186.5 120.5Q247 47 359 47Q398 47 426.5 52.5Q455 58 474 64Q496 71 512 81V24Q497 15 475 8Q455 1 426.5 -4Q398 -9 358 -9Q214 -9 136 81Q58 171 58 342Q58 431 77 502Q96 573 134 622.5Q172 672 228 698.5Q284 725 359 725Q394 725 420.5 721.5Q447 718 464 713Q478 766 537 766H694V120Q694 78 706 61.5Q718 45 748 44Q752 44 754.5 45Q757 46 758 46V0Q752 -2 745 -4Q739 -5 730.5 -6Q722 -7 712 -7Z" glyph-name="Cacute_l" horiz-adv-x="795" /><glyph d="M438 -9Q351 -9 281 15Q211 39 161 86.5Q111 134 84 204Q57 274 57 366Q57 446 76 512Q95 578 133 625.5Q171 673 227 699Q283 725 358 725Q397 725 425.5 721Q454 717 473 712Q495 706 510 698V641Q493 649 470 656Q449 661 421.5 665.5Q394 670 358 670Q300 670 256 648Q212 626 183 586Q154 546 139.5 491.5Q125 437 125 371Q125 286 149 224Q173 162 217 122Q261 82 323.5 63Q386 44 464 44H668Q737 44 778 66.5Q819 89 819 133Q819 171 792.5 191.5Q766 212 708 229Q680 238 653.5 249Q627 260 606 277Q585 294 572 318Q559 342 559 377Q559 439 607 473.5Q655 508 733 508Q762 508 784 504.5Q806 501 821 498Q839 493 852 487V435Q837 441 819 446Q802 450 781 453.5Q760 457 733 457Q679 457 649 436Q619 415 619 377Q619 337 652.5 316Q686 295 740 279Q809 260 844.5 227Q880 194 880 139Q880 103 864 75.5Q848 48 819 29.5Q790 11 750 1Q710 -9 661 -9ZM259 824 466 927 491 868 277 782Z" glyph-name="Cacute_s" horiz-adv-x="924" /><glyph d="M358 -9Q214 -9 136 81Q58 171 58 342Q58 431 77 502Q96 573 134 622.5Q172 672 228 698.5Q284 725 359 725Q398 725 426.5 721Q455 717 474 712Q496 706 511 698V641Q494 649 471 656Q450 661 422.5 665.5Q395 670 359 670Q242 670 184 582.5Q126 495 126 343Q126 194 186.5 120.5Q247 47 359 47Q398 47 426.5 52.5Q455 58 474 64Q496 71 512 81V24Q497 15 475 8Q455 1 426.5 -4Q398 -9 358 -9ZM174 896 197 930 335 838 472 930 496 896 355 782H313Z" glyph-name="Ccaron" horiz-adv-x="556" unicode="&#268;" /><glyph d="M145 689 166 718 277 647 388 718 409 689 296 601H258ZM299 -7Q184 -7 118.5 61.5Q53 130 53 263Q53 400 116 478.5Q179 557 300 557Q331 557 353.5 553.5Q376 550 391 547Q409 542 421 536V485Q407 491 389 496Q373 500 351.5 503.5Q330 507 302 507Q210 507 164 442.5Q118 378 118 265Q118 154 165.5 98.5Q213 43 301 43Q331 43 353.5 47Q376 51 392 56Q409 62 422 69V18Q410 11 392 6Q376 0 353.5 -3.5Q331 -7 299 -7Z" glyph-name="Ccaron.sc" horiz-adv-x="465" /><glyph d="M357 -9Q214 -9 136 79.5Q58 168 58 337Q58 423 81 493Q104 563 149 612Q194 661 260 687.5Q326 714 413 714H968V656H755V-2H690V656H424Q276 656 200.5 573Q125 490 125 338Q125 192 185.5 119.5Q246 47 358 47Q397 47 425.5 52.5Q454 58 473 64Q495 71 511 81V24Q496 15 474 8Q454 1 425.5 -4Q397 -9 357 -9ZM176 896 199 930 337 838 474 930 498 896 357 782H315Z" glyph-name="Ccaron_T" horiz-adv-x="981" /><glyph d="M148 689 169 718 280 647 391 718 412 689 299 601H261ZM299 -7Q184 -7 118.5 60.5Q53 128 53 261Q53 327 72 380.5Q91 434 128 471.5Q165 509 219.5 529Q274 549 344 549H794V496H625V-1H563V496H352Q237 496 177.5 434.5Q118 373 118 261Q118 153 165.5 98Q213 43 301 43Q331 43 353.5 47Q376 51 392 56Q409 62 422 69V18Q410 11 392 6Q376 0 353.5 -3.5Q331 -7 299 -7Z" glyph-name="Ccaron_T.sc" horiz-adv-x="812" /><glyph d="M176 896 199 930 337 838 474 930 498 896 357 782H315ZM357 -9Q214 -9 136 80Q58 169 58 340Q58 426 81 495.5Q104 565 149 614Q194 663 260 689.5Q326 716 413 716H575L786 100L992 716H1056L808 -4H757L529 658H424Q276 658 200.5 575.5Q125 493 125 342Q125 193 185.5 120Q246 47 358 47Q397 47 425.5 52.5Q454 58 473 64Q495 71 511 81V24Q496 15 474 8Q454 1 425.5 -4Q397 -9 357 -9Z" glyph-name="Ccaron_V" horiz-adv-x="1073" /><glyph d="M148 689 169 718 280 647 391 718 412 689 299 601H261ZM299 -7Q184 -7 118.5 61Q53 129 53 263Q53 329 72 382Q91 435 128 472.5Q165 510 219.5 530Q274 550 344 550H482L647 85L807 550H868L671 -2H616L437 498H352Q237 498 177.5 436.5Q118 375 118 263Q118 154 165.5 98.5Q213 43 301 43Q331 43 353.5 47Q376 51 392 56Q409 62 422 69V18Q410 11 392 6Q376 0 353.5 -3.5Q331 -7 299 -7Z" glyph-name="Ccaron_V.sc" horiz-adv-x="888" /><glyph d="M176 896 199 930 337 838 474 930 498 896 357 782H315ZM357 -9Q214 -9 136 80Q58 169 58 340Q58 426 81 495.5Q104 565 149 614Q194 663 260 689.5Q326 716 413 716H542L744 361L946 716H1011L775 300V0H710V300L506 658H424Q276 658 200.5 575.5Q125 493 125 342Q125 193 185.5 120Q246 47 358 47Q397 47 425.5 52.5Q454 58 473 64Q495 71 511 81V24Q496 15 474 8Q454 1 425.5 -4Q397 -9 357 -9Z" glyph-name="Ccaron_Y" horiz-adv-x="1026" /><glyph d="M148 689 169 718 280 647 391 718 412 689 299 601H261ZM299 -7Q184 -7 118.5 61Q53 129 53 263Q53 329 72 382Q91 435 128 472.5Q165 510 219.5 530Q274 550 344 550H453L611 283L767 550H829L640 230V0H578V230L419 498H352Q237 498 177.5 437Q118 376 118 264Q118 154 165.5 98.5Q213 43 301 43Q331 43 353.5 47Q376 51 392 56Q409 62 422 69V18Q410 11 392 6Q376 0 353.5 -3.5Q331 -7 299 -7Z" glyph-name="Ccaron_Y.sc" horiz-adv-x="846" /><glyph d="M174 896 197 930 335 838 472 930 495 896 355 782H313ZM832 -7Q791 -7 759 6Q727 19 692 45L681 0H632V716H559Q536 716 523.5 704Q511 692 511 667V641Q510 641 499.5 646Q489 651 469.5 656Q450 661 422.5 665.5Q395 670 359 670Q242 670 184 582.5Q126 495 126 343Q126 194 186.5 120.5Q247 47 359 47Q398 47 426.5 52.5Q455 58 474 64Q496 71 512 81V24Q497 15 475 8Q455 1 426.5 -4Q398 -9 358 -9Q214 -9 136 81Q58 171 58 342Q58 431 77 502Q96 573 134 622.5Q172 672 228 698.5Q284 725 359 725Q394 725 420.5 721.5Q447 718 464 713Q478 766 539 766H696V442Q711 460 733 475Q753 488 780.5 498Q808 508 846 508Q898 508 936 489.5Q974 471 999.5 438Q1025 405 1037.5 360Q1050 315 1050 262Q1050 197 1034 146.5Q1018 96 989.5 62Q961 28 920.5 10.5Q880 -7 832 -7ZM820 47Q898 47 940.5 102.5Q983 158 983 261Q983 347 946 400.5Q909 454 830 454Q796 454 771.5 443.5Q747 433 730 421Q710 406 696 387V86Q712 75 731 67Q749 59 771 53Q793 47 820 47Z" glyph-name="Ccaron_b" horiz-adv-x="1103" /><glyph d="M174 896 197 930 335 838 472 930 495 896 355 782H313ZM512 24Q497 15 475 8Q455 1 426.5 -4Q398 -9 358 -9Q214 -9 136 81Q58 171 58 342Q58 431 77 502Q96 573 134 622.5Q172 672 228 698.5Q284 725 359 725Q394 725 420.5 721.5Q447 718 464 713Q478 766 537 766H695V282H752L930 500H1001L806 265L1012 0H931L752 232H695V0H631V716H559Q536 716 523.5 704Q511 692 511 667V641Q510 641 499.5 646Q489 651 469.5 656Q450 661 422.5 665.5Q395 670 359 670Q242 670 184 582.5Q126 495 126 343Q126 194 186.5 120.5Q247 47 359 47Q398 47 426.5 52.5Q455 58 474 64Q496 71 512 81Z" glyph-name="Ccaron_k" horiz-adv-x="1022" /><glyph d="M174 896 197 930 335 838 472 930 495 896 355 782H313ZM712 -7Q630 -7 630 97V716H559Q536 716 523.5 704Q511 692 511 667V641Q510 641 499.5 646Q489 651 469.5 656Q450 661 422.5 665.5Q395 670 359 670Q242 670 184 582.5Q126 495 126 343Q126 194 186.5 120.5Q247 47 359 47Q398 47 426.5 52.5Q455 58 474 64Q496 71 512 81V24Q497 15 475 8Q455 1 426.5 -4Q398 -9 358 -9Q214 -9 136 81Q58 171 58 342Q58 431 77 502Q96 573 134 622.5Q172 672 228 698.5Q284 725 359 725Q394 725 420.5 721.5Q447 718 464 713Q478 766 537 766H694V120Q694 78 706 61.5Q718 45 747 44Q752 44 754.5 45Q757 46 758 46V0Q752 -2 745 -4Q739 -5 730.5 -6Q722 -7 712 -7Z" glyph-name="Ccaron_l" horiz-adv-x="795" /><glyph d="M174 896 197 930 335 838 472 930 495 896 355 782H313ZM767 595 801 678Q781 681 769.5 693.5Q758 706 758 726Q758 745 770.5 760Q783 775 806 775Q829 775 841 760Q853 745 853 723Q853 695 838.5 659.5Q824 624 802 580ZM712 -7Q630 -7 630 97V716H559Q536 716 523.5 704Q511 692 511 667V641Q511 641 500.5 646Q490 651 470.5 656Q451 661 423 665.5Q395 670 359 670Q242 670 184 582.5Q126 495 126 343Q126 194 186.5 120.5Q247 47 359 47Q398 47 426.5 52.5Q455 58 474 64Q496 71 512 81V24Q497 15 475 8Q455 1 426.5 -4Q398 -9 358 -9Q214 -9 136 81Q58 171 58 342Q58 431 77 502Q96 573 134 622.5Q172 672 228 698.5Q284 725 359 725Q394 725 420.5 721.5Q447 718 464 713Q478 766 537 766H694V120Q694 77 706 60.5Q718 44 749 44Q752 44 755 45Q757 45 758 46V0Q752 -2 745 -4Q739 -5 730.5 -6Q722 -7 712 -7Z" glyph-name="Ccaron_lcaron" horiz-adv-x="821" /><glyph d="M438 -9Q351 -9 281 15Q211 39 161 86.5Q111 134 84 204Q57 274 57 366Q57 446 76 512Q95 578 133 625.5Q171 673 227 699Q283 725 358 725Q397 725 425.5 721Q454 717 473 712Q495 706 510 698V641Q493 649 470 656Q449 661 421.5 665.5Q394 670 358 670Q300 670 256 648Q212 626 183 586Q154 546 139.5 491.5Q125 437 125 371Q125 286 149 224Q173 162 217 122Q261 82 323.5 63Q386 44 464 44H668Q737 44 778 66.5Q819 89 819 133Q819 171 792.5 191.5Q766 212 708 229Q680 238 653.5 249Q627 260 606 277Q585 294 572 318Q559 342 559 377Q559 439 607 473.5Q655 508 733 508Q762 508 784 504.5Q806 501 821 498Q839 493 852 487V435Q837 441 819 446Q802 450 781 453.5Q760 457 733 457Q679 457 649 436Q619 415 619 377Q619 337 652.5 316Q686 295 740 279Q809 260 844.5 227Q880 194 880 139Q880 103 864 75.5Q848 48 819 29.5Q790 11 750 1Q710 -9 661 -9ZM173 896 196 930 334 838 471 930 495 896 354 782H312Z" glyph-name="Ccaron_s" horiz-adv-x="924" /><glyph d="M438 -9Q351 -9 281 15Q211 39 161 86.5Q111 134 84 204Q57 274 57 366Q57 446 76 512Q95 578 133 625.5Q171 673 227 699Q283 725 358 725Q397 725 425.5 721Q454 717 473 712Q495 706 510 698V641Q493 649 470 656Q449 661 421.5 665.5Q394 670 358 670Q300 670 256 648Q212 626 183 586Q154 546 139.5 491.5Q125 437 125 371Q125 286 149 224Q173 162 217 122Q261 82 323.5 63Q386 44 464 44H668Q737 44 778 66.5Q819 89 819 133Q819 171 792.5 191.5Q766 212 708 229Q680 238 653.5 249Q627 260 606 277Q585 294 572 318Q559 342 559 377Q559 439 607 473.5Q655 508 733 508Q762 508 784 504.5Q806 501 821 498Q839 493 852 487V435Q837 441 819 446Q802 450 781 453.5Q760 457 733 457Q679 457 649 436Q619 415 619 377Q619 337 652.5 316Q686 295 740 279Q809 260 844.5 227Q880 194 880 139Q880 103 864 75.5Q848 48 819 29.5Q790 11 750 1Q710 -9 661 -9ZM561 726 591 758 711 646 831 758 861 726 724 588H698ZM173 896 196 930 334 838 471 930 495 896 354 782H312Z" glyph-name="Ccaron_scaron" horiz-adv-x="924" /><glyph d="M458 -136Q458 -163 444 -183.5Q430 -204 406 -217.5Q382 -231 349.5 -236Q317 -241 280 -237V-195Q331 -197 362 -183.5Q393 -170 393 -141Q393 -118 369.5 -106Q346 -94 288 -95L298 -4Q182 14 120 102Q58 190 58 342Q58 431 77 502Q96 573 134 622.5Q172 672 228 698.5Q284 725 359 725Q398 725 426.5 721Q455 717 474 712Q496 706 511 698V641Q494 649 471 656Q450 661 422.5 665.5Q395 670 359 670Q242 670 184 582.5Q126 495 126 343Q126 194 186.5 120.5Q247 47 359 47Q398 47 426.5 52.5Q455 58 474 64Q496 71 512 81V24Q497 15 475 8Q455 1 427 -4Q399 -9 359 -9H348L344 -49Q404 -53 431 -74.5Q458 -96 458 -136Z" glyph-name="Ccedilla" horiz-adv-x="556" unicode="&#199;" /><glyph d="M375 -104Q375 -125 363.5 -140.5Q352 -156 332 -166.5Q312 -177 285.5 -180.5Q259 -184 228 -181V-148Q268 -150 292.5 -140Q317 -130 317 -107Q317 -90 300 -81Q283 -72 245 -72H234L242 -3Q153 14 103 81Q53 148 53 263Q53 400 116 478.5Q179 557 300 557Q331 557 353.5 553.5Q376 550 391 547Q409 542 421 536V485Q407 491 389 496Q373 500 351.5 503.5Q330 507 302 507Q210 507 164 442.5Q118 378 118 265Q118 154 165.5 98.5Q213 43 301 43Q331 43 353.5 47Q376 51 392 56Q409 62 422 69V18Q410 11 392 6Q376 0 354 -3.5Q332 -7 301 -7Q298 -7 294.5 -7Q291 -7 288 -6L284 -38Q375 -42 375 -104Z" glyph-name="Ccedilla.sc" horiz-adv-x="465" /><glyph d="M452 -136Q452 -163 438 -183.5Q424 -204 400 -217.5Q376 -231 343.5 -236Q311 -241 274 -237V-195Q325 -197 356 -183.5Q387 -170 387 -141Q387 -118 363.5 -105.5Q340 -93 282 -95L291 -3Q178 16 117.5 102Q57 188 57 337Q57 423 80 493Q103 563 148 612Q193 661 259.5 687.5Q326 714 413 714H967V656H755V-2H690V656H423Q276 656 200.5 573Q125 490 125 338Q125 192 185.5 119.5Q246 47 358 47Q397 47 425.5 52.5Q454 58 473 64Q495 71 511 81V24Q496 15 474 8Q454 1 426 -4Q398 -9 358 -9Q354 -9 350 -9Q346 -9 342 -8L338 -49Q397 -53 424.5 -74.5Q452 -96 452 -136Z" glyph-name="Ccedilla_T" horiz-adv-x="981" /><glyph d="M375 -104Q375 -125 363.5 -140.5Q352 -156 332 -166.5Q312 -177 285.5 -180.5Q259 -184 228 -181V-148Q268 -150 292.5 -140Q317 -130 317 -107Q317 -90 300 -81Q283 -72 245 -72H234L242 -3Q153 13 103 79.5Q53 146 53 261Q53 327 72 380.5Q91 434 128 471.5Q165 509 219.5 529Q274 549 344 549H794V496H625V-1H563V496H352Q237 496 177.5 434.5Q118 373 118 261Q118 153 165.5 98Q213 43 301 43Q331 43 353.5 47Q376 51 392 56Q409 62 422 69V18Q410 11 392 6Q376 0 354 -3.5Q332 -7 301 -7Q298 -7 294.5 -7Q291 -7 288 -6L284 -38Q375 -42 375 -104Z" glyph-name="Ccedilla_T.sc" horiz-adv-x="812" /><glyph d="M452 -136Q452 -163 438 -183.5Q424 -204 400 -217.5Q376 -231 343.5 -236Q311 -241 274 -237V-195Q325 -197 356 -183.5Q387 -170 387 -141Q387 -118 363.5 -106Q340 -94 282 -95L291 -3Q178 17 117.5 104Q57 191 57 340Q57 426 80 495.5Q103 565 148 614Q193 663 259.5 689.5Q326 716 413 716H542L744 361L945 716H1011L775 300V0H710V300L506 658H423Q276 658 200.5 575.5Q125 493 125 342Q125 193 185.5 120Q246 47 358 47Q397 47 425.5 52.5Q454 58 473 64Q495 71 511 81V24Q496 15 474 8Q454 1 426 -4Q398 -9 358 -9Q354 -9 350 -9Q346 -9 342 -8L338 -49Q397 -53 424.5 -74.5Q452 -96 452 -136Z" glyph-name="Ccedilla_Y" horiz-adv-x="1026" /><glyph d="M375 -104Q375 -125 363.5 -140.5Q352 -156 332 -166.5Q312 -177 285.5 -180.5Q259 -184 228 -181V-148Q268 -150 292.5 -140Q317 -130 317 -107Q317 -90 300 -81Q283 -72 245 -72H234L242 -3Q153 14 103 80.5Q53 147 53 263Q53 329 72 382Q91 435 128 472.5Q165 510 219.5 530Q274 550 344 550H453L611 283L767 550H829L640 230V0H578V230L419 498H352Q237 498 177.5 437Q118 376 118 264Q118 154 165.5 98.5Q213 43 301 43Q331 43 353.5 47Q376 51 392 56Q409 62 422 69V18Q410 11 392 6Q376 0 354 -3.5Q332 -7 301 -7Q298 -7 294.5 -7Q291 -7 288 -6L284 -38Q375 -42 375 -104Z" glyph-name="Ccedilla_Y.sc" horiz-adv-x="846" /><glyph d="M820 47Q898 47 940.5 102.5Q983 158 983 261Q983 347 946 400.5Q909 454 830 454Q796 454 771.5 443.5Q747 433 730 421Q710 406 696 387V86Q712 75 731 67Q749 59 771 53Q793 47 820 47ZM453 -136Q453 -163 439 -183.5Q425 -204 401 -217.5Q377 -231 344.5 -236Q312 -241 275 -237V-195Q326 -197 357 -183.5Q388 -170 388 -141Q388 -118 364.5 -106Q341 -94 283 -95L292 -3Q179 17 118.5 104.5Q58 192 58 342Q58 431 77 502Q96 573 134 622.5Q172 672 228 698.5Q284 725 359 725Q394 725 420 721.5Q446 718 463 713Q479 766 539 766H696V442Q711 460 733 475Q753 488 780.5 498Q808 508 846 508Q898 508 936 489.5Q974 471 999.5 438Q1025 405 1037.5 360Q1050 315 1050 262Q1050 197 1034 146.5Q1018 96 989.5 62Q961 28 920.5 10.5Q880 -7 832 -7Q791 -7 759 6Q727 19 692 45L681 0H632V716H559Q536 716 523.5 704Q511 692 511 667V641Q511 641 500.5 646Q490 651 470.5 656Q451 661 423 665.5Q395 670 359 670Q242 670 184 582.5Q126 495 126 343Q126 194 186.5 120.5Q247 47 359 47Q398 47 426.5 52.5Q455 58 474 64Q496 71 512 81V24Q497 15 475 8Q455 1 427 -4Q399 -9 359 -9Q355 -9 351 -9Q347 -9 343 -8L339 -49Q398 -53 425.5 -74.5Q453 -96 453 -136Z" glyph-name="Ccedilla_b" horiz-adv-x="1103" /><glyph d="M453 -136Q453 -163 439 -183.5Q425 -204 401 -217.5Q377 -231 344.5 -236Q312 -241 275 -237V-195Q326 -197 357 -183.5Q388 -170 388 -141Q388 -118 364.5 -106Q341 -94 283 -95L292 -3Q179 17 118.5 104.5Q58 192 58 342Q58 431 77 502Q96 573 134 622.5Q172 672 228 698.5Q284 725 359 725Q394 725 420.5 721.5Q447 718 464 713Q478 766 540 766H695V432Q714 453 739 470Q762 486 793 497Q824 508 866 508Q911 508 943 493.5Q975 479 995.5 452.5Q1016 426 1025 388.5Q1034 351 1034 305V0H970V299Q970 379 939 416.5Q908 454 842 454Q808 454 781 443.5Q754 433 734 420Q712 405 695 386V0H631V716H559Q536 716 523.5 704.5Q511 693 511 667V641Q511 641 500.5 646Q490 651 470.5 656Q451 661 423 665.5Q395 670 359 670Q242 670 184 582.5Q126 495 126 343Q126 194 186.5 120.5Q247 47 359 47Q398 47 426.5 52.5Q455 58 474 64Q496 71 512 81V24Q497 15 475 8Q455 1 427 -4Q399 -9 359 -9Q355 -9 351 -9Q347 -9 343 -8L339 -49Q398 -53 425.5 -74.5Q453 -96 453 -136Z" glyph-name="Ccedilla_h" horiz-adv-x="1111" /><glyph d="M453 -136Q453 -163 439 -183.5Q425 -204 401 -217.5Q377 -231 344.5 -236Q312 -241 275 -237V-195Q326 -197 357 -183.5Q388 -170 388 -141Q388 -118 364.5 -106Q341 -94 283 -95L292 -3Q179 17 118.5 104.5Q58 192 58 342Q58 431 77 502Q96 573 134 622.5Q172 672 228 698.5Q284 725 359 725Q394 725 420.5 721.5Q447 718 464 713Q478 766 538 766H695V282H752L930 500H1001L806 265L1012 0H931L752 232H695V0H631V716H559Q536 716 523.5 704Q511 692 511 667V641Q511 641 500.5 646Q490 651 470.5 656Q451 661 423 665.5Q395 670 359 670Q242 670 184 582.5Q126 495 126 343Q126 194 186.5 120.5Q247 47 359 47Q398 47 426.5 52.5Q455 58 474 64Q496 71 512 81V24Q497 15 475 8Q455 1 427 -4Q399 -9 359 -9Q355 -9 351 -9Q347 -9 343 -8L339 -49Q398 -53 425.5 -74.5Q453 -96 453 -136Z" glyph-name="Ccedilla_k" horiz-adv-x="1022" /><glyph d="M453 -136Q453 -163 439 -183.5Q425 -204 401 -217.5Q377 -231 344.5 -236Q312 -241 275 -237V-195Q326 -197 357 -183.5Q388 -170 388 -141Q388 -118 364.5 -106Q341 -94 283 -95L292 -3Q179 17 118.5 104.5Q58 192 58 342Q58 431 77 502Q96 573 134 622.5Q172 672 228 698.5Q284 725 359 725Q394 725 420.5 721.5Q447 718 464 713Q478 766 537 766H694V120Q694 78 706 61.5Q718 45 748 44Q752 44 754.5 45Q757 46 758 46V0Q752 -2 745 -4Q739 -5 730.5 -6Q722 -7 712 -7Q630 -7 630 97V716H559Q536 716 523.5 704Q511 692 511 667V641Q510 641 499.5 646Q489 651 469.5 656Q450 661 422.5 665.5Q395 670 359 670Q242 670 184 582.5Q126 495 126 343Q126 194 186.5 120.5Q247 47 359 47Q398 47 426.5 52.5Q455 58 474 64Q496 71 512 81V24Q497 15 475 8Q455 1 427 -4Q399 -9 359 -9Q355 -9 351 -9Q347 -9 343 -8L339 -49Q398 -53 425.5 -74.5Q453 -96 453 -136Z" glyph-name="Ccedilla_l" horiz-adv-x="795" /><glyph d="M452 -135Q452 -162 438 -182.5Q424 -203 400 -216.5Q376 -230 343.5 -235Q311 -240 274 -236V-195Q325 -197 356 -183Q387 -169 387 -140Q387 -117 363.5 -105Q340 -93 282 -95L293 11Q182 45 119.5 134Q57 223 57 366Q57 446 76 512Q95 578 133 625.5Q171 673 227 699Q283 725 358 725Q397 725 425.5 721Q454 717 473 712Q495 706 510 698V641Q493 649 470 656Q449 661 421.5 665.5Q394 670 358 670Q300 670 256 648Q212 626 183 586Q154 546 139.5 491.5Q125 437 125 371Q125 286 149 224Q173 162 217 122Q261 82 323.5 63Q386 44 464 44H668Q737 44 778 66.5Q819 89 819 133Q819 171 792.5 191.5Q766 212 708 229Q680 238 653.5 249Q627 260 606 277Q585 294 572 318Q559 342 559 377Q559 439 607 473.5Q655 508 733 508Q762 508 784 504.5Q806 501 821 498Q839 493 852 487V435Q837 441 819 446Q802 450 781 453.5Q760 457 733 457Q679 457 649 436Q619 415 619 377Q619 337 652.5 316Q686 295 740 279Q809 260 844.5 227Q880 194 880 139Q880 103 864 75.5Q848 48 819 29.5Q790 11 750 1Q710 -9 661 -9H438Q388 -9 343 0L338 -49Q397 -52 424.5 -73.5Q452 -95 452 -135Z" glyph-name="Ccedilla_s" horiz-adv-x="924" /><glyph d="M358 -9Q214 -9 136 81Q58 171 58 342Q58 431 77 502Q96 573 134 622.5Q172 672 228 698.5Q284 725 359 725Q398 725 426.5 721Q455 717 474 712Q496 706 511 698V641Q494 649 471 656Q450 661 422.5 665.5Q395 670 359 670Q242 670 184 582.5Q126 495 126 343Q126 194 186.5 120.5Q247 47 359 47Q398 47 426.5 52.5Q455 58 474 64Q496 71 512 81V24Q497 15 475 8Q455 1 426.5 -4Q398 -9 358 -9ZM176 816 313 930H354L492 816L468 782L334 874L199 782Z" glyph-name="Ccircumflex" horiz-adv-x="556" unicode="&#264;" /><glyph d="M148 628 258 718H296L407 628L386 601L278 671L169 601ZM299 -7Q184 -7 118.5 61.5Q53 130 53 263Q53 400 116 478.5Q179 557 300 557Q331 557 353.5 553.5Q376 550 391 547Q409 542 421 536V485Q407 491 389 496Q373 500 351.5 503.5Q330 507 302 507Q210 507 164 442.5Q118 378 118 265Q118 154 165.5 98.5Q213 43 301 43Q331 43 353.5 47Q376 51 392 56Q409 62 422 69V18Q410 11 392 6Q376 0 353.5 -3.5Q331 -7 299 -7Z" glyph-name="Ccircumflex.sc" horiz-adv-x="465" /><glyph d="M358 -9Q214 -9 136 81Q58 171 58 342Q58 431 77 502Q96 573 134 622.5Q172 672 228 698.5Q284 725 359 725Q398 725 426.5 721Q455 717 474 712Q496 706 511 698V641Q494 649 471 656Q450 661 422.5 665.5Q395 670 359 670Q242 670 184 582.5Q126 495 126 343Q126 194 186.5 120.5Q247 47 359 47Q398 47 426.5 52.5Q455 58 474 64Q496 71 512 81V24Q497 15 475 8Q455 1 426.5 -4Q398 -9 358 -9ZM326 808Q306 808 292.5 821.5Q279 835 279 858Q279 881 293 894Q307 907 327 907Q348 907 362 894Q376 881 376 858Q376 835 362 821.5Q348 808 326 808Z" glyph-name="Cdotaccent" horiz-adv-x="556" unicode="&#266;" /><glyph d="M271 620Q253 620 241.5 631.5Q230 643 230 661Q230 678 241.5 689.5Q253 701 271 701Q291 701 302.5 689.5Q314 678 314 661Q314 643 302.5 631.5Q291 620 271 620ZM299 -7Q184 -7 118.5 61.5Q53 130 53 263Q53 400 116 478.5Q179 557 300 557Q331 557 353.5 553.5Q376 550 391 547Q409 542 421 536V485Q407 491 389 496Q373 500 351.5 503.5Q330 507 302 507Q210 507 164 442.5Q118 378 118 265Q118 154 165.5 98.5Q213 43 301 43Q331 43 353.5 47Q376 51 392 56Q409 62 422 69V18Q410 11 392 6Q376 0 353.5 -3.5Q331 -7 299 -7Z" glyph-name="Cdotaccent.sc" horiz-adv-x="465" /><glyph d="M357 -9Q214 -9 136 79.5Q58 168 58 337Q58 423 81 493Q104 563 149 612Q194 661 260 687.5Q326 714 413 714H968V656H755V-2H690V656H424Q276 656 200.5 573Q125 490 125 338Q125 192 185.5 119.5Q246 47 358 47Q397 47 425.5 52.5Q454 58 473 64Q495 71 511 81V24Q496 15 474 8Q454 1 425.5 -4Q397 -9 357 -9ZM325 808Q305 808 291.5 821.5Q278 835 278 858Q278 881 292 894Q306 907 326 907Q347 907 361 894Q375 881 375 858Q375 835 361 821.5Q347 808 325 808Z" glyph-name="Cdotaccent_T" horiz-adv-x="981" /><glyph d="M271 620Q253 620 241.5 631.5Q230 643 230 661Q230 678 241.5 689.5Q253 701 271 701Q291 701 302.5 689.5Q314 678 314 661Q314 643 302.5 631.5Q291 620 271 620ZM299 -7Q184 -7 118.5 60.5Q53 128 53 261Q53 327 72 380.5Q91 434 128 471.5Q165 509 219.5 529Q274 549 344 549H794V496H625V-1H563V496H352Q237 496 177.5 434.5Q118 373 118 261Q118 153 165.5 98Q213 43 301 43Q331 43 353.5 47Q376 51 392 56Q409 62 422 69V18Q410 11 392 6Q376 0 353.5 -3.5Q331 -7 299 -7Z" glyph-name="Cdotaccent_T.sc" horiz-adv-x="812" /><glyph d="M326 808Q306 808 292.5 821.5Q279 835 279 858Q279 881 293 894Q307 907 327 907Q348 907 362 894Q376 881 376 858Q376 835 362 821.5Q348 808 326 808ZM512 24Q497 15 475 8Q455 1 426.5 -4Q398 -9 358 -9Q214 -9 136 81Q58 171 58 342Q58 431 77 502Q96 573 134 622.5Q172 672 228 698.5Q284 725 359 725Q394 725 420.5 721.5Q447 718 464 713Q478 766 537 766H695V282H752L930 500H1001L806 265L1012 0H931L752 232H695V0H631V716H559Q536 716 523.5 704Q511 692 511 667V641Q511 641 500.5 646Q490 651 470.5 656Q451 661 423 665.5Q395 670 359 670Q242 670 184 582.5Q126 495 126 343Q126 194 186.5 120.5Q247 47 359 47Q398 47 426.5 52.5Q455 58 474 64Q496 71 512 81Z" glyph-name="Cdotaccent_k" horiz-adv-x="1022" /><glyph d="M326 808Q306 808 292.5 821.5Q279 835 279 858Q279 881 293 894Q307 907 327 907Q348 907 362 894Q376 881 376 858Q376 835 362 821.5Q348 808 326 808ZM712 -7Q630 -7 630 97V716H559Q536 716 523.5 704Q511 692 511 667V641Q511 641 500.5 646Q490 651 470.5 656Q451 661 423 665.5Q395 670 359 670Q242 670 184 582.5Q126 495 126 343Q126 194 186.5 120.5Q247 47 359 47Q398 47 426.5 52.5Q455 58 474 64Q496 71 512 81V24Q497 15 475 8Q455 1 426.5 -4Q398 -9 358 -9Q214 -9 136 81Q58 171 58 342Q58 431 77 502Q96 573 134 622.5Q172 672 228 698.5Q284 725 359 725Q394 725 420.5 721.5Q447 718 464 713Q478 766 537 766H694V120Q694 78 706 61.5Q718 45 747 44Q752 44 754.5 45Q757 46 758 46V0Q752 -2 745 -4Q739 -5 730.5 -6Q722 -7 712 -7Z" glyph-name="Cdotaccent_l" horiz-adv-x="795" /><glyph d="M96 716H284Q443 716 524.5 626Q606 536 606 364Q606 186 524.5 93Q443 0 284 0H96ZM284 58Q408 58 473 134Q538 210 538 364Q538 515 472 586.5Q406 658 284 658H161V58Z" glyph-name="D" horiz-adv-x="664" unicode="D" /><glyph d="M85 550H238Q369 550 435 480Q501 410 501 279Q501 145 435.5 72.5Q370 0 238 0H85ZM239 52Q336 52 386.5 109.5Q437 167 437 279Q437 390 385.5 444Q334 498 239 498H147V52Z" glyph-name="D.sc" horiz-adv-x="555" /><glyph d="M95 716H283Q391 716 467.5 669.5Q544 623 576 526Q605 628 677 676.5Q749 725 846 725Q885 725 913 721Q941 717 960 712Q982 706 997 698V641Q980 649 957 656Q936 661 908.5 665.5Q881 670 845 670Q729 670 671 583Q613 496 613 343Q613 262 631 205.5Q649 149 680 114Q711 79 753.5 63Q796 47 845 47Q884 47 912.5 52.5Q941 58 961 64Q983 71 998 81V24Q983 15 961 8Q941 1 913 -4Q885 -9 845 -9Q744 -9 673 38.5Q602 86 572 185Q534 88 458.5 44Q383 0 283 0H95ZM284 58Q408 58 476.5 134Q545 210 545 364Q545 514 475 586Q405 658 284 658H160V58Z" glyph-name="D_C" horiz-adv-x="1042" /><glyph d="M85 550H238Q324 550 385.5 515.5Q447 481 473 409Q497 485 555 521Q613 557 689 557Q720 557 742.5 553.5Q765 550 780 547Q798 542 810 536V485Q797 491 779 496Q762 500 740.5 503.5Q719 507 690 507Q599 507 553.5 442.5Q508 378 508 265Q508 205 522 163Q536 121 560 94Q584 67 617.5 55Q651 43 690 43Q721 43 743.5 47Q766 51 781 56Q799 62 811 69V18Q799 11 781 6Q765 0 742 -3.5Q719 -7 687 -7Q609 -7 552 28.5Q495 64 470 137Q440 66 379.5 33Q319 0 239 0H85ZM240 52Q337 52 390 109.5Q443 167 443 279Q443 390 389 444Q335 498 240 498H147V52Z" glyph-name="D_C.sc" horiz-adv-x="855" /><glyph d="M95 716H283Q391 716 467.5 669.5Q544 623 576 526Q605 628 677 676.5Q749 725 846 725Q885 725 913 721Q941 717 960 712Q982 706 997 698V641Q980 649 957 656Q936 661 908.5 665.5Q881 670 845 670Q729 670 671 583Q613 496 613 343Q613 262 631 205.5Q649 149 680 114Q711 79 753.5 63Q796 47 845 47Q884 47 912.5 52.5Q941 58 961 64Q983 71 998 81V24Q983 15 961 8Q941 1 913 -4Q885 -9 845 -9Q744 -9 673 38.5Q602 86 572 185Q534 88 458.5 44Q383 0 283 0H95ZM284 58Q408 58 476.5 134Q545 210 545 364Q545 514 475 586Q405 658 284 658H160V58ZM661 896 684 930 822 838 959 930 983 896 842 782H800Z" glyph-name="D_Ccaron" horiz-adv-x="1042" /><glyph d="M535 689 556 718 667 647 778 718 798 689 685 601H648ZM85 550H238Q324 550 385.5 515.5Q447 481 473 409Q497 485 555 521Q613 557 689 557Q720 557 742.5 553.5Q765 550 780 547Q798 542 810 536V485Q797 491 779 496Q762 500 740.5 503.5Q719 507 690 507Q599 507 553.5 442.5Q508 378 508 265Q508 205 522 163Q536 121 560 94Q584 67 617.5 55Q651 43 690 43Q721 43 743.5 47Q766 51 781 56Q799 62 811 69V18Q799 11 781 6Q765 0 742 -3.5Q719 -7 687 -7Q609 -7 552 28.5Q495 64 470 137Q440 66 379.5 33Q319 0 239 0H85ZM240 52Q337 52 390 109.5Q443 167 443 279Q443 390 389 444Q335 498 240 498H147V52Z" glyph-name="D_Ccaron.sc" horiz-adv-x="855" /><glyph d="M284 58Q408 58 476.5 134Q545 210 545 364Q545 514 475 586Q405 658 284 658H160V58ZM939 -136Q939 -163 925 -183.5Q911 -204 887 -217.5Q863 -231 830.5 -236Q798 -241 761 -237V-195Q813 -197 843.5 -183.5Q874 -170 874 -141Q874 -118 850.5 -106Q827 -94 769 -95L779 -4Q703 10 650 57Q597 104 572 185Q534 88 458.5 44Q383 0 283 0H95V716H283Q391 716 467.5 669.5Q544 623 576 526Q605 628 677 676.5Q749 725 846 725Q885 725 913 721Q941 717 960 712Q982 706 997 698V641Q980 649 957 656Q936 661 908.5 665.5Q881 670 845 670Q729 670 671 583Q613 496 613 343Q613 262 631 205.5Q649 149 680 114Q711 79 753.5 63Q796 47 845 47Q884 47 912.5 52.5Q941 58 961 64Q983 71 998 81V24Q983 15 961 8Q941 1 913.5 -4Q886 -9 846 -9Q841 -9 837.5 -9Q834 -9 829 -8L825 -49Q885 -53 912 -74.5Q939 -96 939 -136Z" glyph-name="D_Ccedilla" horiz-adv-x="1042" /><glyph d="M240 52Q337 52 390 109.5Q443 167 443 279Q443 390 389 444Q335 498 240 498H147V52ZM764 -104Q764 -125 752.5 -140.5Q741 -156 721 -166.5Q701 -177 674.5 -180.5Q648 -184 617 -181V-148Q658 -150 682 -140Q706 -130 706 -107Q706 -72 635 -72H624L631 -2Q573 9 531.5 43Q490 77 470 137Q440 66 379.5 33Q319 0 239 0H85V550H238Q324 550 385.5 515.5Q447 481 473 409Q497 485 555 521Q613 557 689 557Q720 557 742.5 553.5Q765 550 780 547Q798 542 810 536V485Q797 491 779 496Q762 500 740.5 503.5Q719 507 690 507Q599 507 553.5 442.5Q508 378 508 265Q508 205 522 163Q536 121 560 94Q584 67 617.5 55Q651 43 690 43Q721 43 743.5 47Q766 51 781 56Q799 62 811 69V18Q799 11 782 6Q766 0 743.5 -3.5Q721 -7 690 -7Q682 -7 678 -6L674 -38Q721 -40 742.5 -57Q764 -74 764 -104Z" glyph-name="D_Ccedilla.sc" horiz-adv-x="855" /><glyph d="M95 716H283Q394 716 469.5 668Q545 620 578 525Q610 624 686.5 674.5Q763 725 868 725Q911 725 943 720Q975 715 996 709Q1020 701 1037 692V637Q1017 646 992 654Q968 660 938 665Q908 670 870 670Q798 670 748.5 646.5Q699 623 668 581.5Q637 540 623.5 483Q610 426 610 359Q610 291 624.5 234Q639 177 671 135.5Q703 94 753 70.5Q803 47 875 47Q913 47 942 54.5Q971 62 987 65V333H803V390H1048V24Q1026 15 1000 8Q975 1 944.5 -4Q914 -9 876 -9Q755 -9 679.5 46Q604 101 576 197Q538 97 462.5 48.5Q387 0 283 0H95ZM284 58Q408 58 476.5 134Q545 210 545 364Q545 514 475 586Q405 658 284 658H160V58Z" glyph-name="D_G" horiz-adv-x="1117" /><glyph d="M85 550H239Q327 550 387.5 514.5Q448 479 475 408Q501 482 562 519.5Q623 557 708 557Q743 557 769 553Q795 549 812 545Q833 539 847 532V483Q831 490 810 495Q791 500 767 503.5Q743 507 712 507Q655 507 616 489.5Q577 472 552.5 441Q528 410 517 367.5Q506 325 506 275Q506 224 517.5 181.5Q529 139 553.5 108.5Q578 78 617.5 60.5Q657 43 713 43Q742 43 764.5 49Q787 55 798 57V251H656V302H855V17Q837 10 815 5Q795 -1 770 -4.5Q745 -8 714 -8Q617 -8 556.5 33Q496 74 472 145Q442 72 382.5 36Q323 0 239 0H85ZM240 52Q337 52 390 109.5Q443 167 443 279Q443 390 389 444Q335 498 240 498H147V52Z" glyph-name="D_G.sc" horiz-adv-x="918" /><glyph d="M833 808Q813 808 799.5 821.5Q786 835 786 858Q786 881 800 894Q814 907 834 907Q855 907 869 894Q883 881 883 858Q883 835 869 821.5Q855 808 833 808ZM95 716H283Q394 716 469.5 668Q545 620 578 525Q610 624 686.5 674.5Q763 725 868 725Q911 725 943 720Q975 715 996 709Q1020 701 1037 692V637Q1017 646 992 654Q968 660 938 665Q908 670 870 670Q798 670 748.5 646.5Q699 623 668 581.5Q637 540 623.5 483Q610 426 610 359Q610 291 624.5 234Q639 177 671 135.5Q703 94 753 70.5Q803 47 875 47Q913 47 942 54.5Q971 62 987 65V333H803V390H1048V24Q1026 15 1000 8Q975 1 944.5 -4Q914 -9 876 -9Q755 -9 679.5 46Q604 101 576 197Q538 97 462.5 48.5Q387 0 283 0H95ZM284 58Q408 58 476.5 134Q545 210 545 364Q545 514 475 586Q405 658 284 658H160V58Z" glyph-name="D_Gdotaccent" horiz-adv-x="1117" /><glyph d="M680 620Q662 620 650.5 631.5Q639 643 639 661Q639 678 650.5 689.5Q662 701 681 701Q701 701 712 689.5Q723 678 723 661Q723 643 711.5 631.5Q700 620 680 620ZM85 550H239Q327 550 387.5 514.5Q448 479 475 408Q501 482 562 519.5Q623 557 708 557Q743 557 769 553Q795 549 812 545Q833 539 847 532V483Q831 490 810 495Q791 500 767 503.5Q743 507 712 507Q655 507 616 489.5Q577 472 552.5 441Q528 410 517 367.5Q506 325 506 275Q506 224 517.5 181.5Q529 139 553.5 108.5Q578 78 617.5 60.5Q657 43 713 43Q742 43 764.5 49Q787 55 798 57V251H656V302H855V17Q837 10 815 5Q795 -1 770 -4.5Q745 -8 714 -8Q617 -8 556.5 33Q496 74 472 145Q442 72 382.5 36Q323 0 239 0H85ZM240 52Q337 52 390 109.5Q443 167 443 279Q443 390 389 444Q335 498 240 498H147V52Z" glyph-name="D_Gdotaccent.sc" horiz-adv-x="918" /><glyph d="M95 716H283Q395 716 473 669Q551 622 585 527Q614 628 678 676.5Q742 725 836 725Q970 725 1044.5 634Q1119 543 1119 358Q1119 175 1045.5 83Q972 -9 836 -9Q743 -9 674.5 41Q606 91 581 187Q543 91 465.5 45.5Q388 0 283 0H95ZM836 47Q939 47 995.5 122Q1052 197 1052 358Q1052 522 995.5 596Q939 670 836 670Q733 670 676 595.5Q619 521 619 358Q619 197 676 122Q733 47 836 47ZM284 58Q411 58 481.5 134Q552 210 552 364Q552 514 480.5 586Q409 658 284 658H160V58Z" glyph-name="D_O" horiz-adv-x="1177" /><glyph d="M85 550H239Q328 550 389.5 515Q451 480 478 410Q503 485 554.5 521Q606 557 680 557Q791 557 851 486.5Q911 416 911 275Q911 135 851 64Q791 -7 680 -7Q606 -7 551.5 30Q497 67 476 139Q445 68 384 34Q323 0 239 0H85ZM680 43Q761 43 804 99Q847 155 847 275Q847 396 804 451.5Q761 507 680 507Q599 507 555.5 451.5Q512 396 512 275Q512 155 555.5 99Q599 43 680 43ZM240 52Q339 52 393.5 109.5Q448 167 448 279Q448 390 393 444Q338 498 240 498H147V52Z" glyph-name="D_O.sc" horiz-adv-x="966" /><glyph d="M95 716H283Q395 716 473 669Q551 622 585 527Q614 628 678 676.5Q742 725 836 725Q970 725 1044.5 634Q1119 543 1119 358Q1119 175 1045.5 83Q972 -9 836 -9Q743 -9 674.5 41Q606 91 581 187Q543 91 465.5 45.5Q388 0 283 0H95ZM836 47Q939 47 995.5 122Q1052 197 1052 358Q1052 522 995.5 596Q939 670 836 670Q733 670 676 595.5Q619 521 619 358Q619 197 676 122Q733 47 836 47ZM284 58Q411 58 481.5 134Q552 210 552 364Q552 514 480.5 586Q409 658 284 658H160V58ZM786 824 993 927 1018 868 804 782Z" glyph-name="D_Oacute" horiz-adv-x="1177" /><glyph d="M636 636 804 716 826 666 652 601ZM85 550H239Q328 550 389.5 515Q451 480 478 410Q503 485 554.5 521Q606 557 680 557Q791 557 851 486.5Q911 416 911 275Q911 135 851 64Q791 -7 680 -7Q606 -7 551.5 30Q497 67 476 139Q445 68 384 34Q323 0 239 0H85ZM680 43Q761 43 804 99Q847 155 847 275Q847 396 804 451.5Q761 507 680 507Q599 507 555.5 451.5Q512 396 512 275Q512 155 555.5 99Q599 43 680 43ZM240 52Q339 52 393.5 109.5Q448 167 448 279Q448 390 393 444Q338 498 240 498H147V52Z" glyph-name="D_Oacute.sc" horiz-adv-x="966" /><glyph d="M95 716H283Q395 716 473 669Q551 622 585 527Q614 628 678 676.5Q742 725 836 725Q970 725 1044.5 634Q1119 543 1119 358Q1119 175 1045.5 83Q972 -9 836 -9Q743 -9 674.5 41Q606 91 581 187Q543 91 465.5 45.5Q388 0 283 0H95ZM836 47Q939 47 995.5 122Q1052 197 1052 358Q1052 522 995.5 596Q939 670 836 670Q733 670 676 595.5Q619 521 619 358Q619 197 676 122Q733 47 836 47ZM284 58Q411 58 481.5 134Q552 210 552 364Q552 514 480.5 586Q409 658 284 658H160V58ZM685 816 822 930H863L1001 816L977 782L843 874L708 782Z" glyph-name="D_Ocircumflex" horiz-adv-x="1177" /><glyph d="M556 628 666 718H704L815 628L793 601L685 671L576 601ZM85 550H239Q328 550 389.5 515Q451 480 478 410Q503 485 554.5 521Q606 557 680 557Q791 557 851 486.5Q911 416 911 275Q911 135 851 64Q791 -7 680 -7Q606 -7 551.5 30Q497 67 476 139Q445 68 384 34Q323 0 239 0H85ZM680 43Q761 43 804 99Q847 155 847 275Q847 396 804 451.5Q761 507 680 507Q599 507 555.5 451.5Q512 396 512 275Q512 155 555.5 99Q599 43 680 43ZM240 52Q339 52 393.5 109.5Q448 167 448 279Q448 390 393 444Q338 498 240 498H147V52Z" glyph-name="D_Ocircumflex.sc" horiz-adv-x="966" /><glyph d="M95 716H283Q395 716 473 669Q551 622 585 527Q614 628 678 676.5Q742 725 836 725Q970 725 1044.5 634Q1119 543 1119 358Q1119 175 1045.5 83Q972 -9 836 -9Q743 -9 674.5 41Q606 91 581 187Q543 91 465.5 45.5Q388 0 283 0H95ZM836 47Q939 47 995.5 122Q1052 197 1052 358Q1052 522 995.5 596Q939 670 836 670Q733 670 676 595.5Q619 521 619 358Q619 197 676 122Q733 47 836 47ZM284 58Q411 58 481.5 134Q552 210 552 364Q552 514 480.5 586Q409 658 284 658H160V58ZM752 808Q733 808 719.5 821Q706 834 706 856Q706 879 719.5 891.5Q733 904 752 904Q772 904 786 891.5Q800 879 800 857Q800 834 786 821Q772 808 752 808ZM931 808Q912 808 898.5 821Q885 834 885 856Q885 879 898.5 891.5Q912 904 932 904Q952 904 965.5 891.5Q979 879 979 857Q979 834 965 821Q951 808 931 808Z" glyph-name="D_Odieresis" horiz-adv-x="1177" /><glyph d="M611 620Q594 620 583 631.5Q572 643 572 660Q572 677 583 687.5Q594 698 611 698Q630 698 641.5 688Q653 678 653 661Q653 643 641.5 631.5Q630 620 611 620ZM757 620Q740 620 728.5 631.5Q717 643 717 660Q717 677 728.5 687.5Q740 698 757 698Q775 698 787 688Q799 678 799 661Q799 643 787 631.5Q775 620 757 620ZM85 550H239Q328 550 389.5 515Q451 480 478 410Q503 485 554.5 521Q606 557 680 557Q791 557 851 486.5Q911 416 911 275Q911 135 851 64Q791 -7 680 -7Q606 -7 551.5 30Q497 67 476 139Q445 68 384 34Q323 0 239 0H85ZM680 43Q761 43 804 99Q847 155 847 275Q847 396 804 451.5Q761 507 680 507Q599 507 555.5 451.5Q512 396 512 275Q512 155 555.5 99Q599 43 680 43ZM240 52Q339 52 393.5 109.5Q448 167 448 279Q448 390 393 444Q338 498 240 498H147V52Z" glyph-name="D_Odieresis.sc" horiz-adv-x="966" /><glyph d="M95 716H283Q395 716 473 669Q551 622 585 527Q614 628 678 676.5Q742 725 836 725Q970 725 1044.5 634Q1119 543 1119 358Q1119 175 1045.5 83Q972 -9 836 -9Q743 -9 674.5 41Q606 91 581 187Q543 91 465.5 45.5Q388 0 283 0H95ZM836 47Q939 47 995.5 122Q1052 197 1052 358Q1052 522 995.5 596Q939 670 836 670Q733 670 676 595.5Q619 521 619 358Q619 197 676 122Q733 47 836 47ZM284 58Q411 58 481.5 134Q552 210 552 364Q552 514 480.5 586Q409 658 284 658H160V58ZM670 868 695 927 902 824 884 782Z" glyph-name="D_Ograve" horiz-adv-x="1177" /><glyph d="M549 666 571 716 739 636 723 601ZM85 550H239Q328 550 389.5 515Q451 480 478 410Q503 485 554.5 521Q606 557 680 557Q791 557 851 486.5Q911 416 911 275Q911 135 851 64Q791 -7 680 -7Q606 -7 551.5 30Q497 67 476 139Q445 68 384 34Q323 0 239 0H85ZM680 43Q761 43 804 99Q847 155 847 275Q847 396 804 451.5Q761 507 680 507Q599 507 555.5 451.5Q512 396 512 275Q512 155 555.5 99Q599 43 680 43ZM240 52Q339 52 393.5 109.5Q448 167 448 279Q448 390 393 444Q338 498 240 498H147V52Z" glyph-name="D_Ograve.sc" horiz-adv-x="966" /><glyph d="M95 716H283Q395 716 473 669Q551 622 585 527Q614 628 678 676.5Q742 725 836 725Q970 725 1044.5 634Q1119 543 1119 358Q1119 175 1045.5 83Q972 -9 836 -9Q743 -9 674.5 41Q606 91 581 187Q543 91 465.5 45.5Q388 0 283 0H95ZM836 47Q939 47 995.5 122Q1052 197 1052 358Q1052 522 995.5 596Q939 670 836 670Q733 670 676 595.5Q619 521 619 358Q619 197 676 122Q733 47 836 47ZM284 58Q411 58 481.5 134Q552 210 552 364Q552 514 480.5 586Q409 658 284 658H160V58ZM720 810 850 962 899 921 758 782ZM853 824 1060 927 1086 868 871 782Z" glyph-name="D_Ohungarumlaut" horiz-adv-x="1177" /><glyph d="M583 624 688 742 731 708 617 601ZM695 635 859 715 882 667 711 601ZM85 550H239Q328 550 389.5 515Q451 480 478 410Q503 485 554.5 521Q606 557 680 557Q791 557 851 486.5Q911 416 911 275Q911 135 851 64Q791 -7 680 -7Q606 -7 551.5 30Q497 67 476 139Q445 68 384 34Q323 0 239 0H85ZM680 43Q761 43 804 99Q847 155 847 275Q847 396 804 451.5Q761 507 680 507Q599 507 555.5 451.5Q512 396 512 275Q512 155 555.5 99Q599 43 680 43ZM240 52Q339 52 393.5 109.5Q448 167 448 279Q448 390 393 444Q338 498 240 498H147V52Z" glyph-name="D_Ohungarumlaut.sc" horiz-adv-x="966" /><glyph d="M619 358Q619 286 630.5 232Q642 178 664 140L973 619Q947 645 912.5 657.5Q878 670 836 670Q733 670 676 595.5Q619 521 619 358ZM284 58Q411 58 481.5 134Q552 210 552 364Q552 514 480.5 586Q409 658 284 658H160V58ZM836 47Q939 47 995.5 122Q1052 197 1052 358Q1052 430 1040.5 483.5Q1029 537 1008 575L699 97Q725 71 759.5 59Q794 47 836 47ZM836 -9Q738 -9 668 47L628 -15H565L629 83Q595 123 581 187Q543 91 465.5 45.5Q388 0 283 0H95V716H283Q395 716 473 669Q551 622 585 527Q614 628 678 676.5Q742 725 836 725Q887 725 929 712Q971 699 1005 670L1045 731H1108L1045 634Q1081 588 1100 519Q1119 450 1119 358Q1119 175 1045.5 83Q972 -9 836 -9Z" glyph-name="D_Oslash" horiz-adv-x="1178" /><glyph d="M512 275Q512 173 546 114L786 468Q747 507 680 507Q599 507 555.5 451.5Q512 396 512 275ZM240 52Q339 52 393.5 109.5Q448 167 448 279Q448 390 393 444Q338 498 240 498H147V52ZM680 43Q761 43 804 99Q847 155 847 275Q847 326 839 364.5Q831 403 816 431L576 79Q617 43 680 43ZM680 -7Q602 -7 547 34L514 -13H459L512 64Q499 79 490.5 97.5Q482 116 476 139Q445 68 384 34Q323 0 239 0H85V550H239Q328 550 389.5 515Q451 480 478 410Q503 485 554.5 521Q606 557 680 557Q762 557 816 515L850 563H905L852 485Q911 414 911 275Q911 135 851 64Q791 -7 680 -7Z" glyph-name="D_Oslash.sc" horiz-adv-x="975" /><glyph d="M95 716H283Q395 716 473 669Q551 622 585 527Q614 628 678 676.5Q742 725 836 725Q970 725 1044.5 634Q1119 543 1119 358Q1119 175 1045.5 83Q972 -9 836 -9Q743 -9 674.5 41Q606 91 581 187Q543 91 465.5 45.5Q388 0 283 0H95ZM836 47Q939 47 995.5 122Q1052 197 1052 358Q1052 522 995.5 596Q939 670 836 670Q733 670 676 595.5Q619 521 619 358Q619 197 676 122Q733 47 836 47ZM284 58Q411 58 481.5 134Q552 210 552 364Q552 514 480.5 586Q409 658 284 658H160V58ZM693 805Q695 836 705 861Q714 883 731.5 899.5Q749 916 780 916Q806 916 822.5 904Q839 892 853 880Q868 867 880.5 856Q893 845 910 845Q923 845 930.5 853.5Q938 862 942 873Q947 885 948 901H994Q992 871 982 848Q973 826 956 810Q939 794 908 794Q884 794 867 806Q850 818 836 830Q822 842 809.5 853.5Q797 865 780 865Q765 865 757 855.5Q749 846 745 835Q740 822 739 805Z" glyph-name="D_Otilde" horiz-adv-x="1177" /><glyph d="M560 619Q560 621 562.5 635Q565 649 572.5 665Q580 681 594.5 694Q609 707 634 707Q654 707 667.5 698Q681 689 693 680Q705 670 715 662Q725 654 739 654Q750 654 756 660.5Q762 667 765 675Q769 684 770 695H810Q810 693 808 679.5Q806 666 799 650.5Q792 635 778 622.5Q764 610 739 610Q719 610 705.5 618.5Q692 627 680 637Q668 646 658 654.5Q648 663 634 663Q622 663 615.5 656Q609 649 606 641Q602 631 601 619ZM85 550H239Q328 550 389.5 515Q451 480 478 410Q503 485 554.5 521Q606 557 680 557Q791 557 851 486.5Q911 416 911 275Q911 135 851 64Q791 -7 680 -7Q606 -7 551.5 30Q497 67 476 139Q445 68 384 34Q323 0 239 0H85ZM680 43Q761 43 804 99Q847 155 847 275Q847 396 804 451.5Q761 507 680 507Q599 507 555.5 451.5Q512 396 512 275Q512 155 555.5 99Q599 43 680 43ZM240 52Q339 52 393.5 109.5Q448 167 448 279Q448 390 393 444Q338 498 240 498H147V52Z" glyph-name="D_Otilde.sc" horiz-adv-x="966" /><glyph d="M96 716H284Q443 716 524.5 626Q606 536 606 364Q606 186 524.5 93Q443 0 284 0H96ZM284 58Q408 58 473 134Q538 210 538 364Q538 515 472 586.5Q406 658 284 658H161V58ZM150 896 173 930 311 838 448 930 472 896 331 782H289Z" glyph-name="Dcaron" horiz-adv-x="664" unicode="&#270;" /><glyph d="M129 689 149 718 260 647 371 718 392 689 279 601H241ZM85 0V550H238Q369 550 435 480Q501 410 501 279Q501 145 435.5 72.5Q370 0 238 0ZM147 52H239Q336 52 386.5 109.5Q437 167 437 279Q437 390 385.5 444Q334 498 239 498H147Z" glyph-name="Dcaron.sc" horiz-adv-x="555" /><glyph d="M95 716H283Q395 716 473 669Q551 622 585 527Q614 628 678 676.5Q742 725 836 725Q970 725 1044.5 634Q1119 543 1119 358Q1119 175 1045.5 83Q972 -9 836 -9Q743 -9 674.5 41Q606 91 581 187Q543 91 465.5 45.5Q388 0 283 0H95ZM836 47Q939 47 995.5 122Q1052 197 1052 358Q1052 522 995.5 596Q939 670 836 670Q733 670 676 595.5Q619 521 619 358Q619 197 676 122Q733 47 836 47ZM284 58Q411 58 481.5 134Q552 210 552 364Q552 514 480.5 586Q409 658 284 658H160V58ZM149 896 172 930 310 838 447 930 471 896 330 782H288Z" glyph-name="Dcaron_O" horiz-adv-x="1177" /><glyph d="M129 689 149 718 260 647 371 718 392 689 279 601H241ZM85 550H239Q328 550 389.5 515Q451 480 478 410Q503 485 554.5 521Q606 557 680 557Q791 557 851 486.5Q911 416 911 275Q911 135 851 64Q791 -7 680 -7Q606 -7 551.5 30Q497 67 476 139Q445 68 384 34Q323 0 239 0H85ZM680 43Q761 43 804 99Q847 155 847 275Q847 396 804 451.5Q761 507 680 507Q599 507 555.5 451.5Q512 396 512 275Q512 155 555.5 99Q599 43 680 43ZM240 52Q339 52 393.5 109.5Q448 167 448 279Q448 390 393 444Q338 498 240 498H147V52Z" glyph-name="Dcaron_O.sc" horiz-adv-x="966" /><glyph d="M105 0V338H15V396H105V716H294Q452 716 533.5 626Q615 536 615 364Q615 186 534 93Q453 0 294 0ZM294 58Q418 58 483 134Q548 210 548 364Q548 515 482 586.5Q416 658 294 658H170V396H294V338H170V58Z" glyph-name="Dcroat" horiz-adv-x="673" unicode="&#272;" /><glyph d="M92 0V257H22V306H92V550H245Q376 550 442 480Q508 410 508 279Q508 145 442.5 72.5Q377 0 245 0ZM247 52Q344 52 394 109.5Q444 167 444 279Q444 390 393 444Q342 498 247 498H154V306H253V257H154V52Z" glyph-name="Dcroat.sc" horiz-adv-x="562" /><glyph d="M25 0 46 55 303 719H349L607 56L628 0ZM540 58 324 616 108 58Z" glyph-name="Delta" horiz-adv-x="653" unicode="&#916;" /><glyph d="M28 44 234 552H282L488 45V0H28ZM425 50 256 467 88 50Z" glyph-name="Delta.sc" horiz-adv-x="517" /><glyph d="M96 716H463V658H161V393H420V335H161V58H463V0H96Z" glyph-name="E" horiz-adv-x="516" unicode="E" /><glyph d="M85 550H389V498H147V306H353V254H147V52H389V0H85Z" glyph-name="E.sc" horiz-adv-x="440" /><glyph d="M872 245 740 616 611 245ZM95 716H462V658H160V393H420V335H160V58H483L718 719H770L1024 0H959L892 188H592L527 0H95Z" glyph-name="E_A" horiz-adv-x="1041" /><glyph d="M713 190 612 466 512 190ZM85 550H389V498H147V306H353V254H147V52H404L588 552H643L845 0H782L731 139H495L445 0H85Z" glyph-name="E_A.sc" horiz-adv-x="865" /><glyph d="M872 245 740 616 611 245ZM95 716H462V658H160V393H420V335H160V58H483L718 719H770L1024 0H959L892 188H592L527 0H95ZM678 824 885 927 910 868 696 782Z" glyph-name="E_Aacute" horiz-adv-x="1041" /><glyph d="M558 636 726 716 748 666 574 600ZM713 190 612 466 512 190ZM85 550H389V498H147V306H353V254H147V52H404L588 552H643L845 0H782L731 139H495L445 0H85Z" glyph-name="E_Aacute.sc" horiz-adv-x="865" /><glyph d="M872 245 740 616 611 245ZM95 716H462V658H160V393H420V335H160V58H483L718 719H770L1024 0H959L892 188H592L527 0H95ZM743 787Q678 787 642 824.5Q606 862 605 922H659Q661 891 680.5 866.5Q700 842 743 842Q786 842 805 866.5Q824 891 826 922H881Q879 862 843.5 824.5Q808 787 743 787Z" glyph-name="E_Abreve" horiz-adv-x="1041" /><glyph d="M615 605Q564 605 533.5 633.5Q503 662 501 710H550Q551 689 565.5 669.5Q580 650 615 650Q649 650 664 669.5Q679 689 680 710H729Q727 662 696.5 633.5Q666 605 615 605ZM713 190 612 466 512 190ZM85 550H389V498H147V306H353V254H147V52H404L588 552H643L845 0H782L731 139H495L445 0H85Z" glyph-name="E_Abreve.sc" horiz-adv-x="865" /><glyph d="M872 245 740 616 611 245ZM95 716H462V658H160V393H420V335H160V58H483L718 719H770L1024 0H959L892 188H592L527 0H95ZM585 816 722 930H763L901 816L877 782L743 874L608 782Z" glyph-name="E_Acircumflex" horiz-adv-x="1041" /><glyph d="M485 628 596 718H634L744 628L723 601L615 671L506 601ZM713 190 612 466 512 190ZM85 550H389V498H147V306H353V254H147V52H404L588 552H643L845 0H782L731 139H495L445 0H85Z" glyph-name="E_Acircumflex.sc" horiz-adv-x="865" /><glyph d="M872 245 740 616 611 245ZM95 716H462V658H160V393H420V335H160V58H483L718 719H770L1024 0H959L892 188H592L527 0H95ZM652 808Q633 808 619.5 821Q606 834 606 856Q606 879 619.5 891.5Q633 904 652 904Q672 904 686 891.5Q700 879 700 857Q700 834 686 821Q672 808 652 808ZM831 808Q812 808 798.5 821Q785 834 785 856Q785 879 798.5 891.5Q812 904 832 904Q852 904 865.5 891.5Q879 879 879 857Q879 834 865 821Q851 808 831 808Z" glyph-name="E_Adieresis" horiz-adv-x="1041" /><glyph d="M541 620Q524 620 512.5 631.5Q501 643 501 660Q501 677 512.5 687.5Q524 698 541 698Q560 698 571 688Q582 678 582 661Q582 643 570.5 631.5Q559 620 541 620ZM687 620Q670 620 658.5 631.5Q647 643 647 660Q647 677 658.5 687.5Q670 698 688 698Q706 698 717 688Q728 678 728 661Q728 643 717 631.5Q706 620 687 620ZM713 190 612 466 512 190ZM85 550H389V498H147V306H353V254H147V52H404L588 552H643L845 0H782L731 139H495L445 0H85Z" glyph-name="E_Adieresis.sc" horiz-adv-x="865" /><glyph d="M872 245 740 616 611 245ZM95 716H462V658H160V393H420V335H160V58H483L718 719H770L1024 0H959L892 188H592L527 0H95ZM572 868 597 927 804 824 786 782Z" glyph-name="E_Agrave" horiz-adv-x="1041" /><glyph d="M478 666 501 716 669 636 652 601ZM713 190 612 466 512 190ZM85 550H389V498H147V306H353V254H147V52H404L588 552H643L845 0H782L731 139H495L445 0H85Z" glyph-name="E_Agrave.sc" horiz-adv-x="865" /><glyph d="M872 245 740 616 611 245ZM95 716H462V658H160V393H420V335H160V58H483L718 719H770L1024 0H959L892 188H592L527 0H95ZM606 884H877V826H606Z" glyph-name="E_Amacron" horiz-adv-x="1041" /><glyph d="M504 683H724V634H504ZM713 190 612 466 512 190ZM85 550H389V498H147V306H353V254H147V52H404L588 552H643L845 0H782L731 139H495L445 0H85Z" glyph-name="E_Amacron.sc" horiz-adv-x="865" /><glyph d="M872 245 740 616 611 245ZM959 0 892 188H592L527 0H95V716H462V658H160V393H420V335H160V58H483L718 719H770L1024 0Q971 -31 947.5 -63.5Q924 -96 924 -124Q924 -149 938 -161.5Q952 -174 978 -174Q992 -174 1004 -170Q1016 -166 1025 -160.5Q1034 -155 1040 -150Q1046 -145 1049 -143V-189Q1047 -191 1040.5 -196.5Q1034 -202 1023 -208.5Q1012 -215 995.5 -220Q979 -225 957 -225Q915 -225 889 -200.5Q863 -176 863 -136Q863 -98 887.5 -60Q912 -22 960 0Z" glyph-name="E_Aogonek" horiz-adv-x="1041" /><glyph d="M782 0 731 139H495L445 0H85V550H389V498H147V306H353V254H147V52H404L588 552H643L845 0Q803 -23 784 -47.5Q765 -72 765 -93Q765 -132 808 -132Q830 -132 845 -122Q860 -112 865 -109V-146Q860 -149 841.5 -161.5Q823 -174 789 -174Q754 -174 732 -154.5Q710 -135 710 -104Q710 -74 730.5 -45Q751 -16 789 0ZM713 190 612 466 512 190Z" glyph-name="E_Aogonek.sc" horiz-adv-x="865" /><glyph d="M872 245 740 616 611 245ZM95 716H462V658H160V393H420V335H160V58H483L718 719H770L1024 0H959L892 188H592L527 0H95ZM743 770Q694 770 664 794.5Q634 819 634 861Q634 899 663.5 925.5Q693 952 743 952Q792 952 822.5 925.5Q853 899 853 861Q853 819 823.5 794.5Q794 770 743 770ZM743 810Q770 810 787 824Q804 838 804 862Q804 884 786.5 898Q769 912 743 912Q716 912 699.5 898Q683 884 683 862Q683 838 699.5 824Q716 810 743 810Z" glyph-name="E_Aring" horiz-adv-x="1041" /><glyph d="M615 592Q575 592 550.5 611.5Q526 631 526 663Q526 693 550 713.5Q574 734 615 734Q655 734 680.5 714Q706 694 706 663Q706 631 681.5 611.5Q657 592 615 592ZM615 625Q636 625 649.5 635.5Q663 646 663 664Q663 681 649.5 691Q636 701 615 701Q593 701 580 691Q567 681 567 664Q567 646 580.5 635.5Q594 625 615 625ZM713 190 612 466 512 190ZM85 550H389V498H147V306H353V254H147V52H404L588 552H643L845 0H782L731 139H495L445 0H85Z" glyph-name="E_Aring.sc" horiz-adv-x="865" /><glyph d="M872 245 740 616 611 245ZM95 716H462V658H160V393H420V335H160V58H483L718 719H770L1024 0H959L892 188H592L527 0H95ZM595 805Q597 836 607 861Q616 883 633.5 899.5Q651 916 682 916Q708 916 724.5 904Q741 892 755 880Q770 867 782.5 856Q795 845 812 845Q825 845 832.5 853.5Q840 862 844 873Q849 885 850 901H896Q894 871 884 848Q875 826 858 810Q841 794 810 794Q786 794 769 806Q752 818 738 830Q724 842 711.5 853.5Q699 865 682 865Q667 865 659 855.5Q651 846 647 835Q642 822 641 805Z" glyph-name="E_Atilde" horiz-adv-x="1041" /><glyph d="M492 619Q492 621 494 635Q496 649 503.5 665Q511 681 525.5 694Q540 707 565 707Q586 707 599.5 698Q613 689 625 680Q638 670 647.5 662Q657 654 671 654Q682 654 688 660.5Q694 667 697 675Q701 684 702 695H742Q742 693 740 679.5Q738 666 731 650.5Q724 635 710 622.5Q696 610 671 610Q651 610 637.5 618.5Q624 627 612 637Q600 646 589.5 654.5Q579 663 566 663Q554 663 547 656Q540 649 537 641Q533 631 532 619ZM713 190 612 466 512 190ZM85 550H389V498H147V306H353V254H147V52H404L588 552H643L845 0H782L731 139H495L445 0H85Z" glyph-name="E_Atilde.sc" horiz-adv-x="865" /><glyph d="M528 58V658H160V393H417V335H160V58ZM95 716H895V658H593V393H853V335H593V58H895V0H95Z" glyph-name="E_E" horiz-adv-x="948" /><glyph d="M85 550H743V498H500V306H707V254H500V52H743V0H85ZM438 52V498H147V306H351V254H147V52Z" glyph-name="E_E.sc" horiz-adv-x="795" /><glyph d="M624 824 831 927 856 868 642 782ZM528 58V658H160V393H417V335H160V58ZM95 716H895V658H593V393H853V335H593V58H895V0H95Z" glyph-name="E_Eacute" horiz-adv-x="948" /><glyph d="M520 636 688 716 710 666 536 601ZM85 550H743V498H500V306H707V254H500V52H743V0H85ZM438 52V498H147V306H351V254H147V52Z" glyph-name="E_Eacute.sc" horiz-adv-x="795" /><glyph d="M549 816 686 930H728L865 816L842 782L707 874L572 782ZM528 58V658H160V393H417V335H160V58ZM95 716H895V658H593V393H853V335H593V58H895V0H95Z" glyph-name="E_Ecircumflex" horiz-adv-x="948" /><glyph d="M459 628 569 718H606L718 628L696 601L588 671L479 601ZM85 550H743V498H500V306H707V254H500V52H743V0H85ZM438 52V498H147V306H351V254H147V52Z" glyph-name="E_Ecircumflex.sc" horiz-adv-x="795" /><glyph d="M627 808Q608 808 594.5 821Q581 834 581 856Q581 879 594.5 891.5Q608 904 627 904Q647 904 661 891.5Q675 879 675 857Q675 834 661 821Q647 808 627 808ZM806 808Q787 808 773.5 821Q760 834 760 856Q760 879 773.5 891.5Q787 904 807 904Q827 904 840.5 891.5Q854 879 854 857Q854 834 840 821Q826 808 806 808ZM528 58V658H160V393H417V335H160V58ZM95 716H895V658H593V393H853V335H593V58H895V0H95Z" glyph-name="E_Edieresis" horiz-adv-x="948" /><glyph d="M522 620Q505 620 493.5 631.5Q482 643 482 660Q482 677 493.5 687.5Q505 698 522 698Q540 698 551.5 688Q563 678 563 661Q563 643 551.5 631.5Q540 620 522 620ZM668 620Q650 620 639 631.5Q628 643 628 660Q628 677 639 687.5Q650 698 668 698Q687 698 698 688Q709 678 709 661Q709 643 697.5 631.5Q686 620 668 620ZM85 550H743V498H500V306H707V254H500V52H743V0H85ZM438 52V498H147V306H351V254H147V52Z" glyph-name="E_Edieresis.sc" horiz-adv-x="795" /><glyph d="M579 884H851V826H579ZM528 58V658H160V393H417V335H160V58ZM95 716H895V658H593V393H853V335H593V58H895V0H95Z" glyph-name="E_Emacron" horiz-adv-x="948" /><glyph d="M484 683H703V634H484ZM85 550H743V498H500V306H707V254H500V52H743V0H85ZM438 52V498H147V306H351V254H147V52Z" glyph-name="E_Emacron.sc" horiz-adv-x="795" /><glyph d="M528 58V658H160V393H417V335H160V58ZM95 716H895V658H593V393H853V335H593V58H895V0Q841 -31 818 -63.5Q795 -96 795 -124Q795 -174 849 -174Q863 -174 874.5 -170Q886 -166 895.5 -160.5Q905 -155 911 -150Q917 -145 920 -143V-189Q918 -191 911.5 -196.5Q905 -202 893.5 -208.5Q882 -215 865.5 -220Q849 -225 827 -225Q786 -225 760 -200.5Q734 -176 734 -136Q734 -98 758.5 -60Q783 -22 830 0H95Z" glyph-name="E_Eogonek" horiz-adv-x="948" /><glyph d="M85 0V550H743V498H500V306H707V254H500V52H743V0Q701 -23 682 -47.5Q663 -72 663 -93Q663 -132 706 -132Q727 -132 742 -122Q757 -112 762 -109V-146Q758 -149 739.5 -161.5Q721 -174 687 -174Q652 -174 630 -154.5Q608 -135 608 -104Q608 -74 628.5 -45Q649 -16 686 0ZM438 52V498H147V306H351V254H147V52Z" glyph-name="E_Eogonek.sc" horiz-adv-x="795" /><glyph d="M96 716H463V658H161V393H420V335H161V58H463V0H96ZM192 824 399 927 424 868 210 782Z" glyph-name="Eacute" horiz-adv-x="516" unicode="&#201;" /><glyph d="M166 636 333 716 356 666 182 601ZM85 550H389V498H147V306H353V254H147V52H389V0H85Z" glyph-name="Eacute.sc" horiz-adv-x="440" /><glyph d="M872 245 740 616 611 245ZM95 716H462V658H160V393H420V335H160V58H483L718 719H770L1024 0H959L892 188H592L527 0H95ZM191 824 398 927 423 868 209 782Z" glyph-name="Eacute_A" horiz-adv-x="1041" /><glyph d="M166 636 333 716 356 666 182 601ZM713 190 612 466 512 190ZM85 550H389V498H147V306H353V254H147V52H404L588 552H643L845 0H782L731 139H495L445 0H85Z" glyph-name="Eacute_A.sc" horiz-adv-x="865" /><glyph d="M872 245 740 616 611 245ZM95 716H462V658H160V393H420V335H160V58H483L718 719H770L1024 0H959L892 188H592L527 0H95ZM678 824 885 927 910 868 696 782ZM191 824 398 927 423 868 209 782Z" glyph-name="Eacute_Aacute" horiz-adv-x="1041" /><glyph d="M558 636 726 716 748 666 574 600ZM166 636 333 716 356 666 182 601ZM713 190 612 466 512 190ZM85 550H389V498H147V306H353V254H147V52H404L588 552H643L845 0H782L731 139H495L445 0H85Z" glyph-name="Eacute_Aacute.sc" horiz-adv-x="865" /><glyph d="M872 245 740 616 611 245ZM95 716H462V658H160V393H420V335H160V58H483L718 719H770L1024 0H959L892 188H592L527 0H95ZM585 816 722 930H763L901 816L877 782L743 874L608 782ZM191 824 398 927 423 868 209 782Z" glyph-name="Eacute_Acircumflex" horiz-adv-x="1041" /><glyph d="M485 628 596 718H634L744 628L723 601L615 671L506 601ZM166 636 333 716 356 666 182 601ZM713 190 612 466 512 190ZM85 550H389V498H147V306H353V254H147V52H404L588 552H643L845 0H782L731 139H495L445 0H85Z" glyph-name="Eacute_Acircumflex.sc" horiz-adv-x="865" /><glyph d="M872 245 740 616 611 245ZM95 716H462V658H160V393H420V335H160V58H483L718 719H770L1024 0H959L892 188H592L527 0H95ZM743 770Q694 770 664 794.5Q634 819 634 861Q634 899 663.5 925.5Q693 952 743 952Q792 952 822.5 925.5Q853 899 853 861Q853 819 823.5 794.5Q794 770 743 770ZM743 810Q770 810 787 824Q804 838 804 862Q804 884 786.5 898Q769 912 743 912Q716 912 699.5 898Q683 884 683 862Q683 838 699.5 824Q716 810 743 810ZM191 824 398 927 423 868 209 782Z" glyph-name="Eacute_Aring" horiz-adv-x="1041" /><glyph d="M615 592Q575 592 550.5 611.5Q526 631 526 663Q526 693 550 713.5Q574 734 615 734Q655 734 680.5 714Q706 694 706 663Q706 631 681.5 611.5Q657 592 615 592ZM615 625Q636 625 649.5 635.5Q663 646 663 664Q663 681 649.5 691Q636 701 615 701Q593 701 580 691Q567 681 567 664Q567 646 580.5 635.5Q594 625 615 625ZM166 636 333 716 356 666 182 601ZM713 190 612 466 512 190ZM85 550H389V498H147V306H353V254H147V52H404L588 552H643L845 0H782L731 139H495L445 0H85Z" glyph-name="Eacute_Aring.sc" horiz-adv-x="865" /><glyph d="M191 824 398 927 424 868 209 782ZM528 58V658H160V393H417V335H160V58ZM95 716H895V658H593V393H853V335H593V58H895V0H95Z" glyph-name="Eacute_E" horiz-adv-x="948" /><glyph d="M166 636 333 716 356 666 182 601ZM85 550H743V498H500V306H707V254H500V52H743V0H85ZM438 52V498H147V306H351V254H147V52Z" glyph-name="Eacute_E.sc" horiz-adv-x="795" /><glyph d="M191 824 398 927 424 868 209 782ZM624 824 831 927 856 868 642 782ZM528 58V658H160V393H417V335H160V58ZM95 716H895V658H593V393H853V335H593V58H895V0H95Z" glyph-name="Eacute_Eacute" horiz-adv-x="948" /><glyph d="M520 636 688 716 710 666 536 601ZM166 636 333 716 356 666 182 601ZM85 550H743V498H500V306H707V254H500V52H743V0H85ZM438 52V498H147V306H351V254H147V52Z" glyph-name="Eacute_Eacute.sc" horiz-adv-x="795" /><glyph d="M191 824 398 927 424 868 209 782ZM567 868 593 927 800 824 782 782ZM528 58V658H160V393H417V335H160V58ZM95 716H895V658H593V393H853V335H593V58H895V0H95Z" glyph-name="Eacute_Egrave" horiz-adv-x="948" /><glyph d="M474 666 497 716 665 636 649 601ZM166 636 333 716 356 666 182 601ZM85 550H743V498H500V306H707V254H500V52H743V0H85ZM438 52V498H147V306H351V254H147V52Z" glyph-name="Eacute_Egrave.sc" horiz-adv-x="795" /><glyph d="M96 716H463V658H161V393H420V335H161V58H463V0H96ZM282 787Q217 787 181 824.5Q145 862 144 922H198Q200 891 219.5 866.5Q239 842 282 842Q325 842 344 866.5Q363 891 365 922H420Q418 862 382.5 824.5Q347 787 282 787Z" glyph-name="Ebreve" horiz-adv-x="516" unicode="&#276;" /><glyph d="M238 605Q187 605 157 633.5Q127 662 125 710H173Q174 689 189 669.5Q204 650 238 650Q273 650 287.5 669.5Q302 689 304 710H352Q350 662 320 633.5Q290 605 238 605ZM85 550H389V498H147V306H353V254H147V52H389V0H85Z" glyph-name="Ebreve.sc" horiz-adv-x="440" /><glyph d="M96 716H463V658H161V393H420V335H161V58H463V0H96ZM122 896 145 930 283 838 420 930 444 896 303 782H261Z" glyph-name="Ecaron" horiz-adv-x="516" unicode="&#282;" /><glyph d="M108 689 129 718 240 647 350 718 372 689 258 601H221ZM85 550H389V498H147V306H353V254H147V52H389V0H85Z" glyph-name="Ecaron.sc" horiz-adv-x="440" /><glyph d="M96 716H463V658H161V393H420V335H161V58H463V0H96ZM117 816 254 930H295L433 816L409 782L275 874L140 782Z" glyph-name="Ecircumflex" horiz-adv-x="516" unicode="&#202;" /><glyph d="M105 628 215 718H253L364 628L342 601L234 671L126 601ZM85 550H389V498H147V306H353V254H147V52H389V0H85Z" glyph-name="Ecircumflex.sc" horiz-adv-x="440" /><glyph d="M116 816 253 930H295L433 816L409 782L274 874L139 782ZM528 58V658H160V393H417V335H160V58ZM95 716H895V658H593V393H853V335H593V58H895V0H95Z" glyph-name="Ecircumflex_E" horiz-adv-x="948" /><glyph d="M105 628 215 718H253L364 628L342 601L234 671L126 601ZM85 550H743V498H500V306H707V254H500V52H743V0H85ZM438 52V498H147V306H351V254H147V52Z" glyph-name="Ecircumflex_E.sc" horiz-adv-x="795" /><glyph d="M195 808Q176 808 162.5 821Q149 834 149 856Q149 879 162.5 891.5Q176 904 195 904Q215 904 229 891.5Q243 879 243 857Q243 834 229 821Q215 808 195 808ZM374 808Q355 808 341.5 821Q328 834 328 856Q328 879 341.5 891.5Q355 904 375 904Q395 904 408.5 891.5Q422 879 422 857Q422 834 408 821Q394 808 374 808ZM96 716H463V658H161V393H420V335H161V58H463V0H96Z" glyph-name="Edieresis" horiz-adv-x="516" unicode="&#203;" /><glyph d="M168 620Q151 620 139.5 631.5Q128 643 128 660Q128 677 139.5 687.5Q151 698 168 698Q187 698 198 688Q209 678 209 661Q209 643 197.5 631.5Q186 620 168 620ZM314 620Q296 620 285 631.5Q274 643 274 660Q274 677 285 687.5Q296 698 314 698Q332 698 343.5 688Q355 678 355 661Q355 643 343.5 631.5Q332 620 314 620ZM85 550H389V498H147V306H353V254H147V52H389V0H85Z" glyph-name="Edieresis.sc" horiz-adv-x="440" /><glyph d="M872 245 740 616 611 245ZM95 716H462V658H160V393H420V335H160V58H483L718 719H770L1024 0H959L892 188H592L527 0H95ZM194 808Q175 808 161.5 821Q148 834 148 856Q148 879 161.5 891.5Q175 904 194 904Q214 904 228 891.5Q242 879 242 857Q242 834 228 821Q214 808 194 808ZM373 808Q354 808 340.5 821Q327 834 327 856Q327 879 340.5 891.5Q354 904 374 904Q394 904 407.5 891.5Q421 879 421 857Q421 834 407 821Q393 808 373 808Z" glyph-name="Edieresis_A" horiz-adv-x="1041" /><glyph d="M168 620Q151 620 139.5 631.5Q128 643 128 660Q128 677 139.5 687.5Q151 698 168 698Q187 698 198 688Q209 678 209 661Q209 643 197.5 631.5Q186 620 168 620ZM314 620Q296 620 285 631.5Q274 643 274 660Q274 677 285 687.5Q296 698 314 698Q332 698 343.5 688Q355 678 355 661Q355 643 343.5 631.5Q332 620 314 620ZM713 190 612 466 512 190ZM85 550H389V498H147V306H353V254H147V52H404L588 552H643L845 0H782L731 139H495L445 0H85Z" glyph-name="Edieresis_A.sc" horiz-adv-x="865" /><glyph d="M194 808Q175 808 161.5 821Q148 834 148 856Q148 879 161.5 891.5Q175 904 195 904Q215 904 228.5 891.5Q242 879 242 857Q242 834 228 821Q214 808 194 808ZM373 808Q354 808 340.5 821Q327 834 327 856Q327 879 340.5 891.5Q354 904 374 904Q394 904 407.5 891.5Q421 879 421 857Q421 834 407 821Q393 808 373 808ZM528 58V658H160V393H417V335H160V58ZM95 716H895V658H593V393H853V335H593V58H895V0H95Z" glyph-name="Edieresis_E" horiz-adv-x="948" /><glyph d="M168 620Q151 620 139.5 631.5Q128 643 128 660Q128 677 139.5 687.5Q151 698 168 698Q187 698 198 688Q209 678 209 661Q209 643 197.5 631.5Q186 620 168 620ZM314 620Q296 620 285 631.5Q274 643 274 660Q274 677 285 687.5Q296 698 314 698Q332 698 343.5 688Q355 678 355 661Q355 643 343.5 631.5Q332 620 314 620ZM85 550H743V498H500V306H707V254H500V52H743V0H85ZM438 52V498H147V306H351V254H147V52Z" glyph-name="Edieresis_E.sc" horiz-adv-x="795" /><glyph d="M96 716H463V658H161V393H420V335H161V58H463V0H96ZM286 808Q266 808 252.5 821.5Q239 835 239 858Q239 881 253 894Q267 907 287 907Q308 907 322 894Q336 881 336 858Q336 835 322 821.5Q308 808 286 808Z" glyph-name="Edotaccent" horiz-adv-x="516" unicode="&#278;" /><glyph d="M242 620Q223 620 211.5 631.5Q200 643 200 661Q200 678 211.5 689.5Q223 701 242 701Q262 701 273 689.5Q284 678 284 661Q284 643 273 631.5Q262 620 242 620ZM85 550H389V498H147V306H353V254H147V52H389V0H85Z" glyph-name="Edotaccent.sc" horiz-adv-x="440" /><glyph d="M285 808Q265 808 251.5 821.5Q238 835 238 858Q238 881 252 894Q266 907 286 907Q307 907 321 894Q335 881 335 858Q335 835 321 821.5Q307 808 285 808ZM528 58V658H160V393H417V335H160V58ZM95 716H895V658H593V393H853V335H593V58H895V0H95Z" glyph-name="Edotaccent_E" horiz-adv-x="948" /><glyph d="M242 620Q223 620 211.5 631.5Q200 643 200 661Q200 678 211.5 689.5Q223 701 242 701Q262 701 273 689.5Q284 678 284 661Q284 643 273 631.5Q262 620 242 620ZM85 550H743V498H500V306H707V254H500V52H743V0H85ZM438 52V498H147V306H351V254H147V52Z" glyph-name="Edotaccent_E.sc" horiz-adv-x="795" /><glyph d="M96 716H463V658H161V393H420V335H161V58H463V0H96ZM137 868 162 927 369 824 351 782Z" glyph-name="Egrave" horiz-adv-x="516" unicode="&#200;" /><glyph d="M122 666 144 716 312 636 296 601ZM85 550H389V498H147V306H353V254H147V52H389V0H85Z" glyph-name="Egrave.sc" horiz-adv-x="440" /><glyph d="M872 245 740 616 611 245ZM95 716H462V658H160V393H420V335H160V58H483L718 719H770L1024 0H959L892 188H592L527 0H95ZM137 868 162 927 369 824 351 782Z" glyph-name="Egrave_A" horiz-adv-x="1041" /><glyph d="M119 666 142 716 311 636 294 601ZM713 190 612 466 512 190ZM85 550H389V498H147V306H353V254H147V52H404L588 552H643L845 0H782L731 139H495L445 0H85Z" glyph-name="Egrave_A.sc" horiz-adv-x="865" /><glyph d="M136 868 162 927 369 824 351 782ZM528 58V658H160V393H417V335H160V58ZM95 716H895V658H593V393H853V335H593V58H895V0H95Z" glyph-name="Egrave_E" horiz-adv-x="948" /><glyph d="M120 666 143 716 311 636 295 601ZM85 550H743V498H500V306H707V254H500V52H743V0H85ZM438 52V498H147V306H351V254H147V52Z" glyph-name="Egrave_E.sc" horiz-adv-x="795" /><glyph d="M96 716H463V658H161V393H420V335H161V58H463V0H96ZM147 884H418V826H147Z" glyph-name="Emacron" horiz-adv-x="516" unicode="&#274;" /><glyph d="M130 683H349V634H130ZM85 550H389V498H147V306H353V254H147V52H389V0H85Z" glyph-name="Emacron.sc" horiz-adv-x="440" /><glyph d="M96 716H156L532 116V716H592V-76Q592 -154 558 -193.5Q524 -233 458 -233Q440 -233 425 -230.5Q410 -228 399 -225Q386 -221 375 -216V-160Q386 -165 398 -169Q410 -172 423.5 -174.5Q437 -177 453 -177Q495 -177 513.5 -153Q532 -129 532 -74V1L156 602V0H96Z" glyph-name="Eng" horiz-adv-x="688" unicode="&#330;" /><glyph d="M85 550H142L436 103V550H493V-50Q493 -178 378 -178Q364 -178 352 -176Q340 -174 331 -172Q320 -169 312 -165V-114Q320 -118 330 -121Q338 -123 349 -125Q360 -127 372 -127Q404 -127 419.5 -109.5Q435 -92 435 -52V1L142 447V0H85Z" glyph-name="Eng.sc" horiz-adv-x="578" /><glyph d="M96 0V716H463V658H161V393H420V335H161V58H463V0Q409 -31 386 -63.5Q363 -96 363 -124Q363 -174 417 -174Q431 -174 442.5 -170Q454 -166 463.5 -160.5Q473 -155 479 -150Q485 -145 488 -143V-189Q486 -191 479.5 -196.5Q473 -202 461.5 -208.5Q450 -215 433.5 -220Q417 -225 395 -225Q354 -225 327.5 -200.5Q301 -176 301 -136Q301 -98 326 -60Q351 -22 398 0Z" glyph-name="Eogonek" horiz-adv-x="516" unicode="&#280;" /><glyph d="M85 0V550H389V498H147V306H353V254H147V52H389V0Q347 -23 328 -47.5Q309 -72 309 -93Q309 -132 352 -132Q373 -132 388.5 -122Q404 -112 409 -109V-146Q404 -149 385.5 -161.5Q367 -174 333 -174Q298 -174 276 -154.5Q254 -135 254 -104Q254 -74 274.5 -45Q295 -16 333 0Z" glyph-name="Eogonek.sc" horiz-adv-x="440" /><glyph d="M105 0V338H15V396H105V716H294Q452 716 533.5 626Q615 536 615 364Q615 186 534 93Q453 0 294 0ZM294 58Q418 58 483 134Q548 210 548 364Q548 515 482 586.5Q416 658 294 658H170V396H294V338H170V58Z" glyph-name="Eth" horiz-adv-x="673" unicode="&#208;" /><glyph d="M92 0V257H22V306H92V550H245Q376 550 442 480Q508 410 508 279Q508 145 442.5 72.5Q377 0 245 0ZM247 52Q344 52 394 109.5Q444 167 444 279Q444 390 393 444Q342 498 247 498H154V306H253V257H154V52Z" glyph-name="Eth.sc" horiz-adv-x="562" /><glyph d="M51 400V453H140Q161 584 236 654.5Q311 725 432 725Q469 725 497.5 721Q526 717 545 712Q568 706 584 698V641Q565 649 542 656Q520 661 493 665.5Q466 670 432 670Q341 670 282.5 613.5Q224 557 207 453H485L464 400ZM584 24Q568 15 545 8Q525 1 497 -4Q469 -9 431 -9Q307 -9 229.5 61.5Q152 132 135 267H51V320H435L413 267H204Q219 156 278.5 101.5Q338 47 432 47Q469 47 497 52.5Q525 58 545 64Q567 71 584 81Z" glyph-name="Euro" horiz-adv-x="644" unicode="&#8364;" /><glyph d="M57 278V331H141Q157 413 219.5 460.5Q282 508 375 508Q410 508 435.5 503.5Q461 499 477 494Q496 488 508 480V424Q493 432 474 438Q456 444 432.5 448Q409 452 378 452Q310 452 266.5 418.5Q223 385 210 331H446L424 278ZM510 24Q496 15 475 8Q456 1 429 -4Q402 -9 363 -9Q278 -9 216.5 34Q155 77 138 158H57V211H395L373 158H208Q224 103 269 75Q314 47 372 47Q405 47 430.5 52.5Q456 58 474 64Q494 71 510 81Z" glyph-name="Euro.old" horiz-adv-x="571" /><glyph d="M68 278V331H152Q168 413 230.5 460.5Q293 508 386 508Q421 508 446.5 503.5Q472 499 488 494Q507 488 519 480V424Q504 432 485 438Q467 444 443.5 448Q420 452 389 452Q321 452 277.5 418.5Q234 385 221 331H457L435 278ZM521 24Q507 15 486 8Q467 1 440 -4Q413 -9 374 -9Q289 -9 227.5 34Q166 77 149 158H68V211H406L384 158H219Q235 103 280 75Q325 47 383 47Q416 47 441.5 52.5Q467 58 485 64Q505 71 521 81Z" glyph-name="Euro.oldtab" horiz-adv-x="592" /><glyph d="M48 306V351H119Q137 449 198.5 503.5Q260 558 357 558Q387 558 410 554.5Q433 551 449 547Q467 542 481 536L477 486Q463 492 445 497Q428 501 406.5 504Q385 507 358 507Q288 507 243 466.5Q198 426 184 351H404L386 306ZM481 18Q468 11 450 6Q433 0 410.5 -3.5Q388 -7 358 -7Q258 -7 194 46.5Q130 100 116 203H48V248H364L346 203H181Q194 123 240.5 83Q287 43 360 43Q389 43 411 47Q433 51 449 56Q467 62 481 69Z" glyph-name="Euro.sc" horiz-adv-x="536" /><glyph d="M25 400V453H114Q135 584 210 654.5Q285 725 406 725Q443 725 471.5 721Q500 717 519 712Q542 706 558 698V641Q539 649 516 656Q494 661 467 665.5Q440 670 406 670Q315 670 256.5 613.5Q198 557 181 453H459L438 400ZM558 24Q542 15 519 8Q499 1 471 -4Q443 -9 405 -9Q281 -9 203.5 61.5Q126 132 109 267H25V320H409L387 267H178Q193 156 252.5 101.5Q312 47 406 47Q443 47 471 52.5Q499 58 519 64Q541 71 558 81Z" glyph-name="Euro.tab" horiz-adv-x="592" /><glyph d="M96 716H459V658H161V391H417V333H161V0H96Z" glyph-name="F" horiz-adv-x="489" unicode="F" /><glyph d="M85 550H385V498H147V302H351V250H147V0H85Z" glyph-name="F.sc" horiz-adv-x="417" /><glyph d="M95 0V716H601V58H905V0H536V658H160V391H416V333H160V0Z" glyph-name="F_L" horiz-adv-x="917" /><glyph d="M85 0V550H504V52H746V0H442V498H147V302H349V250H147V0Z" glyph-name="F_L.sc" horiz-adv-x="764" /><glyph d="M826 546 860 629Q840 632 828.5 644.5Q817 657 817 677Q817 696 829.5 711Q842 726 865 726Q888 726 900 711Q912 696 912 674Q912 646 897.5 610.5Q883 575 861 531ZM95 0V716H601V58H905V0H536V658H160V391H416V333H160V0Z" glyph-name="F_Lcaron" horiz-adv-x="954" /><glyph d="M681 416 709 481Q692 483 681.5 493Q671 503 671 520Q671 536 682.5 548Q694 560 714 560Q734 560 744.5 548Q755 536 755 517Q755 495 742.5 466.5Q730 438 712 403ZM85 0V550H504V52H746V0H442V498H147V302H349V250H147V0Z" glyph-name="F_Lcaron.sc" horiz-adv-x="796" /><glyph d="M382 -9Q293 -9 231 19Q169 47 130.5 96Q92 145 75 212.5Q58 280 58 358Q58 436 76 503Q94 570 132 619.5Q170 669 230.5 697Q291 725 375 725Q418 725 450 720Q482 715 503 709Q528 701 545 692V637Q525 646 499 654Q476 660 445.5 665Q415 670 377 670Q307 670 259 646.5Q211 623 181 581.5Q151 540 138 483Q125 426 125 359Q125 291 139 234Q153 177 184 135.5Q215 94 264 70.5Q313 47 382 47Q420 47 449.5 54.5Q479 62 494 65V333H310V390H555V24Q533 15 506 8Q481 1 450.5 -4Q420 -9 382 -9Z" glyph-name="G" horiz-adv-x="624" unicode="G" /><glyph d="M321 -8Q248 -8 197 13.5Q146 35 114.5 72.5Q83 110 68.5 161.5Q54 213 54 274Q54 334 69 386Q84 438 116 476Q148 514 197 535.5Q246 557 315 557Q350 557 376 553Q402 549 419 545Q440 539 454 532V483Q438 490 417 495Q398 500 374 503.5Q350 507 319 507Q264 507 225.5 489.5Q187 472 163 441Q139 410 128.5 367.5Q118 325 118 275Q118 224 129 181.5Q140 139 164.5 108.5Q189 78 227.5 60.5Q266 43 320 43Q349 43 371.5 49Q394 55 405 57V251H263V302H462V17Q444 10 422 5Q402 -1 377 -4.5Q352 -8 321 -8Z" glyph-name="G.sc" horiz-adv-x="525" /><glyph d="M382 -9Q293 -9 231 19Q169 47 130.5 96Q92 145 75 212.5Q58 280 58 358Q58 436 76 503Q94 570 132 619.5Q170 669 230.5 697Q291 725 375 725Q418 725 450 720Q482 715 503 709Q528 701 545 692V637Q525 646 499 654Q476 660 445.5 665Q415 670 377 670Q307 670 259 646.5Q211 623 181 581.5Q151 540 138 483Q125 426 125 359Q125 291 139 234Q153 177 184 135.5Q215 94 264 70.5Q313 47 382 47Q420 47 449.5 54.5Q479 62 494 65V336H310V394H880V716H945V0H880V336H555V24Q533 15 506 8Q481 1 450.5 -4Q420 -9 382 -9Z" glyph-name="G_H" horiz-adv-x="1040" /><glyph d="M321 -8Q248 -8 197 13.5Q146 35 114.5 72.5Q83 110 68.5 161.5Q54 213 54 274Q54 334 69 386Q84 438 115.5 476Q147 514 196.5 535.5Q246 557 315 557Q350 557 376 553Q402 549 419 545Q440 539 454 532V483Q438 490 417 495Q398 500 374 503.5Q350 507 319 507Q264 507 225.5 489.5Q187 472 163 441Q139 410 128.5 367.5Q118 325 118 275Q118 224 129 181.5Q140 139 164.5 108.5Q189 78 227.5 60.5Q266 43 320 43Q349 43 371.5 49Q394 55 405 57V253H263V304H716V550H778V0H716V252H462V17Q444 10 422 5Q402 -1 377 -4.5Q352 -8 321 -8Z" glyph-name="G_H.sc" horiz-adv-x="863" /><glyph d="M382 -9Q293 -9 231 19Q169 47 130.5 96Q92 145 75 212.5Q58 280 58 358Q58 436 76 503Q94 570 132 619.5Q170 669 230.5 697Q291 725 375 725Q418 725 450 720Q482 715 503 709Q528 701 545 692V637Q525 646 499 654Q476 660 445.5 665Q415 670 377 670Q307 670 259 646.5Q211 623 181 581.5Q151 540 138 483Q125 426 125 359Q125 291 139 234Q153 177 184 135.5Q215 94 264 70.5Q313 47 382 47Q420 47 449.5 54.5Q479 62 494 65V337H310V393H623L860 716H930L676 370L940 0H863L623 337H555V24Q533 15 506 8Q481 1 450.5 -4Q420 -9 382 -9Z" glyph-name="G_K" horiz-adv-x="954" /><glyph d="M321 -8Q248 -8 197 13.5Q146 35 114.5 72.5Q83 110 68.5 161.5Q54 213 54 274Q54 334 69 386Q84 438 115.5 476Q147 514 196.5 535.5Q246 557 315 557Q350 557 376 553Q402 549 419 545Q440 539 454 532V483Q438 490 417 495Q398 500 374 503.5Q350 507 319 507Q264 507 225.5 489.5Q187 472 163 441Q139 410 128.5 367.5Q118 325 118 275Q118 224 129 181.5Q140 139 164.5 108.5Q189 78 227.5 60.5Q266 43 320 43Q349 43 371.5 49Q394 55 405 57V253H263V304H514L700 550H766L564 283L774 0H702L514 253H462V17Q444 10 422 5Q402 -1 377 -4.5Q352 -8 321 -8Z" glyph-name="G_K.sc" horiz-adv-x="793" /><glyph d="M918 -7Q878 -7 846 6Q814 19 779 45L767 0H718V716H598Q545 716 545 663V637Q545 637 533 642.5Q521 648 499 654Q477 660 446 665Q415 670 377 670Q307 670 259 646.5Q211 623 181 581.5Q151 540 138 483Q125 426 125 359Q125 291 139 234Q153 177 184 135.5Q215 94 264 70.5Q313 47 382 47Q420 47 449.5 54.5Q479 62 494 65V333H310V390H555V24Q533 15 506 8Q481 1 450.5 -4Q420 -9 382 -9Q293 -9 231 19Q169 47 130.5 96Q92 145 75 212.5Q58 280 58 358Q58 436 76 503Q94 570 132 619.5Q170 669 230.5 697Q291 725 375 725Q417 725 447 719.5Q477 714 496 708Q510 766 578 766H782V442Q797 460 819 475Q839 488 866.5 498Q894 508 932 508Q984 508 1022 489.5Q1060 471 1085.5 438Q1111 405 1123.5 360Q1136 315 1136 262Q1136 197 1120 146.5Q1104 96 1075.5 62Q1047 28 1006.5 10.5Q966 -7 918 -7ZM782 86Q798 75 817 67Q835 59 857 53Q879 47 906 47Q984 47 1026.5 102.5Q1069 158 1069 261Q1069 347 1032 400.5Q995 454 916 454Q882 454 857.5 443.5Q833 433 816 421Q796 406 782 387Z" glyph-name="G_b" horiz-adv-x="1189" /><glyph d="M555 24Q533 15 506 8Q481 1 450.5 -4Q420 -9 382 -9Q293 -9 231 19Q169 47 130.5 96Q92 145 75 212.5Q58 280 58 358Q58 436 76 503Q94 570 132 619.5Q170 669 230.5 697Q291 725 375 725Q417 725 447 719.5Q477 714 496 708Q510 766 578 766H782V432Q801 453 826 470Q849 486 880 497Q911 508 952 508Q998 508 1030 493.5Q1062 479 1082.5 452.5Q1103 426 1112 388.5Q1121 351 1121 305V0H1057V299Q1057 379 1026 416.5Q995 454 928 454Q894 454 867 443.5Q840 433 821 420Q799 405 782 386V0H718V716H598Q545 716 545 663V637Q545 637 533 642.5Q521 648 499 654Q477 660 446 665Q415 670 377 670Q307 670 259 646.5Q211 623 181 581.5Q151 540 138 483Q125 426 125 359Q125 291 139 234Q153 177 184 135.5Q215 94 264 70.5Q313 47 382 47Q420 47 449.5 54.5Q479 62 494 65V333H310V390H555Z" glyph-name="G_h" horiz-adv-x="1198" /><glyph d="M555 24Q533 15 506 8Q481 1 450.5 -4Q420 -9 382 -9Q293 -9 231 19Q169 47 130.5 96Q92 145 75 212.5Q58 280 58 358Q58 436 76 503Q94 570 132 619.5Q170 669 230.5 697Q291 725 375 725Q417 725 447 719.5Q477 714 496 708Q510 766 576 766H782V282H839L1017 500H1088L893 265L1099 0H1018L839 232H782V0H718V716H598Q545 716 545 663V637Q545 637 533 642.5Q521 648 499 654Q477 660 446 665Q415 670 377 670Q307 670 259 646.5Q211 623 181 581.5Q151 540 138 483Q125 426 125 359Q125 291 139 234Q153 177 184 135.5Q215 94 264 70.5Q313 47 382 47Q420 47 449.5 54.5Q479 62 494 65V333H310V390H555Z" glyph-name="G_k" horiz-adv-x="1108" /><glyph d="M799 -7Q717 -7 717 97V716H598Q545 716 545 663V637Q545 637 533 642.5Q521 648 499 654Q477 660 446 665Q415 670 377 670Q307 670 259 646.5Q211 623 181 581.5Q151 540 138 483Q125 426 125 359Q125 291 139 234Q153 177 184 135.5Q215 94 264 70.5Q313 47 382 47Q420 47 449.5 54.5Q479 62 494 65V333H310V390H555V24Q533 15 506 8Q481 1 450.5 -4Q420 -9 382 -9Q293 -9 231 19Q169 47 130.5 96Q92 145 75 212.5Q58 280 58 358Q58 436 76 503Q94 570 132 619.5Q170 669 230.5 697Q291 725 375 725Q417 725 447 719.5Q477 714 496 708Q510 766 576 766H781V120Q781 78 793 61.5Q805 45 834 44Q839 44 841.5 45Q844 46 845 46V0Q839 -2 832 -4Q826 -5 817.5 -6Q809 -7 799 -7Z" glyph-name="G_l" horiz-adv-x="882" /><glyph d="M638 844 845 947 871 888 656 802ZM799 -7Q717 -7 717 97V716H598Q545 716 545 663V637Q545 637 533 642.5Q521 648 499 654Q477 660 446 665Q415 670 377 670Q307 670 259 646.5Q211 623 181 581.5Q151 540 138 483Q125 426 125 359Q125 291 139 234Q153 177 184 135.5Q215 94 264 70.5Q313 47 382 47Q420 47 449.5 54.5Q479 62 494 65V333H310V390H555V24Q533 15 506 8Q481 1 450.5 -4Q420 -9 382 -9Q293 -9 231 19Q169 47 130.5 96Q92 145 75 212.5Q58 280 58 358Q58 436 76 503Q94 570 132 619.5Q170 669 230.5 697Q291 725 375 725Q417 725 447 719.5Q477 714 496 708Q510 766 576 766H781V120Q781 78 793 61Q805 44 835 44Q839 44 841.5 45Q844 46 845 46V0Q839 -2 832 -4Q826 -5 817.5 -6Q809 -7 799 -7Z" glyph-name="G_lacute" horiz-adv-x="882" /><glyph d="M854 595 888 678Q868 681 856.5 693.5Q845 706 845 726Q845 745 857.5 760Q870 775 893 775Q916 775 928 760Q940 745 940 723Q940 695 925.5 659.5Q911 624 889 580ZM799 -7Q717 -7 717 97V716H598Q545 716 545 663V637Q545 637 533 642.5Q521 648 499 654Q477 660 446 665Q415 670 377 670Q307 670 259 646.5Q211 623 181 581.5Q151 540 138 483Q125 426 125 359Q125 291 139 234Q153 177 184 135.5Q215 94 264 70.5Q313 47 382 47Q420 47 449.5 54.5Q479 62 494 65V333H310V390H555V24Q533 15 506 8Q481 1 450.5 -4Q420 -9 382 -9Q293 -9 231 19Q169 47 130.5 96Q92 145 75 212.5Q58 280 58 358Q58 436 76 503Q94 570 132 619.5Q170 669 230.5 697Q291 725 375 725Q417 725 447 719.5Q477 714 496 708Q510 766 576 766H781V120Q781 78 793 61.5Q805 45 835 44Q839 44 841.5 45Q844 46 845 46V0Q839 -2 832 -4Q826 -5 817.5 -6Q809 -7 799 -7Z" glyph-name="G_lcaron" horiz-adv-x="908" /><glyph d="M799 -7Q717 -7 717 97V716H598Q545 716 545 663V637Q545 637 532.5 642.5Q520 648 498.5 654Q477 660 446 665Q415 670 377 670Q307 670 259 646.5Q211 623 181 581.5Q151 540 138 483Q125 426 125 359Q125 291 139 234Q153 177 184 135.5Q215 94 264 70.5Q313 47 382 47Q420 47 449.5 54.5Q479 62 494 65V333H310V390H555V24Q533 15 506 8Q481 1 450.5 -4Q420 -9 382 -9Q293 -9 231 19Q169 47 130.5 96Q92 145 75 212.5Q58 280 58 358Q58 436 76 503Q94 570 132 619.5Q170 669 230.5 697Q291 725 375 725Q417 725 447 719.5Q477 714 496 708Q510 766 576 766H781V120Q781 78 793 61.5Q805 45 835 44Q839 44 841.5 45Q844 46 845 46V0Q839 -2 832 -4Q826 -5 817.5 -6Q809 -7 799 -7ZM734 -246 768 -162Q748 -159 736 -146.5Q724 -134 724 -114Q724 -95 737 -80Q750 -65 773 -65Q796 -65 808 -80Q820 -95 820 -117Q820 -145 805.5 -180.5Q791 -216 769 -260Z" glyph-name="G_lcommaaccent" horiz-adv-x="882" /><glyph d="M799 -7Q717 -7 717 97V346L629 302V357L717 400V716H598Q545 716 545 663V637Q545 637 533 642.5Q521 648 499 654Q477 660 446 665Q415 670 377 670Q307 670 259 646.5Q211 623 181 581.5Q151 540 138 483Q125 426 125 359Q125 291 139 234Q153 177 184 135.5Q215 94 264 70.5Q313 47 382 47Q420 47 449.5 54.5Q479 62 494 65V333H310V390H555V24Q533 15 506 8Q481 1 450.5 -4Q420 -9 382 -9Q293 -9 231 19Q169 47 130.5 96Q92 145 75 212.5Q58 280 58 358Q58 436 76 503Q94 570 132 619.5Q170 669 230.5 697Q291 725 375 725Q417 725 447 719.5Q477 714 496 708Q510 766 576 766H781V433L872 478V424L781 379V120Q781 78 793 61.5Q805 45 835 44Q839 44 841.5 45Q844 46 845 46V0Q839 -2 832 -4Q826 -5 817.5 -6Q809 -7 799 -7Z" glyph-name="G_lslash" horiz-adv-x="907" /><glyph d="M382 -9Q293 -9 231 19Q169 47 130.5 96Q92 145 75 212.5Q58 280 58 358Q58 436 76 503Q94 570 132 619.5Q170 669 230.5 697Q291 725 375 725Q418 725 450 720Q482 715 503 709Q528 701 545 692V637Q525 646 499 654Q476 660 445.5 665Q415 670 377 670Q307 670 259 646.5Q211 623 181 581.5Q151 540 138 483Q125 426 125 359Q125 291 139 234Q153 177 184 135.5Q215 94 264 70.5Q313 47 382 47Q420 47 449.5 54.5Q479 62 494 65V333H310V390H555V24Q533 15 506 8Q481 1 450.5 -4Q420 -9 382 -9ZM328 787Q263 787 227 824.5Q191 862 190 922H244Q246 891 265.5 866.5Q285 842 328 842Q371 842 390 866.5Q409 891 411 922H466Q464 862 428.5 824.5Q393 787 328 787Z" glyph-name="Gbreve" horiz-adv-x="624" unicode="&#286;" /><glyph d="M277 605Q225 605 195 633.5Q165 662 163 710H212Q213 689 227.5 669.5Q242 650 277 650Q312 650 326.5 669.5Q341 689 343 710H391Q389 662 358.5 633.5Q328 605 277 605ZM321 -8Q248 -8 197 13.5Q146 35 114.5 72.5Q83 110 68.5 161.5Q54 213 54 274Q54 334 69 386Q84 438 116 476Q148 514 197 535.5Q246 557 315 557Q350 557 376 553Q402 549 419 545Q440 539 454 532V483Q438 490 417 495Q398 500 374 503.5Q350 507 319 507Q264 507 225.5 489.5Q187 472 163 441Q139 410 128.5 367.5Q118 325 118 275Q118 224 129 181.5Q140 139 164.5 108.5Q189 78 227.5 60.5Q266 43 320 43Q349 43 371.5 49Q394 55 405 57V251H263V302H462V17Q444 10 422 5Q402 -1 377 -4.5Q352 -8 321 -8Z" glyph-name="Gbreve.sc" horiz-adv-x="525" /><glyph d="M328 787Q263 787 227 824.5Q191 862 190 922H244Q246 891 265.5 866.5Q285 842 328 842Q371 842 390 866.5Q409 891 411 922H466Q464 862 428.5 824.5Q393 787 328 787ZM918 -7Q878 -7 846 6Q814 19 779 45L767 0H718V716H598Q545 716 545 663V637Q545 637 532.5 642.5Q520 648 498.5 654Q477 660 446 665Q415 670 377 670Q307 670 259 646.5Q211 623 181 581.5Q151 540 138 483Q125 426 125 359Q125 291 139 234Q153 177 184 135.5Q215 94 264 70.5Q313 47 382 47Q420 47 449.5 54.5Q479 62 494 65V333H310V390H555V24Q533 15 506 8Q481 1 450.5 -4Q420 -9 382 -9Q293 -9 231 19Q169 47 130.5 96Q92 145 75 212.5Q58 280 58 358Q58 436 76 503Q94 570 132 619.5Q170 669 230.5 697Q291 725 375 725Q417 725 447 719.5Q477 714 496 708Q510 766 578 766H782V442Q797 460 819 475Q839 488 866.5 498Q894 508 932 508Q984 508 1022 489.5Q1060 471 1085.5 438Q1111 405 1123.5 360Q1136 315 1136 262Q1136 197 1120 146.5Q1104 96 1075.5 62Q1047 28 1006.5 10.5Q966 -7 918 -7ZM782 86Q798 75 817 67Q835 59 857 53Q879 47 906 47Q984 47 1026.5 102.5Q1069 158 1069 261Q1069 347 1032 400.5Q995 454 916 454Q882 454 857.5 443.5Q833 433 816 421Q796 406 782 387Z" glyph-name="Gbreve_b" horiz-adv-x="1189" /><glyph d="M328 787Q263 787 227 824.5Q191 862 190 922H244Q246 891 265.5 866.5Q285 842 328 842Q371 842 390 866.5Q409 891 411 922H466Q464 862 428.5 824.5Q393 787 328 787ZM799 -7Q717 -7 717 97V716H598Q545 716 545 663V637Q545 637 533 642.5Q521 648 499 654Q477 660 446 665Q415 670 377 670Q307 670 259 646.5Q211 623 181 581.5Q151 540 138 483Q125 426 125 359Q125 291 139 234Q153 177 184 135.5Q215 94 264 70.5Q313 47 382 47Q420 47 449.5 54.5Q479 62 494 65V333H310V390H555V24Q533 15 506 8Q481 1 450.5 -4Q420 -9 382 -9Q293 -9 231 19Q169 47 130.5 96Q92 145 75 212.5Q58 280 58 358Q58 436 76 503Q94 570 132 619.5Q170 669 230.5 697Q291 725 375 725Q417 725 447 719.5Q477 714 496 708Q510 766 576 766H781V120Q781 78 793 61.5Q805 45 835 44Q839 44 841.5 45Q844 46 845 46V0Q839 -2 832 -4Q826 -5 817.5 -6Q809 -7 799 -7Z" glyph-name="Gbreve_l" horiz-adv-x="882" /><glyph d="M382 -9Q293 -9 231 19Q169 47 130.5 96Q92 145 75 212.5Q58 280 58 358Q58 436 76 503Q94 570 132 619.5Q170 669 230.5 697Q291 725 375 725Q418 725 450 720Q482 715 503 709Q528 701 545 692V637Q525 646 499 654Q476 660 445.5 665Q415 670 377 670Q307 670 259 646.5Q211 623 181 581.5Q151 540 138 483Q125 426 125 359Q125 291 139 234Q153 177 184 135.5Q215 94 264 70.5Q313 47 382 47Q420 47 449.5 54.5Q479 62 494 65V333H310V390H555V24Q533 15 506 8Q481 1 450.5 -4Q420 -9 382 -9ZM190 816 327 930H368L506 816L482 782L348 874L213 782Z" glyph-name="Gcircumflex" horiz-adv-x="624" unicode="&#284;" /><glyph d="M162 628 272 718H311L421 628L400 601L292 671L183 601ZM321 -8Q248 -8 197 13.5Q146 35 114.5 72.5Q83 110 68.5 161.5Q54 213 54 274Q54 334 69 386Q84 438 116 476Q148 514 197 535.5Q246 557 315 557Q350 557 376 553Q402 549 419 545Q440 539 454 532V483Q438 490 417 495Q398 500 374 503.5Q350 507 319 507Q264 507 225.5 489.5Q187 472 163 441Q139 410 128.5 367.5Q118 325 118 275Q118 224 129 181.5Q140 139 164.5 108.5Q189 78 227.5 60.5Q266 43 320 43Q349 43 371.5 49Q394 55 405 57V251H263V302H462V17Q444 10 422 5Q402 -1 377 -4.5Q352 -8 321 -8Z" glyph-name="Gcircumflex.sc" horiz-adv-x="525" /><glyph d="M382 -9Q293 -9 231 19Q169 47 130.5 96Q92 145 75 212.5Q58 280 58 358Q58 436 76 503Q94 570 132 619.5Q170 669 230.5 697Q291 725 375 725Q418 725 450 720Q482 715 503 709Q528 701 545 692V637Q525 646 499 654Q476 660 445.5 665Q415 670 377 670Q307 670 259 646.5Q211 623 181 581.5Q151 540 138 483Q125 426 125 359Q125 291 139 234Q153 177 184 135.5Q215 94 264 70.5Q313 47 382 47Q420 47 449.5 54.5Q479 62 494 65V333H310V390H555V24Q533 15 506 8Q481 1 450.5 -4Q420 -9 382 -9ZM319 -246 353 -162Q333 -159 321 -146.5Q309 -134 309 -114Q309 -95 321.5 -80Q334 -65 358 -65Q381 -65 393 -80Q405 -95 405 -117Q405 -145 390.5 -180.5Q376 -216 354 -260Z" glyph-name="Gcommaaccent" horiz-adv-x="624" unicode="&#290;" /><glyph d="M321 -8Q248 -8 197 13.5Q146 35 114.5 72.5Q83 110 68.5 161.5Q54 213 54 274Q54 334 69 386Q84 438 116 476Q148 514 197 535.5Q246 557 315 557Q350 557 376 553Q402 549 419 545Q440 539 454 532V483Q438 490 417 495Q398 500 374 503.5Q350 507 319 507Q264 507 225.5 489.5Q187 472 163 441Q139 410 128.5 367.5Q118 325 118 275Q118 224 129 181.5Q140 139 164.5 108.5Q189 78 227.5 60.5Q266 43 320 43Q349 43 371.5 49Q394 55 405 57V251H263V302H462V17Q444 10 422 5Q402 -1 377 -4.5Q352 -8 321 -8ZM272 -210 300 -145Q263 -140 263 -106Q263 -90 273.5 -77.5Q284 -65 304 -65Q325 -65 335.5 -77.5Q346 -90 346 -108Q346 -130 333.5 -158.5Q321 -187 303 -222Z" glyph-name="Gcommaaccent.sc" horiz-adv-x="525" /><glyph d="M382 -9Q293 -9 231 19Q169 47 130.5 96Q92 145 75 212.5Q58 280 58 358Q58 436 76 503Q94 570 132 619.5Q170 669 230.5 697Q291 725 375 725Q418 725 450 720Q482 715 503 709Q528 701 545 692V637Q525 646 499 654Q476 660 445.5 665Q415 670 377 670Q307 670 259 646.5Q211 623 181 581.5Q151 540 138 483Q125 426 125 359Q125 291 139 234Q153 177 184 135.5Q215 94 264 70.5Q313 47 382 47Q420 47 449.5 54.5Q479 62 494 65V333H310V390H555V24Q533 15 506 8Q481 1 450.5 -4Q420 -9 382 -9ZM341 808Q321 808 307.5 821.5Q294 835 294 858Q294 881 308 894Q322 907 342 907Q363 907 377 894Q391 881 391 858Q391 835 377 821.5Q363 808 341 808Z" glyph-name="Gdotaccent" horiz-adv-x="624" unicode="&#288;" /><glyph d="M287 620Q269 620 258 631.5Q247 643 247 661Q247 678 258 689.5Q269 701 288 701Q308 701 319 689.5Q330 678 330 661Q330 643 318.5 631.5Q307 620 287 620ZM321 -8Q248 -8 197 13.5Q146 35 114.5 72.5Q83 110 68.5 161.5Q54 213 54 274Q54 334 69 386Q84 438 116 476Q148 514 197 535.5Q246 557 315 557Q350 557 376 553Q402 549 419 545Q440 539 454 532V483Q438 490 417 495Q398 500 374 503.5Q350 507 319 507Q264 507 225.5 489.5Q187 472 163 441Q139 410 128.5 367.5Q118 325 118 275Q118 224 129 181.5Q140 139 164.5 108.5Q189 78 227.5 60.5Q266 43 320 43Q349 43 371.5 49Q394 55 405 57V251H263V302H462V17Q444 10 422 5Q402 -1 377 -4.5Q352 -8 321 -8Z" glyph-name="Gdotaccent.sc" horiz-adv-x="525" /><glyph d="M382 -9Q293 -9 231 19Q169 47 130.5 96Q92 145 75 212.5Q58 280 58 358Q58 436 76 503Q94 570 132 619.5Q170 669 230.5 697Q291 725 375 725Q418 725 450 720Q482 715 503 709Q528 701 545 692V637Q525 646 499 654Q476 660 445.5 665Q415 670 377 670Q307 670 259 646.5Q211 623 181 581.5Q151 540 138 483Q125 426 125 359Q125 291 139 234Q153 177 184 135.5Q215 94 264 70.5Q313 47 382 47Q420 47 449.5 54.5Q479 62 494 65V337H310V393H623L860 716H930L676 370L940 0H863L623 337H555V24Q533 15 506 8Q481 1 450.5 -4Q420 -9 382 -9ZM341 808Q321 808 307.5 821.5Q294 835 294 858Q294 881 308 894Q322 907 342 907Q363 907 377 894Q391 881 391 858Q391 835 377 821.5Q363 808 341 808Z" glyph-name="Gdotaccent_K" horiz-adv-x="954" /><glyph d="M341 808Q321 808 307 821.5Q293 835 293 858Q293 881 307.5 894Q322 907 342 907Q363 907 377 894Q391 881 391 858Q391 835 377 821.5Q363 808 341 808ZM918 -7Q878 -7 846 6Q814 19 779 45L767 0H718V716H598Q545 716 545 663V637Q545 637 532.5 642.5Q520 648 498.5 654Q477 660 446 665Q415 670 377 670Q307 670 259 646.5Q211 623 181 581.5Q151 540 138 483Q125 426 125 359Q125 291 139 234Q153 177 184 135.5Q215 94 264 70.5Q313 47 382 47Q420 47 449.5 54.5Q479 62 494 65V333H310V390H555V24Q533 15 506 8Q481 1 450.5 -4Q420 -9 382 -9Q293 -9 231 19Q169 47 130.5 96Q92 145 75 212.5Q58 280 58 358Q58 436 76 503Q94 570 132 619.5Q170 669 230.5 697Q291 725 375 725Q417 725 447 719.5Q477 714 496 708Q510 766 578 766H782V442Q797 460 819 475Q839 488 866.5 498Q894 508 932 508Q984 508 1022 489.5Q1060 471 1085.5 438Q1111 405 1123.5 360Q1136 315 1136 262Q1136 197 1120 146.5Q1104 96 1075.5 62Q1047 28 1006.5 10.5Q966 -7 918 -7ZM782 86Q798 75 817 67Q835 59 857 53Q879 47 906 47Q984 47 1026.5 102.5Q1069 158 1069 261Q1069 347 1032 400.5Q995 454 916 454Q882 454 857.5 443.5Q833 433 816 421Q796 406 782 387Z" glyph-name="Gdotaccent_b" horiz-adv-x="1189" /><glyph d="M341 808Q321 808 307 821.5Q293 835 293 858Q293 881 307.5 894Q322 907 342 907Q363 907 377 894Q391 881 391 858Q391 835 377 821.5Q363 808 341 808ZM555 24Q533 15 506 8Q481 1 450.5 -4Q420 -9 382 -9Q293 -9 231 19Q169 47 130.5 96Q92 145 75 212.5Q58 280 58 358Q58 436 76 503Q94 570 132 619.5Q170 669 230.5 697Q291 725 375 725Q417 725 447 719.5Q477 714 496 708Q510 766 576 766H782V282H839L1017 500H1088L893 265L1099 0H1018L839 232H782V0H718V716H598Q545 716 545 663V637Q545 637 533 642.5Q521 648 499 654Q477 660 446 665Q415 670 377 670Q307 670 259 646.5Q211 623 181 581.5Q151 540 138 483Q125 426 125 359Q125 291 139 234Q153 177 184 135.5Q215 94 264 70.5Q313 47 382 47Q420 47 449.5 54.5Q479 62 494 65V333H310V390H555Z" glyph-name="Gdotaccent_k" horiz-adv-x="1108" /><glyph d="M341 808Q321 808 307 821.5Q293 835 293 858Q293 881 307.5 894Q322 907 342 907Q363 907 377 894Q391 881 391 858Q391 835 377 821.5Q363 808 341 808ZM799 -7Q717 -7 717 97V716H598Q545 716 545 663V637Q545 637 533 642.5Q521 648 499 654Q477 660 446 665Q415 670 377 670Q307 670 259 646.5Q211 623 181 581.5Q151 540 138 483Q125 426 125 359Q125 291 139 234Q153 177 184 135.5Q215 94 264 70.5Q313 47 382 47Q420 47 449.5 54.5Q479 62 494 65V333H310V390H555V24Q533 15 506 8Q481 1 450.5 -4Q420 -9 382 -9Q293 -9 231 19Q169 47 130.5 96Q92 145 75 212.5Q58 280 58 358Q58 436 76 503Q94 570 132 619.5Q170 669 230.5 697Q291 725 375 725Q417 725 447 719.5Q477 714 496 708Q510 766 576 766H781V120Q781 78 793 61.5Q805 45 835 44Q839 44 841.5 45Q844 46 845 46V0Q839 -2 832 -4Q826 -5 817.5 -6Q809 -7 799 -7Z" glyph-name="Gdotaccent_l" horiz-adv-x="882" /><glyph d="M96 716H161V393H520V716H585V0H520V335H161V0H96Z" glyph-name="H" horiz-adv-x="681" unicode="H" /><glyph d="M85 550H147V306H425V550H487V0H425V253H147V0H85Z" glyph-name="H.sc" horiz-adv-x="572" /><glyph d="M703 399Q745 399 774 409.5Q803 420 821 438Q839 456 847 480.5Q855 505 855 533Q855 659 687 659H584V399ZM716 57Q806 57 847.5 96.5Q889 136 889 202Q889 342 716 342H584V57ZM95 716H160V400H519V716H688Q811 716 866 667.5Q921 619 921 534Q921 502 912 477Q903 452 888 432.5Q873 413 853.5 399.5Q834 386 814 377Q874 362 915 318Q956 274 956 204Q956 101 892.5 50.5Q829 0 717 0H519V342H160V0H95Z" glyph-name="H_B" horiz-adv-x="1008" /><glyph d="M579 309Q644 309 670 338Q696 367 696 407Q696 501 567 501H487V309ZM85 550H147V311H425V550H567Q668 550 713 512.5Q758 475 758 409Q758 360 731 331.5Q704 303 672 289Q720 278 753 244.5Q786 211 786 157Q786 79 734 39.5Q682 0 589 0H425V258H147V0H85ZM589 49Q658 49 690 78.5Q722 108 722 157Q722 259 588 259H487V49Z" glyph-name="H_B.sc" horiz-adv-x="835" /><glyph d="M708 58Q832 58 897 134Q962 210 962 364Q962 514 895.5 586Q829 658 708 658H584V58ZM160 0H95V716H160V393H519V716H707Q866 716 947.5 626Q1029 536 1029 364Q1029 186 948 93Q867 0 707 0H519V335H160Z" glyph-name="H_D" horiz-adv-x="1087" /><glyph d="M580 52Q677 52 727 109.5Q777 167 777 279Q777 390 726 444Q675 498 580 498H487V52ZM147 0H85V550H147V306H425V550H578Q709 550 775 480Q841 410 841 279Q841 145 775.5 72.5Q710 0 578 0H425V253H147Z" glyph-name="H_D.sc" horiz-adv-x="895" /><glyph d="M160 0H95V716H160V393H519V716H886V658H584V393H844V335H584V58H886V0H519V335H160Z" glyph-name="H_E" horiz-adv-x="939" /><glyph d="M147 0H85V550H147V306H425V550H729V498H487V306H694V254H487V52H729V0H425V253H147Z" glyph-name="H_E.sc" horiz-adv-x="780" /><glyph d="M160 0H95V716H160V393H519V716H886V658H584V393H844V335H584V58H886V0H519V335H160ZM615 824 822 927 847 868 633 782Z" glyph-name="H_Eacute" horiz-adv-x="939" /><glyph d="M506 636 674 716 697 666 522 601ZM147 0H85V550H147V306H425V550H729V498H487V306H694V254H487V52H729V0H425V253H147Z" glyph-name="H_Eacute.sc" horiz-adv-x="780" /><glyph d="M160 0H95V716H160V393H519V716H886V658H584V393H844V335H584V58H886V0H519V335H160ZM540 816 677 930H718L856 816L832 782L698 874L563 782Z" glyph-name="H_Ecircumflex" horiz-adv-x="939" /><glyph d="M445 628 556 718H593L704 628L683 601L574 671L466 601ZM147 0H85V550H147V306H425V550H729V498H487V306H694V254H487V52H729V0H425V253H147Z" glyph-name="H_Ecircumflex.sc" horiz-adv-x="780" /><glyph d="M160 0H95V716H160V393H519V716H886V658H584V393H844V335H584V58H886V0H519V335H160ZM617 808Q598 808 584.5 821Q571 834 571 856Q571 879 584.5 891.5Q598 904 617 904Q637 904 651 891.5Q665 879 665 857Q665 834 651 821Q637 808 617 808ZM796 808Q777 808 763.5 821Q750 834 750 856Q750 879 763.5 891.5Q777 904 797 904Q817 904 830.5 891.5Q844 879 844 857Q844 834 830 821Q816 808 796 808Z" glyph-name="H_Edieresis" horiz-adv-x="939" /><glyph d="M507 620Q490 620 478.5 631.5Q467 643 467 660Q467 677 478.5 687.5Q490 698 508 698Q526 698 537 688Q548 678 548 661Q548 643 537 631.5Q526 620 507 620ZM653 620Q636 620 624.5 631.5Q613 643 613 660Q613 677 624.5 687.5Q636 698 654 698Q672 698 683 688Q694 678 694 661Q694 643 683 631.5Q672 620 653 620ZM147 0H85V550H147V306H425V550H729V498H487V306H694V254H487V52H729V0H425V253H147Z" glyph-name="H_Edieresis.sc" horiz-adv-x="780" /><glyph d="M160 0H95V716H160V393H519V716H886V658H584V393H844V335H584V58H886V0H519V335H160ZM709 808Q689 808 675.5 821.5Q662 835 662 858Q662 881 676 894Q690 907 710 907Q731 907 745 894Q759 881 759 858Q759 835 745 821.5Q731 808 709 808Z" glyph-name="H_Edotaccent" horiz-adv-x="939" /><glyph d="M582 620Q564 620 552.5 631.5Q541 643 541 661Q541 678 552 689.5Q563 701 583 701Q602 701 613.5 689.5Q625 678 625 661Q625 643 613.5 631.5Q602 620 582 620ZM147 0H85V550H147V306H425V550H729V498H487V306H694V254H487V52H729V0H425V253H147Z" glyph-name="H_Edotaccent.sc" horiz-adv-x="780" /><glyph d="M160 0H95V716H160V393H519V716H886V658H584V393H844V335H584V58H886V0H519V335H160ZM560 868 585 927 792 824 774 782Z" glyph-name="H_Egrave" horiz-adv-x="939" /><glyph d="M462 666 485 716 652 636 637 601ZM147 0H85V550H147V306H425V550H729V498H487V306H694V254H487V52H729V0H425V253H147Z" glyph-name="H_Egrave.sc" horiz-adv-x="780" /><glyph d="M160 0H95V716H160V393H519V716H886V658H584V393H844V335H584V58H886V0H519V335H160ZM570 884H841V826H570Z" glyph-name="H_Emacron" horiz-adv-x="939" /><glyph d="M470 683H689V634H470ZM147 0H85V550H147V306H425V550H729V498H487V306H694V254H487V52H729V0H425V253H147Z" glyph-name="H_Emacron.sc" horiz-adv-x="780" /><glyph d="M519 0V335H160V0H95V716H160V393H519V716H886V658H584V393H844V335H584V58H886V0Q832 -31 809 -63.5Q786 -96 786 -124Q786 -174 840 -174Q854 -174 865.5 -170Q877 -166 886.5 -160.5Q896 -155 902 -150Q908 -145 911 -143V-189Q909 -191 902.5 -196.5Q896 -202 884.5 -208.5Q873 -215 856.5 -220Q840 -225 818 -225Q777 -225 751 -200.5Q725 -176 725 -136Q725 -98 749.5 -60Q774 -22 821 0Z" glyph-name="H_Eogonek" horiz-adv-x="939" /><glyph d="M425 0V253H147V0H85V550H147V306H425V550H729V498H487V306H694V254H487V52H729V0Q687 -23 668 -47.5Q649 -72 649 -93Q649 -132 692 -132Q714 -132 729 -122Q744 -112 749 -109V-146Q744 -149 726 -161.5Q708 -174 673 -174Q638 -174 616.5 -154.5Q595 -135 595 -104Q595 -74 615 -45Q635 -16 673 0Z" glyph-name="H_Eogonek.sc" horiz-adv-x="780" /><glyph d="M160 0H95V716H160V392H519V716H882V658H584V392H840V334H584V0H519V334H160Z" glyph-name="H_F" horiz-adv-x="912" /><glyph d="M147 0H85V550H147V305H425V550H725V498H487V303H692V251H487V0H425V252H147Z" glyph-name="H_F.sc" horiz-adv-x="758" /><glyph d="M95 716H160V394H519V716H584V393H650L902 716H971L702 370L981 0H905L649 337H584V0H519V336H160V0H95Z" glyph-name="H_K" horiz-adv-x="995" /><glyph d="M85 550H147V307H425V550H487V306H537L734 550H800L587 285L808 0H736L537 255H487V0H425V253H147V0H85Z" glyph-name="H_K.sc" horiz-adv-x="827" /><glyph d="M95 716H160V393H519V716H610L862 137L1112 716H1196V0H1132V626L880 42H835L584 630V0H519V335H160V0H95Z" glyph-name="H_M" horiz-adv-x="1292" /><glyph d="M85 550H147V306H425V550H511L710 115L906 550H985V0H924V469L729 33H684L487 472V0H425V253H147V0H85Z" glyph-name="H_M.sc" horiz-adv-x="1070" /><glyph d="M95 716H160V393H520V716H580L956 116V716H1016V0H956L580 602V0H520V335H160V0H95Z" glyph-name="H_N" horiz-adv-x="1111" /><glyph d="M85 550H147V306H425V550H483L778 103V550H835V0H778L484 447V0H425V253H147V0H85Z" glyph-name="H_N.sc" horiz-adv-x="919" /><glyph d="M95 716H160V393H520V716H580L956 116V716H1016V0H956L580 602V0H520V335H160V0H95ZM614 896 637 930 775 838 912 930 936 896 795 782H753Z" glyph-name="H_Ncaron" horiz-adv-x="1111" /><glyph d="M504 689 524 718 635 647 746 718 768 689 654 601H616ZM85 550H147V306H425V550H483L778 103V550H835V0H778L484 447V0H425V253H147V0H85Z" glyph-name="H_Ncaron.sc" horiz-adv-x="919" /><glyph d="M686 373Q773 373 821.5 410.5Q870 448 870 520Q870 592 824.5 625.5Q779 659 684 659H584V373ZM95 716H160V373H519V716H682Q814 716 875.5 666.5Q937 617 937 523Q937 425 868.5 370.5Q800 316 683 316H584V0H519V316H160V0H95Z" glyph-name="H_P" horiz-adv-x="972" /><glyph d="M566 288Q632 288 669.5 316Q707 344 707 397Q707 450 671.5 474.5Q636 499 564 499H487V288ZM85 550H147V290H425V550H564Q669 550 720 511Q771 472 771 399Q771 322 715 280Q659 238 564 238H487V0H425V238H147V0H85Z" glyph-name="H_P.sc" horiz-adv-x="807" /><glyph d="M692 373Q727 373 757 383Q787 393 809 412.5Q831 432 844 459.5Q857 487 857 522Q857 586 816.5 622.5Q776 659 685 659H584V373ZM95 716H160V373H519V716H688Q806 716 865 665.5Q924 615 924 522Q924 455 884.5 402.5Q845 350 772 330L962 0H889L707 317H584V0H519V315H160V0H95Z" glyph-name="H_R" horiz-adv-x="987" /><glyph d="M570 290Q623 290 660.5 319Q698 348 698 399Q698 446 667 472.5Q636 499 565 499H487V290ZM85 550H147V291H425V550H566Q664 550 712.5 510.5Q761 471 761 400Q761 348 729.5 308Q698 268 641 253L791 0H723L580 240H487V0H425V239H147V0H85Z" glyph-name="H_R.sc" horiz-adv-x="823" /><glyph d="M692 373Q727 373 757 383Q787 393 809 412.5Q831 432 844 459.5Q857 487 857 522Q857 586 816.5 622.5Q776 659 685 659H584V373ZM95 716H160V373H519V716H688Q806 716 865 665.5Q924 615 924 522Q924 455 884.5 402.5Q845 350 772 330L962 0H889L707 317H584V0H519V315H160V0H95ZM622 824 829 927 854 868 640 782Z" glyph-name="H_Racute" horiz-adv-x="987" /><glyph d="M513 636 681 716 704 666 530 601ZM570 290Q623 290 660.5 319Q698 348 698 399Q698 446 667 472.5Q636 499 565 499H487V290ZM85 550H147V291H425V550H566Q664 550 712.5 510.5Q761 471 761 400Q761 348 729.5 308Q698 268 641 253L791 0H723L580 240H487V0H425V239H147V0H85Z" glyph-name="H_Racute.sc" horiz-adv-x="823" /><glyph d="M692 373Q727 373 757 383Q787 393 809 412.5Q831 432 844 459.5Q857 487 857 522Q857 586 816.5 622.5Q776 659 685 659H584V373ZM95 716H160V373H519V716H688Q806 716 865 665.5Q924 615 924 522Q924 455 884.5 402.5Q845 350 772 330L962 0H889L707 317H584V0H519V315H160V0H95ZM533 896 556 930 694 838 831 930 855 896 714 782H672Z" glyph-name="H_Rcaron" horiz-adv-x="987" /><glyph d="M440 689 461 718 572 647 682 718 704 689 591 601H552ZM570 290Q623 290 660.5 319Q698 348 698 399Q698 446 667 472.5Q636 499 565 499H487V290ZM85 550H147V291H425V550H566Q664 550 712.5 510.5Q761 471 761 400Q761 348 729.5 308Q698 268 641 253L791 0H723L580 240H487V0H425V239H147V0H85Z" glyph-name="H_Rcaron.sc" horiz-adv-x="823" /><glyph d="M95 716H160V393H538V658H347V716H815V658H603V0H538V335H160V0H95Z" glyph-name="H_T" horiz-adv-x="828" /><glyph d="M85 550H147V306H441V498H290V550H671V498H503V0H441V252H147V0H85Z" glyph-name="H_T.sc" horiz-adv-x="689" /><glyph d="M95 716H160V393H538V658H347V716H815V658H603V0H538V335H160V0H95ZM410 896 433 930 571 838 708 930 732 896 591 782H549Z" glyph-name="H_Tcaron" horiz-adv-x="828" /><glyph d="M341 689 362 718 472 647 583 718 604 689 491 601H453ZM85 550H147V306H441V498H290V550H671V498H503V0H441V252H147V0H85Z" glyph-name="H_Tcaron.sc" horiz-adv-x="689" /><glyph d="M95 716H160V393H519V716H584V241Q584 143 630.5 95Q677 47 763 47Q847 47 895 94Q943 141 945 241V716H1010V242Q1010 178 992 130.5Q974 83 942 52Q910 21 864.5 6Q819 -9 763 -9Q652 -9 585.5 52.5Q519 114 519 241V335H160V0H95Z" glyph-name="H_U" horiz-adv-x="1099" /><glyph d="M85 550H147V306H425V550H487V188Q487 115 523.5 79Q560 43 626 43Q690 43 727.5 78.5Q765 114 767 188V550H829V188Q829 139 814 102.5Q799 66 772.5 41.5Q746 17 708.5 5Q671 -7 626 -7Q536 -7 480.5 41Q425 89 425 188V253H147V0H85Z" glyph-name="H_U.sc" horiz-adv-x="909" /><glyph d="M95 716H160V393H519V716H584V241Q584 143 630.5 95Q677 47 763 47Q847 47 895 94Q943 141 945 241V716H1010V242Q1010 178 992 130.5Q974 83 942 52Q910 21 864.5 6Q819 -9 763 -9Q652 -9 585.5 52.5Q519 114 519 241V335H160V0H95ZM704 824 911 927 936 868 722 782Z" glyph-name="H_Uacute" horiz-adv-x="1099" /><glyph d="M576 636 744 716 767 666 592 601ZM85 550H147V306H425V550H487V188Q487 115 523.5 79Q560 43 626 43Q690 43 727.5 78.5Q765 114 767 188V550H829V188Q829 139 814 102.5Q799 66 772.5 41.5Q746 17 708.5 5Q671 -7 626 -7Q536 -7 480.5 41Q425 89 425 188V253H147V0H85Z" glyph-name="H_Uacute.sc" horiz-adv-x="909" /><glyph d="M95 716H160V393H519V716H584V241Q584 143 630.5 95Q677 47 763 47Q847 47 895 94Q943 141 945 241V716H1010V242Q1010 178 992 130.5Q974 83 942 52Q910 21 864.5 6Q819 -9 763 -9Q652 -9 585.5 52.5Q519 114 519 241V335H160V0H95ZM674 808Q655 808 641.5 821Q628 834 628 856Q628 879 641.5 891.5Q655 904 674 904Q694 904 708 891.5Q722 879 722 857Q722 834 708 821Q694 808 674 808ZM853 808Q834 808 820.5 821Q807 834 807 856Q807 879 820.5 891.5Q834 904 854 904Q874 904 887.5 891.5Q901 879 901 857Q901 834 887 821Q873 808 853 808Z" glyph-name="H_Udieresis" horiz-adv-x="1099" /><glyph d="M554 620Q536 620 525 631.5Q514 643 514 660Q514 677 525 687.5Q536 698 554 698Q573 698 584 688Q595 678 595 661Q595 643 584 631.5Q573 620 554 620ZM700 620Q683 620 671.5 631.5Q660 643 660 660Q660 677 671 687.5Q682 698 700 698Q718 698 729.5 688Q741 678 741 661Q741 643 729.5 631.5Q718 620 700 620ZM85 550H147V306H425V550H487V188Q487 115 523.5 79Q560 43 626 43Q690 43 727.5 78.5Q765 114 767 188V550H829V188Q829 139 814 102.5Q799 66 772.5 41.5Q746 17 708.5 5Q671 -7 626 -7Q536 -7 480.5 41Q425 89 425 188V253H147V0H85Z" glyph-name="H_Udieresis.sc" horiz-adv-x="909" /><glyph d="M95 716H160V393H519V716H584V241Q584 143 630.5 95Q677 47 763 47Q847 47 895 94Q943 141 945 241V716H1010V242Q1010 178 992 130.5Q974 83 942 52Q910 21 864.5 6Q819 -9 763 -9Q652 -9 585.5 52.5Q519 114 519 241V335H160V0H95ZM626 810 756 962 805 921 664 782ZM759 824 966 927 992 868 777 782Z" glyph-name="H_Uhungarumlaut" horiz-adv-x="1099" /><glyph d="M514 624 618 742 661 708 547 601ZM626 635 790 715 812 667 642 601ZM85 550H147V306H425V550H487V188Q487 115 523.5 79Q560 43 626 43Q690 43 727.5 78.5Q765 114 767 188V550H829V188Q829 139 814 102.5Q799 66 772.5 41.5Q746 17 708.5 5Q671 -7 626 -7Q536 -7 480.5 41Q425 89 425 188V253H147V0H85Z" glyph-name="H_Uhungarumlaut.sc" horiz-adv-x="909" /><glyph d="M95 716H160V393H519V716H584V241Q584 143 630.5 95Q677 47 763 47Q847 47 895 94Q943 141 945 241V716H1010V242Q1010 178 992 130.5Q974 83 942 52Q910 21 864.5 6Q819 -9 763 -9Q652 -9 585.5 52.5Q519 114 519 241V335H160V0H95ZM629 884H900V826H629Z" glyph-name="H_Umacron" horiz-adv-x="1099" /><glyph d="M517 683H737V634H517ZM85 550H147V306H425V550H487V188Q487 115 523.5 79Q560 43 626 43Q690 43 727.5 78.5Q765 114 767 188V550H829V188Q829 139 814 102.5Q799 66 772.5 41.5Q746 17 708.5 5Q671 -7 626 -7Q536 -7 480.5 41Q425 89 425 188V253H147V0H85Z" glyph-name="H_Umacron.sc" horiz-adv-x="909" /><glyph d="M801 -225Q759 -225 733 -200Q707 -175 707 -135Q707 -102 726 -68Q745 -34 785 -5Q780 -7 773 -8Q766 -9 760 -9Q643 -3 581 58Q519 119 519 241V335H160V0H95V716H160V393H519V716H584V241Q584 142 630.5 94.5Q677 47 763 47Q847 47 896 94Q945 141 945 241V716H1010V242Q1010 199 1002 166Q994 133 980.5 108Q967 83 948.5 64Q930 45 908 31Q878 11 852.5 -7Q827 -25 808.5 -43.5Q790 -62 779.5 -81.5Q769 -101 769 -124Q769 -147 782 -160.5Q795 -174 822 -174Q836 -174 848 -170Q860 -166 869.5 -160.5Q879 -155 885 -150Q891 -145 894 -143V-189Q892 -191 885.5 -196.5Q879 -202 867.5 -208.5Q856 -215 839.5 -220Q823 -225 801 -225Z" glyph-name="H_Uogonek" horiz-adv-x="1099" /><glyph d="M654 -174Q619 -174 597 -154.5Q575 -135 575 -103Q575 -77 591 -51.5Q607 -26 639 -4Q629 -7 619 -7Q526 -2 475.5 46Q425 94 425 188V253H147V0H85V550H147V306H425V550H487V188Q487 114 523.5 78.5Q560 43 626 43Q690 43 728.5 78Q767 113 767 188V550H829V188Q829 121 803.5 82.5Q778 44 740 21Q693 -8 662 -33Q631 -58 631 -91Q631 -110 642.5 -120.5Q654 -131 673 -131Q695 -131 710.5 -121.5Q726 -112 731 -108V-146Q726 -149 707.5 -161.5Q689 -174 654 -174Z" glyph-name="H_Uogonek.sc" horiz-adv-x="909" /><glyph d="M95 716H160V393H519V716H584V241Q584 143 630.5 95Q677 47 763 47Q847 47 895 94Q943 141 945 241V716H1010V242Q1010 178 992 130.5Q974 83 942 52Q910 21 864.5 6Q819 -9 763 -9Q652 -9 585.5 52.5Q519 114 519 241V335H160V0H95ZM765 770Q716 770 686 794.5Q656 819 656 861Q656 899 685.5 925.5Q715 952 765 952Q814 952 844.5 925.5Q875 899 875 861Q875 819 845.5 794.5Q816 770 765 770ZM765 810Q792 810 809 824Q826 838 826 862Q826 884 808.5 898Q791 912 765 912Q738 912 721.5 898Q705 884 705 862Q705 838 721.5 824Q738 810 765 810Z" glyph-name="H_Uring" horiz-adv-x="1099" /><glyph d="M627 592Q587 592 562.5 611.5Q538 631 538 663Q538 693 562 713.5Q586 734 627 734Q668 734 693 714Q718 694 718 663Q718 631 693.5 611.5Q669 592 627 592ZM627 625Q649 625 662.5 635.5Q676 646 676 664Q676 681 662 691Q648 701 627 701Q605 701 592.5 691Q580 681 580 664Q580 646 593 635.5Q606 625 627 625ZM85 550H147V306H425V550H487V188Q487 115 523.5 79Q560 43 626 43Q690 43 727.5 78.5Q765 114 767 188V550H829V188Q829 139 814 102.5Q799 66 772.5 41.5Q746 17 708.5 5Q671 -7 626 -7Q536 -7 480.5 41Q425 89 425 188V253H147V0H85Z" glyph-name="H_Uring.sc" horiz-adv-x="909" /><glyph d="M538 393V547H179V393ZM179 0H114V547H14V605H114V716H179V605H538V716H603V605H703V547H603V0H538V335H179Z" glyph-name="Hbar" horiz-adv-x="716" unicode="&#294;" /><glyph d="M435 306V419H157V306ZM157 0H95V419H17V467H95V550H157V467H435V550H497V467H574V419H497V0H435V253H157Z" glyph-name="Hbar.sc" horiz-adv-x="592" /><glyph d="M554 393V547H195V393ZM1045 242Q1045 178 1027 130.5Q1009 83 977 52Q945 21 899.5 6Q854 -9 798 -9Q686 -9 620 52.5Q554 114 554 241V335H195V0H130V547H30V605H130V716H195V605H554V716H618V605H718V547H618V241Q618 143 664.5 95Q711 47 798 47Q882 47 931 94Q980 141 980 241V716H1045Z" glyph-name="Hbar_U" horiz-adv-x="1133" /><glyph d="M840 188Q840 90 783.5 41.5Q727 -7 636 -7Q546 -7 491 41Q436 89 436 188V253H157V0H95V419H17V466H95V550H157V466H436V550H498V466H576V419H498V188Q498 115 534 79Q570 43 636 43Q701 43 738.5 78.5Q776 114 778 188V550H840ZM436 306V419H157V306Z" glyph-name="Hbar_U.sc" horiz-adv-x="919" /><glyph d="M96 716H161V393H520V716H585V0H520V335H161V0H96ZM182 816 319 930H360L498 816L474 782L340 874L205 782Z" glyph-name="Hcircumflex" horiz-adv-x="681" unicode="&#292;" /><glyph d="M157 628 267 718H304L416 628L394 601L286 671L177 601ZM85 550H147V306H425V550H487V0H425V253H147V0H85Z" glyph-name="Hcircumflex.sc" horiz-adv-x="572" /><glyph d="M96 716H161V0H96Z" glyph-name="I" horiz-adv-x="257" unicode="I" /><glyph d="M85 550H147V0H85Z" glyph-name="I.sc" horiz-adv-x="232" /><glyph d="M96 716H161V0H96ZM335 -9Q317 -9 302 -6.5Q287 -4 276 -1Q263 3 252 8V64Q262 59 275 56Q286 52 299.5 49.5Q313 47 329 47Q368 47 386 70.5Q404 94 404 150V716H469V148Q469 70 435 30.5Q401 -9 335 -9Z" glyph-name="IJ" horiz-adv-x="560" unicode="&#306;" /><glyph d="M85 550H147V0H85ZM285 -7Q271 -7 258.5 -5Q246 -3 237 -1Q227 2 218 6V56Q226 52 236 50Q245 47 256 45Q267 43 279 43Q311 43 325 61.5Q339 80 339 121V550H401V120Q401 -7 285 -7Z" glyph-name="IJ.sc" horiz-adv-x="483" /><glyph d="M96 716H161V0H96ZM57 824 264 927 289 868 75 782Z" glyph-name="Iacute" horiz-adv-x="257" unicode="&#205;" /><glyph d="M53 636 222 716 244 666 70 601ZM85 550H147V0H85Z" glyph-name="Iacute.sc" horiz-adv-x="232" /><glyph d="M126 787Q61 787 25 824.5Q-11 862 -12 922H42Q44 891 63.5 866.5Q83 842 126 842Q169 842 188 866.5Q207 891 209 922H264Q262 862 226.5 824.5Q191 787 126 787ZM96 716H161V0H96Z" glyph-name="Ibreve" horiz-adv-x="257" unicode="&#300;" /><glyph d="M114 605Q63 605 32.5 633.5Q2 662 0 710H49Q50 689 64.5 669.5Q79 650 114 650Q148 650 163 669.5Q178 689 179 710H228Q226 662 196 633.5Q166 605 114 605ZM85 550H147V0H85Z" glyph-name="Ibreve.sc" horiz-adv-x="232" /><glyph d="M96 716H161V0H96ZM-31 816 106 930H147L285 816L261 782L127 874L-8 782Z" glyph-name="Icircumflex" horiz-adv-x="257" unicode="&#206;" /><glyph d="M-15 628 95 718H133L244 628L223 601L114 671L6 601ZM85 550H147V0H85Z" glyph-name="Icircumflex.sc" horiz-adv-x="232" /><glyph d="M49 808Q31 808 17 821Q3 834 3 856Q3 879 17 891.5Q31 904 50 904Q70 904 84 891.5Q98 879 98 857Q98 834 84 821Q70 808 49 808ZM210 808Q191 808 177.5 821Q164 834 164 856Q164 879 177.5 891.5Q191 904 211 904Q231 904 245 891.5Q259 879 259 857Q259 834 245 821Q231 808 210 808ZM96 716H161V0H96Z" glyph-name="Idieresis" horiz-adv-x="257" unicode="&#207;" /><glyph d="M50 620Q33 620 22 631.5Q11 643 11 660Q11 677 22.5 687.5Q34 698 51 698Q69 698 80.5 688Q92 678 92 661Q92 643 80.5 631.5Q69 620 50 620ZM183 620Q166 620 154.5 631.5Q143 643 143 660Q143 677 154.5 687.5Q166 698 183 698Q201 698 212.5 688Q224 678 224 661Q224 643 212.5 631.5Q201 620 183 620ZM85 550H147V0H85Z" glyph-name="Idieresis.sc" horiz-adv-x="232" /><glyph d="M96 716H161V0H96ZM126 808Q106 808 92.5 821.5Q79 835 79 858Q79 881 93 894Q107 907 127 907Q148 907 162 894Q176 881 176 858Q176 835 162 821.5Q148 808 126 808Z" glyph-name="Idotaccent" horiz-adv-x="257" unicode="&#304;" /><glyph d="M114 620Q96 620 84.5 631.5Q73 643 73 661Q73 678 84.5 689.5Q96 701 114 701Q134 701 145.5 689.5Q157 678 157 661Q157 643 145.5 631.5Q134 620 114 620ZM85 550H147V0H85Z" glyph-name="Idotaccent.sc" horiz-adv-x="232" /><glyph d="M96 716H161V0H96ZM-29 868 -4 927 203 824 185 782Z" glyph-name="Igrave" horiz-adv-x="257" unicode="&#204;" /><glyph d="M-11 666 12 716 180 636 163 601ZM85 550H147V0H85Z" glyph-name="Igrave.sc" horiz-adv-x="232" /><glyph d="M96 716H161V0H96ZM-7 884H264V826H-7Z" glyph-name="Imacron" horiz-adv-x="257" unicode="&#298;" /><glyph d="M6 683H226V634H6ZM85 550H147V0H85Z" glyph-name="Imacron.sc" horiz-adv-x="232" /><glyph d="M93 -225Q52 -225 25.5 -200.5Q-1 -176 -1 -136Q-1 -98 23.5 -60Q48 -22 96 0V716H161V0Q107 -31 83.5 -63.5Q60 -96 60 -124Q60 -149 74 -161.5Q88 -174 114 -174Q128 -174 140 -170Q152 -166 161 -160.5Q170 -155 176.5 -150Q183 -145 185 -143V-189Q183 -191 176.5 -196.5Q170 -202 159 -208.5Q148 -215 131.5 -220Q115 -225 93 -225Z" glyph-name="Iogonek" horiz-adv-x="257" unicode="&#302;" /><glyph d="M85 0V550H147V0Q105 -23 86.5 -47.5Q68 -72 68 -93Q68 -132 110 -132Q132 -132 147 -122Q162 -112 167 -109V-146Q162 -149 144 -161.5Q126 -174 92 -174Q57 -174 35 -154.5Q13 -135 13 -104Q13 -74 33.5 -45Q54 -16 91 0Z" glyph-name="Iogonek.sc" horiz-adv-x="232" /><glyph d="M-28 805Q-26 836 -16 861Q-7 883 10.5 899.5Q28 916 59 916Q85 916 101.5 904Q118 892 132 880Q147 867 159.5 856Q172 845 189 845Q202 845 209.5 853.5Q217 862 221 873Q226 885 227 901H273Q271 871 261 848Q252 826 235 810Q218 794 187 794Q163 794 146 806Q129 818 115 830Q101 842 88.5 853.5Q76 865 59 865Q44 865 36 855.5Q28 846 24 835Q19 822 18 805ZM96 716H161V0H96Z" glyph-name="Itilde" horiz-adv-x="257" unicode="&#296;" /><glyph d="M-13 619Q-13 621 -11 635Q-9 649 -1.5 665Q6 681 20.5 694Q35 707 60 707Q81 707 94.5 698Q108 689 120 680Q132 670 142 662Q152 654 166 654Q177 654 183 660.5Q189 667 192 675Q196 684 197 695H237Q237 693 235 679.5Q233 666 225.5 650.5Q218 635 204 622.5Q190 610 166 610Q146 610 132.5 618.5Q119 627 107 637Q95 646 84.5 654.5Q74 663 61 663Q49 663 42.5 656Q36 649 32 641Q28 631 27 619ZM85 550H147V0H85Z" glyph-name="Itilde.sc" horiz-adv-x="232" /><glyph d="M101 -9Q83 -9 68 -6.5Q53 -4 42 -1Q29 3 18 8V64Q28 59 41 56Q52 52 65.5 49.5Q79 47 95 47Q134 47 152 70.5Q170 94 170 150V716H235V148Q235 70 201 30.5Q167 -9 101 -9Z" glyph-name="J" horiz-adv-x="326" unicode="J" /><glyph d="M89 -7Q74 -7 62 -5Q50 -3 41 -1Q30 2 22 6V56Q30 52 40 50Q49 47 59.5 45Q70 43 82 43Q114 43 128.5 61.5Q143 80 143 121V550H205V120Q205 56 175.5 24.5Q146 -7 89 -7Z" glyph-name="J.sc" horiz-adv-x="286" /><glyph d="M44 816 181 930H222L360 816L336 782L202 874L67 782ZM101 -9Q83 -9 68 -6.5Q53 -4 42 -1Q29 3 18 8V64Q28 59 41 56Q52 52 65.5 49.5Q79 47 95 47Q134 47 152 70.5Q170 94 170 150V716H235V148Q235 70 201 30.5Q167 -9 101 -9Z" glyph-name="Jcircumflex" horiz-adv-x="326" unicode="&#308;" /><glyph d="M44 628 154 718H191L303 628L281 601L173 671L64 601ZM89 -7Q74 -7 62 -5Q50 -3 41 -1Q30 2 22 6V56Q30 52 40 50Q49 47 59.5 45Q70 43 82 43Q114 43 128.5 61.5Q143 80 143 121V550H205V120Q205 56 175.5 24.5Q146 -7 89 -7Z" glyph-name="Jcircumflex.sc" horiz-adv-x="286" /><glyph d="M96 716H161V393H226L464 716H533L279 370L543 0H467L226 337H161V0H96Z" glyph-name="K" horiz-adv-x="558" unicode="K" /><glyph d="M85 550H147V306H197L384 550H448L247 285L457 0H386L197 255H147V0H85Z" glyph-name="K.sc" horiz-adv-x="476" /><glyph d="M95 716H160V393H226L362 577Q410 643 464.5 679.5Q519 716 594 716H998V658H785V0H720V658H597Q564 658 538.5 651.5Q513 645 490.5 630Q468 615 446 591Q424 567 399 532L278 370L543 0H466L225 337H160V0H95Z" glyph-name="K_T" horiz-adv-x="1010" /><glyph d="M85 550H147V306H197L298 437Q340 491 386 520.5Q432 550 498 550H826V498H657V0H595V498H501Q474 498 452.5 492.5Q431 487 412 475.5Q393 464 375.5 445.5Q358 427 338 401L247 285L457 0H386L197 255H147V0H85Z" glyph-name="K_T.sc" horiz-adv-x="843" /><glyph d="M95 716H160V393H226L362 577Q410 643 464.5 679.5Q519 716 594 716H998V658H785V0H720V658H597Q564 658 538.5 651.5Q513 645 490.5 630Q468 615 446 591Q424 567 399 532L278 370L543 0H466L225 337H160V0H95ZM714 -246 748 -162Q728 -159 716 -146.5Q704 -134 704 -114Q704 -95 716.5 -80Q729 -65 753 -65Q776 -65 788 -80Q800 -95 800 -117Q800 -145 785.5 -180.5Q771 -216 749 -260Z" glyph-name="K_Tcommaaccent" horiz-adv-x="1010" /><glyph d="M85 550H147V306H197L298 437Q340 491 386 520.5Q432 550 498 550H826V498H657V0H595V498H501Q474 498 452.5 492.5Q431 487 412 475.5Q393 464 375.5 445.5Q358 427 338 401L247 285L457 0H386L197 255H147V0H85ZM593 -210 621 -145Q604 -143 593.5 -132.5Q583 -122 583 -106Q583 -90 594.5 -77.5Q606 -65 626 -65Q646 -65 656.5 -77.5Q667 -90 667 -108Q667 -130 654.5 -158.5Q642 -187 624 -222Z" glyph-name="K_Tcommaaccent.sc" horiz-adv-x="843" /><glyph d="M95 716H160V393H226L372 590Q402 631 428.5 663.5Q455 696 485 719Q515 742 551.5 754Q588 766 636 766H717V442Q732 460 754 475Q774 488 801.5 498Q829 508 867 508Q919 508 957 489.5Q995 471 1020.5 438Q1046 405 1058.5 360Q1071 315 1071 262Q1071 197 1055 146.5Q1039 96 1010.5 62Q982 28 941.5 10.5Q901 -7 853 -7Q812 -7 780 6Q748 19 713 45L702 0H653V715H631Q601 715 574.5 705.5Q548 696 522.5 676Q497 656 470 623.5Q443 591 410 546L278 370L543 0H466L225 337H160V0H95ZM717 86Q733 75 752 67Q770 59 792 53Q814 47 841 47Q919 47 961.5 102.5Q1004 158 1004 261Q1004 347 967 400.5Q930 454 850 454Q817 454 792 443.5Q767 433 751 421Q731 406 717 387Z" glyph-name="K_b" horiz-adv-x="1124" /><glyph d="M95 716H160V393H226L372 590Q402 631 429 664Q456 697 486.5 719.5Q517 742 554 754Q591 766 640 766H721V432Q739 453 765 470Q788 486 818.5 497Q849 508 891 508Q937 508 969 493.5Q1001 479 1021 452.5Q1041 426 1050 388.5Q1059 351 1059 305V0H995V299Q995 379 964 416.5Q933 454 867 454Q833 454 806 443.5Q779 433 760 420Q738 405 721 386V0H656V715H634Q604 715 577.5 706Q551 697 524.5 676.5Q498 656 470.5 624Q443 592 410 546L278 370L543 0H466L225 337H160V0H95Z" glyph-name="K_h" horiz-adv-x="1136" /><glyph d="M95 716H160V393H226L372 590Q402 631 429 664Q456 697 486.5 719.5Q517 742 553.5 754Q590 766 639 766H721V282H777L956 500H1026L832 265L1037 0H957L778 232H721V0H656V715H634Q604 715 577.5 706Q551 697 524.5 676.5Q498 656 470.5 624Q443 592 410 546L278 370L543 0H466L225 337H160V0H95Z" glyph-name="K_k" horiz-adv-x="1047" /><glyph d="M95 716H160V393H226L372 590Q402 631 428 663.5Q454 696 482.5 718.5Q511 741 545 753.5Q579 766 625 766H705V120Q705 77 717 60.5Q729 44 758 44Q761 44 765 45Q766 45 768 46V0Q762 -2 755 -4Q748 -5 740 -6Q732 -7 721 -7Q641 -7 641 97V715H620Q591 715 566.5 705.5Q542 696 518 675.5Q494 655 468 623Q442 591 410 546L278 370L543 0H466L225 337H160V0H95Z" glyph-name="K_l" horiz-adv-x="805" /><glyph d="M95 716H160V393H226L372 590Q402 631 428 663.5Q454 696 482.5 718.5Q511 741 545 753.5Q579 766 625 766H705V120Q705 77 717 60.5Q729 44 758 44Q761 44 765 45Q766 45 768 46V0Q762 -2 755 -4Q748 -5 740 -6Q732 -7 721 -7Q641 -7 641 97V715H620Q591 715 566.5 705.5Q542 696 518 675.5Q494 655 468 623Q442 591 410 546L278 370L543 0H466L225 337H160V0H95ZM562 844 769 947 794 888 580 802Z" glyph-name="K_lacute" horiz-adv-x="805" /><glyph d="M95 716H160V393H226L372 590Q402 631 428 663.5Q454 696 482.5 718.5Q511 741 545 753.5Q579 766 625 766H705V120Q705 77 717 60.5Q729 44 758 44Q761 44 765 45Q766 45 768 46V0Q762 -2 755 -4Q748 -5 740 -6Q732 -7 721 -7Q641 -7 641 97V715H620Q591 715 566.5 705.5Q542 696 518 675.5Q494 655 468 623Q442 591 410 546L278 370L543 0H466L225 337H160V0H95ZM778 594 812 678Q792 681 780 693.5Q768 706 768 726Q768 745 780.5 760Q793 775 817 775Q840 775 852 760Q864 745 864 723Q864 695 849.5 659.5Q835 624 813 580Z" glyph-name="K_lcaron" horiz-adv-x="831" /><glyph d="M95 716H160V393H226L372 590Q402 631 428 663.5Q454 696 482.5 718.5Q511 741 545 753.5Q579 766 625 766H705V120Q705 77 717 60.5Q729 44 758 44Q761 44 765 45Q766 45 768 46V0Q762 -2 755 -4Q748 -5 740 -6Q732 -7 721 -7Q641 -7 641 97V715H620Q591 715 566.5 705.5Q542 696 518 675.5Q494 655 468 623Q442 591 410 546L278 370L543 0H466L225 337H160V0H95ZM657 -246 691 -162Q671 -159 659 -146.5Q647 -134 647 -114Q647 -95 659.5 -80Q672 -65 696 -65Q719 -65 731 -80Q743 -95 743 -117Q743 -145 728.5 -180.5Q714 -216 692 -260Z" glyph-name="K_lcommaaccent" horiz-adv-x="805" /><glyph d="M721 -7Q641 -7 641 97V346L552 302V357L641 400V715H620Q591 715 566.5 705.5Q542 696 518 675.5Q494 655 468 623Q442 591 410 546L278 370L543 0H466L225 337H160V0H95V716H160V393H226L372 590Q402 631 428 663.5Q454 696 482.5 718.5Q511 741 545 753.5Q579 766 625 766H705V433L796 478V424L705 379V120Q705 77 717 61Q729 45 758 44Q762 44 764.5 45Q767 46 768 46V0Q762 -2 755 -4Q748 -5 740 -6Q732 -7 721 -7Z" glyph-name="K_lslash" horiz-adv-x="831" /><glyph d="M682 -7Q618 -7 565.5 9Q513 25 468 55Q423 85 383 128.5Q343 172 304 227L225 337H160V0H95V716H160V393H226L463 716H533L278 370L363 252Q436 148 512 95.5Q588 43 684 43Q754 43 794.5 65.5Q835 88 835 132Q835 168 807 190Q779 212 724 229Q696 238 669.5 249Q643 260 622 277Q601 294 588 318Q575 342 575 377Q575 439 623 473.5Q671 508 749 508Q778 508 800 504.5Q822 501 837 498Q855 493 868 487V435Q853 441 835 446Q818 450 797 453.5Q776 457 749 457Q695 457 665 436Q635 415 635 377Q635 337 668.5 316Q702 295 756 279Q825 260 860.5 227Q896 194 896 139Q896 73 841.5 33Q787 -7 682 -7Z" glyph-name="K_s" horiz-adv-x="940" /><glyph d="M682 -7Q618 -7 565.5 9Q513 25 468 55Q423 85 383 128.5Q343 172 304 227L225 337H160V0H95V716H160V393H226L463 716H533L278 370L363 252Q436 148 512 95.5Q588 43 684 43Q754 43 794.5 65.5Q835 88 835 132Q835 168 807 190Q779 212 724 229Q696 238 669.5 249Q643 260 622 277Q601 294 588 318Q575 342 575 377Q575 439 623 473.5Q671 508 749 508Q778 508 800 504.5Q822 501 837 498Q855 493 868 487V435Q853 441 835 446Q818 450 797 453.5Q776 457 749 457Q695 457 665 436Q635 415 635 377Q635 337 668.5 316Q702 295 756 279Q825 260 860.5 227Q896 194 896 139Q896 73 841.5 33Q787 -7 682 -7ZM684 623 849 759 882 711 711 588Z" glyph-name="K_sacute" horiz-adv-x="940" /><glyph d="M682 -7Q618 -7 565.5 9Q513 25 468 55Q423 85 383 128.5Q343 172 304 227L225 337H160V0H95V716H160V393H226L463 716H533L278 370L363 252Q436 148 512 95.5Q588 43 684 43Q754 43 794.5 65.5Q835 88 835 132Q835 168 807 190Q779 212 724 229Q696 238 669.5 249Q643 260 622 277Q601 294 588 318Q575 342 575 377Q575 439 623 473.5Q671 508 749 508Q778 508 800 504.5Q822 501 837 498Q855 493 868 487V435Q853 441 835 446Q818 450 797 453.5Q776 457 749 457Q695 457 665 436Q635 415 635 377Q635 337 668.5 316Q702 295 756 279Q825 260 860.5 227Q896 194 896 139Q896 73 841.5 33Q787 -7 682 -7ZM577 726 607 758 727 646 847 758 877 726 740 588H714Z" glyph-name="K_scaron" horiz-adv-x="940" /><glyph d="M848 -131Q848 -158 834.5 -178Q821 -198 798 -211Q775 -224 743 -229Q711 -234 675 -230V-189Q726 -191 757 -178Q788 -165 788 -137Q788 -114 764.5 -102.5Q741 -91 683 -92L693 -7H688Q620 -7 566 9Q512 25 467 55Q422 85 382.5 128.5Q343 172 304 227L225 337H160V0H95V716H160V393H226L463 716H533L278 370L363 252Q436 148 512 95.5Q588 43 684 43Q754 43 794.5 65.5Q835 88 835 132Q835 168 807 190Q779 212 724 229Q696 238 669.5 249Q643 260 622 277Q601 294 588 318Q575 342 575 377Q575 439 623 473.5Q671 508 749 508Q778 508 800 504.5Q822 501 837 498Q855 493 868 487V435Q853 441 835 446Q818 450 797 453.5Q776 457 749 457Q695 457 665 436Q635 415 635 377Q635 337 668.5 316Q702 295 756 279Q825 260 860.5 227Q896 194 896 139Q896 82 856 45Q816 8 741 -3L735 -49Q794 -51 821 -72Q848 -93 848 -131Z" glyph-name="K_scedilla" horiz-adv-x="940" /><glyph d="M96 716H161V393H226L464 716H533L279 370L543 0H467L226 337H161V0H96ZM258 -246 292 -162Q272 -159 260 -146.5Q248 -134 248 -114Q248 -95 260.5 -80Q273 -65 297 -65Q320 -65 332 -80Q344 -95 344 -117Q344 -145 329.5 -180.5Q315 -216 293 -260Z" glyph-name="Kcommaaccent" horiz-adv-x="558" unicode="&#310;" /><glyph d="M85 550H147V306H197L384 550H448L247 285L457 0H386L197 255H147V0H85ZM223 -210 251 -145Q234 -143 223.5 -132.5Q213 -122 213 -106Q213 -90 224 -77.5Q235 -65 256 -65Q276 -65 286.5 -77.5Q297 -90 297 -108Q297 -130 284.5 -158.5Q272 -187 254 -222Z" glyph-name="Kcommaaccent.sc" horiz-adv-x="476" /><glyph d="M95 716H160V393H226L362 577Q410 643 464.5 679.5Q519 716 594 716H998V658H785V0H720V658H597Q564 658 538.5 651.5Q513 645 490.5 630Q468 615 446 591Q424 567 399 532L278 370L543 0H466L225 337H160V0H95ZM260 -246 294 -162Q274 -159 262 -146.5Q250 -134 250 -114Q250 -95 262.5 -80Q275 -65 299 -65Q322 -65 334 -80Q346 -95 346 -117Q346 -145 331.5 -180.5Q317 -216 295 -260Z" glyph-name="Kcommaaccent_T" horiz-adv-x="1010" /><glyph d="M85 550H147V306H197L298 437Q340 491 386 520.5Q432 550 498 550H826V498H657V0H595V498H501Q474 498 452.5 492.5Q431 487 412 475.5Q393 464 375.5 445.5Q358 427 338 401L247 285L457 0H386L197 255H147V0H85ZM223 -210 251 -145Q234 -143 223.5 -132.5Q213 -122 213 -106Q213 -90 224 -77.5Q235 -65 256 -65Q276 -65 286.5 -77.5Q297 -90 297 -108Q297 -130 284.5 -158.5Q272 -187 254 -222Z" glyph-name="Kcommaaccent_T.sc" horiz-adv-x="843" /><glyph d="M682 -7Q618 -7 565.5 9Q513 25 468 55Q423 85 383 128.5Q343 172 304 227L225 337H160V0H95V716H160V393H226L463 716H533L278 370L363 252Q436 148 512 95.5Q588 43 684 43Q754 43 794.5 65.5Q835 88 835 132Q835 168 807 190Q779 212 724 229Q696 238 669.5 249Q643 260 622 277Q601 294 588 318Q575 342 575 377Q575 439 623 473.5Q671 508 749 508Q778 508 800 504.5Q822 501 837 498Q855 493 868 487V435Q853 441 835 446Q818 450 797 453.5Q776 457 749 457Q695 457 665 436Q635 415 635 377Q635 337 668.5 316Q702 295 756 279Q825 260 860.5 227Q896 194 896 139Q896 73 841.5 33Q787 -7 682 -7ZM293 -246 327 -162Q307 -159 295 -146.5Q283 -134 283 -114Q283 -95 295.5 -80Q308 -65 332 -65Q355 -65 367 -80Q379 -95 379 -117Q379 -145 364.5 -180.5Q350 -216 328 -260Z" glyph-name="Kcommaaccent_s" horiz-adv-x="940" /><glyph d="M682 -7Q618 -7 565.5 9Q513 25 468 55Q423 85 383 128.5Q343 172 304 227L225 337H160V0H95V716H160V393H226L463 716H533L278 370L363 252Q436 148 512 95.5Q588 43 684 43Q754 43 794.5 65.5Q835 88 835 132Q835 168 807 190Q779 212 724 229Q696 238 669.5 249Q643 260 622 277Q601 294 588 318Q575 342 575 377Q575 439 623 473.5Q671 508 749 508Q778 508 800 504.5Q822 501 837 498Q855 493 868 487V435Q853 441 835 446Q818 450 797 453.5Q776 457 749 457Q695 457 665 436Q635 415 635 377Q635 337 668.5 316Q702 295 756 279Q825 260 860.5 227Q896 194 896 139Q896 73 841.5 33Q787 -7 682 -7ZM577 726 607 758 727 646 847 758 877 726 740 588H714ZM293 -246 327 -162Q307 -159 295 -146.5Q283 -134 283 -114Q283 -95 295.5 -80Q308 -65 332 -65Q355 -65 367 -80Q379 -95 379 -117Q379 -145 364.5 -180.5Q350 -216 328 -260Z" glyph-name="Kcommaaccent_scaron" horiz-adv-x="940" /><glyph d="M96 716H161V58H465V0H96Z" glyph-name="L" horiz-adv-x="477" unicode="L" /><glyph d="M85 550H147V52H388V0H85Z" glyph-name="L.sc" horiz-adv-x="406" /><glyph d="M808 245 679 616 555 245ZM95 716H160V58H428L657 719H709L956 0H891L827 188H537L473 0H95Z" glyph-name="L_A" horiz-adv-x="974" /><glyph d="M661 190 562 465 466 190ZM85 550H147V52H359L538 552H593L790 0H727L678 139H449L400 0H85Z" glyph-name="L_A.sc" horiz-adv-x="810" /><glyph d="M808 245 679 616 555 245ZM95 716H160V58H428L657 719H709L956 0H891L827 188H537L473 0H95ZM617 824 824 927 849 868 635 782Z" glyph-name="L_Aacute" horiz-adv-x="974" /><glyph d="M508 636 675 716 698 666 524 600ZM661 190 562 465 466 190ZM85 550H147V52H359L538 552H593L790 0H727L678 139H449L400 0H85Z" glyph-name="L_Aacute.sc" horiz-adv-x="810" /><glyph d="M808 245 679 616 555 245ZM95 716H160V58H428L657 719H709L956 0H891L827 188H537L473 0H95ZM682 787Q617 787 581 824.5Q545 862 544 922H598Q600 891 619.5 866.5Q639 842 682 842Q725 842 744 866.5Q763 891 765 922H820Q818 862 782.5 824.5Q747 787 682 787Z" glyph-name="L_Abreve" horiz-adv-x="974" /><glyph d="M565 605Q513 605 483 633.5Q453 662 451 710H499Q500 689 515 669.5Q530 650 565 650Q599 650 614 669.5Q629 689 630 710H678Q676 662 646 633.5Q616 605 565 605ZM661 190 562 465 466 190ZM85 550H147V52H359L538 552H593L790 0H727L678 139H449L400 0H85Z" glyph-name="L_Abreve.sc" horiz-adv-x="810" /><glyph d="M808 245 679 616 555 245ZM95 716H160V58H428L657 719H709L956 0H891L827 188H537L473 0H95ZM524 816 661 930H702L840 816L816 782L682 874L547 782Z" glyph-name="L_Acircumflex" horiz-adv-x="974" /><glyph d="M435 628 545 718H583L693 628L673 601L564 671L455 601ZM661 190 562 465 466 190ZM85 550H147V52H359L538 552H593L790 0H727L678 139H449L400 0H85Z" glyph-name="L_Acircumflex.sc" horiz-adv-x="810" /><glyph d="M808 245 679 616 555 245ZM95 716H160V58H428L657 719H709L956 0H891L827 188H537L473 0H95ZM591 808Q572 808 558.5 821Q545 834 545 856Q545 879 558.5 891.5Q572 904 591 904Q611 904 625 891.5Q639 879 639 857Q639 834 625 821Q611 808 591 808ZM770 808Q751 808 737.5 821Q724 834 724 856Q724 879 737.5 891.5Q751 904 771 904Q791 904 804.5 891.5Q818 879 818 857Q818 834 804 821Q790 808 770 808Z" glyph-name="L_Adieresis" horiz-adv-x="974" /><glyph d="M490 620Q473 620 462 631.5Q451 643 451 660Q451 677 462.5 687.5Q474 698 491 698Q509 698 520.5 688Q532 678 532 661Q532 643 520.5 631.5Q509 620 490 620ZM636 620Q619 620 607.5 631.5Q596 643 596 660Q596 677 608 687.5Q620 698 637 698Q655 698 666.5 688Q678 678 678 661Q678 643 666.5 631.5Q655 620 636 620ZM661 190 562 465 466 190ZM85 550H147V52H359L538 552H593L790 0H727L678 139H449L400 0H85Z" glyph-name="L_Adieresis.sc" horiz-adv-x="810" /><glyph d="M808 245 679 616 555 245ZM95 716H160V58H428L657 719H709L956 0H891L827 188H537L473 0H95ZM511 868 536 927 743 824 725 782Z" glyph-name="L_Agrave" horiz-adv-x="974" /><glyph d="M428 666 451 716 619 636 602 601ZM661 190 562 465 466 190ZM85 550H147V52H359L538 552H593L790 0H727L678 139H449L400 0H85Z" glyph-name="L_Agrave.sc" horiz-adv-x="810" /><glyph d="M545 884H816V826H545ZM808 245 679 616 555 245ZM95 716H160V58H428L657 719H709L956 0H891L827 188H537L473 0H95Z" glyph-name="L_Amacron" horiz-adv-x="974" /><glyph d="M454 683H674V634H454ZM661 190 562 465 466 190ZM85 550H147V52H359L538 552H593L790 0H727L678 139H449L400 0H85Z" glyph-name="L_Amacron.sc" horiz-adv-x="810" /><glyph d="M888 -225Q847 -225 820.5 -200.5Q794 -176 794 -136Q794 -98 819 -60Q844 -22 891 0L827 188H537L473 0H95V716H160V58H428L657 719H709L956 0Q902 -31 879 -63.5Q856 -96 856 -124Q856 -174 910 -174Q924 -174 935.5 -170Q947 -166 956.5 -160.5Q966 -155 972 -150Q978 -145 981 -143V-189Q979 -191 972.5 -196.5Q966 -202 954.5 -208.5Q943 -215 926.5 -220Q910 -225 888 -225ZM808 245 679 616 555 245Z" glyph-name="L_Aogonek" horiz-adv-x="974" /><glyph d="M727 0 678 139H449L400 0H85V550H147V52H359L538 552H593L790 0Q749 -21 729.5 -46.5Q710 -72 710 -93Q710 -132 752 -132Q774 -132 789 -122Q804 -112 809 -109V-146Q804 -149 785.5 -161.5Q767 -174 734 -174Q699 -174 677 -154.5Q655 -135 655 -104Q655 -74 675.5 -45Q696 -16 733 0ZM661 190 562 465 466 190Z" glyph-name="L_Aogonek.sc" horiz-adv-x="810" /><glyph d="M808 245 679 616 555 245ZM95 716H160V58H428L657 719H709L956 0H891L827 188H537L473 0H95ZM682 770Q633 770 603 794.5Q573 819 573 861Q573 899 602.5 925.5Q632 952 682 952Q731 952 761.5 925.5Q792 899 792 861Q792 819 762.5 794.5Q733 770 682 770ZM682 810Q709 810 726 824Q743 838 743 862Q743 884 725.5 898Q708 912 682 912Q655 912 638.5 898Q622 884 622 862Q622 838 638.5 824Q655 810 682 810Z" glyph-name="L_Aring" horiz-adv-x="974" /><glyph d="M564 592Q524 592 499.5 611.5Q475 631 475 663Q475 693 499 713.5Q523 734 564 734Q606 734 630.5 714Q655 694 655 663Q655 631 630.5 611.5Q606 592 564 592ZM564 625Q586 625 599.5 635.5Q613 646 613 664Q613 681 599 691Q585 701 564 701Q543 701 530 691Q517 681 517 664Q517 646 530.5 635.5Q544 625 564 625ZM661 190 562 465 466 190ZM85 550H147V52H359L538 552H593L790 0H727L678 139H449L400 0H85Z" glyph-name="L_Aring.sc" horiz-adv-x="810" /><glyph d="M808 245 679 616 555 245ZM95 716H160V58H428L657 719H709L956 0H891L827 188H537L473 0H95ZM534 805Q536 836 546 861Q555 883 572.5 899.5Q590 916 621 916Q647 916 663.5 904Q680 892 694 880Q709 867 721.5 856Q734 845 751 845Q764 845 771.5 853.5Q779 862 783 873Q788 885 789 901H835Q833 871 823 848Q814 826 797 810Q780 794 749 794Q725 794 708 806Q691 818 677 830Q663 842 650.5 853.5Q638 865 621 865Q606 865 598 855.5Q590 846 586 835Q581 822 580 805Z" glyph-name="L_Atilde" horiz-adv-x="974" /><glyph d="M442 619Q442 621 444 635Q446 649 453.5 665Q461 681 475.5 694Q490 707 515 707Q536 707 549 698Q562 689 574 680Q587 670 597 662Q607 654 620 654Q631 654 637 660.5Q643 667 646 675Q650 684 651 695H692Q692 693 690 679.5Q688 666 680.5 650.5Q673 635 659 622.5Q645 610 620 610Q600 610 587 618.5Q574 627 562 637Q549 646 539 654.5Q529 663 516 663Q504 663 497 656Q490 649 487 641Q483 631 482 619ZM661 190 562 465 466 190ZM85 550H147V52H359L538 552H593L790 0H727L678 139H449L400 0H85Z" glyph-name="L_Atilde.sc" horiz-adv-x="810" /><glyph d="M96 716H161V58H465V0H96ZM109 824 316 927 341 868 127 782Z" glyph-name="Lacute" horiz-adv-x="477" unicode="&#313;" /><glyph d="M96 636 265 716 287 666 113 601ZM85 550H147V52H388V0H85Z" glyph-name="Lacute.sc" horiz-adv-x="406" /><glyph d="M96 716H161V58H465V0H96ZM386 545 420 629Q400 632 388 644.5Q376 657 376 677Q376 696 388.5 711Q401 726 425 726Q448 726 460 711Q472 696 472 674Q472 646 457.5 610.5Q443 575 421 531Z" glyph-name="Lcaron" horiz-adv-x="514" unicode="&#317;" /><glyph d="M323 416 352 481Q335 483 324.5 493Q314 503 314 520Q314 536 325 548Q336 560 356 560Q376 560 387 548Q398 536 398 517Q398 495 385 466.5Q372 438 354 403ZM85 550H147V52H388V0H85Z" glyph-name="Lcaron.sc" horiz-adv-x="439" /><glyph d="M808 245 679 616 555 245ZM95 716H160V58H428L657 719H709L956 0H891L827 188H537L473 0H95ZM385 545 419 629Q399 632 387 644.5Q375 657 375 677Q375 696 387.5 711Q400 726 424 726Q447 726 459 711Q471 696 471 674Q471 646 456.5 610.5Q442 575 420 531Z" glyph-name="Lcaron_A" horiz-adv-x="974" /><glyph d="M320 416 348 481Q331 483 320.5 493Q310 503 310 520Q310 536 321 548Q332 560 352 560Q373 560 383.5 548Q394 536 394 517Q394 495 381.5 466.5Q369 438 351 403ZM661 190 562 465 466 190ZM85 550H147V52H359L538 552H593L790 0H727L678 139H449L400 0H85Z" glyph-name="Lcaron_A.sc" horiz-adv-x="810" /><glyph d="M96 716H161V58H465V0H96ZM254 -246 288 -162Q268 -159 256 -146.5Q244 -134 244 -114Q244 -95 256.5 -80Q269 -65 293 -65Q316 -65 328 -80Q340 -95 340 -117Q340 -145 325.5 -180.5Q311 -216 289 -260Z" glyph-name="Lcommaaccent" horiz-adv-x="477" unicode="&#315;" /><glyph d="M85 550H147V52H388V0H85ZM214 -210 242 -145Q225 -143 214.5 -132.5Q204 -122 204 -106Q204 -90 215 -77.5Q226 -65 247 -65Q267 -65 277.5 -77.5Q288 -90 288 -108Q288 -130 275 -158.5Q262 -187 244 -222Z" glyph-name="Lcommaaccent.sc" horiz-adv-x="406" /><glyph d="M808 245 679 616 555 245ZM95 716H160V58H428L657 719H709L956 0H891L827 188H537L473 0H95ZM254 -246 288 -162Q268 -159 256 -146.5Q244 -134 244 -114Q244 -95 256.5 -80Q269 -65 293 -65Q316 -65 328 -80Q340 -95 340 -117Q340 -145 325.5 -180.5Q311 -216 289 -260Z" glyph-name="Lcommaaccent_A" horiz-adv-x="974" /><glyph d="M661 190 562 465 466 190ZM85 550H147V52H359L538 552H593L790 0H727L678 139H449L400 0H85ZM214 -210 242 -145Q225 -143 214.5 -132.5Q204 -122 204 -106Q204 -90 215 -77.5Q226 -65 247 -65Q267 -65 277.5 -77.5Q288 -90 288 -108Q288 -130 275 -158.5Q262 -187 244 -222Z" glyph-name="Lcommaaccent_A.sc" horiz-adv-x="810" /><glyph d="M545 884H816V826H545ZM808 245 679 616 555 245ZM95 716H160V58H428L657 719H709L956 0H891L827 188H537L473 0H95ZM254 -246 288 -162Q268 -159 256 -146.5Q244 -134 244 -114Q244 -95 256.5 -80Q269 -65 293 -65Q316 -65 328 -80Q340 -95 340 -117Q340 -145 325.5 -180.5Q311 -216 289 -260Z" glyph-name="Lcommaaccent_Amacron" horiz-adv-x="974" /><glyph d="M454 683H674V634H454ZM661 190 562 465 466 190ZM85 550H147V52H359L538 552H593L790 0H727L678 139H449L400 0H85ZM214 -210 242 -145Q225 -143 214.5 -132.5Q204 -122 204 -106Q204 -90 215 -77.5Q226 -65 247 -65Q267 -65 277.5 -77.5Q288 -90 288 -108Q288 -130 275 -158.5Q262 -187 244 -222Z" glyph-name="Lcommaaccent_Amacron.sc" horiz-adv-x="810" /><glyph d="M96 716H161V58H465V0H96ZM372 308Q349 308 336 323Q323 338 323 359Q323 381 336 395.5Q349 410 372 410Q394 410 407 395.5Q420 381 420 359Q420 338 407 323Q394 308 372 308Z" glyph-name="Ldot" horiz-adv-x="481" unicode="&#319;" /><glyph d="M85 550H147V52H388V0H85ZM315 236Q296 236 284.5 248.5Q273 261 273 278Q273 297 284.5 309Q296 321 315 321Q335 321 347 309Q359 297 359 278Q359 261 347 248.5Q335 236 315 236Z" glyph-name="Ldot.sc" horiz-adv-x="410" /><glyph d="M110 0V329L18 281V345L110 393V716H175V428L293 491V427L175 365V58H479V0Z" glyph-name="Lslash" horiz-adv-x="491" unicode="&#321;" /><glyph d="M95 0V248L25 213V267L95 301V550H157V333L254 380V326L157 278V52H399V0Z" glyph-name="Lslash.sc" horiz-adv-x="416" /><glyph d="M840 245 712 616 587 245ZM505 0H127V329L36 281V345L127 393V716H192V428L311 491V427L192 365V58H461L690 719H741L988 0H923L859 188H569Z" glyph-name="Lslash_A" horiz-adv-x="1006" /><glyph d="M687 190 587 465 491 190ZM110 248 39 213V267L110 302V550H172V333L269 380V326L172 278V52H384L564 552H618L815 0H752L703 139H475L426 0H110Z" glyph-name="Lslash_A.sc" horiz-adv-x="836" /><glyph d="M840 245 712 616 587 245ZM923 0 859 188H569L505 0H127V329L36 281V345L127 393V716H192V428L311 491V427L192 365V58H461L690 719H741L988 0Q935 -31 911.5 -63.5Q888 -96 888 -124Q888 -174 942 -174Q956 -174 968 -170Q980 -166 989 -160.5Q998 -155 1004 -150Q1010 -145 1013 -143V-189Q1011 -191 1004.5 -196.5Q998 -202 986.5 -208.5Q975 -215 958.5 -220Q942 -225 920 -225Q879 -225 853 -200.5Q827 -176 827 -136Q827 -98 851.5 -60Q876 -22 924 0Z" glyph-name="Lslash_Aogonek" horiz-adv-x="1006" /><glyph d="M752 0 703 139H475L426 0H110V248L39 213V267L110 302V550H172V333L269 380V326L172 278V52H384L564 552H618L815 0Q773 -23 754 -47.5Q735 -72 735 -93Q735 -132 778 -132Q800 -132 815 -122Q830 -112 835 -109V-146Q830 -149 811.5 -161.5Q793 -174 759 -174Q724 -174 702.5 -154.5Q681 -135 681 -104Q681 -74 701 -45Q721 -16 759 0ZM687 190 587 465 491 190Z" glyph-name="Lslash_Aogonek.sc" horiz-adv-x="836" /><glyph d="M168 616 137 0H78L115 716H190L413 139L635 716H706L744 0H681L650 616L432 42H386Z" glyph-name="M" horiz-adv-x="822" unicode="M" /><glyph d="M150 464 126 0H70L101 550H172L345 118L518 550H586L617 0H557L534 463L364 33H319Z" glyph-name="M.sc" horiz-adv-x="687" /><glyph d="M96 716H156L532 116V716H592V0H532L156 602V0H96Z" glyph-name="N" horiz-adv-x="688" unicode="N" /><glyph d="M85 550H142L436 103V550H493V0H436L142 447V0H85Z" glyph-name="N.sc" horiz-adv-x="578" /><glyph d="M715 399Q757 399 786 409.5Q815 420 833 438Q851 456 859 480.5Q867 505 867 533Q867 659 699 659H596V399ZM531 716H700Q823 716 878 667.5Q933 619 933 534Q933 502 924 477Q915 452 900 432.5Q885 413 865.5 399.5Q846 386 826 377Q886 362 927 318Q968 274 968 204Q968 101 904.5 50.5Q841 0 729 0H531L156 602V0H95V716H155L531 116ZM728 57Q818 57 859.5 96.5Q901 136 901 202Q901 342 728 342H596V57Z" glyph-name="N_B" horiz-adv-x="1020" /><glyph d="M590 309Q654 309 680.5 338Q707 367 707 407Q707 501 577 501H497V309ZM436 550H577Q678 550 723.5 512.5Q769 475 769 409Q769 360 742 331.5Q715 303 683 289Q730 278 763.5 244.5Q797 211 797 157Q797 79 745 39.5Q693 0 600 0H436L142 447V0H85V550H142L436 103ZM599 49Q668 49 700 78.5Q732 108 732 157Q732 259 599 259H497V49Z" glyph-name="N_B.sc" horiz-adv-x="846" /><glyph d="M715 58Q839 58 904 134Q969 210 969 364Q969 515 903 586.5Q837 658 715 658H592V58ZM95 716H155L531 116V716H715Q874 716 955 626Q1036 536 1036 364Q1036 186 955 93Q874 0 715 0H531L156 602V0H95Z" glyph-name="N_D" horiz-adv-x="1095" /><glyph d="M588 52Q685 52 735.5 109.5Q786 167 786 279Q786 390 734.5 444Q683 498 588 498H494V52ZM85 550H142L436 103V550H587Q718 550 784 480Q850 410 850 279Q850 145 784 72.5Q718 0 587 0H436L142 447V0H85Z" glyph-name="N_D.sc" horiz-adv-x="904" /><glyph d="M95 716H155L531 116V716H894V658H592V393H851V335H592V58H894V0H531L156 602V0H95Z" glyph-name="N_E" horiz-adv-x="946" /><glyph d="M85 550H142L436 103V550H737V498H494V306H701V254H494V52H737V0H436L142 447V0H85Z" glyph-name="N_E.sc" horiz-adv-x="788" /><glyph d="M95 716H155L531 116V716H894V658H592V393H851V335H592V58H894V0H531L156 602V0H95ZM623 824 830 927 855 868 641 782Z" glyph-name="N_Eacute" horiz-adv-x="946" /><glyph d="M514 636 681 716 704 666 530 601ZM85 550H142L436 103V550H737V498H494V306H701V254H494V52H737V0H436L142 447V0H85Z" glyph-name="N_Eacute.sc" horiz-adv-x="788" /><glyph d="M95 716H155L531 116V716H894V658H592V393H851V335H592V58H894V0H531L156 602V0H95ZM553 896 576 930 714 838 851 930 875 896 734 782H692Z" glyph-name="N_Ecaron" horiz-adv-x="946" /><glyph d="M457 689 477 718 588 647 698 718 720 689 606 601H569ZM85 550H142L436 103V550H737V498H494V306H701V254H494V52H737V0H436L142 447V0H85Z" glyph-name="N_Ecaron.sc" horiz-adv-x="788" /><glyph d="M95 716H155L531 116V716H894V658H592V393H851V335H592V58H894V0H531L156 602V0H95ZM548 816 685 930H726L864 816L840 782L706 874L571 782Z" glyph-name="N_Ecircumflex" horiz-adv-x="946" /><glyph d="M453 628 563 718H601L712 628L690 601L582 671L473 601ZM85 550H142L436 103V550H737V498H494V306H701V254H494V52H737V0H436L142 447V0H85Z" glyph-name="N_Ecircumflex.sc" horiz-adv-x="788" /><glyph d="M95 716H155L531 116V716H894V658H592V393H851V335H592V58H894V0H531L156 602V0H95ZM626 808Q607 808 593.5 821Q580 834 580 856Q580 879 593.5 891.5Q607 904 626 904Q646 904 660 891.5Q674 879 674 857Q674 834 660 821Q646 808 626 808ZM805 808Q786 808 772.5 821Q759 834 759 856Q759 879 772.5 891.5Q786 904 806 904Q826 904 839.5 891.5Q853 879 853 857Q853 834 839 821Q825 808 805 808Z" glyph-name="N_Edieresis" horiz-adv-x="946" /><glyph d="M516 620Q498 620 487 631.5Q476 643 476 660Q476 677 487 687.5Q498 698 516 698Q534 698 545.5 688Q557 678 557 661Q557 643 545.5 631.5Q534 620 516 620ZM662 620Q644 620 633 631.5Q622 643 622 660Q622 677 633 687.5Q644 698 662 698Q681 698 692 688Q703 678 703 661Q703 643 692 631.5Q681 620 662 620ZM85 550H142L436 103V550H737V498H494V306H701V254H494V52H737V0H436L142 447V0H85Z" glyph-name="N_Edieresis.sc" horiz-adv-x="788" /><glyph d="M95 716H155L531 116V716H894V658H592V393H851V335H592V58H894V0H531L156 602V0H95ZM717 808Q697 808 683.5 821.5Q670 835 670 858Q670 881 684 894Q698 907 718 907Q739 907 753 894Q767 881 767 858Q767 835 753 821.5Q739 808 717 808Z" glyph-name="N_Edotaccent" horiz-adv-x="946" /><glyph d="M590 620Q571 620 559.5 631.5Q548 643 548 661Q548 678 559.5 689.5Q571 701 590 701Q610 701 621 689.5Q632 678 632 661Q632 643 621 631.5Q610 620 590 620ZM85 550H142L436 103V550H737V498H494V306H701V254H494V52H737V0H436L142 447V0H85Z" glyph-name="N_Edotaccent.sc" horiz-adv-x="788" /><glyph d="M95 716H155L531 116V716H894V658H592V393H851V335H592V58H894V0H531L156 602V0H95ZM568 868 593 927 800 824 782 782Z" glyph-name="N_Egrave" horiz-adv-x="946" /><glyph d="M470 666 493 716 660 636 644 601ZM85 550H142L436 103V550H737V498H494V306H701V254H494V52H737V0H436L142 447V0H85Z" glyph-name="N_Egrave.sc" horiz-adv-x="788" /><glyph d="M95 716H155L531 116V716H894V658H592V393H851V335H592V58H894V0H531L156 602V0H95ZM578 884H849V826H578Z" glyph-name="N_Emacron" horiz-adv-x="946" /><glyph d="M478 683H697V634H478ZM85 550H142L436 103V550H737V498H494V306H701V254H494V52H737V0H436L142 447V0H85Z" glyph-name="N_Emacron.sc" horiz-adv-x="788" /><glyph d="M531 0 156 602V0H95V716H155L531 116V716H894V658H592V393H851V335H592V58H894V0Q840 -31 816.5 -63.5Q793 -96 793 -124Q793 -149 807 -161.5Q821 -174 847 -174Q861 -174 873 -170Q885 -166 894.5 -160.5Q904 -155 910 -150Q916 -145 919 -143V-189Q917 -191 910.5 -196.5Q904 -202 892.5 -208.5Q881 -215 864.5 -220Q848 -225 826 -225Q785 -225 758.5 -200.5Q732 -176 732 -136Q732 -98 757 -60Q782 -22 829 0Z" glyph-name="N_Eogonek" horiz-adv-x="946" /><glyph d="M436 0 142 447V0H85V550H142L436 103V550H737V498H494V306H701V254H494V52H737V0Q695 -23 676 -47.5Q657 -72 657 -93Q657 -132 700 -132Q721 -132 736 -122Q751 -112 756 -109V-146Q752 -149 733.5 -161.5Q715 -174 681 -174Q646 -174 624 -154.5Q602 -135 602 -104Q602 -74 622.5 -45Q643 -16 680 0Z" glyph-name="N_Eogonek.sc" horiz-adv-x="788" /><glyph d="M95 716H155L531 116V716H890V658H592V391H847V333H592V0H531L156 602V0H95Z" glyph-name="N_F" horiz-adv-x="920" /><glyph d="M85 550H142L436 103V550H733V498H494V302H699V250H494V0H436L142 447V0H85Z" glyph-name="N_F.sc" horiz-adv-x="765" /><glyph d="M95 716H155L531 116V716H592V393H657L895 716H964L710 370L974 0H898L657 337H592V0H531L156 602V0H95Z" glyph-name="N_K" horiz-adv-x="988" /><glyph d="M85 550H142L436 103V550H494V306H545L730 550H796L595 285L805 0H734L545 255H494V0H436L142 447V0H85Z" glyph-name="N_K.sc" horiz-adv-x="823" /><glyph d="M95 716H155L531 116V716H592V393H657L895 716H964L710 370L974 0H898L657 337H592V0H531L156 602V0H95ZM699 -246 733 -162Q713 -159 701 -146.5Q689 -134 689 -114Q689 -95 701.5 -80Q714 -65 738 -65Q761 -65 773 -80Q785 -95 785 -117Q785 -145 770.5 -180.5Q756 -216 734 -260Z" glyph-name="N_Kcommaaccent" horiz-adv-x="988" /><glyph d="M85 550H142L436 103V550H494V306H545L730 550H796L595 285L805 0H734L545 255H494V0H436L142 447V0H85ZM576 -210 604 -145Q587 -143 576.5 -132.5Q566 -122 566 -106Q566 -90 577.5 -77.5Q589 -65 609 -65Q629 -65 639.5 -77.5Q650 -90 650 -108Q650 -130 637.5 -158.5Q625 -187 607 -222Z" glyph-name="N_Kcommaaccent.sc" horiz-adv-x="823" /><glyph d="M95 716H155L531 116V716H592L967 116V716H1028V0H967L592 602V0H531L156 602V0H95Z" glyph-name="N_N" horiz-adv-x="1123" /><glyph d="M85 550H142L436 103V550H493L787 103V550H844V0H787L493 448V0H436L142 447V0H85Z" glyph-name="N_N.sc" horiz-adv-x="929" /><glyph d="M683 344Q770 344 824 385.5Q878 427 878 508Q878 585 827.5 622Q777 659 681 659H592V344ZM95 716H155L531 116V716H680Q812 716 878.5 663.5Q945 611 945 508Q945 455 925.5 414Q906 373 871 345Q836 317 787.5 302.5Q739 288 680 288H592V0H531L156 602V0H95Z" glyph-name="N_P" horiz-adv-x="982" /><glyph d="M561 266Q629 266 670.5 297Q712 328 712 388Q712 445 673 472.5Q634 500 560 500H492V266ZM85 550H142L435 103V550H560Q668 550 721.5 509Q775 468 775 388Q775 347 759.5 315Q744 283 715.5 261Q687 239 647.5 227.5Q608 216 560 216H492V0H435L141 449V0H85Z" glyph-name="N_P.sc" horiz-adv-x="812" /><glyph d="M700 361Q734 361 764 371.5Q794 382 816 403Q838 424 851 454Q864 484 864 523Q864 585 824 622Q784 659 693 659H592V361ZM95 716H155L531 116V716H696Q814 716 872.5 665Q931 614 931 525Q931 459 895.5 402.5Q860 346 780 318L969 0H897L715 305H592V0H531L156 602V0H95Z" glyph-name="N_R" horiz-adv-x="995" /><glyph d="M576 280Q630 280 666.5 310.5Q703 341 703 398Q703 445 672 472.5Q641 500 571 500H492V280ZM85 550H142L435 103V550H573Q670 550 718 510.5Q766 471 766 402Q766 351 738.5 309Q711 267 648 244L795 0H727L587 231H492V0H435L141 449V0H85Z" glyph-name="N_R.sc" horiz-adv-x="828" /><glyph d="M96 716H156L532 116V716H592V0H532L156 602V0H96ZM293 824 500 927 525 868 311 782Z" glyph-name="Nacute" horiz-adv-x="688" unicode="&#323;" /><glyph d="M96 716H156L532 116V716H592V0H532L156 602V0H96ZM301 792 388 972 439 943 340 771Z" glyph-name="Nacute.pl" horiz-adv-x="688" /><glyph d="M253 611 325 748 368 725 288 592ZM85 550H142L436 103V550H493V0H436L142 447V0H85Z" glyph-name="Nacute.pl.sc" horiz-adv-x="578" /><glyph d="M245 636 413 716 436 666 262 601ZM85 550H142L436 103V550H493V0H436L142 447V0H85Z" glyph-name="Nacute.sc" horiz-adv-x="578" /><glyph d="M95 716H155L531 116V716H592V393H657L895 716H964L710 370L974 0H898L657 337H592V0H531L156 602V0H95ZM292 824 499 927 524 868 310 782Z" glyph-name="Nacute_K" horiz-adv-x="988" /><glyph d="M245 636 413 716 436 666 262 601ZM85 550H142L436 103V550H494V306H545L730 550H796L595 285L805 0H734L545 255H494V0H436L142 447V0H85Z" glyph-name="Nacute_K.sc" horiz-adv-x="823" /><glyph d="M96 716H156L532 116V716H592V0H532L156 602V0H96ZM190 896 213 930 351 838 488 930 512 896 371 782H329Z" glyph-name="Ncaron" horiz-adv-x="688" unicode="&#327;" /><glyph d="M162 689 182 718 294 647 404 718 426 689 312 601H274ZM85 550H142L436 103V550H493V0H436L142 447V0H85Z" glyph-name="Ncaron.sc" horiz-adv-x="578" /><glyph d="M715 58Q839 58 904 134Q969 210 969 364Q969 515 903 586.5Q837 658 715 658H592V58ZM95 716H155L531 116V716H715Q874 716 955 626Q1036 536 1036 364Q1036 186 955 93Q874 0 715 0H531L156 602V0H95ZM189 896 212 930 350 838 487 930 511 896 370 782H328Z" glyph-name="Ncaron_D" horiz-adv-x="1095" /><glyph d="M162 689 182 718 294 647 404 718 426 689 312 601H274ZM588 52Q685 52 735.5 109.5Q786 167 786 279Q786 390 734.5 444Q683 498 588 498H494V52ZM85 550H142L436 103V550H587Q718 550 784 480Q850 410 850 279Q850 145 784 72.5Q718 0 587 0H436L142 447V0H85Z" glyph-name="Ncaron_D.sc" horiz-adv-x="904" /><glyph d="M95 716H155L531 116V716H592V393H657L895 716H964L710 370L974 0H898L657 337H592V0H531L156 602V0H95ZM189 896 212 930 350 838 487 930 511 896 370 782H328Z" glyph-name="Ncaron_K" horiz-adv-x="988" /><glyph d="M162 689 182 718 294 647 404 718 426 689 312 601H274ZM85 550H142L436 103V550H494V306H545L730 550H796L595 285L805 0H734L545 255H494V0H436L142 447V0H85Z" glyph-name="Ncaron_K.sc" horiz-adv-x="823" /><glyph d="M96 716H156L532 116V716H592V0H532L156 602V0H96ZM310 -246 344 -162Q324 -159 312 -146.5Q300 -134 300 -114Q300 -95 312.5 -80Q325 -65 349 -65Q372 -65 384 -80Q396 -95 396 -117Q396 -145 381.5 -180.5Q367 -216 345 -260Z" glyph-name="Ncommaaccent" horiz-adv-x="688" unicode="&#325;" /><glyph d="M85 550H142L436 103V550H493V0H436L142 447V0H85ZM260 -210 288 -145Q271 -143 260.5 -132.5Q250 -122 250 -106Q250 -90 261.5 -77.5Q273 -65 293 -65Q313 -65 323.5 -77.5Q334 -90 334 -108Q334 -130 322 -158.5Q310 -187 291 -222Z" glyph-name="Ncommaaccent.sc" horiz-adv-x="578" /><glyph d="M715 399Q757 399 786 409.5Q815 420 833 438Q851 456 859 480.5Q867 505 867 533Q867 659 699 659H596V399ZM531 716H700Q823 716 878 667.5Q933 619 933 534Q933 502 924 477Q915 452 900 432.5Q885 413 865.5 399.5Q846 386 826 377Q886 362 927 318Q968 274 968 204Q968 101 904.5 50.5Q841 0 729 0H531L156 602V0H95V716H155L531 116ZM728 57Q818 57 859.5 96.5Q901 136 901 202Q901 342 728 342H596V57ZM309 -246 343 -162Q323 -159 311 -146.5Q299 -134 299 -114Q299 -95 311.5 -80Q324 -65 348 -65Q371 -65 383 -80Q395 -95 395 -117Q395 -145 380.5 -180.5Q366 -216 344 -260Z" glyph-name="Ncommaaccent_B" horiz-adv-x="1020" /><glyph d="M590 309Q654 309 680.5 338Q707 367 707 407Q707 501 577 501H497V309ZM436 550H577Q678 550 723.5 512.5Q769 475 769 409Q769 360 742 331.5Q715 303 683 289Q730 278 763.5 244.5Q797 211 797 157Q797 79 745 39.5Q693 0 600 0H436L142 447V0H85V550H142L436 103ZM599 49Q668 49 700 78.5Q732 108 732 157Q732 259 599 259H497V49ZM260 -210 288 -145Q271 -143 260.5 -132.5Q250 -122 250 -106Q250 -90 261.5 -77.5Q273 -65 293 -65Q313 -65 323.5 -77.5Q334 -90 334 -108Q334 -130 322 -158.5Q310 -187 291 -222Z" glyph-name="Ncommaaccent_B.sc" horiz-adv-x="846" /><glyph d="M715 58Q839 58 904 134Q969 210 969 364Q969 515 903 586.5Q837 658 715 658H592V58ZM95 716H155L531 116V716H715Q874 716 955 626Q1036 536 1036 364Q1036 186 955 93Q874 0 715 0H531L156 602V0H95ZM309 -246 343 -162Q323 -159 311 -146.5Q299 -134 299 -114Q299 -95 311.5 -80Q324 -65 348 -65Q371 -65 383 -80Q395 -95 395 -117Q395 -145 380.5 -180.5Q366 -216 344 -260Z" glyph-name="Ncommaaccent_D" horiz-adv-x="1095" /><glyph d="M588 52Q685 52 735.5 109.5Q786 167 786 279Q786 390 734.5 444Q683 498 588 498H494V52ZM85 550H142L436 103V550H587Q718 550 784 480Q850 410 850 279Q850 145 784 72.5Q718 0 587 0H436L142 447V0H85ZM259 -210 287 -145Q270 -143 259.5 -132.5Q249 -122 249 -106Q249 -90 260 -77.5Q271 -65 292 -65Q312 -65 322.5 -77.5Q333 -90 333 -108Q333 -130 320.5 -158.5Q308 -187 289 -222Z" glyph-name="Ncommaaccent_D.sc" horiz-adv-x="904" /><glyph d="M95 716H155L531 116V716H894V658H592V393H851V335H592V58H894V0H531L156 602V0H95ZM309 -246 343 -162Q323 -159 311 -146.5Q299 -134 299 -114Q299 -95 311.5 -80Q324 -65 348 -65Q371 -65 383 -80Q395 -95 395 -117Q395 -145 380.5 -180.5Q366 -216 344 -260Z" glyph-name="Ncommaaccent_E" horiz-adv-x="946" /><glyph d="M85 550H142L436 103V550H737V498H494V306H701V254H494V52H737V0H436L142 447V0H85ZM260 -210 288 -145Q271 -143 260.5 -132.5Q250 -122 250 -106Q250 -90 261.5 -77.5Q273 -65 293 -65Q313 -65 323.5 -77.5Q334 -90 334 -108Q334 -130 322 -158.5Q310 -187 291 -222Z" glyph-name="Ncommaaccent_E.sc" horiz-adv-x="788" /><glyph d="M95 716H155L531 116V716H894V658H592V393H851V335H592V58H894V0H531L156 602V0H95ZM578 884H849V826H578ZM309 -246 343 -162Q323 -159 311 -146.5Q299 -134 299 -114Q299 -95 311.5 -80Q324 -65 348 -65Q371 -65 383 -80Q395 -95 395 -117Q395 -145 380.5 -180.5Q366 -216 344 -260Z" glyph-name="Ncommaaccent_Emacron" horiz-adv-x="946" /><glyph d="M478 683H697V634H478ZM85 550H142L436 103V550H737V498H494V306H701V254H494V52H737V0H436L142 447V0H85ZM260 -210 288 -145Q271 -143 260.5 -132.5Q250 -122 250 -106Q250 -90 261.5 -77.5Q273 -65 293 -65Q313 -65 323.5 -77.5Q334 -90 334 -108Q334 -130 322 -158.5Q310 -187 291 -222Z" glyph-name="Ncommaaccent_Emacron.sc" horiz-adv-x="788" /><glyph d="M95 716H155L531 116V716H592V393H657L895 716H964L710 370L974 0H898L657 337H592V0H531L156 602V0H95ZM309 -246 343 -162Q323 -159 311 -146.5Q299 -134 299 -114Q299 -95 311.5 -80Q324 -65 348 -65Q371 -65 383 -80Q395 -95 395 -117Q395 -145 380.5 -180.5Q366 -216 344 -260Z" glyph-name="Ncommaaccent_K" horiz-adv-x="988" /><glyph d="M85 550H142L436 103V550H494V306H545L730 550H796L595 285L805 0H734L545 255H494V0H436L142 447V0H85ZM260 -210 288 -145Q271 -143 260.5 -132.5Q250 -122 250 -106Q250 -90 261.5 -77.5Q273 -65 293 -65Q313 -65 323.5 -77.5Q334 -90 334 -108Q334 -130 322 -158.5Q310 -187 291 -222Z" glyph-name="Ncommaaccent_K.sc" horiz-adv-x="823" /><glyph d="M95 716H155L531 116V716H592V393H657L895 716H964L710 370L974 0H898L657 337H592V0H531L156 602V0H95ZM699 -246 733 -162Q713 -159 701 -146.5Q689 -134 689 -114Q689 -95 701.5 -80Q714 -65 738 -65Q761 -65 773 -80Q785 -95 785 -117Q785 -145 770.5 -180.5Q756 -216 734 -260ZM309 -246 343 -162Q323 -159 311 -146.5Q299 -134 299 -114Q299 -95 311.5 -80Q324 -65 348 -65Q371 -65 383 -80Q395 -95 395 -117Q395 -145 380.5 -180.5Q366 -216 344 -260Z" glyph-name="Ncommaaccent_Kcommaaccent" horiz-adv-x="988" /><glyph d="M85 550H142L436 103V550H494V306H545L730 550H796L595 285L805 0H734L545 255H494V0H436L142 447V0H85ZM576 -210 604 -145Q587 -143 576.5 -132.5Q566 -122 566 -106Q566 -90 577.5 -77.5Q589 -65 609 -65Q629 -65 639.5 -77.5Q650 -90 650 -108Q650 -130 637.5 -158.5Q625 -187 607 -222ZM260 -210 288 -145Q271 -143 260.5 -132.5Q250 -122 250 -106Q250 -90 261.5 -77.5Q273 -65 293 -65Q313 -65 323.5 -77.5Q334 -90 334 -108Q334 -130 322 -158.5Q310 -187 291 -222Z" glyph-name="Ncommaaccent_Kcommaaccent.sc" horiz-adv-x="823" /><glyph d="M95 716H155L531 116V716H592L967 116V716H1028V0H967L592 602V0H531L156 602V0H95ZM309 -246 343 -162Q323 -159 311 -146.5Q299 -134 299 -114Q299 -95 311.5 -80Q324 -65 348 -65Q371 -65 383 -80Q395 -95 395 -117Q395 -145 380.5 -180.5Q366 -216 344 -260Z" glyph-name="Ncommaaccent_N" horiz-adv-x="1123" /><glyph d="M85 550H142L436 103V550H493L787 103V550H844V0H787L493 448V0H436L142 447V0H85ZM260 -210 288 -145Q271 -143 260.5 -132.5Q250 -122 250 -106Q250 -90 261.5 -77.5Q273 -65 293 -65Q313 -65 323.5 -77.5Q334 -90 334 -108Q334 -130 322 -158.5Q310 -187 291 -222Z" glyph-name="Ncommaaccent_N.sc" horiz-adv-x="929" /><glyph d="M95 716H155L531 116V716H592L967 116V716H1028V0H967L592 602V0H531L156 602V0H95ZM747 -246 781 -162Q761 -159 749 -146.5Q737 -134 737 -114Q737 -95 749.5 -80Q762 -65 786 -65Q809 -65 821 -80Q833 -95 833 -117Q833 -145 818.5 -180.5Q804 -216 782 -260ZM309 -246 343 -162Q323 -159 311 -146.5Q299 -134 299 -114Q299 -95 311.5 -80Q324 -65 348 -65Q371 -65 383 -80Q395 -95 395 -117Q395 -145 380.5 -180.5Q366 -216 344 -260Z" glyph-name="Ncommaaccent_Ncommaaccent" horiz-adv-x="1123" /><glyph d="M85 550H142L436 103V550H493L787 103V550H844V0H787L493 448V0H436L142 447V0H85ZM613 -210 641 -145Q624 -143 613.5 -132.5Q603 -122 603 -106Q603 -90 614 -77.5Q625 -65 645 -65Q666 -65 676 -77.5Q686 -90 686 -108Q686 -130 674 -158.5Q662 -187 644 -222ZM260 -210 288 -145Q271 -143 260.5 -132.5Q250 -122 250 -106Q250 -90 261.5 -77.5Q273 -65 293 -65Q313 -65 323.5 -77.5Q334 -90 334 -108Q334 -130 322 -158.5Q310 -187 291 -222Z" glyph-name="Ncommaaccent_Ncommaaccent.sc" horiz-adv-x="929" /><glyph d="M683 344Q770 344 824 385.5Q878 427 878 508Q878 585 827.5 622Q777 659 681 659H592V344ZM95 716H155L531 116V716H680Q812 716 878.5 663.5Q945 611 945 508Q945 455 925.5 414Q906 373 871 345Q836 317 787.5 302.5Q739 288 680 288H592V0H531L156 602V0H95ZM309 -246 343 -162Q323 -159 311 -146.5Q299 -134 299 -114Q299 -95 311.5 -80Q324 -65 348 -65Q371 -65 383 -80Q395 -95 395 -117Q395 -145 380.5 -180.5Q366 -216 344 -260Z" glyph-name="Ncommaaccent_P" horiz-adv-x="982" /><glyph d="M561 266Q629 266 670.5 297Q712 328 712 388Q712 445 673 472.5Q634 500 560 500H492V266ZM85 550H142L435 103V550H560Q668 550 721.5 509Q775 468 775 388Q775 347 759.5 315Q744 283 715.5 261Q687 239 647.5 227.5Q608 216 560 216H492V0H435L141 449V0H85ZM259 -210 287 -145Q270 -143 259.5 -132.5Q249 -122 249 -106Q249 -90 260 -77.5Q271 -65 292 -65Q312 -65 322.5 -77.5Q333 -90 333 -108Q333 -130 320.5 -158.5Q308 -187 289 -222Z" glyph-name="Ncommaaccent_P.sc" horiz-adv-x="812" /><glyph d="M700 361Q734 361 764 371.5Q794 382 816 403Q838 424 851 454Q864 484 864 523Q864 585 824 622Q784 659 693 659H592V361ZM95 716H155L531 116V716H696Q814 716 872.5 665Q931 614 931 525Q931 459 895.5 402.5Q860 346 780 318L969 0H897L715 305H592V0H531L156 602V0H95ZM309 -246 343 -162Q323 -159 311 -146.5Q299 -134 299 -114Q299 -95 311.5 -80Q324 -65 348 -65Q371 -65 383 -80Q395 -95 395 -117Q395 -145 380.5 -180.5Q366 -216 344 -260Z" glyph-name="Ncommaaccent_R" horiz-adv-x="995" /><glyph d="M576 280Q630 280 666.5 310.5Q703 341 703 398Q703 445 672 472.5Q641 500 571 500H492V280ZM85 550H142L435 103V550H573Q670 550 718 510.5Q766 471 766 402Q766 351 738.5 309Q711 267 648 244L795 0H727L587 231H492V0H435L141 449V0H85ZM259 -210 287 -145Q270 -143 259.5 -132.5Q249 -122 249 -106Q249 -90 260 -77.5Q271 -65 292 -65Q312 -65 322.5 -77.5Q333 -90 333 -108Q333 -130 320.5 -158.5Q308 -187 289 -222Z" glyph-name="Ncommaaccent_R.sc" horiz-adv-x="828" /><glyph d="M96 716H156L532 116V716H592V0H532L156 602V0H96ZM194 805Q196 836 206 861Q215 883 232.5 899.5Q250 916 281 916Q307 916 323.5 904Q340 892 354 880Q369 867 381.5 856Q394 845 411 845Q424 845 431.5 853.5Q439 862 443 873Q448 885 449 901H495Q493 871 483 848Q474 826 457 810Q440 794 409 794Q385 794 368 806Q351 818 337 830Q323 842 310.5 853.5Q298 865 281 865Q266 865 258 855.5Q250 846 246 835Q241 822 240 805Z" glyph-name="Ntilde" horiz-adv-x="688" unicode="&#209;" /><glyph d="M165 619Q165 621 167 635Q169 649 176.5 665Q184 681 198.5 694Q213 707 238 707Q258 707 271.5 698Q285 689 297 680Q309 670 319 662Q329 654 343 654Q354 654 360 660.5Q366 667 369 675Q373 684 374 695H414Q414 693 412 679.5Q410 666 403 650.5Q396 635 382 622.5Q368 610 343 610Q323 610 309.5 618.5Q296 627 284 637Q272 646 261.5 654.5Q251 663 238 663Q226 663 219.5 656Q213 649 210 641Q206 631 205 619ZM85 550H142L436 103V550H493V0H436L142 447V0H85Z" glyph-name="Ntilde.sc" horiz-adv-x="578" /><glyph d="M95 716H155L531 116V716H894V658H592V393H851V335H592V58H894V0H531L156 602V0H95ZM193 805Q195 836 205 861Q214 883 231.5 899.5Q249 916 280 916Q306 916 322.5 904Q339 892 353 880Q368 867 380.5 856Q393 845 410 845Q423 845 430.5 853.5Q438 862 442 873Q447 885 448 901H494Q492 871 482 848Q473 826 456 810Q439 794 408 794Q384 794 367 806Q350 818 336 830Q322 842 309.5 853.5Q297 865 280 865Q265 865 257 855.5Q249 846 245 835Q240 822 239 805Z" glyph-name="Ntilde_E" horiz-adv-x="946" /><glyph d="M165 619Q165 621 167 635Q169 649 176.5 665Q184 681 198 694Q212 707 237 707Q258 707 271.5 698Q285 689 297 680Q309 670 319 662Q329 654 343 654Q354 654 360 660.5Q366 667 369 675Q373 684 374 695H414Q414 693 412 679.5Q410 666 403 650.5Q396 635 382 622.5Q368 610 343 610Q323 610 309.5 618.5Q296 627 284 637Q272 646 261.5 654.5Q251 663 238 663Q226 663 219.5 656Q213 649 210 641Q206 631 205 619ZM85 550H142L436 103V550H737V498H494V306H701V254H494V52H737V0H436L142 447V0H85Z" glyph-name="Ntilde_E.sc" horiz-adv-x="788" /><glyph d="M95 716H155L531 116V716H894V658H592V393H851V335H592V58H894V0H531L156 602V0H95ZM623 824 830 927 855 868 641 782ZM193 805Q195 836 205 861Q214 883 231.5 899.5Q249 916 280 916Q306 916 322.5 904Q339 892 353 880Q368 867 380.5 856Q393 845 410 845Q423 845 430.5 853.5Q438 862 442 873Q447 885 448 901H494Q492 871 482 848Q473 826 456 810Q439 794 408 794Q384 794 367 806Q350 818 336 830Q322 842 309.5 853.5Q297 865 280 865Q265 865 257 855.5Q249 846 245 835Q240 822 239 805Z" glyph-name="Ntilde_Eacute" horiz-adv-x="946" /><glyph d="M514 636 681 716 704 666 530 601ZM165 619Q165 621 167 635Q169 649 176.5 665Q184 681 198 694Q212 707 237 707Q258 707 271.5 698Q285 689 297 680Q309 670 319 662Q329 654 343 654Q354 654 360 660.5Q366 667 369 675Q373 684 374 695H414Q414 693 412 679.5Q410 666 403 650.5Q396 635 382 622.5Q368 610 343 610Q323 610 309.5 618.5Q296 627 284 637Q272 646 261.5 654.5Q251 663 238 663Q226 663 219.5 656Q213 649 210 641Q206 631 205 619ZM85 550H142L436 103V550H737V498H494V306H701V254H494V52H737V0H436L142 447V0H85Z" glyph-name="Ntilde_Eacute.sc" horiz-adv-x="788" /><glyph d="M335 -9Q201 -9 130 84Q59 177 59 358Q59 541 130 633Q201 725 335 725Q469 725 540.5 633Q612 541 612 358Q612 177 540.5 84Q469 -9 335 -9ZM335 47Q437 47 491 122.5Q545 198 545 358Q545 519 490.5 594.5Q436 670 335 670Q235 670 180.5 594.5Q126 519 126 358Q126 198 180 122.5Q234 47 335 47Z" glyph-name="O" horiz-adv-x="671" unicode="O" /><glyph d="M281 -7Q172 -7 113.5 65Q55 137 55 275Q55 415 113.5 486Q172 557 281 557Q391 557 449.5 486Q508 415 508 275Q508 137 449 65Q390 -7 281 -7ZM281 43Q360 43 402 100Q444 157 444 275Q444 394 402.5 450.5Q361 507 281 507Q202 507 160.5 451Q119 395 119 275Q119 157 160.5 100Q202 43 281 43Z" glyph-name="O.sc" horiz-adv-x="562" /><glyph d="M344 -9Q209 -9 134 82Q59 173 59 358Q59 547 135.5 636Q212 725 350 725Q388 725 417.5 722Q447 719 464 716H831V658H528V393H788V335H528V58H831V0H464Q444 -4 414.5 -6.5Q385 -9 344 -9ZM354 45Q398 45 425 49Q452 53 464 56V659Q446 663 417 667Q388 671 350 671Q241 671 183.5 595.5Q126 520 126 358Q126 197 182.5 121Q239 45 354 45Z" glyph-name="OE" horiz-adv-x="883" unicode="&#338;" /><glyph d="M287 -7Q177 -7 115.5 62.5Q54 132 54 275Q54 419 116.5 488Q179 557 293 557Q324 557 347.5 554.5Q371 552 384 550H688V498H446V306H652V254H446V52H688V0H384Q370 -2 346 -4.5Q322 -7 287 -7ZM297 42Q332 42 353.5 45Q375 48 384 50V500Q371 503 348 506Q325 509 294 509Q208 509 163.5 452.5Q119 396 119 275Q119 42 297 42Z" glyph-name="OE.sc" horiz-adv-x="738" /></font>
</defs>
</svg>
