<?xml version="1.0" encoding="UTF-8"?>
<svg width="20px" height="20px" viewBox="0 0 20 20" version="1.1" xmlns="http://www.w3.org/2000/svg" xmlns:xlink="http://www.w3.org/1999/xlink">
    <!-- Generator: Sketch 47.1 (45422) - http://www.bohemiancoding.com/sketch -->
    <title>Page 1</title>
    <desc>Created with Sketch.</desc>
    <defs></defs>
    <g id="Symbols" stroke="none" stroke-width="1" fill="none" fill-rule="evenodd">
        <g id="footer_4" transform="translate(-228.000000, -40.000000)" fill="#FFFFFF">
            <g id="footer">
                <g id="Page-1" transform="translate(228.000000, 40.000000)">
                    <path d="M2.95707137,16.8863548 C3.03676066,16.942531 3.11709435,16.9985507 3.19742803,17.054101 C3.20107956,17.0567612 3.20773823,17.0591084 3.21246374,17.0587954 C3.22255915,17.0575436 3.23845405,17.0564482 3.24103161,17.0519103 C3.2517714,17.0334457 3.25928926,17.0138857 3.26616273,16.9944823 C3.32265406,16.8373766 3.40470611,16.6873126 3.50093469,16.5411606 C3.51468163,16.5200358 3.53616123,16.5009453 3.5273546,16.4705882 C3.46978928,16.4985981 3.43048163,16.5375615 3.38279693,16.5697964 C3.33403825,16.6028136 3.28742753,16.6375521 3.23866885,16.6705693 C3.18969538,16.7035865 3.13857394,16.7348824 3.08938567,16.7675867 C3.0404122,16.799978 2.98263209,16.8253277 2.94117647,16.8633523 C2.94719076,16.8721151 2.94955351,16.8810345 2.95707137,16.8863548 L2.95707137,16.8863548 Z M5.90678482,10.8394618 C5.91919788,10.8615572 5.9321928,10.8822717 5.94479982,10.9038493 C6.02044191,11.0336599 6.09647191,11.1626074 6.17133818,11.2937989 C6.24087072,11.415669 6.30856069,11.5406462 6.36538924,11.6828855 C6.37537787,11.7080881 6.38798489,11.7305288 6.40097981,11.7510706 C6.41077449,11.7664338 6.42367244,11.7686779 6.4360855,11.7584933 C6.46527559,11.7343264 6.4778826,11.6892725 6.46634234,11.6383494 C6.45615975,11.5934681 6.44423157,11.5485868 6.42958804,11.5076757 C6.40805913,11.4477764 6.38439674,11.3901212 6.3600555,11.3336743 C6.25949031,11.1002914 6.14942137,10.8814086 6.03954638,10.662008 C6.03295194,10.6487162 6.02606657,10.635597 6.01850237,10.6242041 C5.99057298,10.5829478 5.9583766,10.5791501 5.92676209,10.6027991 C5.89640827,10.625585 5.88263753,10.6725378 5.88254056,10.7433122 C5.88089195,10.7742113 5.89020174,10.8097711 5.90678482,10.8394618 L5.90678482,10.8394618 Z M10.6248801,7.68441732 C10.5781436,7.74777835 10.5767129,7.86923362 10.6171543,7.93690383 C10.6258339,7.95142739 10.6354674,7.96483376 10.6456731,7.97584612 C10.7061444,8.04160114 10.7572684,8.12475252 10.8041956,8.21476667 C10.8672422,8.33574314 10.928858,8.458954 10.9901878,8.58232446 C11.0200419,8.6424935 11.0476069,8.70585452 11.0767933,8.76698116 C11.0843284,8.78278151 11.0931034,8.79762427 11.1025461,8.81039224 C11.1167578,8.82986338 11.141366,8.82699059 11.1574853,8.80640225 C11.1734139,8.7858139 11.1810443,8.74671201 11.1736046,8.71798409 C11.1678818,8.69532095 11.1613005,8.67313661 11.1543377,8.65143107 C11.0926265,8.4592732 11.02834,8.26934972 10.9571861,8.08644862 C10.9237075,8.00042446 10.8867952,7.91775188 10.8502644,7.83523891 C10.8237486,7.77522948 10.7898885,7.72703041 10.75517,7.68074653 C10.7371431,7.656647 10.7162547,7.64659223 10.6934588,7.64723063 C10.6678014,7.64547503 10.6450054,7.6571258 10.6248801,7.68441732 L10.6248801,7.68441732 Z M3.52941176,15.2995356 C3.51711179,15.2941792 3.50468631,15.2908159 3.49263736,15.2991619 C3.4793333,15.3082552 3.46602925,15.3175977 3.45347826,15.3275631 C3.37239884,15.3919641 3.2909429,15.4557423 3.21074205,15.5212645 C2.94503753,15.7376371 2.67908199,15.9538851 2.40509381,16.1602923 C2.39467649,16.1678909 2.38438467,16.1758631 2.37434388,16.18396 C2.34949291,16.2038907 2.34635516,16.2173439 2.3645541,16.2406379 C2.42216316,16.3143814 2.48052528,16.3875022 2.53901291,16.4606229 C2.5427782,16.4652319 2.54980676,16.4673495 2.55520369,16.4705882 C2.57239855,16.4652319 2.5794271,16.4507821 2.58796178,16.4370798 C2.65084225,16.3356824 2.71886864,16.2376483 2.7904093,16.1418564 C3.00703944,15.8517403 3.24651238,15.5808074 3.49753224,15.3198399 C3.50619243,15.3107466 3.51811587,15.3047674 3.5285332,15.2975425 L3.52941176,15.2995356 Z M7.7193686,8.85628042 C7.62821014,8.91383632 7.62214481,9.03666179 7.70741632,9.09881623 C7.72454198,9.11142512 7.74238121,9.12388568 7.76146918,9.13441782 C7.86654224,9.19138035 7.95395446,9.26495697 8.03904758,9.34031366 C8.16856037,9.45512878 8.28861838,9.57632251 8.40564372,9.69959301 C8.4800333,9.7779165 8.55210379,9.85742671 8.6257798,9.93589854 C8.64272707,9.95384767 8.66074469,9.97150013 8.68072462,9.98722416 C8.70266687,10.0045799 8.75707652,10.0036899 8.78544089,9.98796586 C8.81469723,9.97150013 8.83217967,9.9327834 8.81915704,9.90697225 C8.80488565,9.87878766 8.7899007,9.85060307 8.7713479,9.8243469 C8.65289543,9.65553604 8.53587009,9.48642851 8.41349298,9.31969441 C8.3344652,9.21170293 8.24705298,9.10816164 8.15072115,9.0099606 C8.09506275,8.95284972 8.03012796,8.90478758 7.96287407,8.85791216 C7.93022828,8.83521615 7.89205233,8.82260725 7.8488814,8.82379397 C7.80089388,8.82171721 7.75807973,8.83180433 7.7193686,8.85628042 L7.7193686,8.85628042 Z M2.34961573,14.1193564 C2.34743699,14.1181717 2.34376753,14.1171845 2.34170345,14.1178756 C2.26464479,14.1444312 2.18758613,14.1709868 2.11075681,14.1978385 C1.94861253,14.2546024 1.78566557,14.3095892 1.61698507,14.3506566 C1.50277312,14.3783969 1.38775848,14.4031755 1.26850103,14.4098885 C1.24487888,14.4110731 1.22125673,14.4141334 1.19774925,14.4166014 C1.17905793,14.4184771 1.17148967,14.4291388 1.17986063,14.4427621 C1.23237978,14.528747 1.29040312,14.6117703 1.35140789,14.6935102 C1.36264561,14.7086143 1.37652076,14.7097989 1.39670279,14.6975577 C1.45002463,14.6649802 1.50254378,14.6316129 1.55643898,14.5997265 C1.7644515,14.4769191 1.97292271,14.3547041 2.18116457,14.2320943 C2.23505977,14.2003065 2.28895496,14.1686175 2.34262082,14.1365336 C2.34709297,14.1338682 2.34950106,14.1285373 2.35294118,14.1244898 C2.35190914,14.1227128 2.35122112,14.1202448 2.34961573,14.1193564 L2.34961573,14.1193564 Z M17.0454229,3.13326031 C17.0221393,3.10705562 16.9985206,3.08119349 16.9742319,3.05584516 C16.4055419,2.45913198 15.7753764,1.94051903 15.0813902,1.5037743 C13.8605911,0.735274857 12.5396221,0.256568383 11.1156356,0.0784450443 C11.0253487,0.0671410631 10.9345593,0.0597763482 10.84444,0.0476160048 C10.6722416,0.0243229528 10.4988707,0.0149029685 10.3258348,0.00907970553 C9.96183971,-0.00342318269 9.59767707,-0.00650608663 9.23384945,0.0227815008 C9.04372774,0.0380247481 8.85394104,0.05429563 8.66448936,0.0777599545 C8.44505373,0.104992273 8.22712567,0.141130758 8.01003516,0.183263778 C7.52811431,0.276607259 7.05590893,0.406603042 6.59442408,0.575306397 C4.85016208,1.21329624 3.39032885,2.26576539 2.21844208,3.73134367 C1.27017864,4.91706278 0.624434859,6.25881109 0.270825228,7.74699733 C0.200304312,8.04415502 0.144021585,8.34439561 0.102647081,8.64737656 C0.0810385342,8.80546102 0.0597650036,8.96354548 0.047201895,9.12248631 C0.0336337376,9.29478638 0.0145378125,9.46691519 0.00867502851,9.63955781 C-0.00857830733,10.1405297 -0.00254801519,10.6409878 0.0492119923,11.1405895 C0.0785259125,11.4228465 0.11604773,11.7037333 0.166802689,11.9823935 C0.247876617,12.4270168 0.358431973,12.8644466 0.498133741,13.2938266 C0.583060355,13.5545033 0.677199915,13.8117545 0.782730028,14.0645526 C0.791272942,14.084934 0.799313331,14.1048016 0.824104532,14.1176471 C0.843200457,14.1034314 0.864473988,14.0885307 0.884407454,14.0719173 C0.965313873,14.004436 1.05107803,13.9441481 1.14153241,13.8912249 C1.23918964,13.8340199 1.33818694,13.7786989 1.43885931,13.7273172 C1.66013753,13.6147912 1.88878611,13.5192211 2.12044983,13.4313584 C2.87691648,13.143792 3.65314909,12.9254196 4.43926467,12.7418155 C4.57427621,12.7103014 4.71079532,12.6847818 4.84630939,12.6549804 C4.87411574,12.6489859 4.90661231,12.6494997 4.92788584,12.6162728 C4.91364765,12.5864714 4.89840441,12.5549573 4.88332868,12.5234432 C4.84530434,12.4438015 4.80459987,12.36553 4.77026071,12.2841756 C4.68885176,12.0920079 4.63474664,11.8926468 4.61682327,11.6826668 C4.60459518,11.539483 4.6174933,11.3990396 4.64261952,11.2596238 C4.67679118,11.0705391 4.74848465,10.8951561 4.82955858,10.7226847 C4.8920391,10.589606 4.97194048,10.4695441 5.06859266,10.3604435 C5.10343435,10.3210509 5.13777351,10.2808018 5.17563034,10.2441495 C5.28869832,10.1345352 5.40126377,10.0237219 5.51818444,9.9180468 C5.72622952,9.72998966 5.9446601,9.55494922 6.16526829,9.38282042 C6.59961683,9.04370098 7.04535592,8.72102371 7.49595275,8.40502605 C8.32545294,7.82321357 9.17002885,7.26503668 10.019295,6.71405324 C10.297526,6.53353208 10.5787721,6.35849165 10.8690637,6.19869446 C11.3308835,5.94469743 11.7987337,5.70268947 12.268929,5.46547714 C12.2883599,5.45554334 12.3081259,5.4464659 12.3278918,5.43738846 C12.3449777,5.4296812 12.3617285,5.43207901 12.3764692,5.44355427 C12.3902049,5.45417316 12.4036055,5.46564841 12.4163361,5.47763748 C12.6386194,5.68915895 12.8604001,5.90102296 13.0506894,6.1444011 C13.0967541,6.20331882 13.1460015,6.25949618 13.1942438,6.3165299 C13.2140098,6.33982295 13.2337757,6.3638011 13.2558868,6.38486761 C13.271465,6.39959704 13.290226,6.41124356 13.3091544,6.42186245 C13.3292553,6.43299516 13.3506964,6.43076862 13.3718024,6.42169118 C13.4198772,6.40130976 13.4379681,6.35969056 13.4163596,6.31481718 C13.4029589,6.28707104 13.3875482,6.26035254 13.3721374,6.23363404 C13.2170249,5.9666203 13.0530345,5.7056011 12.8665979,5.46033897 C12.8294111,5.41118378 12.7922243,5.36202859 12.7558751,5.31218831 C12.7431445,5.29488979 12.7332615,5.27536473 12.7203634,5.25395568 C12.7362766,5.24059643 12.7481697,5.22757972 12.7625754,5.21918737 C12.7890417,5.2041154 12.8170155,5.19178378 12.8443194,5.17825326 C13.7371376,4.735514 14.6366562,4.30750417 15.5378498,3.88326233 C15.5614685,3.87212962 15.5855897,3.86185327 15.6093758,3.85157693 C15.6356746,3.84027295 15.6609683,3.84352712 15.6825769,3.86219582 C15.769011,3.93601424 15.8554452,4.01000393 15.9408744,4.08519254 C15.9933044,4.13160737 16.0433893,4.18076256 16.0951493,4.22803375 C16.1110626,4.24293445 16.1276459,4.25732134 16.1452343,4.27033805 C16.1718681,4.29003438 16.2196079,4.2886642 16.243394,4.26896787 C16.2648351,4.25098426 16.2748856,4.21416068 16.2655051,4.18384546 C16.2603123,4.16688949 16.2546171,4.15010479 16.2469117,4.13434773 C16.2371962,4.11448012 16.2254707,4.09581143 16.2145826,4.07680019 C16.1536097,3.96941237 16.0923017,3.86236709 16.0318313,3.754808 C16.0211108,3.73562548 16.0122328,3.71524406 16.00503,3.69469137 C16.0028524,3.68818302 16.0065376,3.67482377 16.0115628,3.67139832 C16.0408767,3.65290089 16.0701906,3.63406093 16.1015147,3.61967404 C16.3777355,3.49156225 16.6544589,3.36464938 16.9308473,3.23705141 C16.9702117,3.21889653 17.0089061,3.19885765 17.047098,3.17813369 C17.0531283,3.17487951 17.0549708,3.16340426 17.0588235,3.15603954 C17.0544683,3.14833228 17.0512857,3.13976866 17.0454229,3.13326031 L17.0454229,3.13326031 Z M11.8867204,11.151027 C11.9037664,11.1385888 11.9259261,11.1246171 11.9453585,11.1072377 C12.4846919,10.6310077 13.0134569,10.143873 13.495857,9.60868934 C13.7409775,9.33692305 13.984564,9.06345289 14.2286618,8.79049388 C14.2521852,8.76408399 14.2751972,8.73733333 14.2961637,8.70904919 C14.3065618,8.6950775 14.3101414,8.67667577 14.3034935,8.65861482 C14.297357,8.64225772 14.2905386,8.62607102 14.2832088,8.61005469 C14.2104227,8.44920994 14.1326932,8.29109137 14.0343381,8.14387752 C14.0270084,8.13280241 14.0208718,8.12104575 14.0150762,8.10945947 C14.0070646,8.09344315 14.0147353,8.06089935 14.0282016,8.0477796 C14.0512136,8.02545898 14.0786576,8.01114652 14.1101926,8.00961305 C14.1268976,8.00859073 14.1465004,8.01199846 14.1606485,8.02051777 C14.1904789,8.03891951 14.2199684,8.05919549 14.2453668,8.08304958 C14.3155961,8.14984105 14.3841208,8.21867715 14.4528159,8.28751325 C14.4746347,8.30915232 14.494408,8.33283603 14.5158859,8.35515665 C14.5545802,8.39519745 14.5712852,8.39417513 14.6121954,8.34919313 C14.632821,8.32636135 14.6529352,8.30267764 14.672879,8.27933471 C15.0327187,7.85558375 15.3928994,7.43217356 15.7522277,7.00808183 C15.874788,6.86325339 15.9956437,6.71723226 16.1166699,6.57104073 C16.1390001,6.54429007 16.1666145,6.52043597 16.1763307,6.47715783 C16.1700237,6.46233421 16.1625235,6.44188784 16.1528073,6.42263418 C16.130818,6.37935604 16.1069537,6.33710021 16.0849644,6.29382207 C15.9746772,6.07692019 15.8449576,5.87262691 15.6927374,5.68247569 C15.6237014,5.59660095 15.5567108,5.50885196 15.4890385,5.42178451 C15.4701175,5.39741926 15.451026,5.373054 15.4339801,5.34749604 C15.4106271,5.31222606 15.4174455,5.26724405 15.4484691,5.2391303 C15.4714811,5.21851354 15.5210848,5.21237963 15.5481879,5.22805518 C15.5633587,5.23691527 15.5781887,5.24713846 15.5908027,5.2590655 C15.8292754,5.48227168 16.0643389,5.70888558 16.2780949,5.95611624 C16.3299146,6.01609225 16.378325,6.07913521 16.4282696,6.14047432 C16.4354289,6.14899364 16.4572477,6.15018634 16.4649184,6.14337088 C16.4746346,6.13468118 16.4852031,6.12650263 16.4938965,6.11662022 C16.5198063,6.08663222 16.5452048,6.05613305 16.5702623,6.02529311 C17.0601625,5.42297721 17.5498923,4.82049093 18.0397926,4.21817503 C18.067407,4.18409775 18.0921236,4.14729429 18.1277496,4.11764706 C18.1393409,4.12548483 18.1526367,4.13042604 18.1601369,4.14013806 C18.184683,4.17114839 18.2075246,4.20369219 18.2300252,4.23640637 C18.938284,5.26962946 19.4425028,6.39315734 19.7309201,7.61295352 C19.7948423,7.88335673 19.848537,8.1554638 19.8891064,8.43046744 C19.9238801,8.66611182 19.9511536,8.90226736 19.970245,9.13978599 C19.9982004,9.48754462 20.003996,9.83564402 19.997689,10.1842546 C19.9937684,10.4180247 19.9813249,10.6516245 19.9588242,10.8842019 C19.9412669,11.06856 19.917914,11.2520661 19.8909814,11.4354019 C19.8371162,11.8022438 19.7633073,12.1649964 19.6673387,12.5228078 C19.2408493,14.1109794 18.4742935,15.5147929 17.3640916,16.7282848 C16.3292327,17.8593096 15.0981751,18.7105601 13.6753507,19.2832287 C13.1465857,19.4960413 12.6031612,19.6602938 12.0455886,19.7790531 C11.8210936,19.8267613 11.5955758,19.8679948 11.3686944,19.9000275 C11.1767571,19.9271189 10.9837971,19.9468837 10.7903257,19.9651151 C10.5702627,19.9855614 10.3498587,19.9894803 10.1294547,19.9976589 C9.99291676,20.0024297 9.85603788,19.9986812 9.719159,19.9971477 C9.64858882,19.9964662 9.57801864,19.9916954 9.50744846,19.9901619 C9.28244208,19.9855614 9.05862892,19.9635816 8.8346453,19.9407498 C8.61509362,19.9182588 8.39690562,19.8874189 8.17974037,19.8492523 C7.76688776,19.7768381 7.35966031,19.6795475 6.95942169,19.5548246 C5.7542739,19.1796338 4.65719734,18.6001497 3.66870342,17.8151796 C3.64466865,17.7957555 3.62029295,17.7768426 3.59642864,17.7572482 C3.51136941,17.6868786 3.50523287,17.6897752 3.58978073,17.6122494 C3.69410186,17.5166626 3.78529763,17.408808 3.87325467,17.2980569 C4.00263334,17.135849 4.1219549,16.9663146 4.23718544,16.7938835 C4.48247648,16.4270416 4.70850562,16.0484431 4.92771638,15.6657552 C5.24971414,15.1031394 5.55398413,14.5306411 5.85296987,13.955587 C5.87956154,13.9048119 5.9061532,13.8540367 5.93376762,13.8039431 C5.95047264,13.7731032 5.96768904,13.7710585 5.99700805,13.7957646 C6.03416819,13.8269453 6.07047604,13.8593187 6.10780664,13.8901586 C6.213321,13.9775668 6.32411959,14.0576484 6.44378208,14.1244399 C6.62310534,14.2246271 6.81248571,14.2924409 7.01857109,14.3084572 C7.08010693,14.313228 7.14164276,14.3181692 7.2031786,14.321577 C7.22056546,14.3224289 7.23812277,14.3186804 7.25550963,14.3164654 C7.27204419,14.3144207 7.28772645,14.291589 7.28210129,14.2777877 C7.27562384,14.261601 7.26965776,14.2449031 7.26147571,14.2297387 C7.14488149,14.0170965 7.02487809,13.8061581 6.89413575,13.6016945 C6.83958875,13.5161605 6.7814621,13.4330119 6.71293743,13.3575308 C6.6950392,13.3381067 6.6786751,13.3173196 6.66197008,13.2968732 C6.61628696,13.241668 6.63231015,13.1883371 6.70117573,13.1443774 C6.71634662,13.1348357 6.73629037,13.1358581 6.75197263,13.1448885 C6.77089362,13.156134 6.78845094,13.169765 6.80566733,13.1833959 C6.9023178,13.2609217 6.989593,13.3485003 7.07004983,13.4423832 C7.19908757,13.5931751 7.32607981,13.7458413 7.45170837,13.8993595 C7.52449453,13.9881308 7.59318965,14.0801395 7.66375984,14.1704442 C7.67739659,14.1876533 7.6912038,14.2050327 7.70552238,14.2219009 C7.72154557,14.2408138 7.74336437,14.2472885 7.76433087,14.2385988 C7.79688861,14.2251383 7.83012819,14.2125297 7.8611518,14.1961726 C7.95115435,14.1494867 8.04183873,14.1036528 8.1292844,14.0525369 C8.44173643,13.8695419 8.73901759,13.6633743 9.03254863,13.4520952 C9.04993549,13.4394866 9.064595,13.4231295 9.07754991,13.4110321 C9.07703853,13.3680947 9.0574357,13.3379363 9.04226482,13.3065852 C8.96964912,13.1556229 8.89618113,13.0050013 8.82322452,12.8542094 C8.81555385,12.8385338 8.8073718,12.8226879 8.80225802,12.8058196 C8.79697378,12.7886106 8.80140572,12.7714016 8.8111219,12.7555556 C8.83089519,12.723523 8.86157788,12.7071659 8.89549929,12.69575 C8.91339753,12.6896161 8.93214806,12.6925127 8.94510297,12.7051213 C8.97339923,12.7328942 9.00084319,12.7616895 9.02590072,12.7923591 C9.12135797,12.9082218 9.22124716,13.0199953 9.32539784,13.1280203 C9.34346654,13.1467628 9.36358074,13.163631 9.3801153,13.1787954 C9.42307107,13.1730023 9.44846951,13.1471036 9.47591347,13.1259757 C9.66870303,12.9787618 9.86217442,12.8322295 10.0532594,12.6824599 C10.5394095,12.3014759 11.0163549,11.909076 11.4856295,11.5074753 C11.5125621,11.4844731 11.5384719,11.4607894 11.5643818,11.436765 C11.5742684,11.4277345 11.5776776,11.3999615 11.5713706,11.3868417 C11.5618249,11.3670769 11.5522791,11.3473121 11.5417107,11.327888 C11.4223891,11.1116677 11.2979538,10.898344 11.1595407,10.6935395 C11.1470972,10.6751378 11.1344832,10.6572472 11.1227215,10.6385047 C11.0940843,10.5940339 11.1012436,10.5587639 11.145904,10.5253681 C11.1528928,10.5202565 11.1610749,10.5168488 11.168916,10.5125892 C11.1897121,10.5013437 11.2117013,10.4981063 11.2311337,10.5127595 C11.2626687,10.536784 11.2943741,10.5608085 11.3223294,10.5887519 C11.4348326,10.7010365 11.5464835,10.8138323 11.6569412,10.9279912 C11.7152383,10.9881376 11.7702967,11.0513509 11.8268892,11.1132012 C11.8417192,11.1292175 11.8563787,11.1459154 11.8867204,11.151027 L11.8867204,11.151027 Z" id="Fill-1"></path>
                </g>
            </g>
        </g>
    </g>
</svg>