<?xml version="1.0" encoding="UTF-8"?>
<svg width="34px" height="34px" viewBox="0 0 34 34" version="1.1" xmlns="http://www.w3.org/2000/svg" xmlns:xlink="http://www.w3.org/1999/xlink">
    <!-- Generator: Sketch 47.1 (45422) - http://www.bohemiancoding.com/sketch -->
    <title>Fill 1</title>
    <desc>Created with Sketch.</desc>
    <defs></defs>
    <g id="Page-1" stroke="none" stroke-width="1" fill="none" fill-rule="evenodd">
        <g id="1_desktop_1400_main" transform="translate(-50.000000, -18.000000)" fill="#FF6134">
            <g id="menu">
                <g id="Group-9" transform="translate(50.000000, 10.000000)">
                    <g id="Page-1" transform="translate(0.000000, 8.000000)">
                        <path d="M5.02702133,28.7068031 C5.16249313,28.8023027 5.29906039,28.8975362 5.43562765,28.9919717 C5.44183525,28.996494 5.453155,29.0004842 5.46118837,28.9999522 C5.47835056,28.9978241 5.50537189,28.995962 5.50975373,28.9882475 C5.52801138,28.9568577 5.54079174,28.9236058 5.55247664,28.8906198 C5.64851191,28.6235403 5.78800039,28.3684314 5.95158898,28.119973 C5.97495878,28.0840609 6.01147409,28.051607 5.99650281,28 C5.89864178,28.0476168 5.83181876,28.1138546 5.75075478,28.1686538 C5.66786502,28.2247831 5.5886268,28.2838385 5.50573704,28.3399678 C5.42248214,28.3960971 5.3355757,28.4493002 5.25195564,28.5048974 C5.16870073,28.5599626 5.07047455,28.6030571 5,28.6676989 C5.01022429,28.6825957 5.01424097,28.6977586 5.02702133,28.7068031 L5.02702133,28.7068031 Z M10.0415342,18.4270851 C10.0626364,18.4646473 10.0847278,18.4998619 10.1061597,18.5365437 C10.2347512,18.7572218 10.3640022,18.9764325 10.4912749,19.1994582 C10.6094802,19.4066373 10.7245532,19.6190986 10.8211617,19.8609054 C10.8381424,19.9037498 10.8595743,19.9418989 10.8816657,19.97682 C10.8983166,20.0029375 10.9202431,20.0067524 10.9413453,19.9894386 C10.9909685,19.9483549 11.0124004,19.8717632 10.992782,19.785194 C10.9754716,19.7088958 10.9551937,19.6325975 10.9302997,19.5630487 C10.8937005,19.4612199 10.8534745,19.363206 10.8120943,19.2672463 C10.6411335,18.8704953 10.4540163,18.4983946 10.2672289,18.1254135 C10.2560183,18.1028175 10.2443132,18.0805149 10.231454,18.0611469 C10.1839741,17.9910112 10.1292402,17.9845552 10.0754955,18.0247585 C10.0238941,18.0634946 10.0004838,18.1433143 10.0003189,18.2636308 C9.99751631,18.3161592 10.013343,18.3766109 10.0415342,18.4270851 L10.0415342,18.4270851 Z M18.0622962,13.0635095 C17.9828442,13.1712232 17.980412,13.3776971 18.0491623,13.4927365 C18.0639177,13.5174266 18.0802945,13.5402174 18.0976443,13.5589384 C18.2004455,13.6707219 18.2873562,13.8120793 18.3671326,13.9651033 C18.4743117,14.1707633 18.5790587,14.3802218 18.6833192,14.5899516 C18.7340712,14.6922389 18.7809317,14.7999527 18.8305487,14.903868 C18.8433583,14.9307286 18.8582758,14.9559613 18.8743283,14.9776668 C18.8984882,15.0107678 18.9403222,15.005884 18.967725,14.9708838 C18.9948036,14.9358836 19.0077753,14.8694104 18.9951279,14.820573 C18.985399,14.7820456 18.9742109,14.7443322 18.9623742,14.7074328 C18.8574651,14.3807644 18.748178,14.0578945 18.6272163,13.7469627 C18.5703027,13.6007216 18.5075519,13.4601782 18.4454496,13.3199061 C18.4003727,13.2178901 18.3428105,13.1359517 18.283789,13.0572691 C18.2531432,13.0162999 18.217633,12.9992068 18.1788799,13.0002921 C18.1352624,12.9973076 18.0965092,13.0171139 18.0622962,13.0635095 L18.0622962,13.0635095 Z M6,26.0092104 C5.97909005,26.0001046 5.95796672,25.994387 5.9374835,26.0085751 C5.91486661,26.0240339 5.89224972,26.0399162 5.87091304,26.0568572 C5.73307803,26.166339 5.59460293,26.274762 5.45826149,26.3861496 C5.0065638,26.753983 4.55443938,27.1216046 4.08865948,27.4724969 C4.07095003,27.4854145 4.05345394,27.4989673 4.03638459,27.512732 C3.99413795,27.5466141 3.98880378,27.5694846 4.01974198,27.6090844 C4.11767737,27.7344485 4.21689297,27.8587537 4.31632194,27.9830589 C4.32272295,27.9908942 4.33467149,27.9944941 4.34384627,28 C4.37307753,27.9908942 4.38502608,27.9663296 4.39953502,27.9430356 C4.50643183,27.77066 4.62207668,27.6040021 4.7436958,27.4411559 C5.11196704,26.9479585 5.51907105,26.4873726 5.94580481,26.0437279 C5.96052713,26.0282692 5.98079698,26.0181045 5.99850643,26.0058222 L6,26.0092104 Z M13.1229266,15.0556767 C12.9679572,15.1535217 12.9576462,15.362325 13.1026077,15.4679876 C13.1317214,15.4894227 13.1620481,15.5106057 13.1944976,15.5285103 C13.3731218,15.6253466 13.5217226,15.7504268 13.6663809,15.8785332 C13.8865526,16.0737189 14.0906512,16.2797483 14.2895943,16.4893081 C14.4160566,16.622458 14.5385764,16.7576254 14.6638257,16.8910275 C14.692636,16.921541 14.723266,16.9515502 14.7572319,16.9782811 C14.7945337,17.0077859 14.8870301,17.0062728 14.9352495,16.979542 C14.9849853,16.9515502 15.0147054,16.8857318 14.992567,16.8418528 C14.9683056,16.793939 14.9428312,16.7460252 14.9112914,16.7013897 C14.7099222,16.4144113 14.5109792,16.1269285 14.3029381,15.8434805 C14.1685908,15.659895 14.0199901,15.4838748 13.8562259,15.316933 C13.7616067,15.2198445 13.6512175,15.1381389 13.5368859,15.0584507 C13.4813881,15.0198674 13.416489,14.9984323 13.3430984,15.0004497 C13.2615196,14.9969193 13.1887355,15.0140674 13.1229266,15.0556767 L13.1229266,15.0556767 Z M3.99434674,24.0029058 C3.99064288,24.0008919 3.98440479,23.9992137 3.98089587,24.0003885 C3.84989614,24.045533 3.71889642,24.0906775 3.58828657,24.1363255 C3.31264131,24.232824 3.03563147,24.3263017 2.74887462,24.3961163 C2.55471431,24.4432747 2.35918942,24.4853984 2.15645174,24.4968104 C2.11629409,24.4988243 2.07613643,24.5040268 2.03617372,24.5082224 C2.00439849,24.511411 1.99153244,24.529536 2.00576307,24.5526956 C2.09504562,24.6988699 2.1936853,24.8400094 2.29739342,24.9789673 C2.31649754,25.0046443 2.34008529,25.0066582 2.37439474,24.9858481 C2.46504188,24.9304663 2.55432443,24.873742 2.64594626,24.819535 C2.99956755,24.6107625 3.3539686,24.402997 3.70797977,24.1945602 C3.79960161,24.1405211 3.89122344,24.0866497 3.98245539,24.0321071 C3.99005806,24.0275759 3.9941518,24.0185134 4,24.0116326 C3.99824554,24.0086118 3.9970759,24.0044162 3.99434674,24.0029058 L3.99434674,24.0029058 Z M28.9772189,5.32654252 C28.9376367,5.28199456 28.897485,5.23802893 28.8561943,5.19493678 C27.8894212,4.18052436 26.8181398,3.29888234 25.6383634,2.55641631 C23.5630049,1.24996726 21.3173576,0.436166251 18.8965805,0.133356575 C18.7430929,0.114139807 18.5887509,0.101619792 18.435548,0.0809472082 C18.1428108,0.0413490198 17.8480802,0.0253350465 17.5539192,0.0154354994 C16.9351275,-0.00581941057 16.316051,-0.0110603473 15.6975441,0.0387285514 C15.3743371,0.0646420718 15.0516998,0.0923025711 14.7296319,0.132191923 C14.3565913,0.178486864 13.9861136,0.239922288 13.6170598,0.311548423 C12.7977943,0.47023234 11.9950452,0.691225171 11.2105209,0.978020874 C8.24527553,2.06260361 5.76355905,3.85180117 3.77135154,6.34328424 C2.15930369,8.35900673 1.06153926,10.6399789 0.460402888,13.1698955 C0.340517331,13.6750635 0.244836695,14.1854725 0.174500038,14.7005401 C0.137765508,14.9692837 0.101600506,15.2380273 0.0802432214,15.5082267 C0.057177354,15.8011369 0.0247142813,16.0937558 0.0147475485,16.3872483 C-0.0145831225,17.2389005 -0.00433162583,18.0896792 0.083660387,18.9390021 C0.133494051,19.418839 0.197281141,19.8963466 0.283564571,20.370069 C0.421390248,21.1259285 0.609334353,21.8695592 0.846827359,22.5995052 C0.991202603,23.0426556 1.15123986,23.4799826 1.33064105,23.9097394 C1.345164,23.9443878 1.35883266,23.9781628 1.4009777,24 C1.43344078,23.9758335 1.46960578,23.9505023 1.50349267,23.9222594 C1.64103358,23.8075412 1.78683265,23.7050517 1.9406051,23.6150823 C2.10662239,23.5178338 2.27491779,23.4237881 2.44606083,23.3364392 C2.82223381,23.145145 3.21093639,22.982676 3.60476472,22.8333093 C4.89075802,22.3444463 6.21035345,21.9732133 7.54674994,21.6610864 C7.77626956,21.6075124 8.00835205,21.5641291 8.23872596,21.5134667 C8.28599675,21.503276 8.34124093,21.5041495 8.37740593,21.4476638 C8.35320101,21.3970014 8.3272875,21.3434274 8.30165876,21.2898534 C8.23701738,21.1544625 8.16781978,21.021401 8.1094432,20.8830985 C7.97104799,20.5564134 7.87906929,20.2174995 7.84859956,19.8605335 C7.82781181,19.6171211 7.84973862,19.3783673 7.89245319,19.1413605 C7.950545,18.8199164 8.07242391,18.5217653 8.21024958,18.228564 C8.31646648,18.0023303 8.45229881,17.7982249 8.61660752,17.612754 C8.67583839,17.5457864 8.73421497,17.4773631 8.79857158,17.4150542 C8.99078715,17.2287098 9.18214842,17.0403272 9.38091355,16.8606796 C9.73459018,16.5409824 10.1059222,16.2434137 10.4809561,15.9507947 C11.2193486,15.3742917 11.9771051,14.8257403 12.7431197,14.2885443 C14.15327,13.2994631 15.5890491,12.3505624 17.0328015,11.4138905 C17.5057942,11.1070045 17.9839126,10.8094358 18.4774082,10.5377806 C19.262502,10.1059856 20.0578473,9.6945721 20.8571793,9.29131114 C20.8902119,9.27442368 20.923814,9.25899203 20.9574161,9.24356038 C20.986462,9.23045804 21.0149384,9.23453433 21.0399976,9.25404226 C21.0633483,9.27209437 21.0861294,9.2916023 21.1077714,9.31198372 C21.485653,9.67157021 21.8626802,10.031739 22.1861719,10.4454819 C22.2644819,10.545642 22.3482025,10.6411435 22.4302145,10.7381008 C22.4638166,10.777699 22.4974187,10.8184619 22.5350076,10.8542749 C22.5614906,10.879315 22.5933841,10.8991141 22.6255624,10.9171662 C22.6597341,10.9360918 22.6961839,10.9323067 22.7320641,10.916875 C22.8137913,10.8822266 22.8445458,10.8114739 22.8078113,10.7351892 C22.7850302,10.6880208 22.7588319,10.6425993 22.7326336,10.5971779 C22.4689424,10.1432545 22.1901586,9.69952188 21.8732165,9.28257625 C21.8099989,9.19901242 21.7467814,9.1154486 21.6849876,9.03072012 C21.6633456,9.00131264 21.6465445,8.96812004 21.6246177,8.93172465 C21.6516703,8.90901392 21.6718885,8.88688552 21.6963782,8.87261853 C21.7413709,8.84699617 21.7889264,8.82603243 21.8353429,8.80303054 C23.3531339,8.05037379 24.8823155,7.32275708 26.4143447,6.60154596 C26.4544964,6.58262035 26.4955024,6.56515056 26.5359389,6.54768077 C26.5806468,6.52846401 26.6236461,6.53399611 26.6603807,6.56573289 C26.8073188,6.69122421 26.9542569,6.81700669 27.0994864,6.94482731 C27.1886175,7.02373253 27.2737619,7.10729635 27.3617539,7.18765738 C27.3888064,7.21298857 27.4169981,7.23744628 27.4468983,7.25957468 C27.4921757,7.29305844 27.5733334,7.29072913 27.6137698,7.25724537 C27.6502196,7.22667324 27.6673054,7.16407316 27.6513587,7.11253729 C27.642531,7.08371213 27.632849,7.05517815 27.6197499,7.02839114 C27.6032336,6.99461621 27.5833001,6.96287943 27.5647905,6.93056032 C27.4611364,6.74800102 27.3569129,6.56602405 27.2541132,6.3831736 C27.2358883,6.35056332 27.2207958,6.31591491 27.208551,6.28097533 C27.204849,6.26991113 27.2111138,6.2472004 27.2196568,6.24137714 C27.2694904,6.20993152 27.3193241,6.17790357 27.3725749,6.15344587 C27.8421504,5.93565583 28.3125802,5.71990394 28.7824405,5.50298739 C28.84936,5.4721241 28.9151404,5.43805801 28.9800665,5.40282727 C28.990318,5.39729517 28.9934504,5.37778724 29,5.36526722 C28.9925961,5.35216488 28.9871856,5.33760672 28.9772189,5.32654252 L28.9772189,5.32654252 Z M20.2074248,18.9567459 C20.2364028,18.9356009 20.2740744,18.911849 20.3071094,18.882304 C21.2239763,18.0727131 22.1228768,17.2445841 22.9429568,16.3347719 C23.3596618,15.8727692 23.7737588,15.4078699 24.1887251,14.9438396 C24.2287149,14.8989428 24.2678353,14.8534667 24.3034784,14.8053836 C24.321155,14.7816318 24.3272404,14.7503488 24.3159389,14.7196452 C24.3055068,14.6918381 24.2939156,14.6643207 24.281455,14.637093 C24.1577185,14.3636569 24.0255784,14.0948553 23.8583748,13.8445918 C23.8459142,13.8257641 23.8354821,13.8057778 23.8256296,13.7860811 C23.8120099,13.7588534 23.82505,13.7035289 23.8479427,13.6812253 C23.8870631,13.6432803 23.9337179,13.6189491 23.9873273,13.6163422 C24.0157259,13.6146042 24.0490507,13.6203974 24.0731025,13.6348802 C24.1238142,13.6661632 24.1739463,13.7006323 24.2171236,13.7411843 C24.3365134,13.8547298 24.4530053,13.9717512 24.569787,14.0887725 C24.606879,14.125559 24.6404936,14.1658213 24.677006,14.2037663 C24.7427863,14.2718357 24.7711848,14.2700977 24.8407322,14.1936283 C24.8757957,14.1548143 24.9099899,14.114552 24.9438942,14.074869 C25.5556218,13.3544924 26.1679289,12.6346951 26.7787872,11.9137391 C26.9871396,11.6675308 27.1925943,11.4192948 27.3983388,11.1707692 C27.4363001,11.1252931 27.4832446,11.0847412 27.4997621,11.0111683 C27.4890402,10.9859682 27.4762899,10.9512093 27.4597724,10.9184781 C27.4223906,10.8449053 27.3818213,10.7730704 27.3444395,10.6994975 C27.1569513,10.3307643 26.936428,9.98346574 26.6776536,9.66020868 C26.5602923,9.51422161 26.4464084,9.36504833 26.3313654,9.21703367 C26.2991997,9.17561274 26.2667442,9.1341918 26.2377661,9.09074327 C26.1980661,9.0307843 26.2096574,8.95431489 26.2623975,8.9065215 C26.3015179,8.87147302 26.3858442,8.86104538 26.4319194,8.88769381 C26.4577099,8.90275597 26.4829208,8.92013538 26.5043646,8.94041136 C26.9097681,9.31986186 27.3093761,9.70510549 27.6727614,10.1253976 C27.7608548,10.2273568 27.8431525,10.3345299 27.9280584,10.4388063 C27.9402292,10.4532892 27.9773211,10.4553168 27.9903613,10.4437305 C28.0068788,10.428958 28.0248452,10.4150545 28.039624,10.3982544 C28.0836707,10.3472748 28.1268481,10.2954262 28.1694459,10.2429983 C29.0022763,9.21906127 29.834817,8.19483458 30.6676474,7.17089755 C30.7145919,7.11296618 30.7566101,7.0504003 30.8171743,7 C30.8368794,7.01332422 30.8594824,7.02172427 30.8722327,7.03823471 C30.9139612,7.09095226 30.9527918,7.14627672 30.9910429,7.20189084 C32.1950827,8.95837008 33.0522547,10.8683675 33.5425641,12.942021 C33.6512319,13.4017064 33.7425129,13.8642885 33.8114808,14.3317946 C33.8705961,14.7323901 33.9169611,15.1338545 33.9494165,15.5376362 C33.9969406,16.1288259 34.0067932,16.7205948 33.9960713,17.3132328 C33.9894063,17.710642 33.9682523,18.1077616 33.9300012,18.5031432 C33.9001538,18.8165519 33.8604538,19.1285124 33.8146684,19.4401832 C33.7230976,20.0638144 33.5976225,20.6804939 33.4344758,21.2887733 C32.7094439,23.988665 31.406299,26.3751479 29.5189557,28.4380841 C27.7596956,30.3608264 25.6668977,31.8079521 23.2480962,32.7814888 C22.3491957,33.1432703 21.425374,33.4224995 20.4775006,33.6243903 C20.0958591,33.7054943 19.7124789,33.7755912 19.3267805,33.8300467 C19.0004871,33.8761021 18.6724551,33.9097023 18.3435537,33.9406956 C17.9694465,33.9754545 17.5947598,33.9821166 17.220073,33.9960201 C16.9879585,34.0041305 16.7552644,33.997758 16.5225703,33.9951511 C16.402601,33.9939925 16.2826317,33.9858821 16.1626624,33.9832752 C15.7801515,33.9754545 15.3996692,33.9380887 15.018897,33.8992747 C14.6456592,33.86104 14.2747395,33.8086121 13.9055586,33.743729 C13.2037092,33.6206248 12.5114225,33.4552307 11.8310169,33.2432019 C9.78226562,32.6053775 7.91723549,31.6202545 6.23679581,30.2858053 C6.1959367,30.2527844 6.15449802,30.2206325 6.11392869,30.1873219 C5.969328,30.0676936 5.95889589,30.0726178 6.10262723,29.9408239 C6.27997317,29.7783264 6.43500597,29.5949736 6.58453294,29.4066967 C6.80447667,29.1309433 7.00732333,28.8427348 7.20321525,28.549602 C7.62021002,27.9259708 8.00445955,27.2823532 8.37711784,26.6317839 C8.92451404,25.6753369 9.44177302,24.7020898 9.95004879,23.7244979 C9.99525461,23.6381802 10.0404604,23.5518624 10.087405,23.4667033 C10.1158035,23.4142754 10.1450714,23.4107995 10.1949137,23.4527998 C10.2580859,23.505807 10.3198093,23.5608418 10.3832713,23.6132697 C10.5626457,23.7618636 10.7510033,23.8980024 10.9544295,24.0115479 C11.2592791,24.1818661 11.5812257,24.2971495 11.9315709,24.3243773 C12.0361818,24.3324877 12.1407927,24.3408877 12.2454036,24.3466809 C12.2749613,24.3481291 12.3048087,24.3417567 12.3343664,24.3379911 C12.3624751,24.3345153 12.389135,24.2957012 12.3795722,24.272239 C12.3685605,24.2447216 12.3584182,24.2163353 12.3445087,24.1905558 C12.1462985,23.829064 11.9422928,23.4704688 11.7200308,23.1228806 C11.6273009,22.9774728 11.5284856,22.8361203 11.4119936,22.7078023 C11.3815666,22.6747814 11.3537477,22.6394433 11.3253491,22.6046844 C11.2476878,22.5108356 11.2749272,22.420173 11.3919987,22.3454416 C11.4177893,22.3292208 11.4516936,22.3309587 11.4783535,22.3463105 C11.5105192,22.3654279 11.5403666,22.3886004 11.5696345,22.411773 C11.7339403,22.5435668 11.8823081,22.6924505 12.0190847,22.8520514 C12.2384489,23.1083977 12.4543357,23.3679303 12.6679042,23.6289111 C12.7916407,23.7798224 12.9084224,23.9362371 13.0283917,24.0897552 C13.0515742,24.1190106 13.0750465,24.1485556 13.0993881,24.1772316 C13.1266275,24.2093835 13.1637194,24.2203905 13.1993625,24.205618 C13.2547106,24.1827351 13.3112179,24.1613005 13.3639581,24.1334934 C13.5169624,24.0541274 13.6711258,23.9762097 13.8197835,23.8893127 C14.3509519,23.5782212 14.8563299,23.2277364 15.3553327,22.8685619 C15.3848903,22.8471272 15.4098115,22.8193202 15.4318348,22.7987545 C15.4309655,22.725761 15.3976407,22.6744918 15.3718502,22.6211949 C15.2484035,22.3645589 15.1235079,22.1085022 14.9994817,21.8521559 C14.9864415,21.8255075 14.9725321,21.7985694 14.9638386,21.7698934 C14.9548554,21.740638 14.9623897,21.7113827 14.9789072,21.6844446 C15.0125218,21.6299891 15.0646824,21.602182 15.1223488,21.582775 C15.1527758,21.5723474 15.1846517,21.5772715 15.2066751,21.5987061 C15.2547787,21.6459202 15.3014334,21.6948722 15.3440312,21.7470105 C15.5063085,21.9439771 15.6761202,22.133992 15.8531763,22.3176345 C15.8838931,22.3494967 15.9180873,22.3781728 15.946196,22.4039522 C16.0192208,22.3941039 16.0623982,22.3500761 16.1090529,22.3141586 C16.4367951,22.0638951 16.7656965,21.8147902 17.090541,21.5601818 C17.9169962,20.912509 18.7278033,20.2454293 19.5255702,19.562708 C19.5713556,19.5236043 19.6154023,19.483342 19.659449,19.4425004 C19.6762563,19.4271486 19.6820519,19.3799345 19.67133,19.357631 C19.6551023,19.3240308 19.6388745,19.2904306 19.6209081,19.2574097 C19.4180615,18.8898351 19.2065214,18.5271847 18.9712193,18.1790172 C18.9500653,18.1477342 18.9286215,18.1173202 18.9086266,18.085458 C18.8599434,18.0098576 18.8721142,17.9498986 18.9480368,17.8931258 C18.9599178,17.8844361 18.9738273,17.878643 18.9871572,17.8714016 C19.0225105,17.8522842 19.0598922,17.8467807 19.0929273,17.8716912 C19.1465367,17.9125328 19.200436,17.9533745 19.2479601,18.0008782 C19.4392155,18.1917621 19.629022,18.3835149 19.8168,18.577585 C19.9159051,18.6798339 20.0095044,18.7872966 20.1057116,18.892442 C20.1309226,18.9196698 20.1558437,18.9480561 20.2074248,18.9567459 L20.2074248,18.9567459 Z" id="Fill-1"></path>
                    </g>
                </g>
            </g>
        </g>
    </g>
</svg>