<?xml version="1.0" encoding="utf-8"?>
<!-- Generator: Adobe Illustrator 21.1.0, SVG Export Plug-In . SVG Version: 6.00 Build 0)  -->
<svg version="1.1" id="Слой_1" xmlns="http://www.w3.org/2000/svg" xmlns:xlink="http://www.w3.org/1999/xlink" x="0px" y="0px"
	 viewBox="0 0 34 34" style="enable-background:new 0 0 34 34;" xml:space="preserve">
<style type="text/css">
	.st0{fill:#FF6134;}
</style>
<title>Fill 1</title>
<desc>Created with Sketch.</desc>
<g id="Page-1_1_">
	<g id="_x31__x5F_desktop_x5F_1400_x5F_main" transform="translate(-50.000000, -18.000000)">
		<g id="menu">
			<g id="Group-9" transform="translate(50.000000, 10.000000)">
				<g id="Page-1" transform="translate(0.000000, 8.000000)">
					<path id="Fill-1" class="st0" d="M6,27.8c0.1,0.1,0.3,0.2,0.4,0.3l0,0l0,0V28c0.2-0.3,0.3-0.5,0.5-0.8c0,0,0.1-0.1,0-0.1
						c-0.1,0-0.2,0.1-0.2,0.2c-0.1,0.1-0.2,0.1-0.2,0.2c-0.1,0-0.2,0-0.3,0.1C6.1,27.7,6,27.7,6,27.8L6,27.8L6,27.8z M10.5,18.3
						C10.5,18.3,10.5,18.4,10.5,18.3c0.2,0.3,0.3,0.5,0.5,0.7c0.1,0.2,0.2,0.4,0.3,0.6c0,0,0,0.1,0.1,0.1c0,0,0,0,0.1,0
						c0,0,0.1-0.1,0-0.2c0-0.1,0-0.1-0.1-0.2c0-0.1-0.1-0.2-0.1-0.3c-0.2-0.4-0.3-0.7-0.5-1c0,0,0,0,0-0.1s-0.1-0.1-0.2,0
						c0,0-0.1,0.1-0.1,0.2C10.5,18.2,10.5,18.3,10.5,18.3L10.5,18.3z M18,13.4c-0.1,0.1-0.1,0.3,0,0.4c0,0,0,0,0,0.1
						c0.1,0.1,0.2,0.2,0.3,0.4c0.1,0.2,0.2,0.4,0.3,0.6c0,0.1,0.1,0.2,0.1,0.3v0.1h0.1v-0.1V15c-0.1-0.3-0.2-0.6-0.3-0.9
						c-0.1-0.1-0.1-0.3-0.2-0.4C18.3,13.7,18.2,13.6,18,13.4L18,13.4C18.1,13.3,18,13.3,18,13.4L18,13.4z M6.8,25.4L6.8,25.4
						C6.7,25.4,6.7,25.4,6.8,25.4c-0.2,0.1-0.4,0.2-0.5,0.3c-0.4,0.4-0.9,0.7-1.2,1c0,0,0,0-0.1,0v0.1c0.1,0.1,0.2,0.2,0.3,0.4l0,0
						c0,0,0,0,0.1-0.1c0.1-0.2,0.2-0.3,0.3-0.5C6.1,26.2,6.4,25.7,6.8,25.4L6.8,25.4L6.8,25.4z M13.4,15.2c-0.1,0.1-0.2,0.3,0,0.4
						c0,0,0.1,0,0.1,0.1c0.2,0.1,0.3,0.2,0.5,0.3c0.2,0.2,0.4,0.4,0.6,0.6c0.1,0.1,0.2,0.3,0.4,0.4L15,17c0,0,0.1,0,0.2,0l0.1-0.1
						c0,0,0-0.1-0.1-0.1c-0.2-0.3-0.4-0.6-0.6-0.8c-0.1-0.2-0.3-0.3-0.4-0.5c-0.1-0.1-0.2-0.2-0.3-0.3c-0.1,0-0.1-0.1-0.2-0.1
						C13.5,15.1,13.5,15.1,13.4,15.2L13.4,15.2z M5,23.4L5,23.4c-0.1,0-0.3,0.1-0.4,0.1c-0.3,0.1-0.5,0.2-0.8,0.3
						c-0.2,0-0.4,0.1-0.6,0.1H3.2l0,0c0.1,0.1,0.2,0.3,0.3,0.4c0,0,0,0,0.1,0c0.1-0.1,0.2-0.1,0.3-0.2c0.3-0.2,0.7-0.4,1-0.6
						C4.8,23.6,4.9,23.5,5,23.4C5,23.5,5,23.5,5,23.4L5,23.4L5,23.4z M28.1,6.3L28.1,6.3c-1-1-2-1.8-3.1-2.6c-1.9-1.2-4-2-6.2-2.2
						c-0.1,0-0.3,0-0.4-0.1c-0.3,0-0.6-0.1-0.9-0.1c-0.6,0-1.1,0-1.7,0c-0.3,0-0.6,0.1-0.9,0.1c-0.4,0-0.7,0.1-1,0.2
						c-0.9,0.2-1.6,0.4-2.3,0.7c-2.8,1-5.1,2.6-6.9,5c-1.5,1.9-2.5,4-3.1,6.3c-0.1,0.5-0.2,1-0.3,1.4c0,0.3-0.1,0.5-0.1,0.8
						s-0.1,0.6-0.1,0.9c0,0.8,0,1.5,0.1,2.4c0,0.5,0.1,0.9,0.2,1.3c0.1,0.6,0.3,1.2,0.5,1.9c0.1,0.4,0.3,0.9,0.5,1.2
						c0,0,0,0.1,0.1,0.1c0,0,0.1,0,0.1-0.1c0.1-0.1,0.3-0.2,0.4-0.3c0.2-0.1,0.3-0.2,0.5-0.3c0.4-0.2,0.7-0.3,1-0.5
						c1.1-0.5,2.4-0.8,3.6-1c0.2-0.1,0.4-0.1,0.7-0.1c0,0,0.1,0,0.1-0.1c0,0,0-0.1-0.1-0.2s-0.1-0.3-0.2-0.4c-0.1-0.3-0.2-0.6-0.3-1
						c0-0.2,0-0.5,0-0.7c0.1-0.3,0.2-0.6,0.3-0.9c0.1-0.2,0.2-0.4,0.4-0.6c0.1-0.1,0.1-0.1,0.2-0.2c0.2-0.2,0.4-0.4,0.6-0.5
						c0.3-0.3,0.7-0.6,1-0.9c0.7-0.6,1.3-1,2.1-1.5c1.3-1,2.7-1.8,4-2.7c0.5-0.3,0.9-0.6,1.3-0.8c0.8-0.4,1.4-0.8,2.2-1.1h0.1h0.1
						c0,0,0,0,0.1,0.1c0.4,0.3,0.7,0.7,1,1c0.1,0.1,0.2,0.2,0.2,0.3l0.1,0.1c0,0,0.1,0,0.1,0.1h0.1c0.1,0,0.1-0.1,0.1-0.2
						c0,0,0-0.1-0.1-0.1c-0.3-0.4-0.5-0.9-0.8-1.2c-0.1-0.1-0.1-0.2-0.2-0.2c0,0,0-0.1-0.1-0.1c0,0,0,0,0.1-0.1c0,0,0.1,0,0.1-0.1
						c1.4-0.8,2.9-1.4,4.3-2.1c0,0,0.1,0,0.1-0.1h0.1c0.1,0.1,0.3,0.2,0.4,0.4c0.1,0.1,0.2,0.2,0.3,0.2c0,0,0.1,0,0.1,0.1
						c0,0,0.1,0,0.2,0c0,0,0.1-0.1,0-0.1V7.8c0,0,0-0.1-0.1-0.1c-0.1-0.2-0.2-0.3-0.3-0.5V7.1l0,0L26.6,7c0.5-0.2,0.9-0.4,1.3-0.6
						C27.9,6.4,28,6.4,28.1,6.3L28.1,6.3L28.1,6.3L28.1,6.3z M20,18.9C20,18.8,20,18.8,20,18.9c1-0.9,1.8-1.6,2.5-2.4
						c0.4-0.4,0.8-0.9,1.1-1.2l0.1-0.1V15v-0.1c-0.1-0.3-0.2-0.5-0.4-0.8c0,0,0,0,0-0.1V14l0.1-0.1h0.1l0.1,0.1
						c0.1,0.1,0.2,0.2,0.3,0.3l0.1,0.1c0.1,0.1,0.1,0.1,0.2,0l0.1-0.1c0.6-0.7,1.1-1.3,1.7-2c0.2-0.2,0.4-0.5,0.6-0.7
						c0,0,0.1-0.1,0.1-0.2v-0.1c0-0.1-0.1-0.1-0.1-0.2c-0.2-0.4-0.4-0.7-0.6-1c-0.1-0.1-0.2-0.3-0.3-0.4l-0.1-0.1c0-0.1,0-0.1,0-0.2
						c0,0,0.1,0,0.2,0c0,0,0,0,0.1,0.1c0.4,0.4,0.8,0.7,1,1c0.1,0.1,0.2,0.2,0.2,0.3c0,0,0,0,0.1,0l0,0c0,0,0.1-0.1,0.1-0.2
						c0.8-1,1.5-1.9,2.3-2.9c0-0.1,0.1-0.1,0.1-0.2c0,0,0,0,0.1,0c0,0.1,0.1,0.1,0.1,0.2c1.1,1.6,1.9,3.3,2.4,5.3
						c0.1,0.4,0.2,0.9,0.3,1.2c0.1,0.4,0.1,0.8,0.1,1.1c0,0.6,0.1,1,0,1.6c0,0.4,0,0.8-0.1,1.1c0,0.3-0.1,0.6-0.1,0.9
						c-0.1,0.6-0.2,1.1-0.4,1.7c-0.7,2.5-1.9,4.7-3.6,6.6c-1.6,1.8-3.5,3.1-5.8,4c-0.9,0.4-1.7,0.6-2.6,0.8c-0.4,0.1-0.7,0.1-1,0.2
						c-0.3,0-0.6,0.1-1,0.1c-0.4,0-0.7,0-1,0.1c-0.2,0-0.4,0-0.7,0c-0.1,0-0.2,0-0.3,0c-0.4,0-0.7,0-1-0.1c-0.4,0-0.7-0.1-1-0.2
						c-0.7-0.1-1.2-0.3-1.9-0.5c-1.9-0.6-3.6-1.5-5.2-2.8l-0.1-0.1c-0.1-0.1-0.2-0.1,0-0.2c0.2-0.2,0.3-0.3,0.5-0.5
						c0.2-0.3,0.4-0.5,0.6-0.8c0.4-0.6,0.8-1.1,1-1.8c0.5-0.9,1-1.8,1.4-2.7c0-0.1,0.1-0.2,0.1-0.2c0-0.1,0.1-0.1,0.1,0
						c0.1,0.1,0.1,0.1,0.2,0.2c0.2,0.1,0.4,0.3,0.6,0.4c0.3,0.2,0.6,0.3,0.9,0.3c0.1,0,0.2,0,0.3,0h0.1c0,0,0.1,0,0-0.1v-0.1
						c-0.2-0.3-0.4-0.7-0.6-1c-0.1-0.1-0.2-0.3-0.3-0.4l-0.1-0.1c-0.1-0.1,0-0.2,0.1-0.3h0.1c0,0,0.1,0,0.1,0.1
						c0.2,0.1,0.3,0.3,0.4,0.4c0.2,0.2,0.4,0.5,0.6,0.8c0.1,0.1,0.2,0.3,0.3,0.4c0,0,0,0.1,0.1,0.1h0.1c0.1,0,0.1,0,0.2-0.1
						c0.1-0.1,0.3-0.2,0.4-0.2c0.5-0.3,1-0.6,1.4-1c0,0,0.1,0,0.1-0.1c0-0.1,0-0.1-0.1-0.2c-0.1-0.2-0.2-0.5-0.4-0.7v-0.1v-0.1
						c0-0.1,0.1-0.1,0.1-0.1h0.1l0.1,0.1c0.2,0.2,0.3,0.4,0.5,0.6l0.1,0.1c0.1,0,0.1-0.1,0.2-0.1c0.3-0.2,0.6-0.5,0.9-0.7
						c0.8-0.6,1.5-1.2,2.3-1.8l0.1-0.1v-0.1v-0.1c-0.2-0.4-0.4-0.7-0.6-1c0,0,0-0.1-0.1-0.1c0-0.1,0-0.1,0-0.2l0,0h0.1
						c0.1,0,0.1,0.1,0.2,0.1c0.2,0.2,0.4,0.4,0.6,0.6C19.7,18.6,19.8,18.7,20,18.9C19.9,18.8,19.9,18.8,20,18.9L20,18.9z"/>
				</g>
			</g>
		</g>
	</g>
</g>
</svg>
